<?xml version="1.0" encoding="utf-8" standalone="no"?>
<!DOCTYPE svg PUBLIC "-//W3C//DTD SVG 1.1//EN"
  "http://www.w3.org/Graphics/SVG/1.1/DTD/svg11.dtd">
<svg xmlns:xlink="http://www.w3.org/1999/xlink" width="560.853351pt" height="147.243438pt" viewBox="0 0 560.853351 147.243438" xmlns="http://www.w3.org/2000/svg" version="1.1">
 <metadata>
  <rdf:RDF xmlns:dc="http://purl.org/dc/elements/1.1/" xmlns:cc="http://creativecommons.org/ns#" xmlns:rdf="http://www.w3.org/1999/02/22-rdf-syntax-ns#">
   <cc:Work>
    <dc:type rdf:resource="http://purl.org/dc/dcmitype/StillImage"/>
    <dc:date>2022-12-21T23:25:32.556395</dc:date>
    <dc:format>image/svg+xml</dc:format>
    <dc:creator>
     <cc:Agent>
      <dc:title>Matplotlib v3.5.1, https://matplotlib.org/</dc:title>
     </cc:Agent>
    </dc:creator>
   </cc:Work>
  </rdf:RDF>
 </metadata>
 <defs>
  <style type="text/css">*{stroke-linejoin: round; stroke-linecap: butt}</style>
 </defs>
 <g id="figure_1">
  <g id="patch_1">
   <path d="M 0 147.243438 
L 560.853351 147.243438 
L 560.853351 0 
L 0 0 
L 0 147.243438 
z
" style="fill: none"/>
  </g>
  <g id="axes_1">
   <g id="patch_2">
    <path d="M 46.182813 110.51375 
L 176.851427 110.51375 
L 176.851427 27.48625 
L 46.182813 27.48625 
L 46.182813 110.51375 
z
" style="fill: none"/>
   </g>
   <g id="PolyCollection_1">
    <defs>
     <path id="ma03608b0eb" d="M 52.122295 -17.048916 
L 52.122295 -43.787597 
L 54.546574 -44.708777 
L 56.970852 -45.629957 
L 59.395131 -46.551137 
L 61.819409 -47.66681 
L 64.243688 -48.795471 
L 66.667966 -49.792583 
L 69.092245 -50.789695 
L 71.516524 -51.786807 
L 73.940802 -52.783919 
L 76.365081 -53.781031 
L 78.789359 -54.778143 
L 81.213638 -55.901097 
L 83.637916 -57.12846 
L 86.062195 -58.34762 
L 88.486474 -59.563623 
L 90.910752 -60.570739 
L 93.335031 -62.075351 
L 95.759309 -63.447033 
L 98.183588 -64.486096 
L 100.607866 -65.968868 
L 103.032145 -67.458973 
L 105.456424 -68.651889 
L 107.880702 -69.699679 
L 110.304981 -71.49191 
L 112.729259 -72.917544 
L 115.153538 -74.577827 
L 117.577816 -75.949707 
L 120.002095 -77.889197 
L 122.426374 -79.558502 
L 124.850652 -81.104975 
L 127.274931 -81.683428 
L 129.699209 -83.08701 
L 132.123488 -84.620021 
L 134.547766 -86.318675 
L 136.972045 -88.03238 
L 139.396324 -89.746085 
L 141.820602 -91.446945 
L 144.244881 -92.95192 
L 146.669159 -94.456895 
L 149.093438 -95.96187 
L 151.517716 -97.466845 
L 153.941995 -99.425524 
L 156.366274 -101.567675 
L 158.790552 -103.500035 
L 161.214831 -105.230078 
L 163.639109 -106.952653 
L 166.063388 -108.668326 
L 168.487666 -110.383853 
L 170.911945 -112.099381 
L 170.911945 -76.224405 
L 170.911945 -76.224405 
L 168.487666 -75.368407 
L 166.063388 -74.512408 
L 163.639109 -73.65641 
L 161.214831 -72.800411 
L 158.790552 -71.944413 
L 156.366274 -71.088414 
L 153.941995 -70.232415 
L 151.517716 -69.376417 
L 149.093438 -68.520418 
L 146.669159 -67.66442 
L 144.244881 -66.808421 
L 141.820602 -65.952423 
L 139.396324 -65.096424 
L 136.972045 -64.240426 
L 134.547766 -63.384427 
L 132.123488 -62.528429 
L 129.699209 -61.67243 
L 127.274931 -60.816431 
L 124.850652 -59.960433 
L 122.426374 -59.076208 
L 120.002095 -57.650829 
L 117.577816 -56.432864 
L 115.153538 -54.928797 
L 112.729259 -53.490093 
L 110.304981 -52.008473 
L 107.880702 -50.52762 
L 105.456424 -49.045545 
L 103.032145 -47.563448 
L 100.607866 -46.080561 
L 98.183588 -45.329476 
L 95.759309 -44.916724 
L 93.335031 -44.42564 
L 90.910752 -43.73339 
L 88.486474 -42.49594 
L 86.062195 -41.026715 
L 83.637916 -39.383066 
L 81.213638 -38.039994 
L 78.789359 -36.551381 
L 76.365081 -35.058318 
L 73.940802 -33.373795 
L 71.516524 -31.687592 
L 69.092245 -29.956827 
L 66.667966 -28.170395 
L 64.243688 -26.30633 
L 61.819409 -24.452419 
L 59.395131 -22.601273 
L 56.970852 -20.633969 
L 54.546574 -18.899723 
L 52.122295 -17.048916 
z
" style="stroke: #ffdb89; stroke-opacity: 0.3"/>
    </defs>
    <g clip-path="url(#pd9d3690d67)">
     <use xlink:href="#ma03608b0eb" x="0" y="147.243438" style="fill: #ffdb89; fill-opacity: 0.3; stroke: #ffdb89; stroke-opacity: 0.3"/>
    </g>
   </g>
   <g id="matplotlib.axis_1">
    <g id="xtick_1">
     <g id="line2d_1">
      <defs>
       <path id="m5f510fb44f" d="M 0 0 
L 0 3.5 
" style="stroke: #000000; stroke-width: 0.8"/>
      </defs>
      <g>
       <use xlink:href="#m5f510fb44f" x="52.122295" y="110.51375" style="stroke: #000000; stroke-width: 0.8"/>
      </g>
     </g>
     <g id="text_1">
      <!-- 0 -->
      <g transform="translate(49.341826 124.671563)scale(0.1 -0.1)">
       <defs>
        <path id="ArialMT-30" d="M 266 2259 
Q 266 3072 433 3567 
Q 600 4063 929 4331 
Q 1259 4600 1759 4600 
Q 2128 4600 2406 4451 
Q 2684 4303 2865 4023 
Q 3047 3744 3150 3342 
Q 3253 2941 3253 2259 
Q 3253 1453 3087 958 
Q 2922 463 2592 192 
Q 2263 -78 1759 -78 
Q 1097 -78 719 397 
Q 266 969 266 2259 
z
M 844 2259 
Q 844 1131 1108 757 
Q 1372 384 1759 384 
Q 2147 384 2411 759 
Q 2675 1134 2675 2259 
Q 2675 3391 2411 3762 
Q 2147 4134 1753 4134 
Q 1366 4134 1134 3806 
Q 844 3388 844 2259 
z
" transform="scale(0.015625)"/>
       </defs>
       <use xlink:href="#ArialMT-30"/>
      </g>
     </g>
    </g>
    <g id="xtick_2">
     <g id="line2d_2">
      <g>
       <use xlink:href="#m5f510fb44f" x="64.00126" y="110.51375" style="stroke: #000000; stroke-width: 0.8"/>
      </g>
     </g>
     <g id="text_2">
      <!-- 24 -->
      <g transform="translate(58.440322 124.671563)scale(0.1 -0.1)">
       <defs>
        <path id="ArialMT-32" d="M 3222 541 
L 3222 0 
L 194 0 
Q 188 203 259 391 
Q 375 700 629 1000 
Q 884 1300 1366 1694 
Q 2113 2306 2375 2664 
Q 2638 3022 2638 3341 
Q 2638 3675 2398 3904 
Q 2159 4134 1775 4134 
Q 1369 4134 1125 3890 
Q 881 3647 878 3216 
L 300 3275 
Q 359 3922 746 4261 
Q 1134 4600 1788 4600 
Q 2447 4600 2831 4234 
Q 3216 3869 3216 3328 
Q 3216 3053 3103 2787 
Q 2991 2522 2730 2228 
Q 2469 1934 1863 1422 
Q 1356 997 1212 845 
Q 1069 694 975 541 
L 3222 541 
z
" transform="scale(0.015625)"/>
        <path id="ArialMT-34" d="M 2069 0 
L 2069 1097 
L 81 1097 
L 81 1613 
L 2172 4581 
L 2631 4581 
L 2631 1613 
L 3250 1613 
L 3250 1097 
L 2631 1097 
L 2631 0 
L 2069 0 
z
M 2069 1613 
L 2069 3678 
L 634 1613 
L 2069 1613 
z
" transform="scale(0.015625)"/>
       </defs>
       <use xlink:href="#ArialMT-32"/>
       <use xlink:href="#ArialMT-34" x="55.615234"/>
      </g>
     </g>
    </g>
    <g id="xtick_3">
     <g id="line2d_3">
      <g>
       <use xlink:href="#m5f510fb44f" x="75.880225" y="110.51375" style="stroke: #000000; stroke-width: 0.8"/>
      </g>
     </g>
     <g id="text_3">
      <!-- 48 -->
      <g transform="translate(70.319287 124.671563)scale(0.1 -0.1)">
       <defs>
        <path id="ArialMT-38" d="M 1131 2484 
Q 781 2613 612 2850 
Q 444 3088 444 3419 
Q 444 3919 803 4259 
Q 1163 4600 1759 4600 
Q 2359 4600 2725 4251 
Q 3091 3903 3091 3403 
Q 3091 3084 2923 2848 
Q 2756 2613 2416 2484 
Q 2838 2347 3058 2040 
Q 3278 1734 3278 1309 
Q 3278 722 2862 322 
Q 2447 -78 1769 -78 
Q 1091 -78 675 323 
Q 259 725 259 1325 
Q 259 1772 486 2073 
Q 713 2375 1131 2484 
z
M 1019 3438 
Q 1019 3113 1228 2906 
Q 1438 2700 1772 2700 
Q 2097 2700 2305 2904 
Q 2513 3109 2513 3406 
Q 2513 3716 2298 3927 
Q 2084 4138 1766 4138 
Q 1444 4138 1231 3931 
Q 1019 3725 1019 3438 
z
M 838 1322 
Q 838 1081 952 856 
Q 1066 631 1291 507 
Q 1516 384 1775 384 
Q 2178 384 2440 643 
Q 2703 903 2703 1303 
Q 2703 1709 2433 1975 
Q 2163 2241 1756 2241 
Q 1359 2241 1098 1978 
Q 838 1716 838 1322 
z
" transform="scale(0.015625)"/>
       </defs>
       <use xlink:href="#ArialMT-34"/>
       <use xlink:href="#ArialMT-38" x="55.615234"/>
      </g>
     </g>
    </g>
    <g id="xtick_4">
     <g id="line2d_4">
      <g>
       <use xlink:href="#m5f510fb44f" x="99.638155" y="110.51375" style="stroke: #000000; stroke-width: 0.8"/>
      </g>
     </g>
     <g id="text_4">
      <!-- 96 -->
      <g transform="translate(94.077217 124.671563)scale(0.1 -0.1)">
       <defs>
        <path id="ArialMT-39" d="M 350 1059 
L 891 1109 
Q 959 728 1153 556 
Q 1347 384 1650 384 
Q 1909 384 2104 503 
Q 2300 622 2425 820 
Q 2550 1019 2634 1356 
Q 2719 1694 2719 2044 
Q 2719 2081 2716 2156 
Q 2547 1888 2255 1720 
Q 1963 1553 1622 1553 
Q 1053 1553 659 1965 
Q 266 2378 266 3053 
Q 266 3750 677 4175 
Q 1088 4600 1706 4600 
Q 2153 4600 2523 4359 
Q 2894 4119 3086 3673 
Q 3278 3228 3278 2384 
Q 3278 1506 3087 986 
Q 2897 466 2520 194 
Q 2144 -78 1638 -78 
Q 1100 -78 759 220 
Q 419 519 350 1059 
z
M 2653 3081 
Q 2653 3566 2395 3850 
Q 2138 4134 1775 4134 
Q 1400 4134 1122 3828 
Q 844 3522 844 3034 
Q 844 2597 1108 2323 
Q 1372 2050 1759 2050 
Q 2150 2050 2401 2323 
Q 2653 2597 2653 3081 
z
" transform="scale(0.015625)"/>
        <path id="ArialMT-36" d="M 3184 3459 
L 2625 3416 
Q 2550 3747 2413 3897 
Q 2184 4138 1850 4138 
Q 1581 4138 1378 3988 
Q 1113 3794 959 3422 
Q 806 3050 800 2363 
Q 1003 2672 1297 2822 
Q 1591 2972 1913 2972 
Q 2475 2972 2870 2558 
Q 3266 2144 3266 1488 
Q 3266 1056 3080 686 
Q 2894 316 2569 119 
Q 2244 -78 1831 -78 
Q 1128 -78 684 439 
Q 241 956 241 2144 
Q 241 3472 731 4075 
Q 1159 4600 1884 4600 
Q 2425 4600 2770 4297 
Q 3116 3994 3184 3459 
z
M 888 1484 
Q 888 1194 1011 928 
Q 1134 663 1356 523 
Q 1578 384 1822 384 
Q 2178 384 2434 671 
Q 2691 959 2691 1453 
Q 2691 1928 2437 2201 
Q 2184 2475 1800 2475 
Q 1419 2475 1153 2201 
Q 888 1928 888 1484 
z
" transform="scale(0.015625)"/>
       </defs>
       <use xlink:href="#ArialMT-39"/>
       <use xlink:href="#ArialMT-36" x="55.615234"/>
      </g>
     </g>
    </g>
    <g id="xtick_5">
     <g id="line2d_5">
      <g>
       <use xlink:href="#m5f510fb44f" x="123.396085" y="110.51375" style="stroke: #000000; stroke-width: 0.8"/>
      </g>
     </g>
     <g id="text_5">
      <!-- 144 -->
      <g transform="translate(115.054679 124.671563)scale(0.1 -0.1)">
       <defs>
        <path id="ArialMT-31" d="M 2384 0 
L 1822 0 
L 1822 3584 
Q 1619 3391 1289 3197 
Q 959 3003 697 2906 
L 697 3450 
Q 1169 3672 1522 3987 
Q 1875 4303 2022 4600 
L 2384 4600 
L 2384 0 
z
" transform="scale(0.015625)"/>
       </defs>
       <use xlink:href="#ArialMT-31"/>
       <use xlink:href="#ArialMT-34" x="55.615234"/>
       <use xlink:href="#ArialMT-34" x="111.230469"/>
      </g>
     </g>
    </g>
    <g id="xtick_6">
     <g id="line2d_6">
      <g>
       <use xlink:href="#m5f510fb44f" x="147.154015" y="110.51375" style="stroke: #000000; stroke-width: 0.8"/>
      </g>
     </g>
     <g id="text_6">
      <!-- 192 -->
      <g transform="translate(138.812609 124.671563)scale(0.1 -0.1)">
       <use xlink:href="#ArialMT-31"/>
       <use xlink:href="#ArialMT-39" x="55.615234"/>
       <use xlink:href="#ArialMT-32" x="111.230469"/>
      </g>
     </g>
    </g>
    <g id="xtick_7">
     <g id="line2d_7">
      <g>
       <use xlink:href="#m5f510fb44f" x="170.911945" y="110.51375" style="stroke: #000000; stroke-width: 0.8"/>
      </g>
     </g>
     <g id="text_7">
      <!-- 240 -->
      <g transform="translate(162.570539 124.671563)scale(0.1 -0.1)">
       <use xlink:href="#ArialMT-32"/>
       <use xlink:href="#ArialMT-34" x="55.615234"/>
       <use xlink:href="#ArialMT-30" x="111.230469"/>
      </g>
     </g>
    </g>
    <g id="text_8">
     <!-- Time in captivity (hours) -->
     <g transform="translate(58.638995 137.93875)scale(0.1 -0.1)">
      <defs>
       <path id="ArialMT-54" d="M 1659 0 
L 1659 4041 
L 150 4041 
L 150 4581 
L 3781 4581 
L 3781 4041 
L 2266 4041 
L 2266 0 
L 1659 0 
z
" transform="scale(0.015625)"/>
       <path id="ArialMT-69" d="M 425 3934 
L 425 4581 
L 988 4581 
L 988 3934 
L 425 3934 
z
M 425 0 
L 425 3319 
L 988 3319 
L 988 0 
L 425 0 
z
" transform="scale(0.015625)"/>
       <path id="ArialMT-6d" d="M 422 0 
L 422 3319 
L 925 3319 
L 925 2853 
Q 1081 3097 1340 3245 
Q 1600 3394 1931 3394 
Q 2300 3394 2536 3241 
Q 2772 3088 2869 2813 
Q 3263 3394 3894 3394 
Q 4388 3394 4653 3120 
Q 4919 2847 4919 2278 
L 4919 0 
L 4359 0 
L 4359 2091 
Q 4359 2428 4304 2576 
Q 4250 2725 4106 2815 
Q 3963 2906 3769 2906 
Q 3419 2906 3187 2673 
Q 2956 2441 2956 1928 
L 2956 0 
L 2394 0 
L 2394 2156 
Q 2394 2531 2256 2718 
Q 2119 2906 1806 2906 
Q 1569 2906 1367 2781 
Q 1166 2656 1075 2415 
Q 984 2175 984 1722 
L 984 0 
L 422 0 
z
" transform="scale(0.015625)"/>
       <path id="ArialMT-65" d="M 2694 1069 
L 3275 997 
Q 3138 488 2766 206 
Q 2394 -75 1816 -75 
Q 1088 -75 661 373 
Q 234 822 234 1631 
Q 234 2469 665 2931 
Q 1097 3394 1784 3394 
Q 2450 3394 2872 2941 
Q 3294 2488 3294 1666 
Q 3294 1616 3291 1516 
L 816 1516 
Q 847 969 1125 678 
Q 1403 388 1819 388 
Q 2128 388 2347 550 
Q 2566 713 2694 1069 
z
M 847 1978 
L 2700 1978 
Q 2663 2397 2488 2606 
Q 2219 2931 1791 2931 
Q 1403 2931 1139 2672 
Q 875 2413 847 1978 
z
" transform="scale(0.015625)"/>
       <path id="ArialMT-20" transform="scale(0.015625)"/>
       <path id="ArialMT-6e" d="M 422 0 
L 422 3319 
L 928 3319 
L 928 2847 
Q 1294 3394 1984 3394 
Q 2284 3394 2536 3286 
Q 2788 3178 2913 3003 
Q 3038 2828 3088 2588 
Q 3119 2431 3119 2041 
L 3119 0 
L 2556 0 
L 2556 2019 
Q 2556 2363 2490 2533 
Q 2425 2703 2258 2804 
Q 2091 2906 1866 2906 
Q 1506 2906 1245 2678 
Q 984 2450 984 1813 
L 984 0 
L 422 0 
z
" transform="scale(0.015625)"/>
       <path id="ArialMT-63" d="M 2588 1216 
L 3141 1144 
Q 3050 572 2676 248 
Q 2303 -75 1759 -75 
Q 1078 -75 664 370 
Q 250 816 250 1647 
Q 250 2184 428 2587 
Q 606 2991 970 3192 
Q 1334 3394 1763 3394 
Q 2303 3394 2647 3120 
Q 2991 2847 3088 2344 
L 2541 2259 
Q 2463 2594 2264 2762 
Q 2066 2931 1784 2931 
Q 1359 2931 1093 2626 
Q 828 2322 828 1663 
Q 828 994 1084 691 
Q 1341 388 1753 388 
Q 2084 388 2306 591 
Q 2528 794 2588 1216 
z
" transform="scale(0.015625)"/>
       <path id="ArialMT-61" d="M 2588 409 
Q 2275 144 1986 34 
Q 1697 -75 1366 -75 
Q 819 -75 525 192 
Q 231 459 231 875 
Q 231 1119 342 1320 
Q 453 1522 633 1644 
Q 813 1766 1038 1828 
Q 1203 1872 1538 1913 
Q 2219 1994 2541 2106 
Q 2544 2222 2544 2253 
Q 2544 2597 2384 2738 
Q 2169 2928 1744 2928 
Q 1347 2928 1158 2789 
Q 969 2650 878 2297 
L 328 2372 
Q 403 2725 575 2942 
Q 747 3159 1072 3276 
Q 1397 3394 1825 3394 
Q 2250 3394 2515 3294 
Q 2781 3194 2906 3042 
Q 3031 2891 3081 2659 
Q 3109 2516 3109 2141 
L 3109 1391 
Q 3109 606 3145 398 
Q 3181 191 3288 0 
L 2700 0 
Q 2613 175 2588 409 
z
M 2541 1666 
Q 2234 1541 1622 1453 
Q 1275 1403 1131 1340 
Q 988 1278 909 1158 
Q 831 1038 831 891 
Q 831 666 1001 516 
Q 1172 366 1500 366 
Q 1825 366 2078 508 
Q 2331 650 2450 897 
Q 2541 1088 2541 1459 
L 2541 1666 
z
" transform="scale(0.015625)"/>
       <path id="ArialMT-70" d="M 422 -1272 
L 422 3319 
L 934 3319 
L 934 2888 
Q 1116 3141 1344 3267 
Q 1572 3394 1897 3394 
Q 2322 3394 2647 3175 
Q 2972 2956 3137 2557 
Q 3303 2159 3303 1684 
Q 3303 1175 3120 767 
Q 2938 359 2589 142 
Q 2241 -75 1856 -75 
Q 1575 -75 1351 44 
Q 1128 163 984 344 
L 984 -1272 
L 422 -1272 
z
M 931 1641 
Q 931 1000 1190 694 
Q 1450 388 1819 388 
Q 2194 388 2461 705 
Q 2728 1022 2728 1688 
Q 2728 2322 2467 2637 
Q 2206 2953 1844 2953 
Q 1484 2953 1207 2617 
Q 931 2281 931 1641 
z
" transform="scale(0.015625)"/>
       <path id="ArialMT-74" d="M 1650 503 
L 1731 6 
Q 1494 -44 1306 -44 
Q 1000 -44 831 53 
Q 663 150 594 308 
Q 525 466 525 972 
L 525 2881 
L 113 2881 
L 113 3319 
L 525 3319 
L 525 4141 
L 1084 4478 
L 1084 3319 
L 1650 3319 
L 1650 2881 
L 1084 2881 
L 1084 941 
Q 1084 700 1114 631 
Q 1144 563 1211 522 
Q 1278 481 1403 481 
Q 1497 481 1650 503 
z
" transform="scale(0.015625)"/>
       <path id="ArialMT-76" d="M 1344 0 
L 81 3319 
L 675 3319 
L 1388 1331 
Q 1503 1009 1600 663 
Q 1675 925 1809 1294 
L 2547 3319 
L 3125 3319 
L 1869 0 
L 1344 0 
z
" transform="scale(0.015625)"/>
       <path id="ArialMT-79" d="M 397 -1278 
L 334 -750 
Q 519 -800 656 -800 
Q 844 -800 956 -737 
Q 1069 -675 1141 -563 
Q 1194 -478 1313 -144 
Q 1328 -97 1363 -6 
L 103 3319 
L 709 3319 
L 1400 1397 
Q 1534 1031 1641 628 
Q 1738 1016 1872 1384 
L 2581 3319 
L 3144 3319 
L 1881 -56 
Q 1678 -603 1566 -809 
Q 1416 -1088 1222 -1217 
Q 1028 -1347 759 -1347 
Q 597 -1347 397 -1278 
z
" transform="scale(0.015625)"/>
       <path id="ArialMT-28" d="M 1497 -1347 
Q 1031 -759 709 28 
Q 388 816 388 1659 
Q 388 2403 628 3084 
Q 909 3875 1497 4659 
L 1900 4659 
Q 1522 4009 1400 3731 
Q 1209 3300 1100 2831 
Q 966 2247 966 1656 
Q 966 153 1900 -1347 
L 1497 -1347 
z
" transform="scale(0.015625)"/>
       <path id="ArialMT-68" d="M 422 0 
L 422 4581 
L 984 4581 
L 984 2938 
Q 1378 3394 1978 3394 
Q 2347 3394 2619 3248 
Q 2891 3103 3008 2847 
Q 3125 2591 3125 2103 
L 3125 0 
L 2563 0 
L 2563 2103 
Q 2563 2525 2380 2717 
Q 2197 2909 1863 2909 
Q 1613 2909 1392 2779 
Q 1172 2650 1078 2428 
Q 984 2206 984 1816 
L 984 0 
L 422 0 
z
" transform="scale(0.015625)"/>
       <path id="ArialMT-6f" d="M 213 1659 
Q 213 2581 725 3025 
Q 1153 3394 1769 3394 
Q 2453 3394 2887 2945 
Q 3322 2497 3322 1706 
Q 3322 1066 3130 698 
Q 2938 331 2570 128 
Q 2203 -75 1769 -75 
Q 1072 -75 642 372 
Q 213 819 213 1659 
z
M 791 1659 
Q 791 1022 1069 705 
Q 1347 388 1769 388 
Q 2188 388 2466 706 
Q 2744 1025 2744 1678 
Q 2744 2294 2464 2611 
Q 2184 2928 1769 2928 
Q 1347 2928 1069 2612 
Q 791 2297 791 1659 
z
" transform="scale(0.015625)"/>
       <path id="ArialMT-75" d="M 2597 0 
L 2597 488 
Q 2209 -75 1544 -75 
Q 1250 -75 995 37 
Q 741 150 617 320 
Q 494 491 444 738 
Q 409 903 409 1263 
L 409 3319 
L 972 3319 
L 972 1478 
Q 972 1038 1006 884 
Q 1059 663 1231 536 
Q 1403 409 1656 409 
Q 1909 409 2131 539 
Q 2353 669 2445 892 
Q 2538 1116 2538 1541 
L 2538 3319 
L 3100 3319 
L 3100 0 
L 2597 0 
z
" transform="scale(0.015625)"/>
       <path id="ArialMT-72" d="M 416 0 
L 416 3319 
L 922 3319 
L 922 2816 
Q 1116 3169 1280 3281 
Q 1444 3394 1641 3394 
Q 1925 3394 2219 3213 
L 2025 2691 
Q 1819 2813 1613 2813 
Q 1428 2813 1281 2702 
Q 1134 2591 1072 2394 
Q 978 2094 978 1738 
L 978 0 
L 416 0 
z
" transform="scale(0.015625)"/>
       <path id="ArialMT-73" d="M 197 991 
L 753 1078 
Q 800 744 1014 566 
Q 1228 388 1613 388 
Q 2000 388 2187 545 
Q 2375 703 2375 916 
Q 2375 1106 2209 1216 
Q 2094 1291 1634 1406 
Q 1016 1563 777 1677 
Q 538 1791 414 1992 
Q 291 2194 291 2438 
Q 291 2659 392 2848 
Q 494 3038 669 3163 
Q 800 3259 1026 3326 
Q 1253 3394 1513 3394 
Q 1903 3394 2198 3281 
Q 2494 3169 2634 2976 
Q 2775 2784 2828 2463 
L 2278 2388 
Q 2241 2644 2061 2787 
Q 1881 2931 1553 2931 
Q 1166 2931 1000 2803 
Q 834 2675 834 2503 
Q 834 2394 903 2306 
Q 972 2216 1119 2156 
Q 1203 2125 1616 2013 
Q 2213 1853 2448 1751 
Q 2684 1650 2818 1456 
Q 2953 1263 2953 975 
Q 2953 694 2789 445 
Q 2625 197 2315 61 
Q 2006 -75 1616 -75 
Q 969 -75 630 194 
Q 291 463 197 991 
z
" transform="scale(0.015625)"/>
       <path id="ArialMT-29" d="M 791 -1347 
L 388 -1347 
Q 1322 153 1322 1656 
Q 1322 2244 1188 2822 
Q 1081 3291 891 3722 
Q 769 4003 388 4659 
L 791 4659 
Q 1378 3875 1659 3084 
Q 1900 2403 1900 1659 
Q 1900 816 1576 28 
Q 1253 -759 791 -1347 
z
" transform="scale(0.015625)"/>
      </defs>
      <use xlink:href="#ArialMT-54"/>
      <use xlink:href="#ArialMT-69" x="57.333984"/>
      <use xlink:href="#ArialMT-6d" x="79.550781"/>
      <use xlink:href="#ArialMT-65" x="162.851562"/>
      <use xlink:href="#ArialMT-20" x="218.466797"/>
      <use xlink:href="#ArialMT-69" x="246.25"/>
      <use xlink:href="#ArialMT-6e" x="268.466797"/>
      <use xlink:href="#ArialMT-20" x="324.082031"/>
      <use xlink:href="#ArialMT-63" x="351.865234"/>
      <use xlink:href="#ArialMT-61" x="401.865234"/>
      <use xlink:href="#ArialMT-70" x="457.480469"/>
      <use xlink:href="#ArialMT-74" x="513.095703"/>
      <use xlink:href="#ArialMT-69" x="540.878906"/>
      <use xlink:href="#ArialMT-76" x="563.095703"/>
      <use xlink:href="#ArialMT-69" x="613.095703"/>
      <use xlink:href="#ArialMT-74" x="635.3125"/>
      <use xlink:href="#ArialMT-79" x="663.095703"/>
      <use xlink:href="#ArialMT-20" x="713.095703"/>
      <use xlink:href="#ArialMT-28" x="740.878906"/>
      <use xlink:href="#ArialMT-68" x="774.179688"/>
      <use xlink:href="#ArialMT-6f" x="829.794922"/>
      <use xlink:href="#ArialMT-75" x="885.410156"/>
      <use xlink:href="#ArialMT-72" x="941.025391"/>
      <use xlink:href="#ArialMT-73" x="974.326172"/>
      <use xlink:href="#ArialMT-29" x="1024.326172"/>
     </g>
    </g>
   </g>
   <g id="matplotlib.axis_2">
    <g id="ytick_1">
     <g id="line2d_8">
      <defs>
       <path id="m07ea802e62" d="M 0 0 
L -3.5 0 
" style="stroke: #000000; stroke-width: 0.8"/>
      </defs>
      <g>
       <use xlink:href="#m07ea802e62" x="46.182813" y="110.51375" style="stroke: #000000; stroke-width: 0.8"/>
      </g>
     </g>
     <g id="text_9">
      <!-- 0 -->
      <g transform="translate(33.621875 114.092656)scale(0.1 -0.1)">
       <use xlink:href="#ArialMT-30"/>
      </g>
     </g>
    </g>
    <g id="ytick_2">
     <g id="line2d_9">
      <g>
       <use xlink:href="#m07ea802e62" x="46.182813" y="75.918958" style="stroke: #000000; stroke-width: 0.8"/>
      </g>
     </g>
     <g id="text_10">
      <!-- 50 -->
      <g transform="translate(28.060938 79.497865)scale(0.1 -0.1)">
       <defs>
        <path id="ArialMT-35" d="M 266 1200 
L 856 1250 
Q 922 819 1161 601 
Q 1400 384 1738 384 
Q 2144 384 2425 690 
Q 2706 997 2706 1503 
Q 2706 1984 2436 2262 
Q 2166 2541 1728 2541 
Q 1456 2541 1237 2417 
Q 1019 2294 894 2097 
L 366 2166 
L 809 4519 
L 3088 4519 
L 3088 3981 
L 1259 3981 
L 1013 2750 
Q 1425 3038 1878 3038 
Q 2478 3038 2890 2622 
Q 3303 2206 3303 1553 
Q 3303 931 2941 478 
Q 2500 -78 1738 -78 
Q 1113 -78 717 272 
Q 322 622 266 1200 
z
" transform="scale(0.015625)"/>
       </defs>
       <use xlink:href="#ArialMT-35"/>
       <use xlink:href="#ArialMT-30" x="55.615234"/>
      </g>
     </g>
    </g>
    <g id="ytick_3">
     <g id="line2d_10">
      <g>
       <use xlink:href="#m07ea802e62" x="46.182813" y="41.324167" style="stroke: #000000; stroke-width: 0.8"/>
      </g>
     </g>
     <g id="text_11">
      <!-- 100 -->
      <g transform="translate(22.5 44.903073)scale(0.1 -0.1)">
       <use xlink:href="#ArialMT-31"/>
       <use xlink:href="#ArialMT-30" x="55.615234"/>
       <use xlink:href="#ArialMT-30" x="111.230469"/>
      </g>
     </g>
    </g>
    <g id="text_12">
     <!-- Distance error (MoAD$^2$, m$^2$) -->
     <g transform="translate(16.3 130.8)rotate(-90)scale(0.1 -0.1)">
      <defs>
       <path id="ArialMT-44" d="M 494 0 
L 494 4581 
L 2072 4581 
Q 2606 4581 2888 4516 
Q 3281 4425 3559 4188 
Q 3922 3881 4101 3404 
Q 4281 2928 4281 2316 
Q 4281 1794 4159 1391 
Q 4038 988 3847 723 
Q 3656 459 3429 307 
Q 3203 156 2883 78 
Q 2563 0 2147 0 
L 494 0 
z
M 1100 541 
L 2078 541 
Q 2531 541 2789 625 
Q 3047 709 3200 863 
Q 3416 1078 3536 1442 
Q 3656 1806 3656 2325 
Q 3656 3044 3420 3430 
Q 3184 3816 2847 3947 
Q 2603 4041 2063 4041 
L 1100 4041 
L 1100 541 
z
" transform="scale(0.015625)"/>
       <path id="ArialMT-4d" d="M 475 0 
L 475 4581 
L 1388 4581 
L 2472 1338 
Q 2622 884 2691 659 
Q 2769 909 2934 1394 
L 4031 4581 
L 4847 4581 
L 4847 0 
L 4263 0 
L 4263 3834 
L 2931 0 
L 2384 0 
L 1059 3900 
L 1059 0 
L 475 0 
z
" transform="scale(0.015625)"/>
       <path id="ArialMT-41" d="M -9 0 
L 1750 4581 
L 2403 4581 
L 4278 0 
L 3588 0 
L 3053 1388 
L 1138 1388 
L 634 0 
L -9 0 
z
M 1313 1881 
L 2866 1881 
L 2388 3150 
Q 2169 3728 2063 4100 
Q 1975 3659 1816 3225 
L 1313 1881 
z
" transform="scale(0.015625)"/>
       <path id="DejaVuSans-32" d="M 1228 531 
L 3431 531 
L 3431 0 
L 469 0 
L 469 531 
Q 828 903 1448 1529 
Q 2069 2156 2228 2338 
Q 2531 2678 2651 2914 
Q 2772 3150 2772 3378 
Q 2772 3750 2511 3984 
Q 2250 4219 1831 4219 
Q 1534 4219 1204 4116 
Q 875 4013 500 3803 
L 500 4441 
Q 881 4594 1212 4672 
Q 1544 4750 1819 4750 
Q 2544 4750 2975 4387 
Q 3406 4025 3406 3419 
Q 3406 3131 3298 2873 
Q 3191 2616 2906 2266 
Q 2828 2175 2409 1742 
Q 1991 1309 1228 531 
z
" transform="scale(0.015625)"/>
       <path id="ArialMT-2c" d="M 569 0 
L 569 641 
L 1209 641 
L 1209 0 
Q 1209 -353 1084 -570 
Q 959 -788 688 -906 
L 531 -666 
Q 709 -588 793 -436 
Q 878 -284 888 0 
L 569 0 
z
" transform="scale(0.015625)"/>
      </defs>
      <use xlink:href="#ArialMT-44" transform="translate(0 0.765625)"/>
      <use xlink:href="#ArialMT-69" transform="translate(72.216797 0.765625)"/>
      <use xlink:href="#ArialMT-73" transform="translate(94.433594 0.765625)"/>
      <use xlink:href="#ArialMT-74" transform="translate(144.433594 0.765625)"/>
      <use xlink:href="#ArialMT-61" transform="translate(172.216797 0.765625)"/>
      <use xlink:href="#ArialMT-6e" transform="translate(227.832031 0.765625)"/>
      <use xlink:href="#ArialMT-63" transform="translate(283.447266 0.765625)"/>
      <use xlink:href="#ArialMT-65" transform="translate(333.447266 0.765625)"/>
      <use xlink:href="#ArialMT-20" transform="translate(389.0625 0.765625)"/>
      <use xlink:href="#ArialMT-65" transform="translate(416.845703 0.765625)"/>
      <use xlink:href="#ArialMT-72" transform="translate(472.460938 0.765625)"/>
      <use xlink:href="#ArialMT-72" transform="translate(505.761719 0.765625)"/>
      <use xlink:href="#ArialMT-6f" transform="translate(539.0625 0.765625)"/>
      <use xlink:href="#ArialMT-72" transform="translate(594.677734 0.765625)"/>
      <use xlink:href="#ArialMT-20" transform="translate(627.978516 0.765625)"/>
      <use xlink:href="#ArialMT-28" transform="translate(655.761719 0.765625)"/>
      <use xlink:href="#ArialMT-4d" transform="translate(689.0625 0.765625)"/>
      <use xlink:href="#ArialMT-6f" transform="translate(772.363281 0.765625)"/>
      <use xlink:href="#ArialMT-41" transform="translate(827.978516 0.765625)"/>
      <use xlink:href="#ArialMT-44" transform="translate(894.677734 0.765625)"/>
      <use xlink:href="#DejaVuSans-32" transform="translate(967.851562 39.046875)scale(0.7)"/>
      <use xlink:href="#ArialMT-2c" transform="translate(1015.12207 0.765625)"/>
      <use xlink:href="#ArialMT-20" transform="translate(1042.905273 0.765625)"/>
      <use xlink:href="#ArialMT-6d" transform="translate(1070.688477 0.765625)"/>
      <use xlink:href="#DejaVuSans-32" transform="translate(1154.946289 39.046875)scale(0.7)"/>
      <use xlink:href="#ArialMT-29" transform="translate(1202.216797 0.765625)"/>
     </g>
    </g>
   </g>
   <g id="line2d_11">
    <path d="M 52.122295 130.194522 
L 54.546574 128.343715 
L 56.970852 126.609468 
L 59.395131 124.642164 
L 61.819409 122.791019 
L 64.243688 120.937108 
L 66.667966 119.073043 
L 69.092245 117.28661 
L 71.516524 115.555845 
L 73.940802 113.869643 
L 76.365081 112.18512 
L 78.789359 110.692057 
L 81.213638 109.203444 
L 83.637916 107.860371 
L 86.062195 106.216722 
L 88.486474 104.747497 
L 90.910752 103.510047 
L 93.335031 102.817797 
L 95.759309 102.326714 
L 98.183588 101.913962 
L 100.607866 101.162877 
L 103.032145 99.67999 
L 105.456424 98.197892 
L 107.880702 96.715818 
L 110.304981 95.234964 
L 112.729259 93.753345 
L 115.153538 92.31464 
L 117.577816 90.810574 
L 120.002095 89.592609 
L 122.426374 88.167229 
L 124.850652 87.283005 
L 127.274931 86.427006 
L 129.699209 85.571008 
L 132.123488 84.715009 
L 134.547766 83.85901 
L 136.972045 83.003012 
L 139.396324 82.147013 
L 141.820602 81.291015 
L 144.244881 80.435016 
L 146.669159 79.579018 
L 149.093438 78.723019 
L 151.517716 77.867021 
L 153.941995 77.011022 
L 156.366274 76.155024 
L 158.790552 75.299025 
L 161.214831 74.443026 
L 163.639109 73.587028 
L 166.063388 72.731029 
L 168.487666 71.875031 
L 170.911945 71.019032 
" clip-path="url(#pd9d3690d67)" style="fill: none; stroke: #ffdb89; stroke-opacity: 0; stroke-width: 1.5; stroke-linecap: square"/>
   </g>
   <g id="line2d_12">
    <path d="M 52.122295 113.862526 
L 54.546574 112.738507 
L 56.970852 111.5248 
L 59.395131 110.407345 
L 61.819409 109.355349 
L 64.243688 108.303352 
L 66.667966 107.251356 
L 69.092245 106.121115 
L 71.516524 105.069202 
L 73.940802 103.875395 
L 76.365081 102.69505 
L 78.789359 101.451892 
L 81.213638 100.311701 
L 83.637916 99.048423 
L 86.062195 97.832658 
L 88.486474 96.77779 
L 90.910752 95.63604 
L 93.335031 94.377254 
L 95.759309 93.235941 
L 98.183588 91.867416 
L 100.607866 90.598681 
L 103.032145 89.52841 
L 105.456424 88.420268 
L 107.880702 87.130234 
L 110.304981 85.9114 
L 112.729259 84.74839 
L 115.153538 83.600331 
L 117.577816 82.514561 
L 120.002095 81.418151 
L 122.426374 80.294409 
L 124.850652 79.08111 
L 127.274931 77.837823 
L 129.699209 76.607317 
L 132.123488 75.444307 
L 134.547766 74.281297 
L 136.972045 73.118286 
L 139.396324 71.955276 
L 141.820602 70.7404 
L 144.244881 69.590425 
L 146.669159 68.394977 
L 149.093438 67.199528 
L 151.517716 66.00408 
L 153.941995 64.808632 
L 156.366274 63.613184 
L 158.790552 62.417735 
L 161.214831 61.222287 
L 163.639109 60.026839 
L 166.063388 58.831391 
L 168.487666 57.683892 
L 170.911945 56.508176 
" clip-path="url(#pd9d3690d67)" style="fill: none; stroke-dasharray: 5.55,2.4; stroke-dashoffset: 0; stroke: #ffdb89; stroke-opacity: 0; stroke-width: 1.5"/>
   </g>
   <g id="line2d_13">
    <path d="M 52.122295 103.45584 
L 54.546574 102.53466 
L 56.970852 101.61348 
L 59.395131 100.6923 
L 61.819409 99.576627 
L 64.243688 98.447966 
L 66.667966 97.450854 
L 69.092245 96.453742 
L 71.516524 95.45663 
L 73.940802 94.459518 
L 76.365081 93.462406 
L 78.789359 92.465294 
L 81.213638 91.34234 
L 83.637916 90.114978 
L 86.062195 88.895818 
L 88.486474 87.679815 
L 90.910752 86.672699 
L 93.335031 85.168086 
L 95.759309 83.796404 
L 98.183588 82.757341 
L 100.607866 81.274569 
L 103.032145 79.784464 
L 105.456424 78.591548 
L 107.880702 77.543758 
L 110.304981 75.751528 
L 112.729259 74.325894 
L 115.153538 72.665611 
L 117.577816 71.29373 
L 120.002095 69.354241 
L 122.426374 67.684935 
L 124.850652 66.138463 
L 127.274931 65.560009 
L 129.699209 64.156427 
L 132.123488 62.623416 
L 134.547766 60.924763 
L 136.972045 59.211058 
L 139.396324 57.497353 
L 141.820602 55.796492 
L 144.244881 54.291517 
L 146.669159 52.786542 
L 149.093438 51.281568 
L 151.517716 49.776593 
L 153.941995 47.817914 
L 156.366274 45.675762 
L 158.790552 43.743402 
L 161.214831 42.013359 
L 163.639109 40.290784 
L 166.063388 38.575112 
L 168.487666 36.859584 
L 170.911945 35.144057 
" clip-path="url(#pd9d3690d67)" style="fill: none; stroke: #ffdb89; stroke-opacity: 0; stroke-width: 1.5; stroke-linecap: square"/>
   </g>
   <g id="line2d_14">
    <defs>
     <path id="md8f9019072" d="M -3 3 
L 3 -3 
M -3 -3 
L 3 3 
" style="stroke: #444444"/>
    </defs>
    <g clip-path="url(#pd9d3690d67)">
     <use xlink:href="#md8f9019072" x="52.122295" y="109.270635" style="fill: #444444; stroke: #444444"/>
     <use xlink:href="#md8f9019072" x="52.617252" y="109.020481" style="fill: #444444; stroke: #444444"/>
     <use xlink:href="#md8f9019072" x="64.00126" y="108.448291" style="fill: #444444; stroke: #444444"/>
     <use xlink:href="#md8f9019072" x="75.880225" y="103.200133" style="fill: #444444; stroke: #444444"/>
     <use xlink:href="#md8f9019072" x="99.638155" y="96.756638" style="fill: #444444; stroke: #444444"/>
     <use xlink:href="#md8f9019072" x="123.396085" y="79.681329" style="fill: #444444; stroke: #444444"/>
     <use xlink:href="#md8f9019072" x="147.154015" y="74.412702" style="fill: #444444; stroke: #444444"/>
     <use xlink:href="#md8f9019072" x="170.911945" y="62.375005" style="fill: #444444; stroke: #444444"/>
    </g>
   </g>
   <g id="line2d_15">
    <path d="M 52.122295 111.421144 
L 54.546574 110.446786 
L 56.970852 109.472427 
L 59.395131 108.498069 
L 61.819409 107.523711 
L 64.243688 106.549353 
L 66.667966 105.574995 
L 69.092245 104.600637 
L 71.516524 103.626278 
L 73.940802 102.65192 
L 76.365081 101.677562 
L 78.789359 100.703204 
L 81.213638 99.728846 
L 83.637916 98.754488 
L 86.062195 97.780129 
L 88.486474 96.805771 
L 90.910752 95.831413 
L 93.335031 94.857055 
L 95.759309 93.882697 
L 98.183588 92.908339 
L 100.607866 91.933981 
L 103.032145 90.959622 
L 105.456424 89.985264 
L 107.880702 89.010906 
L 110.304981 88.036548 
L 112.729259 87.06219 
L 115.153538 86.087832 
L 117.577816 85.113473 
L 120.002095 84.139115 
L 122.426374 83.164757 
L 124.850652 82.190399 
L 127.274931 81.216041 
L 129.699209 80.241683 
L 132.123488 79.267324 
L 134.547766 78.292966 
L 136.972045 77.318608 
L 139.396324 76.34425 
L 141.820602 75.369892 
L 144.244881 74.395534 
L 146.669159 73.421175 
L 149.093438 72.446817 
L 151.517716 71.472459 
L 153.941995 70.498101 
L 156.366274 69.523743 
L 158.790552 68.549385 
L 161.214831 67.575027 
L 163.639109 66.600668 
L 166.063388 65.62631 
L 168.487666 64.651952 
L 170.911945 63.677594 
" clip-path="url(#pd9d3690d67)" style="fill: none; stroke: #444444; stroke-width: 1.5; stroke-linecap: square"/>
   </g>
   <g id="line2d_16">
    <path d="M 52.122295 113.823648 
L 54.546574 112.660638 
L 56.970852 111.497627 
L 59.395131 110.334617 
L 61.819409 109.171607 
L 64.243688 108.008596 
L 66.667966 106.845586 
L 69.092245 105.682576 
L 71.516524 104.519565 
L 73.940802 103.356555 
L 76.365081 102.193545 
L 78.789359 101.030534 
L 81.213638 99.867524 
L 83.637916 98.704514 
L 86.062195 97.541504 
L 88.486474 96.378493 
L 90.910752 95.215483 
L 93.335031 94.052473 
L 95.759309 92.889462 
L 98.183588 91.726452 
L 100.607866 90.563442 
L 103.032145 89.400431 
L 105.456424 88.237421 
L 107.880702 87.074411 
L 110.304981 85.9114 
L 112.729259 84.74839 
L 115.153538 83.58538 
L 117.577816 82.422369 
L 120.002095 81.259359 
L 122.426374 80.096349 
L 124.850652 78.933338 
L 127.274931 77.770328 
L 129.699209 76.607318 
L 132.123488 75.444308 
L 134.547766 74.281297 
L 136.972045 73.118287 
L 139.396324 71.955277 
L 141.820602 70.792266 
L 144.244881 69.629256 
L 146.669159 68.466246 
L 149.093438 67.303235 
L 151.517716 66.140225 
L 153.941995 64.977215 
L 156.366274 63.814204 
L 158.790552 62.651194 
L 161.214831 61.488184 
L 163.639109 60.325173 
L 166.063388 59.162163 
L 168.487666 57.999153 
L 170.911945 56.836142 
" clip-path="url(#pd9d3690d67)" style="fill: none; stroke-dasharray: 5.55,2.4; stroke-dashoffset: 0; stroke: #e6bc5c; stroke-width: 1.5"/>
   </g>
   <g id="patch_3">
    <path d="M 46.182813 110.51375 
L 46.182813 27.48625 
" style="fill: none; stroke: #000000; stroke-width: 0.8; stroke-linejoin: miter; stroke-linecap: square"/>
   </g>
   <g id="patch_4">
    <path d="M 46.182813 110.51375 
L 176.851427 110.51375 
" style="fill: none; stroke: #000000; stroke-width: 0.8; stroke-linejoin: miter; stroke-linecap: square"/>
   </g>
  </g>
  <g id="axes_2">
   <g id="patch_5">
    <path d="M 233.382813 110.51375 
L 364.051427 110.51375 
L 364.051427 27.48625 
L 233.382813 27.48625 
L 233.382813 110.51375 
z
" style="fill: none"/>
   </g>
   <g id="PolyCollection_2">
    <defs>
     <path id="meb87846355" d="M 239.322295 -17.048916 
L 239.322295 -43.787597 
L 241.746574 -44.708777 
L 244.170852 -45.629957 
L 246.595131 -46.551137 
L 249.019409 -47.66681 
L 251.443688 -48.795471 
L 253.867966 -49.792583 
L 256.292245 -50.789695 
L 258.716524 -51.786807 
L 261.140802 -52.783919 
L 263.565081 -53.781031 
L 265.989359 -54.778143 
L 268.413638 -55.901097 
L 270.837916 -57.12846 
L 273.262195 -58.34762 
L 275.686474 -59.563623 
L 278.110752 -60.570739 
L 280.535031 -62.075351 
L 282.959309 -63.447033 
L 285.383588 -64.486096 
L 287.807866 -65.968868 
L 290.232145 -67.458973 
L 292.656424 -68.651889 
L 295.080702 -69.699679 
L 297.504981 -71.49191 
L 299.929259 -72.917544 
L 302.353538 -74.577827 
L 304.777816 -75.949707 
L 307.202095 -77.889197 
L 309.626374 -79.558502 
L 312.050652 -81.104975 
L 314.474931 -81.683428 
L 316.899209 -83.08701 
L 319.323488 -84.620021 
L 321.747766 -86.318675 
L 324.172045 -88.03238 
L 326.596324 -89.746085 
L 329.020602 -91.446945 
L 331.444881 -92.95192 
L 333.869159 -94.456895 
L 336.293438 -95.96187 
L 338.717716 -97.466845 
L 341.141995 -99.425524 
L 343.566274 -101.567675 
L 345.990552 -103.500035 
L 348.414831 -105.230078 
L 350.839109 -106.952653 
L 353.263388 -108.668326 
L 355.687666 -110.383853 
L 358.111945 -112.099381 
L 358.111945 -76.224405 
L 358.111945 -76.224405 
L 355.687666 -75.368407 
L 353.263388 -74.512408 
L 350.839109 -73.65641 
L 348.414831 -72.800411 
L 345.990552 -71.944413 
L 343.566274 -71.088414 
L 341.141995 -70.232415 
L 338.717716 -69.376417 
L 336.293438 -68.520418 
L 333.869159 -67.66442 
L 331.444881 -66.808421 
L 329.020602 -65.952423 
L 326.596324 -65.096424 
L 324.172045 -64.240426 
L 321.747766 -63.384427 
L 319.323488 -62.528429 
L 316.899209 -61.67243 
L 314.474931 -60.816431 
L 312.050652 -59.960433 
L 309.626374 -59.076208 
L 307.202095 -57.650829 
L 304.777816 -56.432864 
L 302.353538 -54.928797 
L 299.929259 -53.490093 
L 297.504981 -52.008473 
L 295.080702 -50.52762 
L 292.656424 -49.045545 
L 290.232145 -47.563448 
L 287.807866 -46.080561 
L 285.383588 -45.329476 
L 282.959309 -44.916724 
L 280.535031 -44.42564 
L 278.110752 -43.73339 
L 275.686474 -42.49594 
L 273.262195 -41.026715 
L 270.837916 -39.383066 
L 268.413638 -38.039994 
L 265.989359 -36.551381 
L 263.565081 -35.058318 
L 261.140802 -33.373795 
L 258.716524 -31.687592 
L 256.292245 -29.956827 
L 253.867966 -28.170395 
L 251.443688 -26.30633 
L 249.019409 -24.452419 
L 246.595131 -22.601273 
L 244.170852 -20.633969 
L 241.746574 -18.899723 
L 239.322295 -17.048916 
z
" style="stroke: #ffdb89; stroke-opacity: 0.3"/>
    </defs>
    <g clip-path="url(#p3946f0ba6b)">
     <use xlink:href="#meb87846355" x="0" y="147.243438" style="fill: #ffdb89; fill-opacity: 0.3; stroke: #ffdb89; stroke-opacity: 0.3"/>
    </g>
   </g>
   <g id="matplotlib.axis_3">
    <g id="xtick_8">
     <g id="line2d_17">
      <g>
       <use xlink:href="#m5f510fb44f" x="239.322295" y="110.51375" style="stroke: #000000; stroke-width: 0.8"/>
      </g>
     </g>
     <g id="text_13">
      <!-- 0 -->
      <g transform="translate(236.541826 124.671563)scale(0.1 -0.1)">
       <use xlink:href="#ArialMT-30"/>
      </g>
     </g>
    </g>
    <g id="xtick_9">
     <g id="line2d_18">
      <g>
       <use xlink:href="#m5f510fb44f" x="251.20126" y="110.51375" style="stroke: #000000; stroke-width: 0.8"/>
      </g>
     </g>
     <g id="text_14">
      <!-- 24 -->
      <g transform="translate(245.640322 124.671563)scale(0.1 -0.1)">
       <use xlink:href="#ArialMT-32"/>
       <use xlink:href="#ArialMT-34" x="55.615234"/>
      </g>
     </g>
    </g>
    <g id="xtick_10">
     <g id="line2d_19">
      <g>
       <use xlink:href="#m5f510fb44f" x="263.080225" y="110.51375" style="stroke: #000000; stroke-width: 0.8"/>
      </g>
     </g>
     <g id="text_15">
      <!-- 48 -->
      <g transform="translate(257.519287 124.671563)scale(0.1 -0.1)">
       <use xlink:href="#ArialMT-34"/>
       <use xlink:href="#ArialMT-38" x="55.615234"/>
      </g>
     </g>
    </g>
    <g id="xtick_11">
     <g id="line2d_20">
      <g>
       <use xlink:href="#m5f510fb44f" x="286.838155" y="110.51375" style="stroke: #000000; stroke-width: 0.8"/>
      </g>
     </g>
     <g id="text_16">
      <!-- 96 -->
      <g transform="translate(281.277217 124.671563)scale(0.1 -0.1)">
       <use xlink:href="#ArialMT-39"/>
       <use xlink:href="#ArialMT-36" x="55.615234"/>
      </g>
     </g>
    </g>
    <g id="xtick_12">
     <g id="line2d_21">
      <g>
       <use xlink:href="#m5f510fb44f" x="310.596085" y="110.51375" style="stroke: #000000; stroke-width: 0.8"/>
      </g>
     </g>
     <g id="text_17">
      <!-- 144 -->
      <g transform="translate(302.254679 124.671563)scale(0.1 -0.1)">
       <use xlink:href="#ArialMT-31"/>
       <use xlink:href="#ArialMT-34" x="55.615234"/>
       <use xlink:href="#ArialMT-34" x="111.230469"/>
      </g>
     </g>
    </g>
    <g id="xtick_13">
     <g id="line2d_22">
      <g>
       <use xlink:href="#m5f510fb44f" x="334.354015" y="110.51375" style="stroke: #000000; stroke-width: 0.8"/>
      </g>
     </g>
     <g id="text_18">
      <!-- 192 -->
      <g transform="translate(326.012609 124.671563)scale(0.1 -0.1)">
       <use xlink:href="#ArialMT-31"/>
       <use xlink:href="#ArialMT-39" x="55.615234"/>
       <use xlink:href="#ArialMT-32" x="111.230469"/>
      </g>
     </g>
    </g>
    <g id="xtick_14">
     <g id="line2d_23">
      <g>
       <use xlink:href="#m5f510fb44f" x="358.111945" y="110.51375" style="stroke: #000000; stroke-width: 0.8"/>
      </g>
     </g>
     <g id="text_19">
      <!-- 240 -->
      <g transform="translate(349.770539 124.671563)scale(0.1 -0.1)">
       <use xlink:href="#ArialMT-32"/>
       <use xlink:href="#ArialMT-34" x="55.615234"/>
       <use xlink:href="#ArialMT-30" x="111.230469"/>
      </g>
     </g>
    </g>
    <g id="text_20">
     <!-- Time in captivity (hours) -->
     <g transform="translate(245.838995 137.93875)scale(0.1 -0.1)">
      <use xlink:href="#ArialMT-54"/>
      <use xlink:href="#ArialMT-69" x="57.333984"/>
      <use xlink:href="#ArialMT-6d" x="79.550781"/>
      <use xlink:href="#ArialMT-65" x="162.851562"/>
      <use xlink:href="#ArialMT-20" x="218.466797"/>
      <use xlink:href="#ArialMT-69" x="246.25"/>
      <use xlink:href="#ArialMT-6e" x="268.466797"/>
      <use xlink:href="#ArialMT-20" x="324.082031"/>
      <use xlink:href="#ArialMT-63" x="351.865234"/>
      <use xlink:href="#ArialMT-61" x="401.865234"/>
      <use xlink:href="#ArialMT-70" x="457.480469"/>
      <use xlink:href="#ArialMT-74" x="513.095703"/>
      <use xlink:href="#ArialMT-69" x="540.878906"/>
      <use xlink:href="#ArialMT-76" x="563.095703"/>
      <use xlink:href="#ArialMT-69" x="613.095703"/>
      <use xlink:href="#ArialMT-74" x="635.3125"/>
      <use xlink:href="#ArialMT-79" x="663.095703"/>
      <use xlink:href="#ArialMT-20" x="713.095703"/>
      <use xlink:href="#ArialMT-28" x="740.878906"/>
      <use xlink:href="#ArialMT-68" x="774.179688"/>
      <use xlink:href="#ArialMT-6f" x="829.794922"/>
      <use xlink:href="#ArialMT-75" x="885.410156"/>
      <use xlink:href="#ArialMT-72" x="941.025391"/>
      <use xlink:href="#ArialMT-73" x="974.326172"/>
      <use xlink:href="#ArialMT-29" x="1024.326172"/>
     </g>
    </g>
   </g>
   <g id="matplotlib.axis_4">
    <g id="ytick_4">
     <g id="line2d_24">
      <g>
       <use xlink:href="#m07ea802e62" x="233.382813" y="110.51375" style="stroke: #000000; stroke-width: 0.8"/>
      </g>
     </g>
     <g id="text_21">
      <!-- 0 -->
      <g transform="translate(220.821875 114.092656)scale(0.1 -0.1)">
       <use xlink:href="#ArialMT-30"/>
      </g>
     </g>
    </g>
    <g id="ytick_5">
     <g id="line2d_25">
      <g>
       <use xlink:href="#m07ea802e62" x="233.382813" y="75.918958" style="stroke: #000000; stroke-width: 0.8"/>
      </g>
     </g>
     <g id="text_22">
      <!-- 50 -->
      <g transform="translate(215.260938 79.497865)scale(0.1 -0.1)">
       <use xlink:href="#ArialMT-35"/>
       <use xlink:href="#ArialMT-30" x="55.615234"/>
      </g>
     </g>
    </g>
    <g id="ytick_6">
     <g id="line2d_26">
      <g>
       <use xlink:href="#m07ea802e62" x="233.382813" y="41.324167" style="stroke: #000000; stroke-width: 0.8"/>
      </g>
     </g>
     <g id="text_23">
      <!-- 100 -->
      <g transform="translate(209.7 44.903073)scale(0.1 -0.1)">
       <use xlink:href="#ArialMT-31"/>
       <use xlink:href="#ArialMT-30" x="55.615234"/>
       <use xlink:href="#ArialMT-30" x="111.230469"/>
      </g>
     </g>
    </g>
    <g id="text_24">
     <!-- Distance error (MoAD$^2$, m$^2$) -->
     <g transform="translate(203.5 130.8)rotate(-90)scale(0.1 -0.1)">
      <use xlink:href="#ArialMT-44" transform="translate(0 0.765625)"/>
      <use xlink:href="#ArialMT-69" transform="translate(72.216797 0.765625)"/>
      <use xlink:href="#ArialMT-73" transform="translate(94.433594 0.765625)"/>
      <use xlink:href="#ArialMT-74" transform="translate(144.433594 0.765625)"/>
      <use xlink:href="#ArialMT-61" transform="translate(172.216797 0.765625)"/>
      <use xlink:href="#ArialMT-6e" transform="translate(227.832031 0.765625)"/>
      <use xlink:href="#ArialMT-63" transform="translate(283.447266 0.765625)"/>
      <use xlink:href="#ArialMT-65" transform="translate(333.447266 0.765625)"/>
      <use xlink:href="#ArialMT-20" transform="translate(389.0625 0.765625)"/>
      <use xlink:href="#ArialMT-65" transform="translate(416.845703 0.765625)"/>
      <use xlink:href="#ArialMT-72" transform="translate(472.460938 0.765625)"/>
      <use xlink:href="#ArialMT-72" transform="translate(505.761719 0.765625)"/>
      <use xlink:href="#ArialMT-6f" transform="translate(539.0625 0.765625)"/>
      <use xlink:href="#ArialMT-72" transform="translate(594.677734 0.765625)"/>
      <use xlink:href="#ArialMT-20" transform="translate(627.978516 0.765625)"/>
      <use xlink:href="#ArialMT-28" transform="translate(655.761719 0.765625)"/>
      <use xlink:href="#ArialMT-4d" transform="translate(689.0625 0.765625)"/>
      <use xlink:href="#ArialMT-6f" transform="translate(772.363281 0.765625)"/>
      <use xlink:href="#ArialMT-41" transform="translate(827.978516 0.765625)"/>
      <use xlink:href="#ArialMT-44" transform="translate(894.677734 0.765625)"/>
      <use xlink:href="#DejaVuSans-32" transform="translate(967.851562 39.046875)scale(0.7)"/>
      <use xlink:href="#ArialMT-2c" transform="translate(1015.12207 0.765625)"/>
      <use xlink:href="#ArialMT-20" transform="translate(1042.905273 0.765625)"/>
      <use xlink:href="#ArialMT-6d" transform="translate(1070.688477 0.765625)"/>
      <use xlink:href="#DejaVuSans-32" transform="translate(1154.946289 39.046875)scale(0.7)"/>
      <use xlink:href="#ArialMT-29" transform="translate(1202.216797 0.765625)"/>
     </g>
    </g>
   </g>
   <g id="line2d_27">
    <path d="M 239.322295 130.194522 
L 241.746574 128.343715 
L 244.170852 126.609468 
L 246.595131 124.642164 
L 249.019409 122.791019 
L 251.443688 120.937108 
L 253.867966 119.073043 
L 256.292245 117.28661 
L 258.716524 115.555845 
L 261.140802 113.869643 
L 263.565081 112.18512 
L 265.989359 110.692057 
L 268.413638 109.203444 
L 270.837916 107.860371 
L 273.262195 106.216722 
L 275.686474 104.747497 
L 278.110752 103.510047 
L 280.535031 102.817797 
L 282.959309 102.326714 
L 285.383588 101.913962 
L 287.807866 101.162877 
L 290.232145 99.67999 
L 292.656424 98.197892 
L 295.080702 96.715818 
L 297.504981 95.234964 
L 299.929259 93.753345 
L 302.353538 92.31464 
L 304.777816 90.810574 
L 307.202095 89.592609 
L 309.626374 88.167229 
L 312.050652 87.283005 
L 314.474931 86.427006 
L 316.899209 85.571008 
L 319.323488 84.715009 
L 321.747766 83.85901 
L 324.172045 83.003012 
L 326.596324 82.147013 
L 329.020602 81.291015 
L 331.444881 80.435016 
L 333.869159 79.579018 
L 336.293438 78.723019 
L 338.717716 77.867021 
L 341.141995 77.011022 
L 343.566274 76.155024 
L 345.990552 75.299025 
L 348.414831 74.443026 
L 350.839109 73.587028 
L 353.263388 72.731029 
L 355.687666 71.875031 
L 358.111945 71.019032 
" clip-path="url(#p3946f0ba6b)" style="fill: none; stroke: #ffdb89; stroke-opacity: 0; stroke-width: 1.5; stroke-linecap: square"/>
   </g>
   <g id="line2d_28">
    <path d="M 239.322295 113.862526 
L 241.746574 112.738507 
L 244.170852 111.5248 
L 246.595131 110.407345 
L 249.019409 109.355349 
L 251.443688 108.303352 
L 253.867966 107.251356 
L 256.292245 106.121115 
L 258.716524 105.069202 
L 261.140802 103.875395 
L 263.565081 102.69505 
L 265.989359 101.451892 
L 268.413638 100.311701 
L 270.837916 99.048423 
L 273.262195 97.832658 
L 275.686474 96.77779 
L 278.110752 95.63604 
L 280.535031 94.377254 
L 282.959309 93.235941 
L 285.383588 91.867416 
L 287.807866 90.598681 
L 290.232145 89.52841 
L 292.656424 88.420268 
L 295.080702 87.130234 
L 297.504981 85.9114 
L 299.929259 84.74839 
L 302.353538 83.600331 
L 304.777816 82.514561 
L 307.202095 81.418151 
L 309.626374 80.294409 
L 312.050652 79.08111 
L 314.474931 77.837823 
L 316.899209 76.607317 
L 319.323488 75.444307 
L 321.747766 74.281297 
L 324.172045 73.118286 
L 326.596324 71.955276 
L 329.020602 70.7404 
L 331.444881 69.590425 
L 333.869159 68.394977 
L 336.293438 67.199528 
L 338.717716 66.00408 
L 341.141995 64.808632 
L 343.566274 63.613184 
L 345.990552 62.417735 
L 348.414831 61.222287 
L 350.839109 60.026839 
L 353.263388 58.831391 
L 355.687666 57.683892 
L 358.111945 56.508176 
" clip-path="url(#p3946f0ba6b)" style="fill: none; stroke-dasharray: 5.55,2.4; stroke-dashoffset: 0; stroke: #ffdb89; stroke-opacity: 0; stroke-width: 1.5"/>
   </g>
   <g id="line2d_29">
    <path d="M 239.322295 103.45584 
L 241.746574 102.53466 
L 244.170852 101.61348 
L 246.595131 100.6923 
L 249.019409 99.576627 
L 251.443688 98.447966 
L 253.867966 97.450854 
L 256.292245 96.453742 
L 258.716524 95.45663 
L 261.140802 94.459518 
L 263.565081 93.462406 
L 265.989359 92.465294 
L 268.413638 91.34234 
L 270.837916 90.114978 
L 273.262195 88.895818 
L 275.686474 87.679815 
L 278.110752 86.672699 
L 280.535031 85.168086 
L 282.959309 83.796404 
L 285.383588 82.757341 
L 287.807866 81.274569 
L 290.232145 79.784464 
L 292.656424 78.591548 
L 295.080702 77.543758 
L 297.504981 75.751528 
L 299.929259 74.325894 
L 302.353538 72.665611 
L 304.777816 71.29373 
L 307.202095 69.354241 
L 309.626374 67.684935 
L 312.050652 66.138463 
L 314.474931 65.560009 
L 316.899209 64.156427 
L 319.323488 62.623416 
L 321.747766 60.924763 
L 324.172045 59.211058 
L 326.596324 57.497353 
L 329.020602 55.796492 
L 331.444881 54.291517 
L 333.869159 52.786542 
L 336.293438 51.281568 
L 338.717716 49.776593 
L 341.141995 47.817914 
L 343.566274 45.675762 
L 345.990552 43.743402 
L 348.414831 42.013359 
L 350.839109 40.290784 
L 353.263388 38.575112 
L 355.687666 36.859584 
L 358.111945 35.144057 
" clip-path="url(#p3946f0ba6b)" style="fill: none; stroke: #ffdb89; stroke-opacity: 0; stroke-width: 1.5; stroke-linecap: square"/>
   </g>
   <g id="line2d_30">
    <g clip-path="url(#p3946f0ba6b)">
     <use xlink:href="#md8f9019072" x="239.322295" y="109.221967" style="fill: #444444; stroke: #444444"/>
     <use xlink:href="#md8f9019072" x="239.817252" y="108.87396" style="fill: #444444; stroke: #444444"/>
     <use xlink:href="#md8f9019072" x="251.20126" y="108.873267" style="fill: #444444; stroke: #444444"/>
     <use xlink:href="#md8f9019072" x="263.080225" y="108.068793" style="fill: #444444; stroke: #444444"/>
     <use xlink:href="#md8f9019072" x="286.838155" y="107.604596" style="fill: #444444; stroke: #444444"/>
     <use xlink:href="#md8f9019072" x="310.596085" y="102.349174" style="fill: #444444; stroke: #444444"/>
     <use xlink:href="#md8f9019072" x="334.354015" y="85.609101" style="fill: #444444; stroke: #444444"/>
     <use xlink:href="#md8f9019072" x="358.111945" y="57.419669" style="fill: #444444; stroke: #444444"/>
    </g>
   </g>
   <g id="line2d_31">
    <path d="M 239.322295 114.885435 
L 241.746574 114.023769 
L 244.170852 113.162104 
L 246.595131 112.300438 
L 249.019409 111.438772 
L 251.443688 110.577106 
L 253.867966 109.715441 
L 256.292245 108.853775 
L 258.716524 107.992109 
L 261.140802 107.130443 
L 263.565081 106.268778 
L 265.989359 105.407112 
L 268.413638 104.545446 
L 270.837916 103.68378 
L 273.262195 102.822115 
L 275.686474 101.960449 
L 278.110752 101.098783 
L 280.535031 100.237117 
L 282.959309 99.375452 
L 285.383588 98.513786 
L 287.807866 97.65212 
L 290.232145 96.790454 
L 292.656424 95.928788 
L 295.080702 95.067123 
L 297.504981 94.205457 
L 299.929259 93.343791 
L 302.353538 92.482125 
L 304.777816 91.62046 
L 307.202095 90.758794 
L 309.626374 89.897128 
L 312.050652 89.035462 
L 314.474931 88.173797 
L 316.899209 87.312131 
L 319.323488 86.450465 
L 321.747766 85.588799 
L 324.172045 84.727134 
L 326.596324 83.865468 
L 329.020602 83.003802 
L 331.444881 82.142136 
L 333.869159 81.28047 
L 336.293438 80.418805 
L 338.717716 79.557139 
L 341.141995 78.695473 
L 343.566274 77.833807 
L 345.990552 76.972142 
L 348.414831 76.110476 
L 350.839109 75.24881 
L 353.263388 74.387144 
L 355.687666 73.525479 
L 358.111945 72.663813 
" clip-path="url(#p3946f0ba6b)" style="fill: none; stroke: #444444; stroke-width: 1.5; stroke-linecap: square"/>
   </g>
   <g id="line2d_32">
    <path d="M 239.322295 113.823648 
L 241.746574 112.660638 
L 244.170852 111.497627 
L 246.595131 110.334617 
L 249.019409 109.171607 
L 251.443688 108.008596 
L 253.867966 106.845586 
L 256.292245 105.682576 
L 258.716524 104.519565 
L 261.140802 103.356555 
L 263.565081 102.193545 
L 265.989359 101.030534 
L 268.413638 99.867524 
L 270.837916 98.704514 
L 273.262195 97.541504 
L 275.686474 96.378493 
L 278.110752 95.215483 
L 280.535031 94.052473 
L 282.959309 92.889462 
L 285.383588 91.726452 
L 287.807866 90.563442 
L 290.232145 89.400431 
L 292.656424 88.237421 
L 295.080702 87.074411 
L 297.504981 85.9114 
L 299.929259 84.74839 
L 302.353538 83.58538 
L 304.777816 82.422369 
L 307.202095 81.259359 
L 309.626374 80.096349 
L 312.050652 78.933338 
L 314.474931 77.770328 
L 316.899209 76.607318 
L 319.323488 75.444308 
L 321.747766 74.281297 
L 324.172045 73.118287 
L 326.596324 71.955277 
L 329.020602 70.792266 
L 331.444881 69.629256 
L 333.869159 68.466246 
L 336.293438 67.303235 
L 338.717716 66.140225 
L 341.141995 64.977215 
L 343.566274 63.814204 
L 345.990552 62.651194 
L 348.414831 61.488184 
L 350.839109 60.325173 
L 353.263388 59.162163 
L 355.687666 57.999153 
L 358.111945 56.836142 
" clip-path="url(#p3946f0ba6b)" style="fill: none; stroke-dasharray: 5.55,2.4; stroke-dashoffset: 0; stroke: #e6bc5c; stroke-width: 1.5"/>
   </g>
   <g id="patch_6">
    <path d="M 233.382813 110.51375 
L 233.382813 27.48625 
" style="fill: none; stroke: #000000; stroke-width: 0.8; stroke-linejoin: miter; stroke-linecap: square"/>
   </g>
   <g id="patch_7">
    <path d="M 233.382813 110.51375 
L 364.051427 110.51375 
" style="fill: none; stroke: #000000; stroke-width: 0.8; stroke-linejoin: miter; stroke-linecap: square"/>
   </g>
  </g>
  <g id="axes_3">
   <g id="patch_8">
    <path d="M 420.582813 110.51375 
L 551.251427 110.51375 
L 551.251427 27.48625 
L 420.582813 27.48625 
L 420.582813 110.51375 
z
" style="fill: none"/>
   </g>
   <g id="PolyCollection_3">
    <defs>
     <path id="mc4dd02b171" d="M 426.522295 -17.048916 
L 426.522295 -43.787597 
L 428.946574 -44.708777 
L 431.370852 -45.629957 
L 433.795131 -46.551137 
L 436.219409 -47.66681 
L 438.643688 -48.795471 
L 441.067966 -49.792583 
L 443.492245 -50.789695 
L 445.916524 -51.786807 
L 448.340802 -52.783919 
L 450.765081 -53.781031 
L 453.189359 -54.778143 
L 455.613638 -55.901097 
L 458.037916 -57.12846 
L 460.462195 -58.34762 
L 462.886474 -59.563623 
L 465.310752 -60.570739 
L 467.735031 -62.075351 
L 470.159309 -63.447033 
L 472.583588 -64.486096 
L 475.007866 -65.968868 
L 477.432145 -67.458973 
L 479.856424 -68.651889 
L 482.280702 -69.699679 
L 484.704981 -71.49191 
L 487.129259 -72.917544 
L 489.553538 -74.577827 
L 491.977816 -75.949707 
L 494.402095 -77.889197 
L 496.826374 -79.558502 
L 499.250652 -81.104975 
L 501.674931 -81.683428 
L 504.099209 -83.08701 
L 506.523488 -84.620021 
L 508.947766 -86.318675 
L 511.372045 -88.03238 
L 513.796324 -89.746085 
L 516.220602 -91.446945 
L 518.644881 -92.95192 
L 521.069159 -94.456895 
L 523.493438 -95.96187 
L 525.917716 -97.466845 
L 528.341995 -99.425524 
L 530.766274 -101.567675 
L 533.190552 -103.500035 
L 535.614831 -105.230078 
L 538.039109 -106.952653 
L 540.463388 -108.668326 
L 542.887666 -110.383853 
L 545.311945 -112.099381 
L 545.311945 -76.224405 
L 545.311945 -76.224405 
L 542.887666 -75.368407 
L 540.463388 -74.512408 
L 538.039109 -73.65641 
L 535.614831 -72.800411 
L 533.190552 -71.944413 
L 530.766274 -71.088414 
L 528.341995 -70.232415 
L 525.917716 -69.376417 
L 523.493438 -68.520418 
L 521.069159 -67.66442 
L 518.644881 -66.808421 
L 516.220602 -65.952423 
L 513.796324 -65.096424 
L 511.372045 -64.240426 
L 508.947766 -63.384427 
L 506.523488 -62.528429 
L 504.099209 -61.67243 
L 501.674931 -60.816431 
L 499.250652 -59.960433 
L 496.826374 -59.076208 
L 494.402095 -57.650829 
L 491.977816 -56.432864 
L 489.553538 -54.928797 
L 487.129259 -53.490093 
L 484.704981 -52.008473 
L 482.280702 -50.52762 
L 479.856424 -49.045545 
L 477.432145 -47.563448 
L 475.007866 -46.080561 
L 472.583588 -45.329476 
L 470.159309 -44.916724 
L 467.735031 -44.42564 
L 465.310752 -43.73339 
L 462.886474 -42.49594 
L 460.462195 -41.026715 
L 458.037916 -39.383066 
L 455.613638 -38.039994 
L 453.189359 -36.551381 
L 450.765081 -35.058318 
L 448.340802 -33.373795 
L 445.916524 -31.687592 
L 443.492245 -29.956827 
L 441.067966 -28.170395 
L 438.643688 -26.30633 
L 436.219409 -24.452419 
L 433.795131 -22.601273 
L 431.370852 -20.633969 
L 428.946574 -18.899723 
L 426.522295 -17.048916 
z
" style="stroke: #ffdb89; stroke-opacity: 0.3"/>
    </defs>
    <g clip-path="url(#p9db359ac38)">
     <use xlink:href="#mc4dd02b171" x="0" y="147.243438" style="fill: #ffdb89; fill-opacity: 0.3; stroke: #ffdb89; stroke-opacity: 0.3"/>
    </g>
   </g>
   <g id="matplotlib.axis_5">
    <g id="xtick_15">
     <g id="line2d_33">
      <g>
       <use xlink:href="#m5f510fb44f" x="426.522295" y="110.51375" style="stroke: #000000; stroke-width: 0.8"/>
      </g>
     </g>
     <g id="text_25">
      <!-- 0 -->
      <g transform="translate(423.741826 124.671563)scale(0.1 -0.1)">
       <use xlink:href="#ArialMT-30"/>
      </g>
     </g>
    </g>
    <g id="xtick_16">
     <g id="line2d_34">
      <g>
       <use xlink:href="#m5f510fb44f" x="438.40126" y="110.51375" style="stroke: #000000; stroke-width: 0.8"/>
      </g>
     </g>
     <g id="text_26">
      <!-- 24 -->
      <g transform="translate(432.840322 124.671563)scale(0.1 -0.1)">
       <use xlink:href="#ArialMT-32"/>
       <use xlink:href="#ArialMT-34" x="55.615234"/>
      </g>
     </g>
    </g>
    <g id="xtick_17">
     <g id="line2d_35">
      <g>
       <use xlink:href="#m5f510fb44f" x="450.280225" y="110.51375" style="stroke: #000000; stroke-width: 0.8"/>
      </g>
     </g>
     <g id="text_27">
      <!-- 48 -->
      <g transform="translate(444.719287 124.671563)scale(0.1 -0.1)">
       <use xlink:href="#ArialMT-34"/>
       <use xlink:href="#ArialMT-38" x="55.615234"/>
      </g>
     </g>
    </g>
    <g id="xtick_18">
     <g id="line2d_36">
      <g>
       <use xlink:href="#m5f510fb44f" x="474.038155" y="110.51375" style="stroke: #000000; stroke-width: 0.8"/>
      </g>
     </g>
     <g id="text_28">
      <!-- 96 -->
      <g transform="translate(468.477217 124.671563)scale(0.1 -0.1)">
       <use xlink:href="#ArialMT-39"/>
       <use xlink:href="#ArialMT-36" x="55.615234"/>
      </g>
     </g>
    </g>
    <g id="xtick_19">
     <g id="line2d_37">
      <g>
       <use xlink:href="#m5f510fb44f" x="497.796085" y="110.51375" style="stroke: #000000; stroke-width: 0.8"/>
      </g>
     </g>
     <g id="text_29">
      <!-- 144 -->
      <g transform="translate(489.454679 124.671563)scale(0.1 -0.1)">
       <use xlink:href="#ArialMT-31"/>
       <use xlink:href="#ArialMT-34" x="55.615234"/>
       <use xlink:href="#ArialMT-34" x="111.230469"/>
      </g>
     </g>
    </g>
    <g id="xtick_20">
     <g id="line2d_38">
      <g>
       <use xlink:href="#m5f510fb44f" x="521.554015" y="110.51375" style="stroke: #000000; stroke-width: 0.8"/>
      </g>
     </g>
     <g id="text_30">
      <!-- 192 -->
      <g transform="translate(513.212609 124.671563)scale(0.1 -0.1)">
       <use xlink:href="#ArialMT-31"/>
       <use xlink:href="#ArialMT-39" x="55.615234"/>
       <use xlink:href="#ArialMT-32" x="111.230469"/>
      </g>
     </g>
    </g>
    <g id="xtick_21">
     <g id="line2d_39">
      <g>
       <use xlink:href="#m5f510fb44f" x="545.311945" y="110.51375" style="stroke: #000000; stroke-width: 0.8"/>
      </g>
     </g>
     <g id="text_31">
      <!-- 240 -->
      <g transform="translate(536.970539 124.671563)scale(0.1 -0.1)">
       <use xlink:href="#ArialMT-32"/>
       <use xlink:href="#ArialMT-34" x="55.615234"/>
       <use xlink:href="#ArialMT-30" x="111.230469"/>
      </g>
     </g>
    </g>
    <g id="text_32">
     <!-- Time in captivity (hours) -->
     <g transform="translate(433.038995 137.93875)scale(0.1 -0.1)">
      <use xlink:href="#ArialMT-54"/>
      <use xlink:href="#ArialMT-69" x="57.333984"/>
      <use xlink:href="#ArialMT-6d" x="79.550781"/>
      <use xlink:href="#ArialMT-65" x="162.851562"/>
      <use xlink:href="#ArialMT-20" x="218.466797"/>
      <use xlink:href="#ArialMT-69" x="246.25"/>
      <use xlink:href="#ArialMT-6e" x="268.466797"/>
      <use xlink:href="#ArialMT-20" x="324.082031"/>
      <use xlink:href="#ArialMT-63" x="351.865234"/>
      <use xlink:href="#ArialMT-61" x="401.865234"/>
      <use xlink:href="#ArialMT-70" x="457.480469"/>
      <use xlink:href="#ArialMT-74" x="513.095703"/>
      <use xlink:href="#ArialMT-69" x="540.878906"/>
      <use xlink:href="#ArialMT-76" x="563.095703"/>
      <use xlink:href="#ArialMT-69" x="613.095703"/>
      <use xlink:href="#ArialMT-74" x="635.3125"/>
      <use xlink:href="#ArialMT-79" x="663.095703"/>
      <use xlink:href="#ArialMT-20" x="713.095703"/>
      <use xlink:href="#ArialMT-28" x="740.878906"/>
      <use xlink:href="#ArialMT-68" x="774.179688"/>
      <use xlink:href="#ArialMT-6f" x="829.794922"/>
      <use xlink:href="#ArialMT-75" x="885.410156"/>
      <use xlink:href="#ArialMT-72" x="941.025391"/>
      <use xlink:href="#ArialMT-73" x="974.326172"/>
      <use xlink:href="#ArialMT-29" x="1024.326172"/>
     </g>
    </g>
   </g>
   <g id="matplotlib.axis_6">
    <g id="ytick_7">
     <g id="line2d_40">
      <g>
       <use xlink:href="#m07ea802e62" x="420.582813" y="110.51375" style="stroke: #000000; stroke-width: 0.8"/>
      </g>
     </g>
     <g id="text_33">
      <!-- 0 -->
      <g transform="translate(408.021875 114.092656)scale(0.1 -0.1)">
       <use xlink:href="#ArialMT-30"/>
      </g>
     </g>
    </g>
    <g id="ytick_8">
     <g id="line2d_41">
      <g>
       <use xlink:href="#m07ea802e62" x="420.582813" y="75.918958" style="stroke: #000000; stroke-width: 0.8"/>
      </g>
     </g>
     <g id="text_34">
      <!-- 50 -->
      <g transform="translate(402.460938 79.497865)scale(0.1 -0.1)">
       <use xlink:href="#ArialMT-35"/>
       <use xlink:href="#ArialMT-30" x="55.615234"/>
      </g>
     </g>
    </g>
    <g id="ytick_9">
     <g id="line2d_42">
      <g>
       <use xlink:href="#m07ea802e62" x="420.582813" y="41.324167" style="stroke: #000000; stroke-width: 0.8"/>
      </g>
     </g>
     <g id="text_35">
      <!-- 100 -->
      <g transform="translate(396.9 44.903073)scale(0.1 -0.1)">
       <use xlink:href="#ArialMT-31"/>
       <use xlink:href="#ArialMT-30" x="55.615234"/>
       <use xlink:href="#ArialMT-30" x="111.230469"/>
      </g>
     </g>
    </g>
    <g id="text_36">
     <!-- Distance error (MoAD$^2$, m$^2$) -->
     <g transform="translate(390.7 130.8)rotate(-90)scale(0.1 -0.1)">
      <use xlink:href="#ArialMT-44" transform="translate(0 0.765625)"/>
      <use xlink:href="#ArialMT-69" transform="translate(72.216797 0.765625)"/>
      <use xlink:href="#ArialMT-73" transform="translate(94.433594 0.765625)"/>
      <use xlink:href="#ArialMT-74" transform="translate(144.433594 0.765625)"/>
      <use xlink:href="#ArialMT-61" transform="translate(172.216797 0.765625)"/>
      <use xlink:href="#ArialMT-6e" transform="translate(227.832031 0.765625)"/>
      <use xlink:href="#ArialMT-63" transform="translate(283.447266 0.765625)"/>
      <use xlink:href="#ArialMT-65" transform="translate(333.447266 0.765625)"/>
      <use xlink:href="#ArialMT-20" transform="translate(389.0625 0.765625)"/>
      <use xlink:href="#ArialMT-65" transform="translate(416.845703 0.765625)"/>
      <use xlink:href="#ArialMT-72" transform="translate(472.460938 0.765625)"/>
      <use xlink:href="#ArialMT-72" transform="translate(505.761719 0.765625)"/>
      <use xlink:href="#ArialMT-6f" transform="translate(539.0625 0.765625)"/>
      <use xlink:href="#ArialMT-72" transform="translate(594.677734 0.765625)"/>
      <use xlink:href="#ArialMT-20" transform="translate(627.978516 0.765625)"/>
      <use xlink:href="#ArialMT-28" transform="translate(655.761719 0.765625)"/>
      <use xlink:href="#ArialMT-4d" transform="translate(689.0625 0.765625)"/>
      <use xlink:href="#ArialMT-6f" transform="translate(772.363281 0.765625)"/>
      <use xlink:href="#ArialMT-41" transform="translate(827.978516 0.765625)"/>
      <use xlink:href="#ArialMT-44" transform="translate(894.677734 0.765625)"/>
      <use xlink:href="#DejaVuSans-32" transform="translate(967.851562 39.046875)scale(0.7)"/>
      <use xlink:href="#ArialMT-2c" transform="translate(1015.12207 0.765625)"/>
      <use xlink:href="#ArialMT-20" transform="translate(1042.905273 0.765625)"/>
      <use xlink:href="#ArialMT-6d" transform="translate(1070.688477 0.765625)"/>
      <use xlink:href="#DejaVuSans-32" transform="translate(1154.946289 39.046875)scale(0.7)"/>
      <use xlink:href="#ArialMT-29" transform="translate(1202.216797 0.765625)"/>
     </g>
    </g>
   </g>
   <g id="line2d_43">
    <path d="M 426.522295 130.194522 
L 428.946574 128.343715 
L 431.370852 126.609468 
L 433.795131 124.642164 
L 436.219409 122.791019 
L 438.643688 120.937108 
L 441.067966 119.073043 
L 443.492245 117.28661 
L 445.916524 115.555845 
L 448.340802 113.869643 
L 450.765081 112.18512 
L 453.189359 110.692057 
L 455.613638 109.203444 
L 458.037916 107.860371 
L 460.462195 106.216722 
L 462.886474 104.747497 
L 465.310752 103.510047 
L 467.735031 102.817797 
L 470.159309 102.326714 
L 472.583588 101.913962 
L 475.007866 101.162877 
L 477.432145 99.67999 
L 479.856424 98.197892 
L 482.280702 96.715818 
L 484.704981 95.234964 
L 487.129259 93.753345 
L 489.553538 92.31464 
L 491.977816 90.810574 
L 494.402095 89.592609 
L 496.826374 88.167229 
L 499.250652 87.283005 
L 501.674931 86.427006 
L 504.099209 85.571008 
L 506.523488 84.715009 
L 508.947766 83.85901 
L 511.372045 83.003012 
L 513.796324 82.147013 
L 516.220602 81.291015 
L 518.644881 80.435016 
L 521.069159 79.579018 
L 523.493438 78.723019 
L 525.917716 77.867021 
L 528.341995 77.011022 
L 530.766274 76.155024 
L 533.190552 75.299025 
L 535.614831 74.443026 
L 538.039109 73.587028 
L 540.463388 72.731029 
L 542.887666 71.875031 
L 545.311945 71.019032 
" clip-path="url(#p9db359ac38)" style="fill: none; stroke: #ffdb89; stroke-opacity: 0; stroke-width: 1.5; stroke-linecap: square"/>
   </g>
   <g id="line2d_44">
    <path d="M 426.522295 113.862526 
L 428.946574 112.738507 
L 431.370852 111.5248 
L 433.795131 110.407345 
L 436.219409 109.355349 
L 438.643688 108.303352 
L 441.067966 107.251356 
L 443.492245 106.121115 
L 445.916524 105.069202 
L 448.340802 103.875395 
L 450.765081 102.69505 
L 453.189359 101.451892 
L 455.613638 100.311701 
L 458.037916 99.048423 
L 460.462195 97.832658 
L 462.886474 96.77779 
L 465.310752 95.63604 
L 467.735031 94.377254 
L 470.159309 93.235941 
L 472.583588 91.867416 
L 475.007866 90.598681 
L 477.432145 89.52841 
L 479.856424 88.420268 
L 482.280702 87.130234 
L 484.704981 85.9114 
L 487.129259 84.74839 
L 489.553538 83.600331 
L 491.977816 82.514561 
L 494.402095 81.418151 
L 496.826374 80.294409 
L 499.250652 79.08111 
L 501.674931 77.837823 
L 504.099209 76.607317 
L 506.523488 75.444307 
L 508.947766 74.281297 
L 511.372045 73.118286 
L 513.796324 71.955276 
L 516.220602 70.7404 
L 518.644881 69.590425 
L 521.069159 68.394977 
L 523.493438 67.199528 
L 525.917716 66.00408 
L 528.341995 64.808632 
L 530.766274 63.613184 
L 533.190552 62.417735 
L 535.614831 61.222287 
L 538.039109 60.026839 
L 540.463388 58.831391 
L 542.887666 57.683892 
L 545.311945 56.508176 
" clip-path="url(#p9db359ac38)" style="fill: none; stroke-dasharray: 5.55,2.4; stroke-dashoffset: 0; stroke: #ffdb89; stroke-opacity: 0; stroke-width: 1.5"/>
   </g>
   <g id="line2d_45">
    <path d="M 426.522295 103.45584 
L 428.946574 102.53466 
L 431.370852 101.61348 
L 433.795131 100.6923 
L 436.219409 99.576627 
L 438.643688 98.447966 
L 441.067966 97.450854 
L 443.492245 96.453742 
L 445.916524 95.45663 
L 448.340802 94.459518 
L 450.765081 93.462406 
L 453.189359 92.465294 
L 455.613638 91.34234 
L 458.037916 90.114978 
L 460.462195 88.895818 
L 462.886474 87.679815 
L 465.310752 86.672699 
L 467.735031 85.168086 
L 470.159309 83.796404 
L 472.583588 82.757341 
L 475.007866 81.274569 
L 477.432145 79.784464 
L 479.856424 78.591548 
L 482.280702 77.543758 
L 484.704981 75.751528 
L 487.129259 74.325894 
L 489.553538 72.665611 
L 491.977816 71.29373 
L 494.402095 69.354241 
L 496.826374 67.684935 
L 499.250652 66.138463 
L 501.674931 65.560009 
L 504.099209 64.156427 
L 506.523488 62.623416 
L 508.947766 60.924763 
L 511.372045 59.211058 
L 513.796324 57.497353 
L 516.220602 55.796492 
L 518.644881 54.291517 
L 521.069159 52.786542 
L 523.493438 51.281568 
L 525.917716 49.776593 
L 528.341995 47.817914 
L 530.766274 45.675762 
L 533.190552 43.743402 
L 535.614831 42.013359 
L 538.039109 40.290784 
L 540.463388 38.575112 
L 542.887666 36.859584 
L 545.311945 35.144057 
" clip-path="url(#p9db359ac38)" style="fill: none; stroke: #ffdb89; stroke-opacity: 0; stroke-width: 1.5; stroke-linecap: square"/>
   </g>
   <g id="line2d_46">
    <g clip-path="url(#p9db359ac38)">
     <use xlink:href="#md8f9019072" x="426.522295" y="109.433777" style="fill: #444444; stroke: #444444"/>
     <use xlink:href="#md8f9019072" x="427.017252" y="109.386182" style="fill: #444444; stroke: #444444"/>
     <use xlink:href="#md8f9019072" x="438.40126" y="107.693714" style="fill: #444444; stroke: #444444"/>
     <use xlink:href="#md8f9019072" x="450.280225" y="106.511983" style="fill: #444444; stroke: #444444"/>
     <use xlink:href="#md8f9019072" x="474.038155" y="98.771988" style="fill: #444444; stroke: #444444"/>
     <use xlink:href="#md8f9019072" x="497.796085" y="86.271539" style="fill: #444444; stroke: #444444"/>
     <use xlink:href="#md8f9019072" x="521.554015" y="56.912631" style="fill: #444444; stroke: #444444"/>
     <use xlink:href="#md8f9019072" x="545.311945" y="26.487961" style="fill: #444444; stroke: #444444"/>
    </g>
   </g>
   <g id="line2d_47">
    <path d="M 426.522295 117.152784 
L 428.946574 115.602843 
L 431.370852 114.052902 
L 433.795131 112.502961 
L 436.219409 110.95302 
L 438.643688 109.403079 
L 441.067966 107.853138 
L 443.492245 106.303197 
L 445.916524 104.753256 
L 448.340802 103.203314 
L 450.765081 101.653373 
L 453.189359 100.103432 
L 455.613638 98.553491 
L 458.037916 97.00355 
L 460.462195 95.453609 
L 462.886474 93.903668 
L 465.310752 92.353727 
L 467.735031 90.803786 
L 470.159309 89.253845 
L 472.583588 87.703904 
L 475.007866 86.153962 
L 477.432145 84.604021 
L 479.856424 83.05408 
L 482.280702 81.504139 
L 484.704981 79.954198 
L 487.129259 78.404257 
L 489.553538 76.854316 
L 491.977816 75.304375 
L 494.402095 73.754434 
L 496.826374 72.204493 
L 499.250652 70.654552 
L 501.674931 69.10461 
L 504.099209 67.554669 
L 506.523488 66.004728 
L 508.947766 64.454787 
L 511.372045 62.904846 
L 513.796324 61.354905 
L 516.220602 59.804964 
L 518.644881 58.255023 
L 521.069159 56.705082 
L 523.493438 55.155141 
L 525.917716 53.6052 
L 528.341995 52.055258 
L 530.766274 50.505317 
L 533.190552 48.955376 
L 535.614831 47.405435 
L 538.039109 45.855494 
L 540.463388 44.305553 
L 542.887666 42.755612 
L 545.311945 41.205671 
" clip-path="url(#p9db359ac38)" style="fill: none; stroke: #444444; stroke-width: 1.5; stroke-linecap: square"/>
   </g>
   <g id="line2d_48">
    <path d="M 426.522295 113.823648 
L 428.946574 112.660638 
L 431.370852 111.497627 
L 433.795131 110.334617 
L 436.219409 109.171607 
L 438.643688 108.008596 
L 441.067966 106.845586 
L 443.492245 105.682576 
L 445.916524 104.519565 
L 448.340802 103.356555 
L 450.765081 102.193545 
L 453.189359 101.030534 
L 455.613638 99.867524 
L 458.037916 98.704514 
L 460.462195 97.541504 
L 462.886474 96.378493 
L 465.310752 95.215483 
L 467.735031 94.052473 
L 470.159309 92.889462 
L 472.583588 91.726452 
L 475.007866 90.563442 
L 477.432145 89.400431 
L 479.856424 88.237421 
L 482.280702 87.074411 
L 484.704981 85.9114 
L 487.129259 84.74839 
L 489.553538 83.58538 
L 491.977816 82.422369 
L 494.402095 81.259359 
L 496.826374 80.096349 
L 499.250652 78.933338 
L 501.674931 77.770328 
L 504.099209 76.607318 
L 506.523488 75.444308 
L 508.947766 74.281297 
L 511.372045 73.118287 
L 513.796324 71.955277 
L 516.220602 70.792266 
L 518.644881 69.629256 
L 521.069159 68.466246 
L 523.493438 67.303235 
L 525.917716 66.140225 
L 528.341995 64.977215 
L 530.766274 63.814204 
L 533.190552 62.651194 
L 535.614831 61.488184 
L 538.039109 60.325173 
L 540.463388 59.162163 
L 542.887666 57.999153 
L 545.311945 56.836142 
" clip-path="url(#p9db359ac38)" style="fill: none; stroke-dasharray: 5.55,2.4; stroke-dashoffset: 0; stroke: #e6bc5c; stroke-width: 1.5"/>
   </g>
   <g id="patch_9">
    <path d="M 420.582813 110.51375 
L 420.582813 27.48625 
" style="fill: none; stroke: #000000; stroke-width: 0.8; stroke-linejoin: miter; stroke-linecap: square"/>
   </g>
   <g id="patch_10">
    <path d="M 420.582813 110.51375 
L 551.251427 110.51375 
" style="fill: none; stroke: #000000; stroke-width: 0.8; stroke-linejoin: miter; stroke-linecap: square"/>
   </g>
  </g>
 </g>
 <defs>
  <clipPath id="pd9d3690d67">
   <rect x="46.182813" y="27.48625" width="130.668615" height="83.0275"/>
  </clipPath>
  <clipPath id="p3946f0ba6b">
   <rect x="233.382813" y="27.48625" width="130.668615" height="83.0275"/>
  </clipPath>
  <clipPath id="p9db359ac38">
   <rect x="420.582813" y="27.48625" width="130.668615" height="83.0275"/>
  </clipPath>
 </defs>
</svg>
