<?xml version="1.0" encoding="utf-8" standalone="no"?>
<!DOCTYPE svg PUBLIC "-//W3C//DTD SVG 1.1//EN"
  "http://www.w3.org/Graphics/SVG/1.1/DTD/svg11.dtd">
<svg xmlns:xlink="http://www.w3.org/1999/xlink" width="557.032221pt" height="142.393438pt" viewBox="0 0 557.032221 142.393438" xmlns="http://www.w3.org/2000/svg" version="1.1">
 <metadata>
  <rdf:RDF xmlns:dc="http://purl.org/dc/elements/1.1/" xmlns:cc="http://creativecommons.org/ns#" xmlns:rdf="http://www.w3.org/1999/02/22-rdf-syntax-ns#">
   <cc:Work>
    <dc:type rdf:resource="http://purl.org/dc/dcmitype/StillImage"/>
    <dc:date>2022-12-21T23:25:32.309247</dc:date>
    <dc:format>image/svg+xml</dc:format>
    <dc:creator>
     <cc:Agent>
      <dc:title>Matplotlib v3.5.1, https://matplotlib.org/</dc:title>
     </cc:Agent>
    </dc:creator>
   </cc:Work>
  </rdf:RDF>
 </metadata>
 <defs>
  <style type="text/css">*{stroke-linejoin: round; stroke-linecap: butt}</style>
 </defs>
 <g id="figure_1">
  <g id="patch_1">
   <path d="M 0 142.393438 
L 557.032221 142.393438 
L 557.032221 0 
L 0 0 
L 0 142.393438 
z
" style="fill: none"/>
  </g>
  <g id="axes_1">
   <g id="patch_2">
    <path d="M 38.70625 105.66375 
L 173.204365 105.66375 
L 173.204365 22.63625 
L 38.70625 22.63625 
L 38.70625 105.66375 
z
" style="fill: none"/>
   </g>
   <g id="PolyCollection_1">
    <defs>
     <path id="meb1d281f86" d="M 44.819801 -37.649825 
L 44.819801 -55.075306 
L 47.315127 -56.0692 
L 49.810454 -57.082187 
L 52.305781 -58.095173 
L 54.801108 -59.10816 
L 57.296435 -60.121146 
L 59.791762 -61.135734 
L 62.287088 -62.150798 
L 64.782415 -63.165863 
L 67.277742 -64.180928 
L 69.773069 -65.195993 
L 72.268396 -66.141119 
L 74.763722 -67.030081 
L 77.259049 -67.919044 
L 79.754376 -68.808007 
L 82.249703 -69.69697 
L 84.74503 -70.585932 
L 87.240356 -71.701463 
L 89.735683 -73.032616 
L 92.23101 -74.331575 
L 94.726337 -75.35775 
L 97.221664 -76.78244 
L 99.71699 -78.465752 
L 102.212317 -80.05202 
L 104.707644 -81.109387 
L 107.202971 -82.75739 
L 109.698298 -84.810443 
L 112.193625 -86.737227 
L 114.688951 -87.954813 
L 117.184278 -89.91437 
L 119.679605 -91.515211 
L 122.174932 -91.904933 
L 124.670259 -93.309438 
L 127.165585 -94.928953 
L 129.660912 -96.55279 
L 132.156239 -98.176627 
L 134.651566 -99.800464 
L 137.146893 -101.424301 
L 139.642219 -103.048138 
L 142.137546 -104.671976 
L 144.632873 -106.295813 
L 147.1282 -107.91965 
L 149.623527 -109.543487 
L 152.118853 -111.167324 
L 154.61418 -112.791161 
L 157.109507 -114.414999 
L 159.604834 -116.038836 
L 162.100161 -117.662673 
L 164.595487 -119.28651 
L 167.090814 -120.910347 
L 167.090814 -95.228161 
L 167.090814 -95.228161 
L 164.595487 -94.199403 
L 162.100161 -93.119065 
L 159.604834 -92.113892 
L 157.109507 -91.051798 
L 154.61418 -89.989705 
L 152.118853 -88.927611 
L 149.623527 -87.865517 
L 147.1282 -86.803423 
L 144.632873 -85.741329 
L 142.137546 -84.679235 
L 139.642219 -83.617141 
L 137.146893 -82.524249 
L 134.651566 -81.429924 
L 132.156239 -80.335599 
L 129.660912 -79.241274 
L 127.165585 -78.036339 
L 124.670259 -76.913996 
L 122.174932 -75.833658 
L 119.679605 -74.75332 
L 117.184278 -73.597851 
L 114.688951 -72.362323 
L 112.193625 -71.126795 
L 109.698298 -70.038471 
L 107.202971 -69.042105 
L 104.707644 -67.819462 
L 102.212317 -66.595406 
L 99.71699 -65.371351 
L 97.221664 -64.147295 
L 94.726337 -62.929563 
L 92.23101 -61.718235 
L 89.735683 -60.808651 
L 87.240356 -59.779207 
L 84.74503 -58.701741 
L 82.249703 -57.648946 
L 79.754376 -56.631504 
L 77.259049 -55.46759 
L 74.763722 -53.992198 
L 72.268396 -52.813705 
L 69.773069 -51.636542 
L 67.277742 -50.299318 
L 64.782415 -48.881097 
L 62.287088 -47.455411 
L 59.791762 -45.927116 
L 57.296435 -44.366602 
L 54.801108 -42.709644 
L 52.305781 -41.474116 
L 49.810454 -40.235117 
L 47.315127 -38.965464 
L 44.819801 -37.649825 
z
" style="stroke: #ffdb89; stroke-opacity: 0.3"/>
    </defs>
    <g clip-path="url(#p4e4adc3834)">
     <use xlink:href="#meb1d281f86" x="0" y="142.393438" style="fill: #ffdb89; fill-opacity: 0.3; stroke: #ffdb89; stroke-opacity: 0.3"/>
    </g>
   </g>
   <g id="matplotlib.axis_1">
    <g id="xtick_1">
     <g id="line2d_1">
      <defs>
       <path id="m6f276200e2" d="M 0 0 
L 0 3.5 
" style="stroke: #000000; stroke-width: 0.8"/>
      </defs>
      <g>
       <use xlink:href="#m6f276200e2" x="44.819801" y="105.66375" style="stroke: #000000; stroke-width: 0.8"/>
      </g>
     </g>
     <g id="text_1">
      <!-- 0 -->
      <g transform="translate(42.039332 119.821562)scale(0.1 -0.1)">
       <defs>
        <path id="ArialMT-30" d="M 266 2259 
Q 266 3072 433 3567 
Q 600 4063 929 4331 
Q 1259 4600 1759 4600 
Q 2128 4600 2406 4451 
Q 2684 4303 2865 4023 
Q 3047 3744 3150 3342 
Q 3253 2941 3253 2259 
Q 3253 1453 3087 958 
Q 2922 463 2592 192 
Q 2263 -78 1759 -78 
Q 1097 -78 719 397 
Q 266 969 266 2259 
z
M 844 2259 
Q 844 1131 1108 757 
Q 1372 384 1759 384 
Q 2147 384 2411 759 
Q 2675 1134 2675 2259 
Q 2675 3391 2411 3762 
Q 2147 4134 1753 4134 
Q 1366 4134 1134 3806 
Q 844 3388 844 2259 
z
" transform="scale(0.015625)"/>
       </defs>
       <use xlink:href="#ArialMT-30"/>
      </g>
     </g>
    </g>
    <g id="xtick_2">
     <g id="line2d_2">
      <g>
       <use xlink:href="#m6f276200e2" x="57.046902" y="105.66375" style="stroke: #000000; stroke-width: 0.8"/>
      </g>
     </g>
     <g id="text_2">
      <!-- 24 -->
      <g transform="translate(51.485965 119.821562)scale(0.1 -0.1)">
       <defs>
        <path id="ArialMT-32" d="M 3222 541 
L 3222 0 
L 194 0 
Q 188 203 259 391 
Q 375 700 629 1000 
Q 884 1300 1366 1694 
Q 2113 2306 2375 2664 
Q 2638 3022 2638 3341 
Q 2638 3675 2398 3904 
Q 2159 4134 1775 4134 
Q 1369 4134 1125 3890 
Q 881 3647 878 3216 
L 300 3275 
Q 359 3922 746 4261 
Q 1134 4600 1788 4600 
Q 2447 4600 2831 4234 
Q 3216 3869 3216 3328 
Q 3216 3053 3103 2787 
Q 2991 2522 2730 2228 
Q 2469 1934 1863 1422 
Q 1356 997 1212 845 
Q 1069 694 975 541 
L 3222 541 
z
" transform="scale(0.015625)"/>
        <path id="ArialMT-34" d="M 2069 0 
L 2069 1097 
L 81 1097 
L 81 1613 
L 2172 4581 
L 2631 4581 
L 2631 1613 
L 3250 1613 
L 3250 1097 
L 2631 1097 
L 2631 0 
L 2069 0 
z
M 2069 1613 
L 2069 3678 
L 634 1613 
L 2069 1613 
z
" transform="scale(0.015625)"/>
       </defs>
       <use xlink:href="#ArialMT-32"/>
       <use xlink:href="#ArialMT-34" x="55.615234"/>
      </g>
     </g>
    </g>
    <g id="xtick_3">
     <g id="line2d_3">
      <g>
       <use xlink:href="#m6f276200e2" x="69.274003" y="105.66375" style="stroke: #000000; stroke-width: 0.8"/>
      </g>
     </g>
     <g id="text_3">
      <!-- 48 -->
      <g transform="translate(63.713066 119.821562)scale(0.1 -0.1)">
       <defs>
        <path id="ArialMT-38" d="M 1131 2484 
Q 781 2613 612 2850 
Q 444 3088 444 3419 
Q 444 3919 803 4259 
Q 1163 4600 1759 4600 
Q 2359 4600 2725 4251 
Q 3091 3903 3091 3403 
Q 3091 3084 2923 2848 
Q 2756 2613 2416 2484 
Q 2838 2347 3058 2040 
Q 3278 1734 3278 1309 
Q 3278 722 2862 322 
Q 2447 -78 1769 -78 
Q 1091 -78 675 323 
Q 259 725 259 1325 
Q 259 1772 486 2073 
Q 713 2375 1131 2484 
z
M 1019 3438 
Q 1019 3113 1228 2906 
Q 1438 2700 1772 2700 
Q 2097 2700 2305 2904 
Q 2513 3109 2513 3406 
Q 2513 3716 2298 3927 
Q 2084 4138 1766 4138 
Q 1444 4138 1231 3931 
Q 1019 3725 1019 3438 
z
M 838 1322 
Q 838 1081 952 856 
Q 1066 631 1291 507 
Q 1516 384 1775 384 
Q 2178 384 2440 643 
Q 2703 903 2703 1303 
Q 2703 1709 2433 1975 
Q 2163 2241 1756 2241 
Q 1359 2241 1098 1978 
Q 838 1716 838 1322 
z
" transform="scale(0.015625)"/>
       </defs>
       <use xlink:href="#ArialMT-34"/>
       <use xlink:href="#ArialMT-38" x="55.615234"/>
      </g>
     </g>
    </g>
    <g id="xtick_4">
     <g id="line2d_4">
      <g>
       <use xlink:href="#m6f276200e2" x="93.728206" y="105.66375" style="stroke: #000000; stroke-width: 0.8"/>
      </g>
     </g>
     <g id="text_4">
      <!-- 96 -->
      <g transform="translate(88.167269 119.821562)scale(0.1 -0.1)">
       <defs>
        <path id="ArialMT-39" d="M 350 1059 
L 891 1109 
Q 959 728 1153 556 
Q 1347 384 1650 384 
Q 1909 384 2104 503 
Q 2300 622 2425 820 
Q 2550 1019 2634 1356 
Q 2719 1694 2719 2044 
Q 2719 2081 2716 2156 
Q 2547 1888 2255 1720 
Q 1963 1553 1622 1553 
Q 1053 1553 659 1965 
Q 266 2378 266 3053 
Q 266 3750 677 4175 
Q 1088 4600 1706 4600 
Q 2153 4600 2523 4359 
Q 2894 4119 3086 3673 
Q 3278 3228 3278 2384 
Q 3278 1506 3087 986 
Q 2897 466 2520 194 
Q 2144 -78 1638 -78 
Q 1100 -78 759 220 
Q 419 519 350 1059 
z
M 2653 3081 
Q 2653 3566 2395 3850 
Q 2138 4134 1775 4134 
Q 1400 4134 1122 3828 
Q 844 3522 844 3034 
Q 844 2597 1108 2323 
Q 1372 2050 1759 2050 
Q 2150 2050 2401 2323 
Q 2653 2597 2653 3081 
z
" transform="scale(0.015625)"/>
        <path id="ArialMT-36" d="M 3184 3459 
L 2625 3416 
Q 2550 3747 2413 3897 
Q 2184 4138 1850 4138 
Q 1581 4138 1378 3988 
Q 1113 3794 959 3422 
Q 806 3050 800 2363 
Q 1003 2672 1297 2822 
Q 1591 2972 1913 2972 
Q 2475 2972 2870 2558 
Q 3266 2144 3266 1488 
Q 3266 1056 3080 686 
Q 2894 316 2569 119 
Q 2244 -78 1831 -78 
Q 1128 -78 684 439 
Q 241 956 241 2144 
Q 241 3472 731 4075 
Q 1159 4600 1884 4600 
Q 2425 4600 2770 4297 
Q 3116 3994 3184 3459 
z
M 888 1484 
Q 888 1194 1011 928 
Q 1134 663 1356 523 
Q 1578 384 1822 384 
Q 2178 384 2434 671 
Q 2691 959 2691 1453 
Q 2691 1928 2437 2201 
Q 2184 2475 1800 2475 
Q 1419 2475 1153 2201 
Q 888 1928 888 1484 
z
" transform="scale(0.015625)"/>
       </defs>
       <use xlink:href="#ArialMT-39"/>
       <use xlink:href="#ArialMT-36" x="55.615234"/>
      </g>
     </g>
    </g>
    <g id="xtick_5">
     <g id="line2d_5">
      <g>
       <use xlink:href="#m6f276200e2" x="118.182409" y="105.66375" style="stroke: #000000; stroke-width: 0.8"/>
      </g>
     </g>
     <g id="text_5">
      <!-- 144 -->
      <g transform="translate(109.841003 119.821562)scale(0.1 -0.1)">
       <defs>
        <path id="ArialMT-31" d="M 2384 0 
L 1822 0 
L 1822 3584 
Q 1619 3391 1289 3197 
Q 959 3003 697 2906 
L 697 3450 
Q 1169 3672 1522 3987 
Q 1875 4303 2022 4600 
L 2384 4600 
L 2384 0 
z
" transform="scale(0.015625)"/>
       </defs>
       <use xlink:href="#ArialMT-31"/>
       <use xlink:href="#ArialMT-34" x="55.615234"/>
       <use xlink:href="#ArialMT-34" x="111.230469"/>
      </g>
     </g>
    </g>
    <g id="xtick_6">
     <g id="line2d_6">
      <g>
       <use xlink:href="#m6f276200e2" x="142.636612" y="105.66375" style="stroke: #000000; stroke-width: 0.8"/>
      </g>
     </g>
     <g id="text_6">
      <!-- 192 -->
      <g transform="translate(134.295205 119.821562)scale(0.1 -0.1)">
       <use xlink:href="#ArialMT-31"/>
       <use xlink:href="#ArialMT-39" x="55.615234"/>
       <use xlink:href="#ArialMT-32" x="111.230469"/>
      </g>
     </g>
    </g>
    <g id="xtick_7">
     <g id="line2d_7">
      <g>
       <use xlink:href="#m6f276200e2" x="167.090814" y="105.66375" style="stroke: #000000; stroke-width: 0.8"/>
      </g>
     </g>
     <g id="text_7">
      <!-- 240 -->
      <g transform="translate(158.749408 119.821562)scale(0.1 -0.1)">
       <use xlink:href="#ArialMT-32"/>
       <use xlink:href="#ArialMT-34" x="55.615234"/>
       <use xlink:href="#ArialMT-30" x="111.230469"/>
      </g>
     </g>
    </g>
    <g id="text_8">
     <!-- Time in captivity (hours) -->
     <g transform="translate(53.077182 133.08875)scale(0.1 -0.1)">
      <defs>
       <path id="ArialMT-54" d="M 1659 0 
L 1659 4041 
L 150 4041 
L 150 4581 
L 3781 4581 
L 3781 4041 
L 2266 4041 
L 2266 0 
L 1659 0 
z
" transform="scale(0.015625)"/>
       <path id="ArialMT-69" d="M 425 3934 
L 425 4581 
L 988 4581 
L 988 3934 
L 425 3934 
z
M 425 0 
L 425 3319 
L 988 3319 
L 988 0 
L 425 0 
z
" transform="scale(0.015625)"/>
       <path id="ArialMT-6d" d="M 422 0 
L 422 3319 
L 925 3319 
L 925 2853 
Q 1081 3097 1340 3245 
Q 1600 3394 1931 3394 
Q 2300 3394 2536 3241 
Q 2772 3088 2869 2813 
Q 3263 3394 3894 3394 
Q 4388 3394 4653 3120 
Q 4919 2847 4919 2278 
L 4919 0 
L 4359 0 
L 4359 2091 
Q 4359 2428 4304 2576 
Q 4250 2725 4106 2815 
Q 3963 2906 3769 2906 
Q 3419 2906 3187 2673 
Q 2956 2441 2956 1928 
L 2956 0 
L 2394 0 
L 2394 2156 
Q 2394 2531 2256 2718 
Q 2119 2906 1806 2906 
Q 1569 2906 1367 2781 
Q 1166 2656 1075 2415 
Q 984 2175 984 1722 
L 984 0 
L 422 0 
z
" transform="scale(0.015625)"/>
       <path id="ArialMT-65" d="M 2694 1069 
L 3275 997 
Q 3138 488 2766 206 
Q 2394 -75 1816 -75 
Q 1088 -75 661 373 
Q 234 822 234 1631 
Q 234 2469 665 2931 
Q 1097 3394 1784 3394 
Q 2450 3394 2872 2941 
Q 3294 2488 3294 1666 
Q 3294 1616 3291 1516 
L 816 1516 
Q 847 969 1125 678 
Q 1403 388 1819 388 
Q 2128 388 2347 550 
Q 2566 713 2694 1069 
z
M 847 1978 
L 2700 1978 
Q 2663 2397 2488 2606 
Q 2219 2931 1791 2931 
Q 1403 2931 1139 2672 
Q 875 2413 847 1978 
z
" transform="scale(0.015625)"/>
       <path id="ArialMT-20" transform="scale(0.015625)"/>
       <path id="ArialMT-6e" d="M 422 0 
L 422 3319 
L 928 3319 
L 928 2847 
Q 1294 3394 1984 3394 
Q 2284 3394 2536 3286 
Q 2788 3178 2913 3003 
Q 3038 2828 3088 2588 
Q 3119 2431 3119 2041 
L 3119 0 
L 2556 0 
L 2556 2019 
Q 2556 2363 2490 2533 
Q 2425 2703 2258 2804 
Q 2091 2906 1866 2906 
Q 1506 2906 1245 2678 
Q 984 2450 984 1813 
L 984 0 
L 422 0 
z
" transform="scale(0.015625)"/>
       <path id="ArialMT-63" d="M 2588 1216 
L 3141 1144 
Q 3050 572 2676 248 
Q 2303 -75 1759 -75 
Q 1078 -75 664 370 
Q 250 816 250 1647 
Q 250 2184 428 2587 
Q 606 2991 970 3192 
Q 1334 3394 1763 3394 
Q 2303 3394 2647 3120 
Q 2991 2847 3088 2344 
L 2541 2259 
Q 2463 2594 2264 2762 
Q 2066 2931 1784 2931 
Q 1359 2931 1093 2626 
Q 828 2322 828 1663 
Q 828 994 1084 691 
Q 1341 388 1753 388 
Q 2084 388 2306 591 
Q 2528 794 2588 1216 
z
" transform="scale(0.015625)"/>
       <path id="ArialMT-61" d="M 2588 409 
Q 2275 144 1986 34 
Q 1697 -75 1366 -75 
Q 819 -75 525 192 
Q 231 459 231 875 
Q 231 1119 342 1320 
Q 453 1522 633 1644 
Q 813 1766 1038 1828 
Q 1203 1872 1538 1913 
Q 2219 1994 2541 2106 
Q 2544 2222 2544 2253 
Q 2544 2597 2384 2738 
Q 2169 2928 1744 2928 
Q 1347 2928 1158 2789 
Q 969 2650 878 2297 
L 328 2372 
Q 403 2725 575 2942 
Q 747 3159 1072 3276 
Q 1397 3394 1825 3394 
Q 2250 3394 2515 3294 
Q 2781 3194 2906 3042 
Q 3031 2891 3081 2659 
Q 3109 2516 3109 2141 
L 3109 1391 
Q 3109 606 3145 398 
Q 3181 191 3288 0 
L 2700 0 
Q 2613 175 2588 409 
z
M 2541 1666 
Q 2234 1541 1622 1453 
Q 1275 1403 1131 1340 
Q 988 1278 909 1158 
Q 831 1038 831 891 
Q 831 666 1001 516 
Q 1172 366 1500 366 
Q 1825 366 2078 508 
Q 2331 650 2450 897 
Q 2541 1088 2541 1459 
L 2541 1666 
z
" transform="scale(0.015625)"/>
       <path id="ArialMT-70" d="M 422 -1272 
L 422 3319 
L 934 3319 
L 934 2888 
Q 1116 3141 1344 3267 
Q 1572 3394 1897 3394 
Q 2322 3394 2647 3175 
Q 2972 2956 3137 2557 
Q 3303 2159 3303 1684 
Q 3303 1175 3120 767 
Q 2938 359 2589 142 
Q 2241 -75 1856 -75 
Q 1575 -75 1351 44 
Q 1128 163 984 344 
L 984 -1272 
L 422 -1272 
z
M 931 1641 
Q 931 1000 1190 694 
Q 1450 388 1819 388 
Q 2194 388 2461 705 
Q 2728 1022 2728 1688 
Q 2728 2322 2467 2637 
Q 2206 2953 1844 2953 
Q 1484 2953 1207 2617 
Q 931 2281 931 1641 
z
" transform="scale(0.015625)"/>
       <path id="ArialMT-74" d="M 1650 503 
L 1731 6 
Q 1494 -44 1306 -44 
Q 1000 -44 831 53 
Q 663 150 594 308 
Q 525 466 525 972 
L 525 2881 
L 113 2881 
L 113 3319 
L 525 3319 
L 525 4141 
L 1084 4478 
L 1084 3319 
L 1650 3319 
L 1650 2881 
L 1084 2881 
L 1084 941 
Q 1084 700 1114 631 
Q 1144 563 1211 522 
Q 1278 481 1403 481 
Q 1497 481 1650 503 
z
" transform="scale(0.015625)"/>
       <path id="ArialMT-76" d="M 1344 0 
L 81 3319 
L 675 3319 
L 1388 1331 
Q 1503 1009 1600 663 
Q 1675 925 1809 1294 
L 2547 3319 
L 3125 3319 
L 1869 0 
L 1344 0 
z
" transform="scale(0.015625)"/>
       <path id="ArialMT-79" d="M 397 -1278 
L 334 -750 
Q 519 -800 656 -800 
Q 844 -800 956 -737 
Q 1069 -675 1141 -563 
Q 1194 -478 1313 -144 
Q 1328 -97 1363 -6 
L 103 3319 
L 709 3319 
L 1400 1397 
Q 1534 1031 1641 628 
Q 1738 1016 1872 1384 
L 2581 3319 
L 3144 3319 
L 1881 -56 
Q 1678 -603 1566 -809 
Q 1416 -1088 1222 -1217 
Q 1028 -1347 759 -1347 
Q 597 -1347 397 -1278 
z
" transform="scale(0.015625)"/>
       <path id="ArialMT-28" d="M 1497 -1347 
Q 1031 -759 709 28 
Q 388 816 388 1659 
Q 388 2403 628 3084 
Q 909 3875 1497 4659 
L 1900 4659 
Q 1522 4009 1400 3731 
Q 1209 3300 1100 2831 
Q 966 2247 966 1656 
Q 966 153 1900 -1347 
L 1497 -1347 
z
" transform="scale(0.015625)"/>
       <path id="ArialMT-68" d="M 422 0 
L 422 4581 
L 984 4581 
L 984 2938 
Q 1378 3394 1978 3394 
Q 2347 3394 2619 3248 
Q 2891 3103 3008 2847 
Q 3125 2591 3125 2103 
L 3125 0 
L 2563 0 
L 2563 2103 
Q 2563 2525 2380 2717 
Q 2197 2909 1863 2909 
Q 1613 2909 1392 2779 
Q 1172 2650 1078 2428 
Q 984 2206 984 1816 
L 984 0 
L 422 0 
z
" transform="scale(0.015625)"/>
       <path id="ArialMT-6f" d="M 213 1659 
Q 213 2581 725 3025 
Q 1153 3394 1769 3394 
Q 2453 3394 2887 2945 
Q 3322 2497 3322 1706 
Q 3322 1066 3130 698 
Q 2938 331 2570 128 
Q 2203 -75 1769 -75 
Q 1072 -75 642 372 
Q 213 819 213 1659 
z
M 791 1659 
Q 791 1022 1069 705 
Q 1347 388 1769 388 
Q 2188 388 2466 706 
Q 2744 1025 2744 1678 
Q 2744 2294 2464 2611 
Q 2184 2928 1769 2928 
Q 1347 2928 1069 2612 
Q 791 2297 791 1659 
z
" transform="scale(0.015625)"/>
       <path id="ArialMT-75" d="M 2597 0 
L 2597 488 
Q 2209 -75 1544 -75 
Q 1250 -75 995 37 
Q 741 150 617 320 
Q 494 491 444 738 
Q 409 903 409 1263 
L 409 3319 
L 972 3319 
L 972 1478 
Q 972 1038 1006 884 
Q 1059 663 1231 536 
Q 1403 409 1656 409 
Q 1909 409 2131 539 
Q 2353 669 2445 892 
Q 2538 1116 2538 1541 
L 2538 3319 
L 3100 3319 
L 3100 0 
L 2597 0 
z
" transform="scale(0.015625)"/>
       <path id="ArialMT-72" d="M 416 0 
L 416 3319 
L 922 3319 
L 922 2816 
Q 1116 3169 1280 3281 
Q 1444 3394 1641 3394 
Q 1925 3394 2219 3213 
L 2025 2691 
Q 1819 2813 1613 2813 
Q 1428 2813 1281 2702 
Q 1134 2591 1072 2394 
Q 978 2094 978 1738 
L 978 0 
L 416 0 
z
" transform="scale(0.015625)"/>
       <path id="ArialMT-73" d="M 197 991 
L 753 1078 
Q 800 744 1014 566 
Q 1228 388 1613 388 
Q 2000 388 2187 545 
Q 2375 703 2375 916 
Q 2375 1106 2209 1216 
Q 2094 1291 1634 1406 
Q 1016 1563 777 1677 
Q 538 1791 414 1992 
Q 291 2194 291 2438 
Q 291 2659 392 2848 
Q 494 3038 669 3163 
Q 800 3259 1026 3326 
Q 1253 3394 1513 3394 
Q 1903 3394 2198 3281 
Q 2494 3169 2634 2976 
Q 2775 2784 2828 2463 
L 2278 2388 
Q 2241 2644 2061 2787 
Q 1881 2931 1553 2931 
Q 1166 2931 1000 2803 
Q 834 2675 834 2503 
Q 834 2394 903 2306 
Q 972 2216 1119 2156 
Q 1203 2125 1616 2013 
Q 2213 1853 2448 1751 
Q 2684 1650 2818 1456 
Q 2953 1263 2953 975 
Q 2953 694 2789 445 
Q 2625 197 2315 61 
Q 2006 -75 1616 -75 
Q 969 -75 630 194 
Q 291 463 197 991 
z
" transform="scale(0.015625)"/>
       <path id="ArialMT-29" d="M 791 -1347 
L 388 -1347 
Q 1322 153 1322 1656 
Q 1322 2244 1188 2822 
Q 1081 3291 891 3722 
Q 769 4003 388 4659 
L 791 4659 
Q 1378 3875 1659 3084 
Q 1900 2403 1900 1659 
Q 1900 816 1576 28 
Q 1253 -759 791 -1347 
z
" transform="scale(0.015625)"/>
      </defs>
      <use xlink:href="#ArialMT-54"/>
      <use xlink:href="#ArialMT-69" x="57.333984"/>
      <use xlink:href="#ArialMT-6d" x="79.550781"/>
      <use xlink:href="#ArialMT-65" x="162.851562"/>
      <use xlink:href="#ArialMT-20" x="218.466797"/>
      <use xlink:href="#ArialMT-69" x="246.25"/>
      <use xlink:href="#ArialMT-6e" x="268.466797"/>
      <use xlink:href="#ArialMT-20" x="324.082031"/>
      <use xlink:href="#ArialMT-63" x="351.865234"/>
      <use xlink:href="#ArialMT-61" x="401.865234"/>
      <use xlink:href="#ArialMT-70" x="457.480469"/>
      <use xlink:href="#ArialMT-74" x="513.095703"/>
      <use xlink:href="#ArialMT-69" x="540.878906"/>
      <use xlink:href="#ArialMT-76" x="563.095703"/>
      <use xlink:href="#ArialMT-69" x="613.095703"/>
      <use xlink:href="#ArialMT-74" x="635.3125"/>
      <use xlink:href="#ArialMT-79" x="663.095703"/>
      <use xlink:href="#ArialMT-20" x="713.095703"/>
      <use xlink:href="#ArialMT-28" x="740.878906"/>
      <use xlink:href="#ArialMT-68" x="774.179688"/>
      <use xlink:href="#ArialMT-6f" x="829.794922"/>
      <use xlink:href="#ArialMT-75" x="885.410156"/>
      <use xlink:href="#ArialMT-72" x="941.025391"/>
      <use xlink:href="#ArialMT-73" x="974.326172"/>
      <use xlink:href="#ArialMT-29" x="1024.326172"/>
     </g>
    </g>
   </g>
   <g id="matplotlib.axis_2">
    <g id="ytick_1">
     <g id="line2d_8">
      <defs>
       <path id="m4c3b7afd1a" d="M 0 0 
L -3.5 0 
" style="stroke: #000000; stroke-width: 0.8"/>
      </defs>
      <g>
       <use xlink:href="#m4c3b7afd1a" x="38.70625" y="105.66375" style="stroke: #000000; stroke-width: 0.8"/>
      </g>
     </g>
     <g id="text_9">
      <!-- 0 -->
      <g transform="translate(26.145313 109.242656)scale(0.1 -0.1)">
       <use xlink:href="#ArialMT-30"/>
      </g>
     </g>
    </g>
    <g id="ytick_2">
     <g id="line2d_9">
      <g>
       <use xlink:href="#m4c3b7afd1a" x="38.70625" y="71.068958" style="stroke: #000000; stroke-width: 0.8"/>
      </g>
     </g>
     <g id="text_10">
      <!-- 5 -->
      <g transform="translate(26.145313 74.647865)scale(0.1 -0.1)">
       <defs>
        <path id="ArialMT-35" d="M 266 1200 
L 856 1250 
Q 922 819 1161 601 
Q 1400 384 1738 384 
Q 2144 384 2425 690 
Q 2706 997 2706 1503 
Q 2706 1984 2436 2262 
Q 2166 2541 1728 2541 
Q 1456 2541 1237 2417 
Q 1019 2294 894 2097 
L 366 2166 
L 809 4519 
L 3088 4519 
L 3088 3981 
L 1259 3981 
L 1013 2750 
Q 1425 3038 1878 3038 
Q 2478 3038 2890 2622 
Q 3303 2206 3303 1553 
Q 3303 931 2941 478 
Q 2500 -78 1738 -78 
Q 1113 -78 717 272 
Q 322 622 266 1200 
z
" transform="scale(0.015625)"/>
       </defs>
       <use xlink:href="#ArialMT-35"/>
      </g>
     </g>
    </g>
    <g id="ytick_3">
     <g id="line2d_10">
      <g>
       <use xlink:href="#m4c3b7afd1a" x="38.70625" y="36.474167" style="stroke: #000000; stroke-width: 0.8"/>
      </g>
     </g>
     <g id="text_11">
      <!-- 10 -->
      <g transform="translate(20.584375 40.053073)scale(0.1 -0.1)">
       <use xlink:href="#ArialMT-31"/>
       <use xlink:href="#ArialMT-30" x="55.615234"/>
      </g>
     </g>
    </g>
    <g id="text_12">
     <!-- Distance error (MoAD, m) -->
     <g transform="translate(14.479688 121.1)rotate(-90)scale(0.1 -0.1)">
      <defs>
       <path id="ArialMT-44" d="M 494 0 
L 494 4581 
L 2072 4581 
Q 2606 4581 2888 4516 
Q 3281 4425 3559 4188 
Q 3922 3881 4101 3404 
Q 4281 2928 4281 2316 
Q 4281 1794 4159 1391 
Q 4038 988 3847 723 
Q 3656 459 3429 307 
Q 3203 156 2883 78 
Q 2563 0 2147 0 
L 494 0 
z
M 1100 541 
L 2078 541 
Q 2531 541 2789 625 
Q 3047 709 3200 863 
Q 3416 1078 3536 1442 
Q 3656 1806 3656 2325 
Q 3656 3044 3420 3430 
Q 3184 3816 2847 3947 
Q 2603 4041 2063 4041 
L 1100 4041 
L 1100 541 
z
" transform="scale(0.015625)"/>
       <path id="ArialMT-4d" d="M 475 0 
L 475 4581 
L 1388 4581 
L 2472 1338 
Q 2622 884 2691 659 
Q 2769 909 2934 1394 
L 4031 4581 
L 4847 4581 
L 4847 0 
L 4263 0 
L 4263 3834 
L 2931 0 
L 2384 0 
L 1059 3900 
L 1059 0 
L 475 0 
z
" transform="scale(0.015625)"/>
       <path id="ArialMT-41" d="M -9 0 
L 1750 4581 
L 2403 4581 
L 4278 0 
L 3588 0 
L 3053 1388 
L 1138 1388 
L 634 0 
L -9 0 
z
M 1313 1881 
L 2866 1881 
L 2388 3150 
Q 2169 3728 2063 4100 
Q 1975 3659 1816 3225 
L 1313 1881 
z
" transform="scale(0.015625)"/>
       <path id="ArialMT-2c" d="M 569 0 
L 569 641 
L 1209 641 
L 1209 0 
Q 1209 -353 1084 -570 
Q 959 -788 688 -906 
L 531 -666 
Q 709 -588 793 -436 
Q 878 -284 888 0 
L 569 0 
z
" transform="scale(0.015625)"/>
      </defs>
      <use xlink:href="#ArialMT-44"/>
      <use xlink:href="#ArialMT-69" x="72.216797"/>
      <use xlink:href="#ArialMT-73" x="94.433594"/>
      <use xlink:href="#ArialMT-74" x="144.433594"/>
      <use xlink:href="#ArialMT-61" x="172.216797"/>
      <use xlink:href="#ArialMT-6e" x="227.832031"/>
      <use xlink:href="#ArialMT-63" x="283.447266"/>
      <use xlink:href="#ArialMT-65" x="333.447266"/>
      <use xlink:href="#ArialMT-20" x="389.0625"/>
      <use xlink:href="#ArialMT-65" x="416.845703"/>
      <use xlink:href="#ArialMT-72" x="472.460938"/>
      <use xlink:href="#ArialMT-72" x="505.761719"/>
      <use xlink:href="#ArialMT-6f" x="539.0625"/>
      <use xlink:href="#ArialMT-72" x="594.677734"/>
      <use xlink:href="#ArialMT-20" x="627.978516"/>
      <use xlink:href="#ArialMT-28" x="655.761719"/>
      <use xlink:href="#ArialMT-4d" x="689.0625"/>
      <use xlink:href="#ArialMT-6f" x="772.363281"/>
      <use xlink:href="#ArialMT-41" x="827.978516"/>
      <use xlink:href="#ArialMT-44" x="894.677734"/>
      <use xlink:href="#ArialMT-2c" x="966.894531"/>
      <use xlink:href="#ArialMT-20" x="994.677734"/>
      <use xlink:href="#ArialMT-6d" x="1022.460938"/>
      <use xlink:href="#ArialMT-29" x="1105.761719"/>
     </g>
    </g>
   </g>
   <g id="line2d_11">
    <path d="M 44.819801 104.743613 
L 47.315127 103.427973 
L 49.810454 102.158321 
L 52.305781 100.919321 
L 54.801108 99.683793 
L 57.296435 98.026836 
L 59.791762 96.466322 
L 62.287088 94.938026 
L 64.782415 93.512341 
L 67.277742 92.094119 
L 69.773069 90.756896 
L 72.268396 89.579732 
L 74.763722 88.40124 
L 77.259049 86.925848 
L 79.754376 85.761933 
L 82.249703 84.744491 
L 84.74503 83.691697 
L 87.240356 82.61423 
L 89.735683 81.584787 
L 92.23101 80.675202 
L 94.726337 79.463875 
L 97.221664 78.246142 
L 99.71699 77.022087 
L 102.212317 75.798031 
L 104.707644 74.573976 
L 107.202971 73.351332 
L 109.698298 72.354967 
L 112.193625 71.266643 
L 114.688951 70.031115 
L 117.184278 68.795586 
L 119.679605 67.640118 
L 122.174932 66.55978 
L 124.670259 65.479442 
L 127.165585 64.357098 
L 129.660912 63.152164 
L 132.156239 62.057839 
L 134.651566 60.963514 
L 137.146893 59.869189 
L 139.642219 58.776296 
L 142.137546 57.714202 
L 144.632873 56.652108 
L 147.1282 55.590015 
L 149.623527 54.527921 
L 152.118853 53.465827 
L 154.61418 52.403733 
L 157.109507 51.341639 
L 159.604834 50.279545 
L 162.100161 49.274373 
L 164.595487 48.194035 
L 167.090814 47.165276 
" clip-path="url(#p4e4adc3834)" style="fill: none; stroke: #ffdb89; stroke-opacity: 0; stroke-width: 1.5; stroke-linecap: square"/>
   </g>
   <g id="line2d_12">
    <path d="M 44.819801 98.477124 
L 47.315127 97.310658 
L 49.810454 96.147266 
L 52.305781 94.990656 
L 54.801108 93.820482 
L 57.296435 92.641383 
L 59.791762 91.469752 
L 62.287088 90.21141 
L 64.782415 88.960977 
L 67.277742 87.736588 
L 69.773069 86.577197 
L 72.268396 85.407362 
L 74.763722 84.13061 
L 77.259049 82.923599 
L 79.754376 81.722634 
L 82.249703 80.432253 
L 84.74503 79.19823 
L 87.240356 78.026802 
L 89.735683 76.878463 
L 92.23101 75.599817 
L 94.726337 74.433125 
L 97.221664 73.312678 
L 99.71699 72.110685 
L 102.212317 70.948936 
L 104.707644 69.816088 
L 107.202971 68.701243 
L 109.698298 67.592882 
L 112.193625 66.43951 
L 114.688951 65.270212 
L 117.184278 64.119742 
L 119.679605 62.959858 
L 122.174932 61.799975 
L 124.670259 60.640091 
L 127.165585 59.480207 
L 129.660912 58.320324 
L 132.156239 57.192639 
L 134.651566 56.091532 
L 137.146893 55.001528 
L 139.642219 53.921975 
L 142.137546 52.844328 
L 144.632873 51.711814 
L 147.1282 50.611391 
L 149.623527 49.50899 
L 152.118853 48.416323 
L 154.61418 47.284809 
L 157.109507 46.130365 
L 159.604834 45.092317 
L 162.100161 43.945915 
L 164.595487 42.799512 
L 167.090814 41.65311 
" clip-path="url(#p4e4adc3834)" style="fill: none; stroke-dasharray: 5.55,2.4; stroke-dashoffset: 0; stroke: #ffdb89; stroke-opacity: 0; stroke-width: 1.5"/>
   </g>
   <g id="line2d_13">
    <path d="M 44.819801 87.318132 
L 47.315127 86.324238 
L 49.810454 85.311251 
L 52.305781 84.298264 
L 54.801108 83.285278 
L 57.296435 82.272291 
L 59.791762 81.257704 
L 62.287088 80.242639 
L 64.782415 79.227574 
L 67.277742 78.21251 
L 69.773069 77.197445 
L 72.268396 76.252319 
L 74.763722 75.363356 
L 77.259049 74.474393 
L 79.754376 73.585431 
L 82.249703 72.696468 
L 84.74503 71.807505 
L 87.240356 70.691975 
L 89.735683 69.360822 
L 92.23101 68.061862 
L 94.726337 67.035688 
L 97.221664 65.610997 
L 99.71699 63.927685 
L 102.212317 62.341418 
L 104.707644 61.284051 
L 107.202971 59.636048 
L 109.698298 57.582995 
L 112.193625 55.65621 
L 114.688951 54.438624 
L 117.184278 52.479068 
L 119.679605 50.878226 
L 122.174932 50.488504 
L 124.670259 49.083999 
L 127.165585 47.464485 
L 129.660912 45.840648 
L 132.156239 44.216811 
L 134.651566 42.592973 
L 137.146893 40.969136 
L 139.642219 39.345299 
L 142.137546 37.721462 
L 144.632873 36.097625 
L 147.1282 34.473788 
L 149.623527 32.84995 
L 152.118853 31.226113 
L 154.61418 29.602276 
L 157.109507 27.978439 
L 159.604834 26.354602 
L 162.100161 24.730765 
L 164.595487 23.106927 
L 167.090814 21.48309 
" clip-path="url(#p4e4adc3834)" style="fill: none; stroke: #ffdb89; stroke-opacity: 0; stroke-width: 1.5; stroke-linecap: square"/>
   </g>
   <g id="line2d_14">
    <defs>
     <path id="m0d6c73ce4f" d="M -3 3 
L 3 -3 
M -3 -3 
L 3 3 
" style="stroke: #444444"/>
    </defs>
    <g clip-path="url(#p4e4adc3834)">
     <use xlink:href="#m0d6c73ce4f" x="44.819801" y="96.38956" style="fill: #444444; stroke: #444444"/>
     <use xlink:href="#m0d6c73ce4f" x="45.329263" y="95.499172" style="fill: #444444; stroke: #444444"/>
     <use xlink:href="#m0d6c73ce4f" x="57.046902" y="93.709326" style="fill: #444444; stroke: #444444"/>
     <use xlink:href="#m0d6c73ce4f" x="69.274003" y="83.168726" style="fill: #444444; stroke: #444444"/>
     <use xlink:href="#m0d6c73ce4f" x="93.728206" y="74.811702" style="fill: #444444; stroke: #444444"/>
     <use xlink:href="#m0d6c73ce4f" x="118.182409" y="59.47628" style="fill: #444444; stroke: #444444"/>
     <use xlink:href="#m0d6c73ce4f" x="142.636612" y="55.68559" style="fill: #444444; stroke: #444444"/>
     <use xlink:href="#m0d6c73ce4f" x="167.090814" y="47.951535" style="fill: #444444; stroke: #444444"/>
    </g>
   </g>
   <g id="line2d_15">
    <path d="M 44.819801 95.476485 
L 47.315127 94.443509 
L 49.810454 93.410533 
L 52.305781 92.377556 
L 54.801108 91.34458 
L 57.296435 90.311604 
L 59.791762 89.278628 
L 62.287088 88.245652 
L 64.782415 87.212675 
L 67.277742 86.179699 
L 69.773069 85.146723 
L 72.268396 84.113747 
L 74.763722 83.08077 
L 77.259049 82.047794 
L 79.754376 81.014818 
L 82.249703 79.981842 
L 84.74503 78.948865 
L 87.240356 77.915889 
L 89.735683 76.882913 
L 92.23101 75.849937 
L 94.726337 74.81696 
L 97.221664 73.783984 
L 99.71699 72.751008 
L 102.212317 71.718032 
L 104.707644 70.685055 
L 107.202971 69.652079 
L 109.698298 68.619103 
L 112.193625 67.586127 
L 114.688951 66.553151 
L 117.184278 65.520174 
L 119.679605 64.487198 
L 122.174932 63.454222 
L 124.670259 62.421246 
L 127.165585 61.388269 
L 129.660912 60.355293 
L 132.156239 59.322317 
L 134.651566 58.289341 
L 137.146893 57.256364 
L 139.642219 56.223388 
L 142.137546 55.190412 
L 144.632873 54.157436 
L 147.1282 53.124459 
L 149.623527 52.091483 
L 152.118853 51.058507 
L 154.61418 50.025531 
L 157.109507 48.992554 
L 159.604834 47.959578 
L 162.100161 46.926602 
L 164.595487 45.893626 
L 167.090814 44.860649 
" clip-path="url(#p4e4adc3834)" style="fill: none; stroke: #444444; stroke-width: 1.5; stroke-linecap: square"/>
   </g>
   <g id="line2d_16">
    <path d="M 44.819801 97.756369 
L 47.315127 96.596485 
L 49.810454 95.436602 
L 52.305781 94.276718 
L 54.801108 93.116834 
L 57.296435 91.956951 
L 59.791762 90.797067 
L 62.287088 89.637183 
L 64.782415 88.4773 
L 67.277742 87.317416 
L 69.773069 86.157532 
L 72.268396 84.997649 
L 74.763722 83.837765 
L 77.259049 82.677881 
L 79.754376 81.517998 
L 82.249703 80.358114 
L 84.74503 79.19823 
L 87.240356 78.038347 
L 89.735683 76.878463 
L 92.23101 75.718579 
L 94.726337 74.558696 
L 97.221664 73.398812 
L 99.71699 72.238928 
L 102.212317 71.079045 
L 104.707644 69.919161 
L 107.202971 68.759277 
L 109.698298 67.599394 
L 112.193625 66.43951 
L 114.688951 65.279626 
L 117.184278 64.119743 
L 119.679605 62.959859 
L 122.174932 61.799975 
L 124.670259 60.640092 
L 127.165585 59.480208 
L 129.660912 58.320324 
L 132.156239 57.160441 
L 134.651566 56.000557 
L 137.146893 54.840673 
L 139.642219 53.68079 
L 142.137546 52.520906 
L 144.632873 51.361022 
L 147.1282 50.201139 
L 149.623527 49.041255 
L 152.118853 47.881371 
L 154.61418 46.721488 
L 157.109507 45.561604 
L 159.604834 44.40172 
L 162.100161 43.241837 
L 164.595487 42.081953 
L 167.090814 40.922069 
" clip-path="url(#p4e4adc3834)" style="fill: none; stroke-dasharray: 5.55,2.4; stroke-dashoffset: 0; stroke: #e6bc5c; stroke-width: 1.5"/>
   </g>
   <g id="patch_3">
    <path d="M 38.70625 105.66375 
L 38.70625 22.63625 
" style="fill: none; stroke: #000000; stroke-width: 0.8; stroke-linejoin: miter; stroke-linecap: square"/>
   </g>
   <g id="patch_4">
    <path d="M 38.70625 105.66375 
L 173.204365 105.66375 
" style="fill: none; stroke: #000000; stroke-width: 0.8; stroke-linejoin: miter; stroke-linecap: square"/>
   </g>
  </g>
  <g id="axes_2">
   <g id="patch_5">
    <path d="M 225.90625 105.66375 
L 360.404365 105.66375 
L 360.404365 22.63625 
L 225.90625 22.63625 
L 225.90625 105.66375 
z
" style="fill: none"/>
   </g>
   <g id="PolyCollection_2">
    <defs>
     <path id="m3ebfadc0fe" d="M 232.019801 -37.649825 
L 232.019801 -55.075306 
L 234.515127 -56.0692 
L 237.010454 -57.082187 
L 239.505781 -58.095173 
L 242.001108 -59.10816 
L 244.496435 -60.121146 
L 246.991762 -61.135734 
L 249.487088 -62.150798 
L 251.982415 -63.165863 
L 254.477742 -64.180928 
L 256.973069 -65.195993 
L 259.468396 -66.141119 
L 261.963722 -67.030081 
L 264.459049 -67.919044 
L 266.954376 -68.808007 
L 269.449703 -69.69697 
L 271.94503 -70.585932 
L 274.440356 -71.701463 
L 276.935683 -73.032616 
L 279.43101 -74.331575 
L 281.926337 -75.35775 
L 284.421664 -76.78244 
L 286.91699 -78.465752 
L 289.412317 -80.05202 
L 291.907644 -81.109387 
L 294.402971 -82.75739 
L 296.898298 -84.810443 
L 299.393625 -86.737227 
L 301.888951 -87.954813 
L 304.384278 -89.91437 
L 306.879605 -91.515211 
L 309.374932 -91.904933 
L 311.870259 -93.309438 
L 314.365585 -94.928953 
L 316.860912 -96.55279 
L 319.356239 -98.176627 
L 321.851566 -99.800464 
L 324.346893 -101.424301 
L 326.842219 -103.048138 
L 329.337546 -104.671976 
L 331.832873 -106.295813 
L 334.3282 -107.91965 
L 336.823527 -109.543487 
L 339.318853 -111.167324 
L 341.81418 -112.791161 
L 344.309507 -114.414999 
L 346.804834 -116.038836 
L 349.300161 -117.662673 
L 351.795487 -119.28651 
L 354.290814 -120.910347 
L 354.290814 -95.228161 
L 354.290814 -95.228161 
L 351.795487 -94.199403 
L 349.300161 -93.119065 
L 346.804834 -92.113892 
L 344.309507 -91.051798 
L 341.81418 -89.989705 
L 339.318853 -88.927611 
L 336.823527 -87.865517 
L 334.3282 -86.803423 
L 331.832873 -85.741329 
L 329.337546 -84.679235 
L 326.842219 -83.617141 
L 324.346893 -82.524249 
L 321.851566 -81.429924 
L 319.356239 -80.335599 
L 316.860912 -79.241274 
L 314.365585 -78.036339 
L 311.870259 -76.913996 
L 309.374932 -75.833658 
L 306.879605 -74.75332 
L 304.384278 -73.597851 
L 301.888951 -72.362323 
L 299.393625 -71.126795 
L 296.898298 -70.038471 
L 294.402971 -69.042105 
L 291.907644 -67.819462 
L 289.412317 -66.595406 
L 286.91699 -65.371351 
L 284.421664 -64.147295 
L 281.926337 -62.929563 
L 279.43101 -61.718235 
L 276.935683 -60.808651 
L 274.440356 -59.779207 
L 271.94503 -58.701741 
L 269.449703 -57.648946 
L 266.954376 -56.631504 
L 264.459049 -55.46759 
L 261.963722 -53.992198 
L 259.468396 -52.813705 
L 256.973069 -51.636542 
L 254.477742 -50.299318 
L 251.982415 -48.881097 
L 249.487088 -47.455411 
L 246.991762 -45.927116 
L 244.496435 -44.366602 
L 242.001108 -42.709644 
L 239.505781 -41.474116 
L 237.010454 -40.235117 
L 234.515127 -38.965464 
L 232.019801 -37.649825 
z
" style="stroke: #ffdb89; stroke-opacity: 0.3"/>
    </defs>
    <g clip-path="url(#pffebf1cb4b)">
     <use xlink:href="#m3ebfadc0fe" x="0" y="142.393438" style="fill: #ffdb89; fill-opacity: 0.3; stroke: #ffdb89; stroke-opacity: 0.3"/>
    </g>
   </g>
   <g id="matplotlib.axis_3">
    <g id="xtick_8">
     <g id="line2d_17">
      <g>
       <use xlink:href="#m6f276200e2" x="232.019801" y="105.66375" style="stroke: #000000; stroke-width: 0.8"/>
      </g>
     </g>
     <g id="text_13">
      <!-- 0 -->
      <g transform="translate(229.239332 119.821562)scale(0.1 -0.1)">
       <use xlink:href="#ArialMT-30"/>
      </g>
     </g>
    </g>
    <g id="xtick_9">
     <g id="line2d_18">
      <g>
       <use xlink:href="#m6f276200e2" x="244.246902" y="105.66375" style="stroke: #000000; stroke-width: 0.8"/>
      </g>
     </g>
     <g id="text_14">
      <!-- 24 -->
      <g transform="translate(238.685965 119.821562)scale(0.1 -0.1)">
       <use xlink:href="#ArialMT-32"/>
       <use xlink:href="#ArialMT-34" x="55.615234"/>
      </g>
     </g>
    </g>
    <g id="xtick_10">
     <g id="line2d_19">
      <g>
       <use xlink:href="#m6f276200e2" x="256.474003" y="105.66375" style="stroke: #000000; stroke-width: 0.8"/>
      </g>
     </g>
     <g id="text_15">
      <!-- 48 -->
      <g transform="translate(250.913066 119.821562)scale(0.1 -0.1)">
       <use xlink:href="#ArialMT-34"/>
       <use xlink:href="#ArialMT-38" x="55.615234"/>
      </g>
     </g>
    </g>
    <g id="xtick_11">
     <g id="line2d_20">
      <g>
       <use xlink:href="#m6f276200e2" x="280.928206" y="105.66375" style="stroke: #000000; stroke-width: 0.8"/>
      </g>
     </g>
     <g id="text_16">
      <!-- 96 -->
      <g transform="translate(275.367269 119.821562)scale(0.1 -0.1)">
       <use xlink:href="#ArialMT-39"/>
       <use xlink:href="#ArialMT-36" x="55.615234"/>
      </g>
     </g>
    </g>
    <g id="xtick_12">
     <g id="line2d_21">
      <g>
       <use xlink:href="#m6f276200e2" x="305.382409" y="105.66375" style="stroke: #000000; stroke-width: 0.8"/>
      </g>
     </g>
     <g id="text_17">
      <!-- 144 -->
      <g transform="translate(297.041003 119.821562)scale(0.1 -0.1)">
       <use xlink:href="#ArialMT-31"/>
       <use xlink:href="#ArialMT-34" x="55.615234"/>
       <use xlink:href="#ArialMT-34" x="111.230469"/>
      </g>
     </g>
    </g>
    <g id="xtick_13">
     <g id="line2d_22">
      <g>
       <use xlink:href="#m6f276200e2" x="329.836612" y="105.66375" style="stroke: #000000; stroke-width: 0.8"/>
      </g>
     </g>
     <g id="text_18">
      <!-- 192 -->
      <g transform="translate(321.495205 119.821562)scale(0.1 -0.1)">
       <use xlink:href="#ArialMT-31"/>
       <use xlink:href="#ArialMT-39" x="55.615234"/>
       <use xlink:href="#ArialMT-32" x="111.230469"/>
      </g>
     </g>
    </g>
    <g id="xtick_14">
     <g id="line2d_23">
      <g>
       <use xlink:href="#m6f276200e2" x="354.290814" y="105.66375" style="stroke: #000000; stroke-width: 0.8"/>
      </g>
     </g>
     <g id="text_19">
      <!-- 240 -->
      <g transform="translate(345.949408 119.821562)scale(0.1 -0.1)">
       <use xlink:href="#ArialMT-32"/>
       <use xlink:href="#ArialMT-34" x="55.615234"/>
       <use xlink:href="#ArialMT-30" x="111.230469"/>
      </g>
     </g>
    </g>
    <g id="text_20">
     <!-- Time in captivity (hours) -->
     <g transform="translate(240.277182 133.08875)scale(0.1 -0.1)">
      <use xlink:href="#ArialMT-54"/>
      <use xlink:href="#ArialMT-69" x="57.333984"/>
      <use xlink:href="#ArialMT-6d" x="79.550781"/>
      <use xlink:href="#ArialMT-65" x="162.851562"/>
      <use xlink:href="#ArialMT-20" x="218.466797"/>
      <use xlink:href="#ArialMT-69" x="246.25"/>
      <use xlink:href="#ArialMT-6e" x="268.466797"/>
      <use xlink:href="#ArialMT-20" x="324.082031"/>
      <use xlink:href="#ArialMT-63" x="351.865234"/>
      <use xlink:href="#ArialMT-61" x="401.865234"/>
      <use xlink:href="#ArialMT-70" x="457.480469"/>
      <use xlink:href="#ArialMT-74" x="513.095703"/>
      <use xlink:href="#ArialMT-69" x="540.878906"/>
      <use xlink:href="#ArialMT-76" x="563.095703"/>
      <use xlink:href="#ArialMT-69" x="613.095703"/>
      <use xlink:href="#ArialMT-74" x="635.3125"/>
      <use xlink:href="#ArialMT-79" x="663.095703"/>
      <use xlink:href="#ArialMT-20" x="713.095703"/>
      <use xlink:href="#ArialMT-28" x="740.878906"/>
      <use xlink:href="#ArialMT-68" x="774.179688"/>
      <use xlink:href="#ArialMT-6f" x="829.794922"/>
      <use xlink:href="#ArialMT-75" x="885.410156"/>
      <use xlink:href="#ArialMT-72" x="941.025391"/>
      <use xlink:href="#ArialMT-73" x="974.326172"/>
      <use xlink:href="#ArialMT-29" x="1024.326172"/>
     </g>
    </g>
   </g>
   <g id="matplotlib.axis_4">
    <g id="ytick_4">
     <g id="line2d_24">
      <g>
       <use xlink:href="#m4c3b7afd1a" x="225.90625" y="105.66375" style="stroke: #000000; stroke-width: 0.8"/>
      </g>
     </g>
     <g id="text_21">
      <!-- 0 -->
      <g transform="translate(213.345313 109.242656)scale(0.1 -0.1)">
       <use xlink:href="#ArialMT-30"/>
      </g>
     </g>
    </g>
    <g id="ytick_5">
     <g id="line2d_25">
      <g>
       <use xlink:href="#m4c3b7afd1a" x="225.90625" y="71.068958" style="stroke: #000000; stroke-width: 0.8"/>
      </g>
     </g>
     <g id="text_22">
      <!-- 5 -->
      <g transform="translate(213.345313 74.647865)scale(0.1 -0.1)">
       <use xlink:href="#ArialMT-35"/>
      </g>
     </g>
    </g>
    <g id="ytick_6">
     <g id="line2d_26">
      <g>
       <use xlink:href="#m4c3b7afd1a" x="225.90625" y="36.474167" style="stroke: #000000; stroke-width: 0.8"/>
      </g>
     </g>
     <g id="text_23">
      <!-- 10 -->
      <g transform="translate(207.784375 40.053073)scale(0.1 -0.1)">
       <use xlink:href="#ArialMT-31"/>
       <use xlink:href="#ArialMT-30" x="55.615234"/>
      </g>
     </g>
    </g>
    <g id="text_24">
     <!-- Distance error (MoAD, m) -->
     <g transform="translate(201.679688 121.1)rotate(-90)scale(0.1 -0.1)">
      <use xlink:href="#ArialMT-44"/>
      <use xlink:href="#ArialMT-69" x="72.216797"/>
      <use xlink:href="#ArialMT-73" x="94.433594"/>
      <use xlink:href="#ArialMT-74" x="144.433594"/>
      <use xlink:href="#ArialMT-61" x="172.216797"/>
      <use xlink:href="#ArialMT-6e" x="227.832031"/>
      <use xlink:href="#ArialMT-63" x="283.447266"/>
      <use xlink:href="#ArialMT-65" x="333.447266"/>
      <use xlink:href="#ArialMT-20" x="389.0625"/>
      <use xlink:href="#ArialMT-65" x="416.845703"/>
      <use xlink:href="#ArialMT-72" x="472.460938"/>
      <use xlink:href="#ArialMT-72" x="505.761719"/>
      <use xlink:href="#ArialMT-6f" x="539.0625"/>
      <use xlink:href="#ArialMT-72" x="594.677734"/>
      <use xlink:href="#ArialMT-20" x="627.978516"/>
      <use xlink:href="#ArialMT-28" x="655.761719"/>
      <use xlink:href="#ArialMT-4d" x="689.0625"/>
      <use xlink:href="#ArialMT-6f" x="772.363281"/>
      <use xlink:href="#ArialMT-41" x="827.978516"/>
      <use xlink:href="#ArialMT-44" x="894.677734"/>
      <use xlink:href="#ArialMT-2c" x="966.894531"/>
      <use xlink:href="#ArialMT-20" x="994.677734"/>
      <use xlink:href="#ArialMT-6d" x="1022.460938"/>
      <use xlink:href="#ArialMT-29" x="1105.761719"/>
     </g>
    </g>
   </g>
   <g id="line2d_27">
    <path d="M 232.019801 104.743613 
L 234.515127 103.427973 
L 237.010454 102.158321 
L 239.505781 100.919321 
L 242.001108 99.683793 
L 244.496435 98.026836 
L 246.991762 96.466322 
L 249.487088 94.938026 
L 251.982415 93.512341 
L 254.477742 92.094119 
L 256.973069 90.756896 
L 259.468396 89.579732 
L 261.963722 88.40124 
L 264.459049 86.925848 
L 266.954376 85.761933 
L 269.449703 84.744491 
L 271.94503 83.691697 
L 274.440356 82.61423 
L 276.935683 81.584787 
L 279.43101 80.675202 
L 281.926337 79.463875 
L 284.421664 78.246142 
L 286.91699 77.022087 
L 289.412317 75.798031 
L 291.907644 74.573976 
L 294.402971 73.351332 
L 296.898298 72.354967 
L 299.393625 71.266643 
L 301.888951 70.031115 
L 304.384278 68.795586 
L 306.879605 67.640118 
L 309.374932 66.55978 
L 311.870259 65.479442 
L 314.365585 64.357098 
L 316.860912 63.152164 
L 319.356239 62.057839 
L 321.851566 60.963514 
L 324.346893 59.869189 
L 326.842219 58.776296 
L 329.337546 57.714202 
L 331.832873 56.652108 
L 334.3282 55.590015 
L 336.823527 54.527921 
L 339.318853 53.465827 
L 341.81418 52.403733 
L 344.309507 51.341639 
L 346.804834 50.279545 
L 349.300161 49.274373 
L 351.795487 48.194035 
L 354.290814 47.165276 
" clip-path="url(#pffebf1cb4b)" style="fill: none; stroke: #ffdb89; stroke-opacity: 0; stroke-width: 1.5; stroke-linecap: square"/>
   </g>
   <g id="line2d_28">
    <path d="M 232.019801 98.477124 
L 234.515127 97.310658 
L 237.010454 96.147266 
L 239.505781 94.990656 
L 242.001108 93.820482 
L 244.496435 92.641383 
L 246.991762 91.469752 
L 249.487088 90.21141 
L 251.982415 88.960977 
L 254.477742 87.736588 
L 256.973069 86.577197 
L 259.468396 85.407362 
L 261.963722 84.13061 
L 264.459049 82.923599 
L 266.954376 81.722634 
L 269.449703 80.432253 
L 271.94503 79.19823 
L 274.440356 78.026802 
L 276.935683 76.878463 
L 279.43101 75.599817 
L 281.926337 74.433125 
L 284.421664 73.312678 
L 286.91699 72.110685 
L 289.412317 70.948936 
L 291.907644 69.816088 
L 294.402971 68.701243 
L 296.898298 67.592882 
L 299.393625 66.43951 
L 301.888951 65.270212 
L 304.384278 64.119742 
L 306.879605 62.959858 
L 309.374932 61.799975 
L 311.870259 60.640091 
L 314.365585 59.480207 
L 316.860912 58.320324 
L 319.356239 57.192639 
L 321.851566 56.091532 
L 324.346893 55.001528 
L 326.842219 53.921975 
L 329.337546 52.844328 
L 331.832873 51.711814 
L 334.3282 50.611391 
L 336.823527 49.50899 
L 339.318853 48.416323 
L 341.81418 47.284809 
L 344.309507 46.130365 
L 346.804834 45.092317 
L 349.300161 43.945915 
L 351.795487 42.799512 
L 354.290814 41.65311 
" clip-path="url(#pffebf1cb4b)" style="fill: none; stroke-dasharray: 5.55,2.4; stroke-dashoffset: 0; stroke: #ffdb89; stroke-opacity: 0; stroke-width: 1.5"/>
   </g>
   <g id="line2d_29">
    <path d="M 232.019801 87.318132 
L 234.515127 86.324238 
L 237.010454 85.311251 
L 239.505781 84.298264 
L 242.001108 83.285278 
L 244.496435 82.272291 
L 246.991762 81.257704 
L 249.487088 80.242639 
L 251.982415 79.227574 
L 254.477742 78.21251 
L 256.973069 77.197445 
L 259.468396 76.252319 
L 261.963722 75.363356 
L 264.459049 74.474393 
L 266.954376 73.585431 
L 269.449703 72.696468 
L 271.94503 71.807505 
L 274.440356 70.691975 
L 276.935683 69.360822 
L 279.43101 68.061862 
L 281.926337 67.035688 
L 284.421664 65.610997 
L 286.91699 63.927685 
L 289.412317 62.341418 
L 291.907644 61.284051 
L 294.402971 59.636048 
L 296.898298 57.582995 
L 299.393625 55.65621 
L 301.888951 54.438624 
L 304.384278 52.479068 
L 306.879605 50.878226 
L 309.374932 50.488504 
L 311.870259 49.083999 
L 314.365585 47.464485 
L 316.860912 45.840648 
L 319.356239 44.216811 
L 321.851566 42.592973 
L 324.346893 40.969136 
L 326.842219 39.345299 
L 329.337546 37.721462 
L 331.832873 36.097625 
L 334.3282 34.473788 
L 336.823527 32.84995 
L 339.318853 31.226113 
L 341.81418 29.602276 
L 344.309507 27.978439 
L 346.804834 26.354602 
L 349.300161 24.730765 
L 351.795487 23.106927 
L 354.290814 21.48309 
" clip-path="url(#pffebf1cb4b)" style="fill: none; stroke: #ffdb89; stroke-opacity: 0; stroke-width: 1.5; stroke-linecap: square"/>
   </g>
   <g id="line2d_30">
    <g clip-path="url(#pffebf1cb4b)">
     <use xlink:href="#m0d6c73ce4f" x="232.019801" y="96.209761" style="fill: #444444; stroke: #444444"/>
     <use xlink:href="#m0d6c73ce4f" x="232.529263" y="95.012159" style="fill: #444444; stroke: #444444"/>
     <use xlink:href="#m0d6c73ce4f" x="244.246902" y="95.00991" style="fill: #444444; stroke: #444444"/>
     <use xlink:href="#m0d6c73ce4f" x="256.474003" y="92.657385" style="fill: #444444; stroke: #444444"/>
     <use xlink:href="#m0d6c73ce4f" x="280.928206" y="91.476322" style="fill: #444444; stroke: #444444"/>
     <use xlink:href="#m0d6c73ce4f" x="305.382409" y="81.89605" style="fill: #444444; stroke: #444444"/>
     <use xlink:href="#m0d6c73ce4f" x="329.836612" y="64.153001" style="fill: #444444; stroke: #444444"/>
     <use xlink:href="#m0d6c73ce4f" x="354.290814" y="45.053872" style="fill: #444444; stroke: #444444"/>
    </g>
   </g>
   <g id="line2d_31">
    <path d="M 232.019801 100.484706 
L 234.515127 99.548445 
L 237.010454 98.612184 
L 239.505781 97.675923 
L 242.001108 96.739662 
L 244.496435 95.803401 
L 246.991762 94.86714 
L 249.487088 93.930879 
L 251.982415 92.994618 
L 254.477742 92.058357 
L 256.973069 91.122096 
L 259.468396 90.185836 
L 261.963722 89.249575 
L 264.459049 88.313314 
L 266.954376 87.377053 
L 269.449703 86.440792 
L 271.94503 85.504531 
L 274.440356 84.56827 
L 276.935683 83.632009 
L 279.43101 82.695748 
L 281.926337 81.759487 
L 284.421664 80.823226 
L 286.91699 79.886966 
L 289.412317 78.950705 
L 291.907644 78.014444 
L 294.402971 77.078183 
L 296.898298 76.141922 
L 299.393625 75.205661 
L 301.888951 74.2694 
L 304.384278 73.333139 
L 306.879605 72.396878 
L 309.374932 71.460617 
L 311.870259 70.524356 
L 314.365585 69.588096 
L 316.860912 68.651835 
L 319.356239 67.715574 
L 321.851566 66.779313 
L 324.346893 65.843052 
L 326.842219 64.906791 
L 329.337546 63.97053 
L 331.832873 63.034269 
L 334.3282 62.098008 
L 336.823527 61.161747 
L 339.318853 60.225486 
L 341.81418 59.289226 
L 344.309507 58.352965 
L 346.804834 57.416704 
L 349.300161 56.480443 
L 351.795487 55.544182 
L 354.290814 54.607921 
" clip-path="url(#pffebf1cb4b)" style="fill: none; stroke: #444444; stroke-width: 1.5; stroke-linecap: square"/>
   </g>
   <g id="line2d_32">
    <path d="M 232.019801 97.756369 
L 234.515127 96.596485 
L 237.010454 95.436602 
L 239.505781 94.276718 
L 242.001108 93.116834 
L 244.496435 91.956951 
L 246.991762 90.797067 
L 249.487088 89.637183 
L 251.982415 88.4773 
L 254.477742 87.317416 
L 256.973069 86.157532 
L 259.468396 84.997649 
L 261.963722 83.837765 
L 264.459049 82.677881 
L 266.954376 81.517998 
L 269.449703 80.358114 
L 271.94503 79.19823 
L 274.440356 78.038347 
L 276.935683 76.878463 
L 279.43101 75.718579 
L 281.926337 74.558696 
L 284.421664 73.398812 
L 286.91699 72.238928 
L 289.412317 71.079045 
L 291.907644 69.919161 
L 294.402971 68.759277 
L 296.898298 67.599394 
L 299.393625 66.43951 
L 301.888951 65.279626 
L 304.384278 64.119743 
L 306.879605 62.959859 
L 309.374932 61.799975 
L 311.870259 60.640092 
L 314.365585 59.480208 
L 316.860912 58.320324 
L 319.356239 57.160441 
L 321.851566 56.000557 
L 324.346893 54.840673 
L 326.842219 53.68079 
L 329.337546 52.520906 
L 331.832873 51.361022 
L 334.3282 50.201139 
L 336.823527 49.041255 
L 339.318853 47.881371 
L 341.81418 46.721488 
L 344.309507 45.561604 
L 346.804834 44.40172 
L 349.300161 43.241837 
L 351.795487 42.081953 
L 354.290814 40.922069 
" clip-path="url(#pffebf1cb4b)" style="fill: none; stroke-dasharray: 5.55,2.4; stroke-dashoffset: 0; stroke: #e6bc5c; stroke-width: 1.5"/>
   </g>
   <g id="patch_6">
    <path d="M 225.90625 105.66375 
L 225.90625 22.63625 
" style="fill: none; stroke: #000000; stroke-width: 0.8; stroke-linejoin: miter; stroke-linecap: square"/>
   </g>
   <g id="patch_7">
    <path d="M 225.90625 105.66375 
L 360.404365 105.66375 
" style="fill: none; stroke: #000000; stroke-width: 0.8; stroke-linejoin: miter; stroke-linecap: square"/>
   </g>
  </g>
  <g id="axes_3">
   <g id="patch_8">
    <path d="M 413.10625 105.66375 
L 547.604365 105.66375 
L 547.604365 22.63625 
L 413.10625 22.63625 
L 413.10625 105.66375 
z
" style="fill: none"/>
   </g>
   <g id="PolyCollection_3">
    <defs>
     <path id="m9ee7436184" d="M 419.219801 -37.649825 
L 419.219801 -55.075306 
L 421.715127 -56.0692 
L 424.210454 -57.082187 
L 426.705781 -58.095173 
L 429.201108 -59.10816 
L 431.696435 -60.121146 
L 434.191762 -61.135734 
L 436.687088 -62.150798 
L 439.182415 -63.165863 
L 441.677742 -64.180928 
L 444.173069 -65.195993 
L 446.668396 -66.141119 
L 449.163722 -67.030081 
L 451.659049 -67.919044 
L 454.154376 -68.808007 
L 456.649703 -69.69697 
L 459.14503 -70.585932 
L 461.640356 -71.701463 
L 464.135683 -73.032616 
L 466.63101 -74.331575 
L 469.126337 -75.35775 
L 471.621664 -76.78244 
L 474.11699 -78.465752 
L 476.612317 -80.05202 
L 479.107644 -81.109387 
L 481.602971 -82.75739 
L 484.098298 -84.810443 
L 486.593625 -86.737227 
L 489.088951 -87.954813 
L 491.584278 -89.91437 
L 494.079605 -91.515211 
L 496.574932 -91.904933 
L 499.070259 -93.309438 
L 501.565585 -94.928953 
L 504.060912 -96.55279 
L 506.556239 -98.176627 
L 509.051566 -99.800464 
L 511.546893 -101.424301 
L 514.042219 -103.048138 
L 516.537546 -104.671976 
L 519.032873 -106.295813 
L 521.5282 -107.91965 
L 524.023527 -109.543487 
L 526.518853 -111.167324 
L 529.01418 -112.791161 
L 531.509507 -114.414999 
L 534.004834 -116.038836 
L 536.500161 -117.662673 
L 538.995487 -119.28651 
L 541.490814 -120.910347 
L 541.490814 -95.228161 
L 541.490814 -95.228161 
L 538.995487 -94.199403 
L 536.500161 -93.119065 
L 534.004834 -92.113892 
L 531.509507 -91.051798 
L 529.01418 -89.989705 
L 526.518853 -88.927611 
L 524.023527 -87.865517 
L 521.5282 -86.803423 
L 519.032873 -85.741329 
L 516.537546 -84.679235 
L 514.042219 -83.617141 
L 511.546893 -82.524249 
L 509.051566 -81.429924 
L 506.556239 -80.335599 
L 504.060912 -79.241274 
L 501.565585 -78.036339 
L 499.070259 -76.913996 
L 496.574932 -75.833658 
L 494.079605 -74.75332 
L 491.584278 -73.597851 
L 489.088951 -72.362323 
L 486.593625 -71.126795 
L 484.098298 -70.038471 
L 481.602971 -69.042105 
L 479.107644 -67.819462 
L 476.612317 -66.595406 
L 474.11699 -65.371351 
L 471.621664 -64.147295 
L 469.126337 -62.929563 
L 466.63101 -61.718235 
L 464.135683 -60.808651 
L 461.640356 -59.779207 
L 459.14503 -58.701741 
L 456.649703 -57.648946 
L 454.154376 -56.631504 
L 451.659049 -55.46759 
L 449.163722 -53.992198 
L 446.668396 -52.813705 
L 444.173069 -51.636542 
L 441.677742 -50.299318 
L 439.182415 -48.881097 
L 436.687088 -47.455411 
L 434.191762 -45.927116 
L 431.696435 -44.366602 
L 429.201108 -42.709644 
L 426.705781 -41.474116 
L 424.210454 -40.235117 
L 421.715127 -38.965464 
L 419.219801 -37.649825 
z
" style="stroke: #ffdb89; stroke-opacity: 0.3"/>
    </defs>
    <g clip-path="url(#p7807770346)">
     <use xlink:href="#m9ee7436184" x="0" y="142.393438" style="fill: #ffdb89; fill-opacity: 0.3; stroke: #ffdb89; stroke-opacity: 0.3"/>
    </g>
   </g>
   <g id="matplotlib.axis_5">
    <g id="xtick_15">
     <g id="line2d_33">
      <g>
       <use xlink:href="#m6f276200e2" x="419.219801" y="105.66375" style="stroke: #000000; stroke-width: 0.8"/>
      </g>
     </g>
     <g id="text_25">
      <!-- 0 -->
      <g transform="translate(416.439332 119.821562)scale(0.1 -0.1)">
       <use xlink:href="#ArialMT-30"/>
      </g>
     </g>
    </g>
    <g id="xtick_16">
     <g id="line2d_34">
      <g>
       <use xlink:href="#m6f276200e2" x="431.446902" y="105.66375" style="stroke: #000000; stroke-width: 0.8"/>
      </g>
     </g>
     <g id="text_26">
      <!-- 24 -->
      <g transform="translate(425.885965 119.821562)scale(0.1 -0.1)">
       <use xlink:href="#ArialMT-32"/>
       <use xlink:href="#ArialMT-34" x="55.615234"/>
      </g>
     </g>
    </g>
    <g id="xtick_17">
     <g id="line2d_35">
      <g>
       <use xlink:href="#m6f276200e2" x="443.674003" y="105.66375" style="stroke: #000000; stroke-width: 0.8"/>
      </g>
     </g>
     <g id="text_27">
      <!-- 48 -->
      <g transform="translate(438.113066 119.821562)scale(0.1 -0.1)">
       <use xlink:href="#ArialMT-34"/>
       <use xlink:href="#ArialMT-38" x="55.615234"/>
      </g>
     </g>
    </g>
    <g id="xtick_18">
     <g id="line2d_36">
      <g>
       <use xlink:href="#m6f276200e2" x="468.128206" y="105.66375" style="stroke: #000000; stroke-width: 0.8"/>
      </g>
     </g>
     <g id="text_28">
      <!-- 96 -->
      <g transform="translate(462.567269 119.821562)scale(0.1 -0.1)">
       <use xlink:href="#ArialMT-39"/>
       <use xlink:href="#ArialMT-36" x="55.615234"/>
      </g>
     </g>
    </g>
    <g id="xtick_19">
     <g id="line2d_37">
      <g>
       <use xlink:href="#m6f276200e2" x="492.582409" y="105.66375" style="stroke: #000000; stroke-width: 0.8"/>
      </g>
     </g>
     <g id="text_29">
      <!-- 144 -->
      <g transform="translate(484.241003 119.821562)scale(0.1 -0.1)">
       <use xlink:href="#ArialMT-31"/>
       <use xlink:href="#ArialMT-34" x="55.615234"/>
       <use xlink:href="#ArialMT-34" x="111.230469"/>
      </g>
     </g>
    </g>
    <g id="xtick_20">
     <g id="line2d_38">
      <g>
       <use xlink:href="#m6f276200e2" x="517.036612" y="105.66375" style="stroke: #000000; stroke-width: 0.8"/>
      </g>
     </g>
     <g id="text_30">
      <!-- 192 -->
      <g transform="translate(508.695205 119.821562)scale(0.1 -0.1)">
       <use xlink:href="#ArialMT-31"/>
       <use xlink:href="#ArialMT-39" x="55.615234"/>
       <use xlink:href="#ArialMT-32" x="111.230469"/>
      </g>
     </g>
    </g>
    <g id="xtick_21">
     <g id="line2d_39">
      <g>
       <use xlink:href="#m6f276200e2" x="541.490814" y="105.66375" style="stroke: #000000; stroke-width: 0.8"/>
      </g>
     </g>
     <g id="text_31">
      <!-- 240 -->
      <g transform="translate(533.149408 119.821562)scale(0.1 -0.1)">
       <use xlink:href="#ArialMT-32"/>
       <use xlink:href="#ArialMT-34" x="55.615234"/>
       <use xlink:href="#ArialMT-30" x="111.230469"/>
      </g>
     </g>
    </g>
    <g id="text_32">
     <!-- Time in captivity (hours) -->
     <g transform="translate(427.477182 133.08875)scale(0.1 -0.1)">
      <use xlink:href="#ArialMT-54"/>
      <use xlink:href="#ArialMT-69" x="57.333984"/>
      <use xlink:href="#ArialMT-6d" x="79.550781"/>
      <use xlink:href="#ArialMT-65" x="162.851562"/>
      <use xlink:href="#ArialMT-20" x="218.466797"/>
      <use xlink:href="#ArialMT-69" x="246.25"/>
      <use xlink:href="#ArialMT-6e" x="268.466797"/>
      <use xlink:href="#ArialMT-20" x="324.082031"/>
      <use xlink:href="#ArialMT-63" x="351.865234"/>
      <use xlink:href="#ArialMT-61" x="401.865234"/>
      <use xlink:href="#ArialMT-70" x="457.480469"/>
      <use xlink:href="#ArialMT-74" x="513.095703"/>
      <use xlink:href="#ArialMT-69" x="540.878906"/>
      <use xlink:href="#ArialMT-76" x="563.095703"/>
      <use xlink:href="#ArialMT-69" x="613.095703"/>
      <use xlink:href="#ArialMT-74" x="635.3125"/>
      <use xlink:href="#ArialMT-79" x="663.095703"/>
      <use xlink:href="#ArialMT-20" x="713.095703"/>
      <use xlink:href="#ArialMT-28" x="740.878906"/>
      <use xlink:href="#ArialMT-68" x="774.179688"/>
      <use xlink:href="#ArialMT-6f" x="829.794922"/>
      <use xlink:href="#ArialMT-75" x="885.410156"/>
      <use xlink:href="#ArialMT-72" x="941.025391"/>
      <use xlink:href="#ArialMT-73" x="974.326172"/>
      <use xlink:href="#ArialMT-29" x="1024.326172"/>
     </g>
    </g>
   </g>
   <g id="matplotlib.axis_6">
    <g id="ytick_7">
     <g id="line2d_40">
      <g>
       <use xlink:href="#m4c3b7afd1a" x="413.10625" y="105.66375" style="stroke: #000000; stroke-width: 0.8"/>
      </g>
     </g>
     <g id="text_33">
      <!-- 0 -->
      <g transform="translate(400.545313 109.242656)scale(0.1 -0.1)">
       <use xlink:href="#ArialMT-30"/>
      </g>
     </g>
    </g>
    <g id="ytick_8">
     <g id="line2d_41">
      <g>
       <use xlink:href="#m4c3b7afd1a" x="413.10625" y="71.068958" style="stroke: #000000; stroke-width: 0.8"/>
      </g>
     </g>
     <g id="text_34">
      <!-- 5 -->
      <g transform="translate(400.545313 74.647865)scale(0.1 -0.1)">
       <use xlink:href="#ArialMT-35"/>
      </g>
     </g>
    </g>
    <g id="ytick_9">
     <g id="line2d_42">
      <g>
       <use xlink:href="#m4c3b7afd1a" x="413.10625" y="36.474167" style="stroke: #000000; stroke-width: 0.8"/>
      </g>
     </g>
     <g id="text_35">
      <!-- 10 -->
      <g transform="translate(394.984375 40.053073)scale(0.1 -0.1)">
       <use xlink:href="#ArialMT-31"/>
       <use xlink:href="#ArialMT-30" x="55.615234"/>
      </g>
     </g>
    </g>
    <g id="text_36">
     <!-- Distance error (MoAD, m) -->
     <g transform="translate(388.879688 121.1)rotate(-90)scale(0.1 -0.1)">
      <use xlink:href="#ArialMT-44"/>
      <use xlink:href="#ArialMT-69" x="72.216797"/>
      <use xlink:href="#ArialMT-73" x="94.433594"/>
      <use xlink:href="#ArialMT-74" x="144.433594"/>
      <use xlink:href="#ArialMT-61" x="172.216797"/>
      <use xlink:href="#ArialMT-6e" x="227.832031"/>
      <use xlink:href="#ArialMT-63" x="283.447266"/>
      <use xlink:href="#ArialMT-65" x="333.447266"/>
      <use xlink:href="#ArialMT-20" x="389.0625"/>
      <use xlink:href="#ArialMT-65" x="416.845703"/>
      <use xlink:href="#ArialMT-72" x="472.460938"/>
      <use xlink:href="#ArialMT-72" x="505.761719"/>
      <use xlink:href="#ArialMT-6f" x="539.0625"/>
      <use xlink:href="#ArialMT-72" x="594.677734"/>
      <use xlink:href="#ArialMT-20" x="627.978516"/>
      <use xlink:href="#ArialMT-28" x="655.761719"/>
      <use xlink:href="#ArialMT-4d" x="689.0625"/>
      <use xlink:href="#ArialMT-6f" x="772.363281"/>
      <use xlink:href="#ArialMT-41" x="827.978516"/>
      <use xlink:href="#ArialMT-44" x="894.677734"/>
      <use xlink:href="#ArialMT-2c" x="966.894531"/>
      <use xlink:href="#ArialMT-20" x="994.677734"/>
      <use xlink:href="#ArialMT-6d" x="1022.460938"/>
      <use xlink:href="#ArialMT-29" x="1105.761719"/>
     </g>
    </g>
   </g>
   <g id="line2d_43">
    <path d="M 419.219801 104.743613 
L 421.715127 103.427973 
L 424.210454 102.158321 
L 426.705781 100.919321 
L 429.201108 99.683793 
L 431.696435 98.026836 
L 434.191762 96.466322 
L 436.687088 94.938026 
L 439.182415 93.512341 
L 441.677742 92.094119 
L 444.173069 90.756896 
L 446.668396 89.579732 
L 449.163722 88.40124 
L 451.659049 86.925848 
L 454.154376 85.761933 
L 456.649703 84.744491 
L 459.14503 83.691697 
L 461.640356 82.61423 
L 464.135683 81.584787 
L 466.63101 80.675202 
L 469.126337 79.463875 
L 471.621664 78.246142 
L 474.11699 77.022087 
L 476.612317 75.798031 
L 479.107644 74.573976 
L 481.602971 73.351332 
L 484.098298 72.354967 
L 486.593625 71.266643 
L 489.088951 70.031115 
L 491.584278 68.795586 
L 494.079605 67.640118 
L 496.574932 66.55978 
L 499.070259 65.479442 
L 501.565585 64.357098 
L 504.060912 63.152164 
L 506.556239 62.057839 
L 509.051566 60.963514 
L 511.546893 59.869189 
L 514.042219 58.776296 
L 516.537546 57.714202 
L 519.032873 56.652108 
L 521.5282 55.590015 
L 524.023527 54.527921 
L 526.518853 53.465827 
L 529.01418 52.403733 
L 531.509507 51.341639 
L 534.004834 50.279545 
L 536.500161 49.274373 
L 538.995487 48.194035 
L 541.490814 47.165276 
" clip-path="url(#p7807770346)" style="fill: none; stroke: #ffdb89; stroke-opacity: 0; stroke-width: 1.5; stroke-linecap: square"/>
   </g>
   <g id="line2d_44">
    <path d="M 419.219801 98.477124 
L 421.715127 97.310658 
L 424.210454 96.147266 
L 426.705781 94.990656 
L 429.201108 93.820482 
L 431.696435 92.641383 
L 434.191762 91.469752 
L 436.687088 90.21141 
L 439.182415 88.960977 
L 441.677742 87.736588 
L 444.173069 86.577197 
L 446.668396 85.407362 
L 449.163722 84.13061 
L 451.659049 82.923599 
L 454.154376 81.722634 
L 456.649703 80.432253 
L 459.14503 79.19823 
L 461.640356 78.026802 
L 464.135683 76.878463 
L 466.63101 75.599817 
L 469.126337 74.433125 
L 471.621664 73.312678 
L 474.11699 72.110685 
L 476.612317 70.948936 
L 479.107644 69.816088 
L 481.602971 68.701243 
L 484.098298 67.592882 
L 486.593625 66.43951 
L 489.088951 65.270212 
L 491.584278 64.119742 
L 494.079605 62.959858 
L 496.574932 61.799975 
L 499.070259 60.640091 
L 501.565585 59.480207 
L 504.060912 58.320324 
L 506.556239 57.192639 
L 509.051566 56.091532 
L 511.546893 55.001528 
L 514.042219 53.921975 
L 516.537546 52.844328 
L 519.032873 51.711814 
L 521.5282 50.611391 
L 524.023527 49.50899 
L 526.518853 48.416323 
L 529.01418 47.284809 
L 531.509507 46.130365 
L 534.004834 45.092317 
L 536.500161 43.945915 
L 538.995487 42.799512 
L 541.490814 41.65311 
" clip-path="url(#p7807770346)" style="fill: none; stroke-dasharray: 5.55,2.4; stroke-dashoffset: 0; stroke: #ffdb89; stroke-opacity: 0; stroke-width: 1.5"/>
   </g>
   <g id="line2d_45">
    <path d="M 419.219801 87.318132 
L 421.715127 86.324238 
L 424.210454 85.311251 
L 426.705781 84.298264 
L 429.201108 83.285278 
L 431.696435 82.272291 
L 434.191762 81.257704 
L 436.687088 80.242639 
L 439.182415 79.227574 
L 441.677742 78.21251 
L 444.173069 77.197445 
L 446.668396 76.252319 
L 449.163722 75.363356 
L 451.659049 74.474393 
L 454.154376 73.585431 
L 456.649703 72.696468 
L 459.14503 71.807505 
L 461.640356 70.691975 
L 464.135683 69.360822 
L 466.63101 68.061862 
L 469.126337 67.035688 
L 471.621664 65.610997 
L 474.11699 63.927685 
L 476.612317 62.341418 
L 479.107644 61.284051 
L 481.602971 59.636048 
L 484.098298 57.582995 
L 486.593625 55.65621 
L 489.088951 54.438624 
L 491.584278 52.479068 
L 494.079605 50.878226 
L 496.574932 50.488504 
L 499.070259 49.083999 
L 501.565585 47.464485 
L 504.060912 45.840648 
L 506.556239 44.216811 
L 509.051566 42.592973 
L 511.546893 40.969136 
L 514.042219 39.345299 
L 516.537546 37.721462 
L 519.032873 36.097625 
L 521.5282 34.473788 
L 524.023527 32.84995 
L 526.518853 31.226113 
L 529.01418 29.602276 
L 531.509507 27.978439 
L 534.004834 26.354602 
L 536.500161 24.730765 
L 538.995487 23.106927 
L 541.490814 21.48309 
" clip-path="url(#p7807770346)" style="fill: none; stroke: #ffdb89; stroke-opacity: 0; stroke-width: 1.5; stroke-linecap: square"/>
   </g>
   <g id="line2d_46">
    <g clip-path="url(#p7807770346)">
     <use xlink:href="#m0d6c73ce4f" x="419.219801" y="97.01951" style="fill: #444444; stroke: #444444"/>
     <use xlink:href="#m0d6c73ce4f" x="419.729263" y="96.831087" style="fill: #444444; stroke: #444444"/>
     <use xlink:href="#m0d6c73ce4f" x="431.446902" y="91.695318" style="fill: #444444; stroke: #444444"/>
     <use xlink:href="#m0d6c73ce4f" x="443.674003" y="89.02402" style="fill: #444444; stroke: #444444"/>
     <use xlink:href="#m0d6c73ce4f" x="468.128206" y="77.160985" style="fill: #444444; stroke: #444444"/>
     <use xlink:href="#m0d6c73ce4f" x="492.582409" y="64.708793" style="fill: #444444; stroke: #444444"/>
     <use xlink:href="#m0d6c73ce4f" x="517.036612" y="44.765153" style="fill: #444444; stroke: #444444"/>
     <use xlink:href="#m0d6c73ce4f" x="541.490814" y="29.416066" style="fill: #444444; stroke: #444444"/>
    </g>
   </g>
   <g id="line2d_47">
    <path d="M 419.219801 99.634639 
L 421.715127 98.277305 
L 424.210454 96.91997 
L 426.705781 95.562636 
L 429.201108 94.205302 
L 431.696435 92.847968 
L 434.191762 91.490634 
L 436.687088 90.1333 
L 439.182415 88.775966 
L 441.677742 87.418632 
L 444.173069 86.061297 
L 446.668396 84.703963 
L 449.163722 83.346629 
L 451.659049 81.989295 
L 454.154376 80.631961 
L 456.649703 79.274627 
L 459.14503 77.917293 
L 461.640356 76.559959 
L 464.135683 75.202624 
L 466.63101 73.84529 
L 469.126337 72.487956 
L 471.621664 71.130622 
L 474.11699 69.773288 
L 476.612317 68.415954 
L 479.107644 67.05862 
L 481.602971 65.701286 
L 484.098298 64.343951 
L 486.593625 62.986617 
L 489.088951 61.629283 
L 491.584278 60.271949 
L 494.079605 58.914615 
L 496.574932 57.557281 
L 499.070259 56.199947 
L 501.565585 54.842613 
L 504.060912 53.485278 
L 506.556239 52.127944 
L 509.051566 50.77061 
L 511.546893 49.413276 
L 514.042219 48.055942 
L 516.537546 46.698608 
L 519.032873 45.341274 
L 521.5282 43.98394 
L 524.023527 42.626606 
L 526.518853 41.269271 
L 529.01418 39.911937 
L 531.509507 38.554603 
L 534.004834 37.197269 
L 536.500161 35.839935 
L 538.995487 34.482601 
L 541.490814 33.125267 
" clip-path="url(#p7807770346)" style="fill: none; stroke: #444444; stroke-width: 1.5; stroke-linecap: square"/>
   </g>
   <g id="line2d_48">
    <path d="M 419.219801 97.756369 
L 421.715127 96.596485 
L 424.210454 95.436602 
L 426.705781 94.276718 
L 429.201108 93.116834 
L 431.696435 91.956951 
L 434.191762 90.797067 
L 436.687088 89.637183 
L 439.182415 88.4773 
L 441.677742 87.317416 
L 444.173069 86.157532 
L 446.668396 84.997649 
L 449.163722 83.837765 
L 451.659049 82.677881 
L 454.154376 81.517998 
L 456.649703 80.358114 
L 459.14503 79.19823 
L 461.640356 78.038347 
L 464.135683 76.878463 
L 466.63101 75.718579 
L 469.126337 74.558696 
L 471.621664 73.398812 
L 474.11699 72.238928 
L 476.612317 71.079045 
L 479.107644 69.919161 
L 481.602971 68.759277 
L 484.098298 67.599394 
L 486.593625 66.43951 
L 489.088951 65.279626 
L 491.584278 64.119743 
L 494.079605 62.959859 
L 496.574932 61.799975 
L 499.070259 60.640092 
L 501.565585 59.480208 
L 504.060912 58.320324 
L 506.556239 57.160441 
L 509.051566 56.000557 
L 511.546893 54.840673 
L 514.042219 53.68079 
L 516.537546 52.520906 
L 519.032873 51.361022 
L 521.5282 50.201139 
L 524.023527 49.041255 
L 526.518853 47.881371 
L 529.01418 46.721488 
L 531.509507 45.561604 
L 534.004834 44.40172 
L 536.500161 43.241837 
L 538.995487 42.081953 
L 541.490814 40.922069 
" clip-path="url(#p7807770346)" style="fill: none; stroke-dasharray: 5.55,2.4; stroke-dashoffset: 0; stroke: #e6bc5c; stroke-width: 1.5"/>
   </g>
   <g id="patch_9">
    <path d="M 413.10625 105.66375 
L 413.10625 22.63625 
" style="fill: none; stroke: #000000; stroke-width: 0.8; stroke-linejoin: miter; stroke-linecap: square"/>
   </g>
   <g id="patch_10">
    <path d="M 413.10625 105.66375 
L 547.604365 105.66375 
" style="fill: none; stroke: #000000; stroke-width: 0.8; stroke-linejoin: miter; stroke-linecap: square"/>
   </g>
  </g>
 </g>
 <defs>
  <clipPath id="p4e4adc3834">
   <rect x="38.70625" y="22.63625" width="134.498115" height="83.0275"/>
  </clipPath>
  <clipPath id="pffebf1cb4b">
   <rect x="225.90625" y="22.63625" width="134.498115" height="83.0275"/>
  </clipPath>
  <clipPath id="p7807770346">
   <rect x="413.10625" y="22.63625" width="134.498115" height="83.0275"/>
  </clipPath>
 </defs>
</svg>
