<?xml version="1.0" encoding="utf-8" standalone="no"?>
<!DOCTYPE svg PUBLIC "-//W3C//DTD SVG 1.1//EN"
  "http://www.w3.org/Graphics/SVG/1.1/DTD/svg11.dtd">
<svg xmlns:xlink="http://www.w3.org/1999/xlink" width="555.307357pt" height="139.743438pt" viewBox="0 0 555.307357 139.743438" xmlns="http://www.w3.org/2000/svg" version="1.1">
 <metadata>
  <rdf:RDF xmlns:dc="http://purl.org/dc/elements/1.1/" xmlns:cc="http://creativecommons.org/ns#" xmlns:rdf="http://www.w3.org/1999/02/22-rdf-syntax-ns#">
   <cc:Work>
    <dc:type rdf:resource="http://purl.org/dc/dcmitype/StillImage"/>
    <dc:date>2022-12-21T23:25:33.416823</dc:date>
    <dc:format>image/svg+xml</dc:format>
    <dc:creator>
     <cc:Agent>
      <dc:title>Matplotlib v3.5.1, https://matplotlib.org/</dc:title>
     </cc:Agent>
    </dc:creator>
   </cc:Work>
  </rdf:RDF>
 </metadata>
 <defs>
  <style type="text/css">*{stroke-linejoin: round; stroke-linecap: butt}</style>
 </defs>
 <g id="figure_1">
  <g id="patch_1">
   <path d="M 0 139.743438 
L 555.307357 139.743438 
L 555.307357 0 
L 0 0 
L 0 139.743438 
z
" style="fill: none"/>
  </g>
  <g id="axes_1">
   <g id="patch_2">
    <path d="M 43.3 103.01375 
L 171.178615 103.01375 
L 171.178615 19.98625 
L 43.3 19.98625 
L 43.3 103.01375 
z
" style="fill: none"/>
   </g>
   <g id="PolyCollection_1">
    <defs>
     <path id="mad05b8865b" d="M 49.112664 -103.520894 
L 49.112664 -148.395719 
L 51.48518 -128.647206 
L 53.857696 -118.601964 
L 56.230212 -111.55849 
L 58.602729 -106.634659 
L 60.975245 -104.204553 
L 63.347761 -102.342615 
L 65.720277 -99.369659 
L 68.092793 -97.197281 
L 70.465309 -95.23849 
L 72.837825 -93.312151 
L 75.210341 -91.28393 
L 77.582857 -89.306344 
L 79.955373 -87.587049 
L 82.327889 -85.905813 
L 84.700405 -84.235173 
L 87.072921 -82.572969 
L 89.445437 -81.20307 
L 91.817953 -79.765177 
L 94.190469 -78.367557 
L 96.562985 -77.212272 
L 98.935501 -75.938181 
L 101.308017 -74.646482 
L 103.680533 -73.396294 
L 106.053049 -72.273718 
L 108.425566 -71.384237 
L 110.798082 -70.6612 
L 113.170598 -70.236533 
L 115.543114 -69.266843 
L 117.91563 -68.777339 
L 120.288146 -68.634178 
L 122.660662 -68.630978 
L 125.033178 -68.564855 
L 127.405694 -68.563969 
L 129.77821 -68.563324 
L 132.150726 -68.562853 
L 134.523242 -68.562509 
L 136.895758 -68.562259 
L 139.268274 -68.562076 
L 141.64079 -68.561943 
L 144.013306 -68.561846 
L 146.385822 -68.561775 
L 148.758338 -68.561723 
L 151.130854 -68.561686 
L 153.50337 -68.561658 
L 155.875886 -68.561638 
L 158.248403 -68.561623 
L 160.620919 -68.561613 
L 162.993435 -68.561605 
L 165.365951 -68.561599 
L 165.365951 -38.849832 
L 165.365951 -38.849832 
L 162.993435 -39.187664 
L 160.620919 -39.543367 
L 158.248403 -39.911987 
L 155.875886 -40.027248 
L 153.50337 -40.315219 
L 151.130854 -40.716699 
L 148.758338 -41.217508 
L 146.385822 -41.825367 
L 144.013306 -42.050908 
L 141.64079 -42.237342 
L 139.268274 -42.371015 
L 136.895758 -42.530013 
L 134.523242 -42.729056 
L 132.150726 -42.949379 
L 129.77821 -43.257229 
L 127.405694 -43.59427 
L 125.033178 -43.902777 
L 122.660662 -44.243786 
L 120.288146 -44.620723 
L 117.91563 -45.041813 
L 115.543114 -45.502666 
L 113.170598 -46.012055 
L 110.798082 -46.574922 
L 108.425566 -47.195881 
L 106.053049 -47.885304 
L 103.680533 -48.645627 
L 101.308017 -49.486026 
L 98.935501 -50.414934 
L 96.562985 -51.439963 
L 94.190469 -52.459278 
L 91.817953 -53.620613 
L 89.445437 -54.781506 
L 87.072921 -56.039161 
L 84.700405 -57.465054 
L 82.327889 -59.115083 
L 79.955373 -60.970478 
L 77.582857 -62.999909 
L 75.210341 -65.263418 
L 72.837825 -67.437007 
L 70.465309 -69.699869 
L 68.092793 -71.783992 
L 65.720277 -74.54379 
L 63.347761 -78.188594 
L 60.975245 -83.006066 
L 58.602729 -89.367785 
L 56.230212 -95.220959 
L 53.857696 -98.36807 
L 51.48518 -100.735577 
L 49.112664 -103.520894 
z
" style="stroke: #ffdb89; stroke-opacity: 0.3"/>
    </defs>
    <g clip-path="url(#pda66aa6d96)">
     <use xlink:href="#mad05b8865b" x="0" y="139.743438" style="fill: #ffdb89; fill-opacity: 0.3; stroke: #ffdb89; stroke-opacity: 0.3"/>
    </g>
   </g>
   <g id="matplotlib.axis_1">
    <g id="xtick_1">
     <g id="line2d_1">
      <defs>
       <path id="m0340f8beef" d="M 0 0 
L 0 3.5 
" style="stroke: #000000; stroke-width: 0.8"/>
      </defs>
      <g>
       <use xlink:href="#m0340f8beef" x="49.112664" y="103.01375" style="stroke: #000000; stroke-width: 0.8"/>
      </g>
     </g>
     <g id="text_1">
      <!-- 0 -->
      <g transform="translate(46.332196 117.171563)scale(0.1 -0.1)">
       <defs>
        <path id="ArialMT-30" d="M 266 2259 
Q 266 3072 433 3567 
Q 600 4063 929 4331 
Q 1259 4600 1759 4600 
Q 2128 4600 2406 4451 
Q 2684 4303 2865 4023 
Q 3047 3744 3150 3342 
Q 3253 2941 3253 2259 
Q 3253 1453 3087 958 
Q 2922 463 2592 192 
Q 2263 -78 1759 -78 
Q 1097 -78 719 397 
Q 266 969 266 2259 
z
M 844 2259 
Q 844 1131 1108 757 
Q 1372 384 1759 384 
Q 2147 384 2411 759 
Q 2675 1134 2675 2259 
Q 2675 3391 2411 3762 
Q 2147 4134 1753 4134 
Q 1366 4134 1134 3806 
Q 844 3388 844 2259 
z
" transform="scale(0.015625)"/>
       </defs>
       <use xlink:href="#ArialMT-30"/>
      </g>
     </g>
    </g>
    <g id="xtick_2">
     <g id="line2d_2">
      <g>
       <use xlink:href="#m0340f8beef" x="60.737993" y="103.01375" style="stroke: #000000; stroke-width: 0.8"/>
      </g>
     </g>
     <g id="text_2">
      <!-- 24 -->
      <g transform="translate(55.177055 117.171563)scale(0.1 -0.1)">
       <defs>
        <path id="ArialMT-32" d="M 3222 541 
L 3222 0 
L 194 0 
Q 188 203 259 391 
Q 375 700 629 1000 
Q 884 1300 1366 1694 
Q 2113 2306 2375 2664 
Q 2638 3022 2638 3341 
Q 2638 3675 2398 3904 
Q 2159 4134 1775 4134 
Q 1369 4134 1125 3890 
Q 881 3647 878 3216 
L 300 3275 
Q 359 3922 746 4261 
Q 1134 4600 1788 4600 
Q 2447 4600 2831 4234 
Q 3216 3869 3216 3328 
Q 3216 3053 3103 2787 
Q 2991 2522 2730 2228 
Q 2469 1934 1863 1422 
Q 1356 997 1212 845 
Q 1069 694 975 541 
L 3222 541 
z
" transform="scale(0.015625)"/>
        <path id="ArialMT-34" d="M 2069 0 
L 2069 1097 
L 81 1097 
L 81 1613 
L 2172 4581 
L 2631 4581 
L 2631 1613 
L 3250 1613 
L 3250 1097 
L 2631 1097 
L 2631 0 
L 2069 0 
z
M 2069 1613 
L 2069 3678 
L 634 1613 
L 2069 1613 
z
" transform="scale(0.015625)"/>
       </defs>
       <use xlink:href="#ArialMT-32"/>
       <use xlink:href="#ArialMT-34" x="55.615234"/>
      </g>
     </g>
    </g>
    <g id="xtick_3">
     <g id="line2d_3">
      <g>
       <use xlink:href="#m0340f8beef" x="72.363322" y="103.01375" style="stroke: #000000; stroke-width: 0.8"/>
      </g>
     </g>
     <g id="text_3">
      <!-- 48 -->
      <g transform="translate(66.802384 117.171563)scale(0.1 -0.1)">
       <defs>
        <path id="ArialMT-38" d="M 1131 2484 
Q 781 2613 612 2850 
Q 444 3088 444 3419 
Q 444 3919 803 4259 
Q 1163 4600 1759 4600 
Q 2359 4600 2725 4251 
Q 3091 3903 3091 3403 
Q 3091 3084 2923 2848 
Q 2756 2613 2416 2484 
Q 2838 2347 3058 2040 
Q 3278 1734 3278 1309 
Q 3278 722 2862 322 
Q 2447 -78 1769 -78 
Q 1091 -78 675 323 
Q 259 725 259 1325 
Q 259 1772 486 2073 
Q 713 2375 1131 2484 
z
M 1019 3438 
Q 1019 3113 1228 2906 
Q 1438 2700 1772 2700 
Q 2097 2700 2305 2904 
Q 2513 3109 2513 3406 
Q 2513 3716 2298 3927 
Q 2084 4138 1766 4138 
Q 1444 4138 1231 3931 
Q 1019 3725 1019 3438 
z
M 838 1322 
Q 838 1081 952 856 
Q 1066 631 1291 507 
Q 1516 384 1775 384 
Q 2178 384 2440 643 
Q 2703 903 2703 1303 
Q 2703 1709 2433 1975 
Q 2163 2241 1756 2241 
Q 1359 2241 1098 1978 
Q 838 1716 838 1322 
z
" transform="scale(0.015625)"/>
       </defs>
       <use xlink:href="#ArialMT-34"/>
       <use xlink:href="#ArialMT-38" x="55.615234"/>
      </g>
     </g>
    </g>
    <g id="xtick_4">
     <g id="line2d_4">
      <g>
       <use xlink:href="#m0340f8beef" x="95.613979" y="103.01375" style="stroke: #000000; stroke-width: 0.8"/>
      </g>
     </g>
     <g id="text_4">
      <!-- 96 -->
      <g transform="translate(90.053041 117.171563)scale(0.1 -0.1)">
       <defs>
        <path id="ArialMT-39" d="M 350 1059 
L 891 1109 
Q 959 728 1153 556 
Q 1347 384 1650 384 
Q 1909 384 2104 503 
Q 2300 622 2425 820 
Q 2550 1019 2634 1356 
Q 2719 1694 2719 2044 
Q 2719 2081 2716 2156 
Q 2547 1888 2255 1720 
Q 1963 1553 1622 1553 
Q 1053 1553 659 1965 
Q 266 2378 266 3053 
Q 266 3750 677 4175 
Q 1088 4600 1706 4600 
Q 2153 4600 2523 4359 
Q 2894 4119 3086 3673 
Q 3278 3228 3278 2384 
Q 3278 1506 3087 986 
Q 2897 466 2520 194 
Q 2144 -78 1638 -78 
Q 1100 -78 759 220 
Q 419 519 350 1059 
z
M 2653 3081 
Q 2653 3566 2395 3850 
Q 2138 4134 1775 4134 
Q 1400 4134 1122 3828 
Q 844 3522 844 3034 
Q 844 2597 1108 2323 
Q 1372 2050 1759 2050 
Q 2150 2050 2401 2323 
Q 2653 2597 2653 3081 
z
" transform="scale(0.015625)"/>
        <path id="ArialMT-36" d="M 3184 3459 
L 2625 3416 
Q 2550 3747 2413 3897 
Q 2184 4138 1850 4138 
Q 1581 4138 1378 3988 
Q 1113 3794 959 3422 
Q 806 3050 800 2363 
Q 1003 2672 1297 2822 
Q 1591 2972 1913 2972 
Q 2475 2972 2870 2558 
Q 3266 2144 3266 1488 
Q 3266 1056 3080 686 
Q 2894 316 2569 119 
Q 2244 -78 1831 -78 
Q 1128 -78 684 439 
Q 241 956 241 2144 
Q 241 3472 731 4075 
Q 1159 4600 1884 4600 
Q 2425 4600 2770 4297 
Q 3116 3994 3184 3459 
z
M 888 1484 
Q 888 1194 1011 928 
Q 1134 663 1356 523 
Q 1578 384 1822 384 
Q 2178 384 2434 671 
Q 2691 959 2691 1453 
Q 2691 1928 2437 2201 
Q 2184 2475 1800 2475 
Q 1419 2475 1153 2201 
Q 888 1928 888 1484 
z
" transform="scale(0.015625)"/>
       </defs>
       <use xlink:href="#ArialMT-39"/>
       <use xlink:href="#ArialMT-36" x="55.615234"/>
      </g>
     </g>
    </g>
    <g id="xtick_5">
     <g id="line2d_5">
      <g>
       <use xlink:href="#m0340f8beef" x="118.864636" y="103.01375" style="stroke: #000000; stroke-width: 0.8"/>
      </g>
     </g>
     <g id="text_5">
      <!-- 144 -->
      <g transform="translate(110.52323 117.171563)scale(0.1 -0.1)">
       <defs>
        <path id="ArialMT-31" d="M 2384 0 
L 1822 0 
L 1822 3584 
Q 1619 3391 1289 3197 
Q 959 3003 697 2906 
L 697 3450 
Q 1169 3672 1522 3987 
Q 1875 4303 2022 4600 
L 2384 4600 
L 2384 0 
z
" transform="scale(0.015625)"/>
       </defs>
       <use xlink:href="#ArialMT-31"/>
       <use xlink:href="#ArialMT-34" x="55.615234"/>
       <use xlink:href="#ArialMT-34" x="111.230469"/>
      </g>
     </g>
    </g>
    <g id="xtick_6">
     <g id="line2d_6">
      <g>
       <use xlink:href="#m0340f8beef" x="142.115293" y="103.01375" style="stroke: #000000; stroke-width: 0.8"/>
      </g>
     </g>
     <g id="text_6">
      <!-- 192 -->
      <g transform="translate(133.773887 117.171563)scale(0.1 -0.1)">
       <use xlink:href="#ArialMT-31"/>
       <use xlink:href="#ArialMT-39" x="55.615234"/>
       <use xlink:href="#ArialMT-32" x="111.230469"/>
      </g>
     </g>
    </g>
    <g id="xtick_7">
     <g id="line2d_7">
      <g>
       <use xlink:href="#m0340f8beef" x="165.365951" y="103.01375" style="stroke: #000000; stroke-width: 0.8"/>
      </g>
     </g>
     <g id="text_7">
      <!-- 240 -->
      <g transform="translate(157.024544 117.171563)scale(0.1 -0.1)">
       <use xlink:href="#ArialMT-32"/>
       <use xlink:href="#ArialMT-34" x="55.615234"/>
       <use xlink:href="#ArialMT-30" x="111.230469"/>
      </g>
     </g>
    </g>
    <g id="text_8">
     <!-- Time in captivity (hours) -->
     <g transform="translate(54.361182 130.43875)scale(0.1 -0.1)">
      <defs>
       <path id="ArialMT-54" d="M 1659 0 
L 1659 4041 
L 150 4041 
L 150 4581 
L 3781 4581 
L 3781 4041 
L 2266 4041 
L 2266 0 
L 1659 0 
z
" transform="scale(0.015625)"/>
       <path id="ArialMT-69" d="M 425 3934 
L 425 4581 
L 988 4581 
L 988 3934 
L 425 3934 
z
M 425 0 
L 425 3319 
L 988 3319 
L 988 0 
L 425 0 
z
" transform="scale(0.015625)"/>
       <path id="ArialMT-6d" d="M 422 0 
L 422 3319 
L 925 3319 
L 925 2853 
Q 1081 3097 1340 3245 
Q 1600 3394 1931 3394 
Q 2300 3394 2536 3241 
Q 2772 3088 2869 2813 
Q 3263 3394 3894 3394 
Q 4388 3394 4653 3120 
Q 4919 2847 4919 2278 
L 4919 0 
L 4359 0 
L 4359 2091 
Q 4359 2428 4304 2576 
Q 4250 2725 4106 2815 
Q 3963 2906 3769 2906 
Q 3419 2906 3187 2673 
Q 2956 2441 2956 1928 
L 2956 0 
L 2394 0 
L 2394 2156 
Q 2394 2531 2256 2718 
Q 2119 2906 1806 2906 
Q 1569 2906 1367 2781 
Q 1166 2656 1075 2415 
Q 984 2175 984 1722 
L 984 0 
L 422 0 
z
" transform="scale(0.015625)"/>
       <path id="ArialMT-65" d="M 2694 1069 
L 3275 997 
Q 3138 488 2766 206 
Q 2394 -75 1816 -75 
Q 1088 -75 661 373 
Q 234 822 234 1631 
Q 234 2469 665 2931 
Q 1097 3394 1784 3394 
Q 2450 3394 2872 2941 
Q 3294 2488 3294 1666 
Q 3294 1616 3291 1516 
L 816 1516 
Q 847 969 1125 678 
Q 1403 388 1819 388 
Q 2128 388 2347 550 
Q 2566 713 2694 1069 
z
M 847 1978 
L 2700 1978 
Q 2663 2397 2488 2606 
Q 2219 2931 1791 2931 
Q 1403 2931 1139 2672 
Q 875 2413 847 1978 
z
" transform="scale(0.015625)"/>
       <path id="ArialMT-20" transform="scale(0.015625)"/>
       <path id="ArialMT-6e" d="M 422 0 
L 422 3319 
L 928 3319 
L 928 2847 
Q 1294 3394 1984 3394 
Q 2284 3394 2536 3286 
Q 2788 3178 2913 3003 
Q 3038 2828 3088 2588 
Q 3119 2431 3119 2041 
L 3119 0 
L 2556 0 
L 2556 2019 
Q 2556 2363 2490 2533 
Q 2425 2703 2258 2804 
Q 2091 2906 1866 2906 
Q 1506 2906 1245 2678 
Q 984 2450 984 1813 
L 984 0 
L 422 0 
z
" transform="scale(0.015625)"/>
       <path id="ArialMT-63" d="M 2588 1216 
L 3141 1144 
Q 3050 572 2676 248 
Q 2303 -75 1759 -75 
Q 1078 -75 664 370 
Q 250 816 250 1647 
Q 250 2184 428 2587 
Q 606 2991 970 3192 
Q 1334 3394 1763 3394 
Q 2303 3394 2647 3120 
Q 2991 2847 3088 2344 
L 2541 2259 
Q 2463 2594 2264 2762 
Q 2066 2931 1784 2931 
Q 1359 2931 1093 2626 
Q 828 2322 828 1663 
Q 828 994 1084 691 
Q 1341 388 1753 388 
Q 2084 388 2306 591 
Q 2528 794 2588 1216 
z
" transform="scale(0.015625)"/>
       <path id="ArialMT-61" d="M 2588 409 
Q 2275 144 1986 34 
Q 1697 -75 1366 -75 
Q 819 -75 525 192 
Q 231 459 231 875 
Q 231 1119 342 1320 
Q 453 1522 633 1644 
Q 813 1766 1038 1828 
Q 1203 1872 1538 1913 
Q 2219 1994 2541 2106 
Q 2544 2222 2544 2253 
Q 2544 2597 2384 2738 
Q 2169 2928 1744 2928 
Q 1347 2928 1158 2789 
Q 969 2650 878 2297 
L 328 2372 
Q 403 2725 575 2942 
Q 747 3159 1072 3276 
Q 1397 3394 1825 3394 
Q 2250 3394 2515 3294 
Q 2781 3194 2906 3042 
Q 3031 2891 3081 2659 
Q 3109 2516 3109 2141 
L 3109 1391 
Q 3109 606 3145 398 
Q 3181 191 3288 0 
L 2700 0 
Q 2613 175 2588 409 
z
M 2541 1666 
Q 2234 1541 1622 1453 
Q 1275 1403 1131 1340 
Q 988 1278 909 1158 
Q 831 1038 831 891 
Q 831 666 1001 516 
Q 1172 366 1500 366 
Q 1825 366 2078 508 
Q 2331 650 2450 897 
Q 2541 1088 2541 1459 
L 2541 1666 
z
" transform="scale(0.015625)"/>
       <path id="ArialMT-70" d="M 422 -1272 
L 422 3319 
L 934 3319 
L 934 2888 
Q 1116 3141 1344 3267 
Q 1572 3394 1897 3394 
Q 2322 3394 2647 3175 
Q 2972 2956 3137 2557 
Q 3303 2159 3303 1684 
Q 3303 1175 3120 767 
Q 2938 359 2589 142 
Q 2241 -75 1856 -75 
Q 1575 -75 1351 44 
Q 1128 163 984 344 
L 984 -1272 
L 422 -1272 
z
M 931 1641 
Q 931 1000 1190 694 
Q 1450 388 1819 388 
Q 2194 388 2461 705 
Q 2728 1022 2728 1688 
Q 2728 2322 2467 2637 
Q 2206 2953 1844 2953 
Q 1484 2953 1207 2617 
Q 931 2281 931 1641 
z
" transform="scale(0.015625)"/>
       <path id="ArialMT-74" d="M 1650 503 
L 1731 6 
Q 1494 -44 1306 -44 
Q 1000 -44 831 53 
Q 663 150 594 308 
Q 525 466 525 972 
L 525 2881 
L 113 2881 
L 113 3319 
L 525 3319 
L 525 4141 
L 1084 4478 
L 1084 3319 
L 1650 3319 
L 1650 2881 
L 1084 2881 
L 1084 941 
Q 1084 700 1114 631 
Q 1144 563 1211 522 
Q 1278 481 1403 481 
Q 1497 481 1650 503 
z
" transform="scale(0.015625)"/>
       <path id="ArialMT-76" d="M 1344 0 
L 81 3319 
L 675 3319 
L 1388 1331 
Q 1503 1009 1600 663 
Q 1675 925 1809 1294 
L 2547 3319 
L 3125 3319 
L 1869 0 
L 1344 0 
z
" transform="scale(0.015625)"/>
       <path id="ArialMT-79" d="M 397 -1278 
L 334 -750 
Q 519 -800 656 -800 
Q 844 -800 956 -737 
Q 1069 -675 1141 -563 
Q 1194 -478 1313 -144 
Q 1328 -97 1363 -6 
L 103 3319 
L 709 3319 
L 1400 1397 
Q 1534 1031 1641 628 
Q 1738 1016 1872 1384 
L 2581 3319 
L 3144 3319 
L 1881 -56 
Q 1678 -603 1566 -809 
Q 1416 -1088 1222 -1217 
Q 1028 -1347 759 -1347 
Q 597 -1347 397 -1278 
z
" transform="scale(0.015625)"/>
       <path id="ArialMT-28" d="M 1497 -1347 
Q 1031 -759 709 28 
Q 388 816 388 1659 
Q 388 2403 628 3084 
Q 909 3875 1497 4659 
L 1900 4659 
Q 1522 4009 1400 3731 
Q 1209 3300 1100 2831 
Q 966 2247 966 1656 
Q 966 153 1900 -1347 
L 1497 -1347 
z
" transform="scale(0.015625)"/>
       <path id="ArialMT-68" d="M 422 0 
L 422 4581 
L 984 4581 
L 984 2938 
Q 1378 3394 1978 3394 
Q 2347 3394 2619 3248 
Q 2891 3103 3008 2847 
Q 3125 2591 3125 2103 
L 3125 0 
L 2563 0 
L 2563 2103 
Q 2563 2525 2380 2717 
Q 2197 2909 1863 2909 
Q 1613 2909 1392 2779 
Q 1172 2650 1078 2428 
Q 984 2206 984 1816 
L 984 0 
L 422 0 
z
" transform="scale(0.015625)"/>
       <path id="ArialMT-6f" d="M 213 1659 
Q 213 2581 725 3025 
Q 1153 3394 1769 3394 
Q 2453 3394 2887 2945 
Q 3322 2497 3322 1706 
Q 3322 1066 3130 698 
Q 2938 331 2570 128 
Q 2203 -75 1769 -75 
Q 1072 -75 642 372 
Q 213 819 213 1659 
z
M 791 1659 
Q 791 1022 1069 705 
Q 1347 388 1769 388 
Q 2188 388 2466 706 
Q 2744 1025 2744 1678 
Q 2744 2294 2464 2611 
Q 2184 2928 1769 2928 
Q 1347 2928 1069 2612 
Q 791 2297 791 1659 
z
" transform="scale(0.015625)"/>
       <path id="ArialMT-75" d="M 2597 0 
L 2597 488 
Q 2209 -75 1544 -75 
Q 1250 -75 995 37 
Q 741 150 617 320 
Q 494 491 444 738 
Q 409 903 409 1263 
L 409 3319 
L 972 3319 
L 972 1478 
Q 972 1038 1006 884 
Q 1059 663 1231 536 
Q 1403 409 1656 409 
Q 1909 409 2131 539 
Q 2353 669 2445 892 
Q 2538 1116 2538 1541 
L 2538 3319 
L 3100 3319 
L 3100 0 
L 2597 0 
z
" transform="scale(0.015625)"/>
       <path id="ArialMT-72" d="M 416 0 
L 416 3319 
L 922 3319 
L 922 2816 
Q 1116 3169 1280 3281 
Q 1444 3394 1641 3394 
Q 1925 3394 2219 3213 
L 2025 2691 
Q 1819 2813 1613 2813 
Q 1428 2813 1281 2702 
Q 1134 2591 1072 2394 
Q 978 2094 978 1738 
L 978 0 
L 416 0 
z
" transform="scale(0.015625)"/>
       <path id="ArialMT-73" d="M 197 991 
L 753 1078 
Q 800 744 1014 566 
Q 1228 388 1613 388 
Q 2000 388 2187 545 
Q 2375 703 2375 916 
Q 2375 1106 2209 1216 
Q 2094 1291 1634 1406 
Q 1016 1563 777 1677 
Q 538 1791 414 1992 
Q 291 2194 291 2438 
Q 291 2659 392 2848 
Q 494 3038 669 3163 
Q 800 3259 1026 3326 
Q 1253 3394 1513 3394 
Q 1903 3394 2198 3281 
Q 2494 3169 2634 2976 
Q 2775 2784 2828 2463 
L 2278 2388 
Q 2241 2644 2061 2787 
Q 1881 2931 1553 2931 
Q 1166 2931 1000 2803 
Q 834 2675 834 2503 
Q 834 2394 903 2306 
Q 972 2216 1119 2156 
Q 1203 2125 1616 2013 
Q 2213 1853 2448 1751 
Q 2684 1650 2818 1456 
Q 2953 1263 2953 975 
Q 2953 694 2789 445 
Q 2625 197 2315 61 
Q 2006 -75 1616 -75 
Q 969 -75 630 194 
Q 291 463 197 991 
z
" transform="scale(0.015625)"/>
       <path id="ArialMT-29" d="M 791 -1347 
L 388 -1347 
Q 1322 153 1322 1656 
Q 1322 2244 1188 2822 
Q 1081 3291 891 3722 
Q 769 4003 388 4659 
L 791 4659 
Q 1378 3875 1659 3084 
Q 1900 2403 1900 1659 
Q 1900 816 1576 28 
Q 1253 -759 791 -1347 
z
" transform="scale(0.015625)"/>
      </defs>
      <use xlink:href="#ArialMT-54"/>
      <use xlink:href="#ArialMT-69" x="57.333984"/>
      <use xlink:href="#ArialMT-6d" x="79.550781"/>
      <use xlink:href="#ArialMT-65" x="162.851562"/>
      <use xlink:href="#ArialMT-20" x="218.466797"/>
      <use xlink:href="#ArialMT-69" x="246.25"/>
      <use xlink:href="#ArialMT-6e" x="268.466797"/>
      <use xlink:href="#ArialMT-20" x="324.082031"/>
      <use xlink:href="#ArialMT-63" x="351.865234"/>
      <use xlink:href="#ArialMT-61" x="401.865234"/>
      <use xlink:href="#ArialMT-70" x="457.480469"/>
      <use xlink:href="#ArialMT-74" x="513.095703"/>
      <use xlink:href="#ArialMT-69" x="540.878906"/>
      <use xlink:href="#ArialMT-76" x="563.095703"/>
      <use xlink:href="#ArialMT-69" x="613.095703"/>
      <use xlink:href="#ArialMT-74" x="635.3125"/>
      <use xlink:href="#ArialMT-79" x="663.095703"/>
      <use xlink:href="#ArialMT-20" x="713.095703"/>
      <use xlink:href="#ArialMT-28" x="740.878906"/>
      <use xlink:href="#ArialMT-68" x="774.179688"/>
      <use xlink:href="#ArialMT-6f" x="829.794922"/>
      <use xlink:href="#ArialMT-75" x="885.410156"/>
      <use xlink:href="#ArialMT-72" x="941.025391"/>
      <use xlink:href="#ArialMT-73" x="974.326172"/>
      <use xlink:href="#ArialMT-29" x="1024.326172"/>
     </g>
    </g>
   </g>
   <g id="matplotlib.axis_2">
    <g id="ytick_1">
     <g id="line2d_8">
      <defs>
       <path id="m5fd09911d8" d="M 0 0 
L -3.5 0 
" style="stroke: #000000; stroke-width: 0.8"/>
      </defs>
      <g>
       <use xlink:href="#m5fd09911d8" x="43.3" y="103.01375" style="stroke: #000000; stroke-width: 0.8"/>
      </g>
     </g>
     <g id="text_9">
      <!-- 0.0 -->
      <g transform="translate(22.4 106.592656)scale(0.1 -0.1)">
       <defs>
        <path id="ArialMT-2e" d="M 581 0 
L 581 641 
L 1222 641 
L 1222 0 
L 581 0 
z
" transform="scale(0.015625)"/>
       </defs>
       <use xlink:href="#ArialMT-30"/>
       <use xlink:href="#ArialMT-2e" x="55.615234"/>
       <use xlink:href="#ArialMT-30" x="83.398438"/>
      </g>
     </g>
    </g>
    <g id="ytick_2">
     <g id="line2d_9">
      <g>
       <use xlink:href="#m5fd09911d8" x="43.3" y="63.096683" style="stroke: #000000; stroke-width: 0.8"/>
      </g>
     </g>
     <g id="text_10">
      <!-- 0.5 -->
      <g transform="translate(22.4 66.675589)scale(0.1 -0.1)">
       <defs>
        <path id="ArialMT-35" d="M 266 1200 
L 856 1250 
Q 922 819 1161 601 
Q 1400 384 1738 384 
Q 2144 384 2425 690 
Q 2706 997 2706 1503 
Q 2706 1984 2436 2262 
Q 2166 2541 1728 2541 
Q 1456 2541 1237 2417 
Q 1019 2294 894 2097 
L 366 2166 
L 809 4519 
L 3088 4519 
L 3088 3981 
L 1259 3981 
L 1013 2750 
Q 1425 3038 1878 3038 
Q 2478 3038 2890 2622 
Q 3303 2206 3303 1553 
Q 3303 931 2941 478 
Q 2500 -78 1738 -78 
Q 1113 -78 717 272 
Q 322 622 266 1200 
z
" transform="scale(0.015625)"/>
       </defs>
       <use xlink:href="#ArialMT-30"/>
       <use xlink:href="#ArialMT-2e" x="55.615234"/>
       <use xlink:href="#ArialMT-35" x="83.398438"/>
      </g>
     </g>
    </g>
    <g id="ytick_3">
     <g id="line2d_10">
      <g>
       <use xlink:href="#m5fd09911d8" x="43.3" y="23.179615" style="stroke: #000000; stroke-width: 0.8"/>
      </g>
     </g>
     <g id="text_11">
      <!-- 1.0 -->
      <g transform="translate(22.4 26.758522)scale(0.1 -0.1)">
       <use xlink:href="#ArialMT-31"/>
       <use xlink:href="#ArialMT-2e" x="55.615234"/>
       <use xlink:href="#ArialMT-30" x="83.398438"/>
      </g>
     </g>
    </g>
    <g id="text_12">
     <!-- Direction accuracy (σ$^{-1}$) -->
     <g transform="translate(16.2 115.8)rotate(-90)scale(0.1 -0.1)">
      <defs>
       <path id="ArialMT-44" d="M 494 0 
L 494 4581 
L 2072 4581 
Q 2606 4581 2888 4516 
Q 3281 4425 3559 4188 
Q 3922 3881 4101 3404 
Q 4281 2928 4281 2316 
Q 4281 1794 4159 1391 
Q 4038 988 3847 723 
Q 3656 459 3429 307 
Q 3203 156 2883 78 
Q 2563 0 2147 0 
L 494 0 
z
M 1100 541 
L 2078 541 
Q 2531 541 2789 625 
Q 3047 709 3200 863 
Q 3416 1078 3536 1442 
Q 3656 1806 3656 2325 
Q 3656 3044 3420 3430 
Q 3184 3816 2847 3947 
Q 2603 4041 2063 4041 
L 1100 4041 
L 1100 541 
z
" transform="scale(0.015625)"/>
       <path id="ArialMT-3c3" d="M 3809 3319 
L 3809 2863 
L 2906 2863 
Q 3322 2475 3322 1656 
Q 3322 766 2867 345 
Q 2413 -75 1763 -75 
Q 1088 -75 650 362 
Q 213 800 213 1659 
Q 213 2544 667 2969 
Q 1122 3394 1763 3394 
Q 1997 3394 2294 3319 
L 3809 3319 
z
M 1753 2928 
Q 1344 2928 1067 2609 
Q 791 2291 791 1656 
Q 791 1025 1061 706 
Q 1331 388 1763 388 
Q 2216 388 2483 720 
Q 2750 1053 2750 1659 
Q 2750 2213 2504 2570 
Q 2259 2928 1753 2928 
z
" transform="scale(0.015625)"/>
       <path id="DejaVuSans-2212" d="M 678 2272 
L 4684 2272 
L 4684 1741 
L 678 1741 
L 678 2272 
z
" transform="scale(0.015625)"/>
       <path id="DejaVuSans-31" d="M 794 531 
L 1825 531 
L 1825 4091 
L 703 3866 
L 703 4441 
L 1819 4666 
L 2450 4666 
L 2450 531 
L 3481 531 
L 3481 0 
L 794 0 
L 794 531 
z
" transform="scale(0.015625)"/>
      </defs>
      <use xlink:href="#ArialMT-44" transform="translate(0 0.684375)"/>
      <use xlink:href="#ArialMT-69" transform="translate(72.216797 0.684375)"/>
      <use xlink:href="#ArialMT-72" transform="translate(94.433594 0.684375)"/>
      <use xlink:href="#ArialMT-65" transform="translate(127.734375 0.684375)"/>
      <use xlink:href="#ArialMT-63" transform="translate(183.349609 0.684375)"/>
      <use xlink:href="#ArialMT-74" transform="translate(233.349609 0.684375)"/>
      <use xlink:href="#ArialMT-69" transform="translate(261.132812 0.684375)"/>
      <use xlink:href="#ArialMT-6f" transform="translate(283.349609 0.684375)"/>
      <use xlink:href="#ArialMT-6e" transform="translate(338.964844 0.684375)"/>
      <use xlink:href="#ArialMT-20" transform="translate(394.580078 0.684375)"/>
      <use xlink:href="#ArialMT-61" transform="translate(422.363281 0.684375)"/>
      <use xlink:href="#ArialMT-63" transform="translate(477.978516 0.684375)"/>
      <use xlink:href="#ArialMT-63" transform="translate(527.978516 0.684375)"/>
      <use xlink:href="#ArialMT-75" transform="translate(577.978516 0.684375)"/>
      <use xlink:href="#ArialMT-72" transform="translate(633.59375 0.684375)"/>
      <use xlink:href="#ArialMT-61" transform="translate(666.894531 0.684375)"/>
      <use xlink:href="#ArialMT-63" transform="translate(722.509766 0.684375)"/>
      <use xlink:href="#ArialMT-79" transform="translate(772.509766 0.684375)"/>
      <use xlink:href="#ArialMT-20" transform="translate(822.509766 0.684375)"/>
      <use xlink:href="#ArialMT-28" transform="translate(850.292969 0.684375)"/>
      <use xlink:href="#ArialMT-3c3" transform="translate(883.59375 0.684375)"/>
      <use xlink:href="#DejaVuSans-2212" transform="translate(946.269531 38.965625)scale(0.7)"/>
      <use xlink:href="#DejaVuSans-31" transform="translate(1004.921875 38.965625)scale(0.7)"/>
      <use xlink:href="#ArialMT-29" transform="translate(1052.192383 0.684375)"/>
     </g>
    </g>
   </g>
   <g id="line2d_11">
    <path d="M 49.112664 36.222544 
L 51.48518 39.00786 
L 53.857696 41.375368 
L 56.230212 44.522479 
L 58.602729 50.375653 
L 60.975245 56.737371 
L 63.347761 61.554844 
L 65.720277 65.199648 
L 68.092793 67.959445 
L 70.465309 70.043568 
L 72.837825 72.30643 
L 75.210341 74.480019 
L 77.582857 76.743529 
L 79.955373 78.772959 
L 82.327889 80.628355 
L 84.700405 82.278384 
L 87.072921 83.704277 
L 89.445437 84.961932 
L 91.817953 86.122825 
L 94.190469 87.284159 
L 96.562985 88.303474 
L 98.935501 89.328504 
L 101.308017 90.257412 
L 103.680533 91.09781 
L 106.053049 91.858134 
L 108.425566 92.547556 
L 110.798082 93.168515 
L 113.170598 93.731382 
L 115.543114 94.240771 
L 117.91563 94.701624 
L 120.288146 95.122714 
L 122.660662 95.499651 
L 125.033178 95.840661 
L 127.405694 96.149167 
L 129.77821 96.486209 
L 132.150726 96.794058 
L 134.523242 97.014382 
L 136.895758 97.213424 
L 139.268274 97.372422 
L 141.64079 97.506095 
L 144.013306 97.692529 
L 146.385822 97.918071 
L 148.758338 98.525929 
L 151.130854 99.026738 
L 153.50337 99.428218 
L 155.875886 99.716189 
L 158.248403 99.83145 
L 160.620919 100.200071 
L 162.993435 100.555774 
L 165.365951 100.893606 
" clip-path="url(#pda66aa6d96)" style="fill: none; stroke: #ffdb89; stroke-opacity: 0; stroke-width: 1.5; stroke-linecap: square"/>
   </g>
   <g id="line2d_12">
    <path d="M 49.112664 9.773997 
L 51.48518 20.761807 
L 53.857696 29.911159 
L 56.230212 37.910238 
L 58.602729 44.055381 
L 60.975245 49.133287 
L 63.347761 54.264956 
L 65.720277 58.389844 
L 68.092793 61.892096 
L 70.465309 64.972307 
L 72.837825 67.268157 
L 75.210341 69.367791 
L 77.582857 70.986962 
L 79.955373 72.29972 
L 82.327889 72.645714 
L 84.700405 72.983665 
L 87.072921 73.537563 
L 89.445437 74.084724 
L 91.817953 75.428483 
L 94.190469 75.911345 
L 96.562985 76.222846 
L 98.935501 76.636093 
L 101.308017 76.890837 
L 103.680533 77.420505 
L 106.053049 77.913897 
L 108.425566 78.020158 
L 110.798082 78.391897 
L 113.170598 78.988793 
L 115.543114 79.455717 
L 117.91563 79.724189 
L 120.288146 80.103 
L 122.660662 80.956825 
L 125.033178 81.707775 
L 127.405694 82.063865 
L 129.77821 82.337066 
L 132.150726 82.655102 
L 134.523242 82.929072 
L 136.895758 83.203765 
L 139.268274 83.519472 
L 141.64079 83.735863 
L 144.013306 84.243641 
L 146.385822 84.937908 
L 148.758338 85.592478 
L 151.130854 86.280582 
L 153.50337 86.865611 
L 155.875886 87.325849 
L 158.248403 87.715241 
L 160.620919 88.020222 
L 162.993435 88.143523 
L 165.365951 88.291389 
" clip-path="url(#pda66aa6d96)" style="fill: none; stroke-dasharray: 5.55,2.4; stroke-dashoffset: 0; stroke: #ffdb89; stroke-opacity: 0; stroke-width: 1.5"/>
   </g>
   <g id="line2d_13">
    <path d="M 50.031982 -1 
L 51.48518 11.096231 
L 53.857696 21.141474 
L 56.230212 28.184947 
L 58.602729 33.108778 
L 60.975245 35.538884 
L 63.347761 37.400822 
L 65.720277 40.373779 
L 68.092793 42.546157 
L 70.465309 44.504947 
L 72.837825 46.431286 
L 75.210341 48.459508 
L 77.582857 50.437093 
L 79.955373 52.156389 
L 82.327889 53.837624 
L 84.700405 55.508264 
L 87.072921 57.170468 
L 89.445437 58.540368 
L 91.817953 59.97826 
L 94.190469 61.37588 
L 96.562985 62.531165 
L 98.935501 63.805256 
L 101.308017 65.096956 
L 103.680533 66.347143 
L 106.053049 67.469719 
L 108.425566 68.3592 
L 110.798082 69.082238 
L 113.170598 69.506904 
L 115.543114 70.476594 
L 117.91563 70.966099 
L 120.288146 71.10926 
L 122.660662 71.11246 
L 125.033178 71.178583 
L 127.405694 71.179468 
L 129.77821 71.180114 
L 132.150726 71.180585 
L 134.523242 71.180928 
L 136.895758 71.181179 
L 139.268274 71.181361 
L 141.64079 71.181495 
L 144.013306 71.181592 
L 146.385822 71.181663 
L 148.758338 71.181714 
L 151.130854 71.181752 
L 153.50337 71.181779 
L 155.875886 71.181799 
L 158.248403 71.181814 
L 160.620919 71.181825 
L 162.993435 71.181833 
L 165.365951 71.181838 
" clip-path="url(#pda66aa6d96)" style="fill: none; stroke: #ffdb89; stroke-opacity: 0; stroke-width: 1.5; stroke-linecap: square"/>
   </g>
   <g id="line2d_14">
    <defs>
     <path id="mddee1f4122" d="M -3 3 
L 3 -3 
M -3 -3 
L 3 3 
" style="stroke: #444444"/>
    </defs>
    <g clip-path="url(#pda66aa6d96)">
     <use xlink:href="#mddee1f4122" x="49.112664" y="23.179615" style="fill: #444444; stroke: #444444"/>
     <use xlink:href="#mddee1f4122" x="49.597053" y="23.53708" style="fill: #444444; stroke: #444444"/>
     <use xlink:href="#mddee1f4122" x="60.737993" y="42.445689" style="fill: #444444; stroke: #444444"/>
     <use xlink:href="#mddee1f4122" x="72.363322" y="63.394459" style="fill: #444444; stroke: #444444"/>
     <use xlink:href="#mddee1f4122" x="95.613979" y="83.387976" style="fill: #444444; stroke: #444444"/>
     <use xlink:href="#mddee1f4122" x="118.864636" y="85.31608" style="fill: #444444; stroke: #444444"/>
     <use xlink:href="#mddee1f4122" x="142.115293" y="88.724436" style="fill: #444444; stroke: #444444"/>
     <use xlink:href="#mddee1f4122" x="165.365951" y="92.390779" style="fill: #444444; stroke: #444444"/>
    </g>
   </g>
   <g id="line2d_15">
    <path d="M 49.112664 21.943512 
L 51.48518 27.795911 
L 53.857696 33.163842 
L 56.230212 38.087413 
L 58.602729 42.603405 
L 60.975245 46.745561 
L 63.347761 50.544825 
L 65.720277 54.029583 
L 68.092793 57.22587 
L 70.465309 60.157566 
L 72.837825 62.846573 
L 75.210341 65.312982 
L 77.582857 67.57522 
L 79.955373 69.650188 
L 82.327889 71.553388 
L 84.700405 73.29904 
L 87.072921 74.900186 
L 89.445437 76.368787 
L 91.817953 77.715816 
L 94.190469 78.951337 
L 96.562985 80.084581 
L 98.935501 81.124014 
L 101.308017 82.077401 
L 103.680533 82.951867 
L 106.053049 83.753943 
L 108.425566 84.489623 
L 110.798082 85.164403 
L 113.170598 85.783324 
L 115.543114 86.35101 
L 117.91563 86.871702 
L 120.288146 87.349292 
L 122.660662 87.787346 
L 125.033178 88.189137 
L 127.405694 88.557668 
L 129.77821 88.895692 
L 132.150726 89.205733 
L 134.523242 89.49011 
L 136.895758 89.750945 
L 139.268274 89.990188 
L 141.64079 90.209627 
L 144.013306 90.4109 
L 146.385822 90.595511 
L 148.758338 90.764841 
L 151.130854 90.920153 
L 153.50337 91.062608 
L 155.875886 91.19327 
L 158.248403 91.313117 
L 160.620919 91.423042 
L 162.993435 91.523868 
L 165.365951 91.616347 
" clip-path="url(#pda66aa6d96)" style="fill: none; stroke: #444444; stroke-width: 1.5; stroke-linecap: square"/>
   </g>
   <g id="line2d_16">
    <path d="M 49.112664 7.144269 
L 51.48518 17.366443 
L 53.857696 26.279742 
L 56.230212 34.051759 
L 58.602729 40.828627 
L 60.975245 46.737766 
L 63.347761 51.890284 
L 65.720277 56.383059 
L 68.092793 60.300568 
L 70.465309 63.716469 
L 72.837825 66.694988 
L 75.210341 69.292131 
L 77.582857 71.556728 
L 79.955373 73.53136 
L 82.327889 75.253155 
L 84.700405 76.754487 
L 87.072921 78.063584 
L 89.445437 79.205061 
L 91.817953 80.20038 
L 94.190469 81.068256 
L 96.562985 81.825007 
L 98.935501 82.484862 
L 101.308017 83.060227 
L 103.680533 83.561921 
L 106.053049 83.999376 
L 108.425566 84.380819 
L 110.798082 84.71342 
L 113.170598 85.003435 
L 115.543114 85.256315 
L 117.91563 85.476816 
L 120.288146 85.669083 
L 122.660662 85.836732 
L 125.033178 85.982915 
L 127.405694 86.11038 
L 129.77821 86.221524 
L 132.150726 86.318437 
L 134.523242 86.402941 
L 136.895758 86.476624 
L 139.268274 86.540873 
L 141.64079 86.596896 
L 144.013306 86.645745 
L 146.385822 86.68834 
L 148.758338 86.72548 
L 151.130854 86.757865 
L 153.50337 86.786104 
L 155.875886 86.810726 
L 158.248403 86.832196 
L 160.620919 86.850917 
L 162.993435 86.867241 
L 165.365951 86.881474 
" clip-path="url(#pda66aa6d96)" style="fill: none; stroke-dasharray: 5.55,2.4; stroke-dashoffset: 0; stroke: #e6bc5c; stroke-width: 1.5"/>
   </g>
   <g id="patch_3">
    <path d="M 43.3 103.01375 
L 43.3 19.98625 
" style="fill: none; stroke: #000000; stroke-width: 0.8; stroke-linejoin: miter; stroke-linecap: square"/>
   </g>
   <g id="patch_4">
    <path d="M 43.3 103.01375 
L 171.178615 103.01375 
" style="fill: none; stroke: #000000; stroke-width: 0.8; stroke-linejoin: miter; stroke-linecap: square"/>
   </g>
  </g>
  <g id="axes_2">
   <g id="patch_5">
    <path d="M 230.5 103.01375 
L 358.378615 103.01375 
L 358.378615 19.98625 
L 230.5 19.98625 
L 230.5 103.01375 
z
" style="fill: none"/>
   </g>
   <g id="PolyCollection_2">
    <defs>
     <path id="mbcf95545a4" d="M 236.312664 -103.520894 
L 236.312664 -148.395719 
L 238.68518 -128.647206 
L 241.057696 -118.601964 
L 243.430212 -111.55849 
L 245.802729 -106.634659 
L 248.175245 -104.204553 
L 250.547761 -102.342615 
L 252.920277 -99.369659 
L 255.292793 -97.197281 
L 257.665309 -95.23849 
L 260.037825 -93.312151 
L 262.410341 -91.28393 
L 264.782857 -89.306344 
L 267.155373 -87.587049 
L 269.527889 -85.905813 
L 271.900405 -84.235173 
L 274.272921 -82.572969 
L 276.645437 -81.20307 
L 279.017953 -79.765177 
L 281.390469 -78.367557 
L 283.762985 -77.212272 
L 286.135501 -75.938181 
L 288.508017 -74.646482 
L 290.880533 -73.396294 
L 293.253049 -72.273718 
L 295.625566 -71.384237 
L 297.998082 -70.6612 
L 300.370598 -70.236533 
L 302.743114 -69.266843 
L 305.11563 -68.777339 
L 307.488146 -68.634178 
L 309.860662 -68.630978 
L 312.233178 -68.564855 
L 314.605694 -68.563969 
L 316.97821 -68.563324 
L 319.350726 -68.562853 
L 321.723242 -68.562509 
L 324.095758 -68.562259 
L 326.468274 -68.562076 
L 328.84079 -68.561943 
L 331.213306 -68.561846 
L 333.585822 -68.561775 
L 335.958338 -68.561723 
L 338.330854 -68.561686 
L 340.70337 -68.561658 
L 343.075886 -68.561638 
L 345.448403 -68.561623 
L 347.820919 -68.561613 
L 350.193435 -68.561605 
L 352.565951 -68.561599 
L 352.565951 -38.849832 
L 352.565951 -38.849832 
L 350.193435 -39.187664 
L 347.820919 -39.543367 
L 345.448403 -39.911987 
L 343.075886 -40.027248 
L 340.70337 -40.315219 
L 338.330854 -40.716699 
L 335.958338 -41.217508 
L 333.585822 -41.825367 
L 331.213306 -42.050908 
L 328.84079 -42.237342 
L 326.468274 -42.371015 
L 324.095758 -42.530013 
L 321.723242 -42.729056 
L 319.350726 -42.949379 
L 316.97821 -43.257229 
L 314.605694 -43.59427 
L 312.233178 -43.902777 
L 309.860662 -44.243786 
L 307.488146 -44.620723 
L 305.11563 -45.041813 
L 302.743114 -45.502666 
L 300.370598 -46.012055 
L 297.998082 -46.574922 
L 295.625566 -47.195881 
L 293.253049 -47.885304 
L 290.880533 -48.645627 
L 288.508017 -49.486026 
L 286.135501 -50.414934 
L 283.762985 -51.439963 
L 281.390469 -52.459278 
L 279.017953 -53.620613 
L 276.645437 -54.781506 
L 274.272921 -56.039161 
L 271.900405 -57.465054 
L 269.527889 -59.115083 
L 267.155373 -60.970478 
L 264.782857 -62.999909 
L 262.410341 -65.263418 
L 260.037825 -67.437007 
L 257.665309 -69.699869 
L 255.292793 -71.783992 
L 252.920277 -74.54379 
L 250.547761 -78.188594 
L 248.175245 -83.006066 
L 245.802729 -89.367785 
L 243.430212 -95.220959 
L 241.057696 -98.36807 
L 238.68518 -100.735577 
L 236.312664 -103.520894 
z
" style="stroke: #ffdb89; stroke-opacity: 0.3"/>
    </defs>
    <g clip-path="url(#p1494c4a68e)">
     <use xlink:href="#mbcf95545a4" x="0" y="139.743438" style="fill: #ffdb89; fill-opacity: 0.3; stroke: #ffdb89; stroke-opacity: 0.3"/>
    </g>
   </g>
   <g id="matplotlib.axis_3">
    <g id="xtick_8">
     <g id="line2d_17">
      <g>
       <use xlink:href="#m0340f8beef" x="236.312664" y="103.01375" style="stroke: #000000; stroke-width: 0.8"/>
      </g>
     </g>
     <g id="text_13">
      <!-- 0 -->
      <g transform="translate(233.532196 117.171563)scale(0.1 -0.1)">
       <use xlink:href="#ArialMT-30"/>
      </g>
     </g>
    </g>
    <g id="xtick_9">
     <g id="line2d_18">
      <g>
       <use xlink:href="#m0340f8beef" x="247.937993" y="103.01375" style="stroke: #000000; stroke-width: 0.8"/>
      </g>
     </g>
     <g id="text_14">
      <!-- 24 -->
      <g transform="translate(242.377055 117.171563)scale(0.1 -0.1)">
       <use xlink:href="#ArialMT-32"/>
       <use xlink:href="#ArialMT-34" x="55.615234"/>
      </g>
     </g>
    </g>
    <g id="xtick_10">
     <g id="line2d_19">
      <g>
       <use xlink:href="#m0340f8beef" x="259.563322" y="103.01375" style="stroke: #000000; stroke-width: 0.8"/>
      </g>
     </g>
     <g id="text_15">
      <!-- 48 -->
      <g transform="translate(254.002384 117.171563)scale(0.1 -0.1)">
       <use xlink:href="#ArialMT-34"/>
       <use xlink:href="#ArialMT-38" x="55.615234"/>
      </g>
     </g>
    </g>
    <g id="xtick_11">
     <g id="line2d_20">
      <g>
       <use xlink:href="#m0340f8beef" x="282.813979" y="103.01375" style="stroke: #000000; stroke-width: 0.8"/>
      </g>
     </g>
     <g id="text_16">
      <!-- 96 -->
      <g transform="translate(277.253041 117.171563)scale(0.1 -0.1)">
       <use xlink:href="#ArialMT-39"/>
       <use xlink:href="#ArialMT-36" x="55.615234"/>
      </g>
     </g>
    </g>
    <g id="xtick_12">
     <g id="line2d_21">
      <g>
       <use xlink:href="#m0340f8beef" x="306.064636" y="103.01375" style="stroke: #000000; stroke-width: 0.8"/>
      </g>
     </g>
     <g id="text_17">
      <!-- 144 -->
      <g transform="translate(297.72323 117.171563)scale(0.1 -0.1)">
       <use xlink:href="#ArialMT-31"/>
       <use xlink:href="#ArialMT-34" x="55.615234"/>
       <use xlink:href="#ArialMT-34" x="111.230469"/>
      </g>
     </g>
    </g>
    <g id="xtick_13">
     <g id="line2d_22">
      <g>
       <use xlink:href="#m0340f8beef" x="329.315293" y="103.01375" style="stroke: #000000; stroke-width: 0.8"/>
      </g>
     </g>
     <g id="text_18">
      <!-- 192 -->
      <g transform="translate(320.973887 117.171563)scale(0.1 -0.1)">
       <use xlink:href="#ArialMT-31"/>
       <use xlink:href="#ArialMT-39" x="55.615234"/>
       <use xlink:href="#ArialMT-32" x="111.230469"/>
      </g>
     </g>
    </g>
    <g id="xtick_14">
     <g id="line2d_23">
      <g>
       <use xlink:href="#m0340f8beef" x="352.565951" y="103.01375" style="stroke: #000000; stroke-width: 0.8"/>
      </g>
     </g>
     <g id="text_19">
      <!-- 240 -->
      <g transform="translate(344.224544 117.171563)scale(0.1 -0.1)">
       <use xlink:href="#ArialMT-32"/>
       <use xlink:href="#ArialMT-34" x="55.615234"/>
       <use xlink:href="#ArialMT-30" x="111.230469"/>
      </g>
     </g>
    </g>
    <g id="text_20">
     <!-- Time in captivity (hours) -->
     <g transform="translate(241.561182 130.43875)scale(0.1 -0.1)">
      <use xlink:href="#ArialMT-54"/>
      <use xlink:href="#ArialMT-69" x="57.333984"/>
      <use xlink:href="#ArialMT-6d" x="79.550781"/>
      <use xlink:href="#ArialMT-65" x="162.851562"/>
      <use xlink:href="#ArialMT-20" x="218.466797"/>
      <use xlink:href="#ArialMT-69" x="246.25"/>
      <use xlink:href="#ArialMT-6e" x="268.466797"/>
      <use xlink:href="#ArialMT-20" x="324.082031"/>
      <use xlink:href="#ArialMT-63" x="351.865234"/>
      <use xlink:href="#ArialMT-61" x="401.865234"/>
      <use xlink:href="#ArialMT-70" x="457.480469"/>
      <use xlink:href="#ArialMT-74" x="513.095703"/>
      <use xlink:href="#ArialMT-69" x="540.878906"/>
      <use xlink:href="#ArialMT-76" x="563.095703"/>
      <use xlink:href="#ArialMT-69" x="613.095703"/>
      <use xlink:href="#ArialMT-74" x="635.3125"/>
      <use xlink:href="#ArialMT-79" x="663.095703"/>
      <use xlink:href="#ArialMT-20" x="713.095703"/>
      <use xlink:href="#ArialMT-28" x="740.878906"/>
      <use xlink:href="#ArialMT-68" x="774.179688"/>
      <use xlink:href="#ArialMT-6f" x="829.794922"/>
      <use xlink:href="#ArialMT-75" x="885.410156"/>
      <use xlink:href="#ArialMT-72" x="941.025391"/>
      <use xlink:href="#ArialMT-73" x="974.326172"/>
      <use xlink:href="#ArialMT-29" x="1024.326172"/>
     </g>
    </g>
   </g>
   <g id="matplotlib.axis_4">
    <g id="ytick_4">
     <g id="line2d_24">
      <g>
       <use xlink:href="#m5fd09911d8" x="230.5" y="103.01375" style="stroke: #000000; stroke-width: 0.8"/>
      </g>
     </g>
     <g id="text_21">
      <!-- 0.0 -->
      <g transform="translate(209.6 106.592656)scale(0.1 -0.1)">
       <use xlink:href="#ArialMT-30"/>
       <use xlink:href="#ArialMT-2e" x="55.615234"/>
       <use xlink:href="#ArialMT-30" x="83.398438"/>
      </g>
     </g>
    </g>
    <g id="ytick_5">
     <g id="line2d_25">
      <g>
       <use xlink:href="#m5fd09911d8" x="230.5" y="63.096683" style="stroke: #000000; stroke-width: 0.8"/>
      </g>
     </g>
     <g id="text_22">
      <!-- 0.5 -->
      <g transform="translate(209.6 66.675589)scale(0.1 -0.1)">
       <use xlink:href="#ArialMT-30"/>
       <use xlink:href="#ArialMT-2e" x="55.615234"/>
       <use xlink:href="#ArialMT-35" x="83.398438"/>
      </g>
     </g>
    </g>
    <g id="ytick_6">
     <g id="line2d_26">
      <g>
       <use xlink:href="#m5fd09911d8" x="230.5" y="23.179615" style="stroke: #000000; stroke-width: 0.8"/>
      </g>
     </g>
     <g id="text_23">
      <!-- 1.0 -->
      <g transform="translate(209.6 26.758522)scale(0.1 -0.1)">
       <use xlink:href="#ArialMT-31"/>
       <use xlink:href="#ArialMT-2e" x="55.615234"/>
       <use xlink:href="#ArialMT-30" x="83.398438"/>
      </g>
     </g>
    </g>
    <g id="text_24">
     <!-- Direction accuracy (σ$^{-1}$) -->
     <g transform="translate(203.4 115.8)rotate(-90)scale(0.1 -0.1)">
      <use xlink:href="#ArialMT-44" transform="translate(0 0.684375)"/>
      <use xlink:href="#ArialMT-69" transform="translate(72.216797 0.684375)"/>
      <use xlink:href="#ArialMT-72" transform="translate(94.433594 0.684375)"/>
      <use xlink:href="#ArialMT-65" transform="translate(127.734375 0.684375)"/>
      <use xlink:href="#ArialMT-63" transform="translate(183.349609 0.684375)"/>
      <use xlink:href="#ArialMT-74" transform="translate(233.349609 0.684375)"/>
      <use xlink:href="#ArialMT-69" transform="translate(261.132812 0.684375)"/>
      <use xlink:href="#ArialMT-6f" transform="translate(283.349609 0.684375)"/>
      <use xlink:href="#ArialMT-6e" transform="translate(338.964844 0.684375)"/>
      <use xlink:href="#ArialMT-20" transform="translate(394.580078 0.684375)"/>
      <use xlink:href="#ArialMT-61" transform="translate(422.363281 0.684375)"/>
      <use xlink:href="#ArialMT-63" transform="translate(477.978516 0.684375)"/>
      <use xlink:href="#ArialMT-63" transform="translate(527.978516 0.684375)"/>
      <use xlink:href="#ArialMT-75" transform="translate(577.978516 0.684375)"/>
      <use xlink:href="#ArialMT-72" transform="translate(633.59375 0.684375)"/>
      <use xlink:href="#ArialMT-61" transform="translate(666.894531 0.684375)"/>
      <use xlink:href="#ArialMT-63" transform="translate(722.509766 0.684375)"/>
      <use xlink:href="#ArialMT-79" transform="translate(772.509766 0.684375)"/>
      <use xlink:href="#ArialMT-20" transform="translate(822.509766 0.684375)"/>
      <use xlink:href="#ArialMT-28" transform="translate(850.292969 0.684375)"/>
      <use xlink:href="#ArialMT-3c3" transform="translate(883.59375 0.684375)"/>
      <use xlink:href="#DejaVuSans-2212" transform="translate(946.269531 38.965625)scale(0.7)"/>
      <use xlink:href="#DejaVuSans-31" transform="translate(1004.921875 38.965625)scale(0.7)"/>
      <use xlink:href="#ArialMT-29" transform="translate(1052.192383 0.684375)"/>
     </g>
    </g>
   </g>
   <g id="line2d_27">
    <path d="M 236.312664 36.222544 
L 238.68518 39.00786 
L 241.057696 41.375368 
L 243.430212 44.522479 
L 245.802729 50.375653 
L 248.175245 56.737371 
L 250.547761 61.554844 
L 252.920277 65.199648 
L 255.292793 67.959445 
L 257.665309 70.043568 
L 260.037825 72.30643 
L 262.410341 74.480019 
L 264.782857 76.743529 
L 267.155373 78.772959 
L 269.527889 80.628355 
L 271.900405 82.278384 
L 274.272921 83.704277 
L 276.645437 84.961932 
L 279.017953 86.122825 
L 281.390469 87.284159 
L 283.762985 88.303474 
L 286.135501 89.328504 
L 288.508017 90.257412 
L 290.880533 91.09781 
L 293.253049 91.858134 
L 295.625566 92.547556 
L 297.998082 93.168515 
L 300.370598 93.731382 
L 302.743114 94.240771 
L 305.11563 94.701624 
L 307.488146 95.122714 
L 309.860662 95.499651 
L 312.233178 95.840661 
L 314.605694 96.149167 
L 316.97821 96.486209 
L 319.350726 96.794058 
L 321.723242 97.014382 
L 324.095758 97.213424 
L 326.468274 97.372422 
L 328.84079 97.506095 
L 331.213306 97.692529 
L 333.585822 97.918071 
L 335.958338 98.525929 
L 338.330854 99.026738 
L 340.70337 99.428218 
L 343.075886 99.716189 
L 345.448403 99.83145 
L 347.820919 100.200071 
L 350.193435 100.555774 
L 352.565951 100.893606 
" clip-path="url(#p1494c4a68e)" style="fill: none; stroke: #ffdb89; stroke-opacity: 0; stroke-width: 1.5; stroke-linecap: square"/>
   </g>
   <g id="line2d_28">
    <path d="M 236.312664 9.773997 
L 238.68518 20.761807 
L 241.057696 29.911159 
L 243.430212 37.910238 
L 245.802729 44.055381 
L 248.175245 49.133287 
L 250.547761 54.264956 
L 252.920277 58.389844 
L 255.292793 61.892096 
L 257.665309 64.972307 
L 260.037825 67.268157 
L 262.410341 69.367791 
L 264.782857 70.986962 
L 267.155373 72.29972 
L 269.527889 72.645714 
L 271.900405 72.983665 
L 274.272921 73.537563 
L 276.645437 74.084724 
L 279.017953 75.428483 
L 281.390469 75.911345 
L 283.762985 76.222846 
L 286.135501 76.636093 
L 288.508017 76.890837 
L 290.880533 77.420505 
L 293.253049 77.913897 
L 295.625566 78.020158 
L 297.998082 78.391897 
L 300.370598 78.988793 
L 302.743114 79.455717 
L 305.11563 79.724189 
L 307.488146 80.103 
L 309.860662 80.956825 
L 312.233178 81.707775 
L 314.605694 82.063865 
L 316.97821 82.337066 
L 319.350726 82.655102 
L 321.723242 82.929072 
L 324.095758 83.203765 
L 326.468274 83.519472 
L 328.84079 83.735863 
L 331.213306 84.243641 
L 333.585822 84.937908 
L 335.958338 85.592478 
L 338.330854 86.280582 
L 340.70337 86.865611 
L 343.075886 87.325849 
L 345.448403 87.715241 
L 347.820919 88.020222 
L 350.193435 88.143523 
L 352.565951 88.291389 
" clip-path="url(#p1494c4a68e)" style="fill: none; stroke-dasharray: 5.55,2.4; stroke-dashoffset: 0; stroke: #ffdb89; stroke-opacity: 0; stroke-width: 1.5"/>
   </g>
   <g id="line2d_29">
    <path d="M 237.231982 -1 
L 238.68518 11.096231 
L 241.057696 21.141474 
L 243.430212 28.184947 
L 245.802729 33.108778 
L 248.175245 35.538884 
L 250.547761 37.400822 
L 252.920277 40.373779 
L 255.292793 42.546157 
L 257.665309 44.504947 
L 260.037825 46.431286 
L 262.410341 48.459508 
L 264.782857 50.437093 
L 267.155373 52.156389 
L 269.527889 53.837624 
L 271.900405 55.508264 
L 274.272921 57.170468 
L 276.645437 58.540368 
L 279.017953 59.97826 
L 281.390469 61.37588 
L 283.762985 62.531165 
L 286.135501 63.805256 
L 288.508017 65.096956 
L 290.880533 66.347143 
L 293.253049 67.469719 
L 295.625566 68.3592 
L 297.998082 69.082238 
L 300.370598 69.506904 
L 302.743114 70.476594 
L 305.11563 70.966099 
L 307.488146 71.10926 
L 309.860662 71.11246 
L 312.233178 71.178583 
L 314.605694 71.179468 
L 316.97821 71.180114 
L 319.350726 71.180585 
L 321.723242 71.180928 
L 324.095758 71.181179 
L 326.468274 71.181361 
L 328.84079 71.181495 
L 331.213306 71.181592 
L 333.585822 71.181663 
L 335.958338 71.181714 
L 338.330854 71.181752 
L 340.70337 71.181779 
L 343.075886 71.181799 
L 345.448403 71.181814 
L 347.820919 71.181825 
L 350.193435 71.181833 
L 352.565951 71.181838 
" clip-path="url(#p1494c4a68e)" style="fill: none; stroke: #ffdb89; stroke-opacity: 0; stroke-width: 1.5; stroke-linecap: square"/>
   </g>
   <g id="line2d_30">
    <g clip-path="url(#p1494c4a68e)">
     <use xlink:href="#mddee1f4122" x="236.312664" y="26.454692" style="fill: #444444; stroke: #444444"/>
     <use xlink:href="#mddee1f4122" x="236.797053" y="35.776473" style="fill: #444444; stroke: #444444"/>
     <use xlink:href="#mddee1f4122" x="247.937993" y="23.179615" style="fill: #444444; stroke: #444444"/>
     <use xlink:href="#mddee1f4122" x="259.563322" y="27.68148" style="fill: #444444; stroke: #444444"/>
     <use xlink:href="#mddee1f4122" x="282.813979" y="30.641545" style="fill: #444444; stroke: #444444"/>
     <use xlink:href="#mddee1f4122" x="306.064636" y="33.250637" style="fill: #444444; stroke: #444444"/>
     <use xlink:href="#mddee1f4122" x="329.315293" y="64.774907" style="fill: #444444; stroke: #444444"/>
     <use xlink:href="#mddee1f4122" x="352.565951" y="79.291442" style="fill: #444444; stroke: #444444"/>
    </g>
   </g>
   <g id="line2d_31">
    <path d="M 236.312664 27.520819 
L 238.68518 27.553839 
L 241.057696 27.59179 
L 243.430212 27.635405 
L 245.802729 27.685519 
L 248.175245 27.743092 
L 250.547761 27.809218 
L 252.920277 27.88515 
L 255.292793 27.972317 
L 257.665309 28.07235 
L 260.037825 28.187104 
L 262.410341 28.31869 
L 264.782857 28.469504 
L 267.155373 28.642257 
L 269.527889 28.840015 
L 271.900405 29.066231 
L 274.272921 29.324783 
L 276.645437 29.62001 
L 279.017953 29.956743 
L 281.390469 30.340339 
L 283.762985 30.776699 
L 286.135501 31.272276 
L 288.508017 31.834072 
L 290.880533 32.46961 
L 293.253049 33.186876 
L 295.625566 33.994227 
L 297.998082 34.900263 
L 300.370598 35.913633 
L 302.743114 37.042804 
L 305.11563 38.295753 
L 307.488146 39.679607 
L 309.860662 41.200227 
L 312.233178 42.861743 
L 314.605694 44.666076 
L 316.97821 46.612455 
L 319.350726 48.696992 
L 321.723242 50.912339 
L 324.095758 53.247489 
L 326.468274 55.687753 
L 328.84079 58.214956 
L 331.213306 60.807853 
L 333.585822 63.442774 
L 335.958338 66.094446 
L 338.330854 68.736947 
L 340.70337 71.344711 
L 343.075886 73.893506 
L 345.448403 76.361301 
L 347.820919 78.728965 
L 350.193435 80.980757 
L 352.565951 83.104583 
" clip-path="url(#p1494c4a68e)" style="fill: none; stroke: #444444; stroke-width: 1.5; stroke-linecap: square"/>
   </g>
   <g id="line2d_32">
    <path d="M 236.312664 7.144269 
L 238.68518 17.366443 
L 241.057696 26.279742 
L 243.430212 34.051759 
L 245.802729 40.828627 
L 248.175245 46.737766 
L 250.547761 51.890284 
L 252.920277 56.383059 
L 255.292793 60.300568 
L 257.665309 63.716469 
L 260.037825 66.694988 
L 262.410341 69.292131 
L 264.782857 71.556728 
L 267.155373 73.53136 
L 269.527889 75.253155 
L 271.900405 76.754487 
L 274.272921 78.063584 
L 276.645437 79.205061 
L 279.017953 80.20038 
L 281.390469 81.068256 
L 283.762985 81.825007 
L 286.135501 82.484862 
L 288.508017 83.060227 
L 290.880533 83.561921 
L 293.253049 83.999376 
L 295.625566 84.380819 
L 297.998082 84.71342 
L 300.370598 85.003435 
L 302.743114 85.256315 
L 305.11563 85.476816 
L 307.488146 85.669083 
L 309.860662 85.836732 
L 312.233178 85.982915 
L 314.605694 86.11038 
L 316.97821 86.221524 
L 319.350726 86.318437 
L 321.723242 86.402941 
L 324.095758 86.476624 
L 326.468274 86.540873 
L 328.84079 86.596896 
L 331.213306 86.645745 
L 333.585822 86.68834 
L 335.958338 86.72548 
L 338.330854 86.757865 
L 340.70337 86.786104 
L 343.075886 86.810726 
L 345.448403 86.832196 
L 347.820919 86.850917 
L 350.193435 86.867241 
L 352.565951 86.881474 
" clip-path="url(#p1494c4a68e)" style="fill: none; stroke-dasharray: 5.55,2.4; stroke-dashoffset: 0; stroke: #e6bc5c; stroke-width: 1.5"/>
   </g>
   <g id="patch_6">
    <path d="M 230.5 103.01375 
L 230.5 19.98625 
" style="fill: none; stroke: #000000; stroke-width: 0.8; stroke-linejoin: miter; stroke-linecap: square"/>
   </g>
   <g id="patch_7">
    <path d="M 230.5 103.01375 
L 358.378615 103.01375 
" style="fill: none; stroke: #000000; stroke-width: 0.8; stroke-linejoin: miter; stroke-linecap: square"/>
   </g>
  </g>
  <g id="axes_3">
   <g id="patch_8">
    <path d="M 417.7 103.01375 
L 545.578615 103.01375 
L 545.578615 19.98625 
L 417.7 19.98625 
L 417.7 103.01375 
z
" style="fill: none"/>
   </g>
   <g id="PolyCollection_3">
    <defs>
     <path id="m36106a2e44" d="M 423.512664 -103.520894 
L 423.512664 -148.395719 
L 425.88518 -128.647206 
L 428.257696 -118.601964 
L 430.630212 -111.55849 
L 433.002729 -106.634659 
L 435.375245 -104.204553 
L 437.747761 -102.342615 
L 440.120277 -99.369659 
L 442.492793 -97.197281 
L 444.865309 -95.23849 
L 447.237825 -93.312151 
L 449.610341 -91.28393 
L 451.982857 -89.306344 
L 454.355373 -87.587049 
L 456.727889 -85.905813 
L 459.100405 -84.235173 
L 461.472921 -82.572969 
L 463.845437 -81.20307 
L 466.217953 -79.765177 
L 468.590469 -78.367557 
L 470.962985 -77.212272 
L 473.335501 -75.938181 
L 475.708017 -74.646482 
L 478.080533 -73.396294 
L 480.453049 -72.273718 
L 482.825566 -71.384237 
L 485.198082 -70.6612 
L 487.570598 -70.236533 
L 489.943114 -69.266843 
L 492.31563 -68.777339 
L 494.688146 -68.634178 
L 497.060662 -68.630978 
L 499.433178 -68.564855 
L 501.805694 -68.563969 
L 504.17821 -68.563324 
L 506.550726 -68.562853 
L 508.923242 -68.562509 
L 511.295758 -68.562259 
L 513.668274 -68.562076 
L 516.04079 -68.561943 
L 518.413306 -68.561846 
L 520.785822 -68.561775 
L 523.158338 -68.561723 
L 525.530854 -68.561686 
L 527.90337 -68.561658 
L 530.275886 -68.561638 
L 532.648403 -68.561623 
L 535.020919 -68.561613 
L 537.393435 -68.561605 
L 539.765951 -68.561599 
L 539.765951 -38.849832 
L 539.765951 -38.849832 
L 537.393435 -39.187664 
L 535.020919 -39.543367 
L 532.648403 -39.911987 
L 530.275886 -40.027248 
L 527.90337 -40.315219 
L 525.530854 -40.716699 
L 523.158338 -41.217508 
L 520.785822 -41.825367 
L 518.413306 -42.050908 
L 516.04079 -42.237342 
L 513.668274 -42.371015 
L 511.295758 -42.530013 
L 508.923242 -42.729056 
L 506.550726 -42.949379 
L 504.17821 -43.257229 
L 501.805694 -43.59427 
L 499.433178 -43.902777 
L 497.060662 -44.243786 
L 494.688146 -44.620723 
L 492.31563 -45.041813 
L 489.943114 -45.502666 
L 487.570598 -46.012055 
L 485.198082 -46.574922 
L 482.825566 -47.195881 
L 480.453049 -47.885304 
L 478.080533 -48.645627 
L 475.708017 -49.486026 
L 473.335501 -50.414934 
L 470.962985 -51.439963 
L 468.590469 -52.459278 
L 466.217953 -53.620613 
L 463.845437 -54.781506 
L 461.472921 -56.039161 
L 459.100405 -57.465054 
L 456.727889 -59.115083 
L 454.355373 -60.970478 
L 451.982857 -62.999909 
L 449.610341 -65.263418 
L 447.237825 -67.437007 
L 444.865309 -69.699869 
L 442.492793 -71.783992 
L 440.120277 -74.54379 
L 437.747761 -78.188594 
L 435.375245 -83.006066 
L 433.002729 -89.367785 
L 430.630212 -95.220959 
L 428.257696 -98.36807 
L 425.88518 -100.735577 
L 423.512664 -103.520894 
z
" style="stroke: #ffdb89; stroke-opacity: 0.3"/>
    </defs>
    <g clip-path="url(#p4fe86e0b4f)">
     <use xlink:href="#m36106a2e44" x="0" y="139.743438" style="fill: #ffdb89; fill-opacity: 0.3; stroke: #ffdb89; stroke-opacity: 0.3"/>
    </g>
   </g>
   <g id="matplotlib.axis_5">
    <g id="xtick_15">
     <g id="line2d_33">
      <g>
       <use xlink:href="#m0340f8beef" x="423.512664" y="103.01375" style="stroke: #000000; stroke-width: 0.8"/>
      </g>
     </g>
     <g id="text_25">
      <!-- 0 -->
      <g transform="translate(420.732196 117.171563)scale(0.1 -0.1)">
       <use xlink:href="#ArialMT-30"/>
      </g>
     </g>
    </g>
    <g id="xtick_16">
     <g id="line2d_34">
      <g>
       <use xlink:href="#m0340f8beef" x="435.137993" y="103.01375" style="stroke: #000000; stroke-width: 0.8"/>
      </g>
     </g>
     <g id="text_26">
      <!-- 24 -->
      <g transform="translate(429.577055 117.171563)scale(0.1 -0.1)">
       <use xlink:href="#ArialMT-32"/>
       <use xlink:href="#ArialMT-34" x="55.615234"/>
      </g>
     </g>
    </g>
    <g id="xtick_17">
     <g id="line2d_35">
      <g>
       <use xlink:href="#m0340f8beef" x="446.763322" y="103.01375" style="stroke: #000000; stroke-width: 0.8"/>
      </g>
     </g>
     <g id="text_27">
      <!-- 48 -->
      <g transform="translate(441.202384 117.171563)scale(0.1 -0.1)">
       <use xlink:href="#ArialMT-34"/>
       <use xlink:href="#ArialMT-38" x="55.615234"/>
      </g>
     </g>
    </g>
    <g id="xtick_18">
     <g id="line2d_36">
      <g>
       <use xlink:href="#m0340f8beef" x="470.013979" y="103.01375" style="stroke: #000000; stroke-width: 0.8"/>
      </g>
     </g>
     <g id="text_28">
      <!-- 96 -->
      <g transform="translate(464.453041 117.171563)scale(0.1 -0.1)">
       <use xlink:href="#ArialMT-39"/>
       <use xlink:href="#ArialMT-36" x="55.615234"/>
      </g>
     </g>
    </g>
    <g id="xtick_19">
     <g id="line2d_37">
      <g>
       <use xlink:href="#m0340f8beef" x="493.264636" y="103.01375" style="stroke: #000000; stroke-width: 0.8"/>
      </g>
     </g>
     <g id="text_29">
      <!-- 144 -->
      <g transform="translate(484.92323 117.171563)scale(0.1 -0.1)">
       <use xlink:href="#ArialMT-31"/>
       <use xlink:href="#ArialMT-34" x="55.615234"/>
       <use xlink:href="#ArialMT-34" x="111.230469"/>
      </g>
     </g>
    </g>
    <g id="xtick_20">
     <g id="line2d_38">
      <g>
       <use xlink:href="#m0340f8beef" x="516.515293" y="103.01375" style="stroke: #000000; stroke-width: 0.8"/>
      </g>
     </g>
     <g id="text_30">
      <!-- 192 -->
      <g transform="translate(508.173887 117.171563)scale(0.1 -0.1)">
       <use xlink:href="#ArialMT-31"/>
       <use xlink:href="#ArialMT-39" x="55.615234"/>
       <use xlink:href="#ArialMT-32" x="111.230469"/>
      </g>
     </g>
    </g>
    <g id="xtick_21">
     <g id="line2d_39">
      <g>
       <use xlink:href="#m0340f8beef" x="539.765951" y="103.01375" style="stroke: #000000; stroke-width: 0.8"/>
      </g>
     </g>
     <g id="text_31">
      <!-- 240 -->
      <g transform="translate(531.424544 117.171563)scale(0.1 -0.1)">
       <use xlink:href="#ArialMT-32"/>
       <use xlink:href="#ArialMT-34" x="55.615234"/>
       <use xlink:href="#ArialMT-30" x="111.230469"/>
      </g>
     </g>
    </g>
    <g id="text_32">
     <!-- Time in captivity (hours) -->
     <g transform="translate(428.761182 130.43875)scale(0.1 -0.1)">
      <use xlink:href="#ArialMT-54"/>
      <use xlink:href="#ArialMT-69" x="57.333984"/>
      <use xlink:href="#ArialMT-6d" x="79.550781"/>
      <use xlink:href="#ArialMT-65" x="162.851562"/>
      <use xlink:href="#ArialMT-20" x="218.466797"/>
      <use xlink:href="#ArialMT-69" x="246.25"/>
      <use xlink:href="#ArialMT-6e" x="268.466797"/>
      <use xlink:href="#ArialMT-20" x="324.082031"/>
      <use xlink:href="#ArialMT-63" x="351.865234"/>
      <use xlink:href="#ArialMT-61" x="401.865234"/>
      <use xlink:href="#ArialMT-70" x="457.480469"/>
      <use xlink:href="#ArialMT-74" x="513.095703"/>
      <use xlink:href="#ArialMT-69" x="540.878906"/>
      <use xlink:href="#ArialMT-76" x="563.095703"/>
      <use xlink:href="#ArialMT-69" x="613.095703"/>
      <use xlink:href="#ArialMT-74" x="635.3125"/>
      <use xlink:href="#ArialMT-79" x="663.095703"/>
      <use xlink:href="#ArialMT-20" x="713.095703"/>
      <use xlink:href="#ArialMT-28" x="740.878906"/>
      <use xlink:href="#ArialMT-68" x="774.179688"/>
      <use xlink:href="#ArialMT-6f" x="829.794922"/>
      <use xlink:href="#ArialMT-75" x="885.410156"/>
      <use xlink:href="#ArialMT-72" x="941.025391"/>
      <use xlink:href="#ArialMT-73" x="974.326172"/>
      <use xlink:href="#ArialMT-29" x="1024.326172"/>
     </g>
    </g>
   </g>
   <g id="matplotlib.axis_6">
    <g id="ytick_7">
     <g id="line2d_40">
      <g>
       <use xlink:href="#m5fd09911d8" x="417.7" y="103.01375" style="stroke: #000000; stroke-width: 0.8"/>
      </g>
     </g>
     <g id="text_33">
      <!-- 0.0 -->
      <g transform="translate(396.8 106.592656)scale(0.1 -0.1)">
       <use xlink:href="#ArialMT-30"/>
       <use xlink:href="#ArialMT-2e" x="55.615234"/>
       <use xlink:href="#ArialMT-30" x="83.398438"/>
      </g>
     </g>
    </g>
    <g id="ytick_8">
     <g id="line2d_41">
      <g>
       <use xlink:href="#m5fd09911d8" x="417.7" y="63.096683" style="stroke: #000000; stroke-width: 0.8"/>
      </g>
     </g>
     <g id="text_34">
      <!-- 0.5 -->
      <g transform="translate(396.8 66.675589)scale(0.1 -0.1)">
       <use xlink:href="#ArialMT-30"/>
       <use xlink:href="#ArialMT-2e" x="55.615234"/>
       <use xlink:href="#ArialMT-35" x="83.398438"/>
      </g>
     </g>
    </g>
    <g id="ytick_9">
     <g id="line2d_42">
      <g>
       <use xlink:href="#m5fd09911d8" x="417.7" y="23.179615" style="stroke: #000000; stroke-width: 0.8"/>
      </g>
     </g>
     <g id="text_35">
      <!-- 1.0 -->
      <g transform="translate(396.8 26.758522)scale(0.1 -0.1)">
       <use xlink:href="#ArialMT-31"/>
       <use xlink:href="#ArialMT-2e" x="55.615234"/>
       <use xlink:href="#ArialMT-30" x="83.398438"/>
      </g>
     </g>
    </g>
    <g id="text_36">
     <!-- Direction accuracy (σ$^{-1}$) -->
     <g transform="translate(390.6 115.8)rotate(-90)scale(0.1 -0.1)">
      <use xlink:href="#ArialMT-44" transform="translate(0 0.684375)"/>
      <use xlink:href="#ArialMT-69" transform="translate(72.216797 0.684375)"/>
      <use xlink:href="#ArialMT-72" transform="translate(94.433594 0.684375)"/>
      <use xlink:href="#ArialMT-65" transform="translate(127.734375 0.684375)"/>
      <use xlink:href="#ArialMT-63" transform="translate(183.349609 0.684375)"/>
      <use xlink:href="#ArialMT-74" transform="translate(233.349609 0.684375)"/>
      <use xlink:href="#ArialMT-69" transform="translate(261.132812 0.684375)"/>
      <use xlink:href="#ArialMT-6f" transform="translate(283.349609 0.684375)"/>
      <use xlink:href="#ArialMT-6e" transform="translate(338.964844 0.684375)"/>
      <use xlink:href="#ArialMT-20" transform="translate(394.580078 0.684375)"/>
      <use xlink:href="#ArialMT-61" transform="translate(422.363281 0.684375)"/>
      <use xlink:href="#ArialMT-63" transform="translate(477.978516 0.684375)"/>
      <use xlink:href="#ArialMT-63" transform="translate(527.978516 0.684375)"/>
      <use xlink:href="#ArialMT-75" transform="translate(577.978516 0.684375)"/>
      <use xlink:href="#ArialMT-72" transform="translate(633.59375 0.684375)"/>
      <use xlink:href="#ArialMT-61" transform="translate(666.894531 0.684375)"/>
      <use xlink:href="#ArialMT-63" transform="translate(722.509766 0.684375)"/>
      <use xlink:href="#ArialMT-79" transform="translate(772.509766 0.684375)"/>
      <use xlink:href="#ArialMT-20" transform="translate(822.509766 0.684375)"/>
      <use xlink:href="#ArialMT-28" transform="translate(850.292969 0.684375)"/>
      <use xlink:href="#ArialMT-3c3" transform="translate(883.59375 0.684375)"/>
      <use xlink:href="#DejaVuSans-2212" transform="translate(946.269531 38.965625)scale(0.7)"/>
      <use xlink:href="#DejaVuSans-31" transform="translate(1004.921875 38.965625)scale(0.7)"/>
      <use xlink:href="#ArialMT-29" transform="translate(1052.192383 0.684375)"/>
     </g>
    </g>
   </g>
   <g id="line2d_43">
    <path d="M 423.512664 36.222544 
L 425.88518 39.00786 
L 428.257696 41.375368 
L 430.630212 44.522479 
L 433.002729 50.375653 
L 435.375245 56.737371 
L 437.747761 61.554844 
L 440.120277 65.199648 
L 442.492793 67.959445 
L 444.865309 70.043568 
L 447.237825 72.30643 
L 449.610341 74.480019 
L 451.982857 76.743529 
L 454.355373 78.772959 
L 456.727889 80.628355 
L 459.100405 82.278384 
L 461.472921 83.704277 
L 463.845437 84.961932 
L 466.217953 86.122825 
L 468.590469 87.284159 
L 470.962985 88.303474 
L 473.335501 89.328504 
L 475.708017 90.257412 
L 478.080533 91.09781 
L 480.453049 91.858134 
L 482.825566 92.547556 
L 485.198082 93.168515 
L 487.570598 93.731382 
L 489.943114 94.240771 
L 492.31563 94.701624 
L 494.688146 95.122714 
L 497.060662 95.499651 
L 499.433178 95.840661 
L 501.805694 96.149167 
L 504.17821 96.486209 
L 506.550726 96.794058 
L 508.923242 97.014382 
L 511.295758 97.213424 
L 513.668274 97.372422 
L 516.04079 97.506095 
L 518.413306 97.692529 
L 520.785822 97.918071 
L 523.158338 98.525929 
L 525.530854 99.026738 
L 527.90337 99.428218 
L 530.275886 99.716189 
L 532.648403 99.83145 
L 535.020919 100.200071 
L 537.393435 100.555774 
L 539.765951 100.893606 
" clip-path="url(#p4fe86e0b4f)" style="fill: none; stroke: #ffdb89; stroke-opacity: 0; stroke-width: 1.5; stroke-linecap: square"/>
   </g>
   <g id="line2d_44">
    <path d="M 423.512664 9.773997 
L 425.88518 20.761807 
L 428.257696 29.911159 
L 430.630212 37.910238 
L 433.002729 44.055381 
L 435.375245 49.133287 
L 437.747761 54.264956 
L 440.120277 58.389844 
L 442.492793 61.892096 
L 444.865309 64.972307 
L 447.237825 67.268157 
L 449.610341 69.367791 
L 451.982857 70.986962 
L 454.355373 72.29972 
L 456.727889 72.645714 
L 459.100405 72.983665 
L 461.472921 73.537563 
L 463.845437 74.084724 
L 466.217953 75.428483 
L 468.590469 75.911345 
L 470.962985 76.222846 
L 473.335501 76.636093 
L 475.708017 76.890837 
L 478.080533 77.420505 
L 480.453049 77.913897 
L 482.825566 78.020158 
L 485.198082 78.391897 
L 487.570598 78.988793 
L 489.943114 79.455717 
L 492.31563 79.724189 
L 494.688146 80.103 
L 497.060662 80.956825 
L 499.433178 81.707775 
L 501.805694 82.063865 
L 504.17821 82.337066 
L 506.550726 82.655102 
L 508.923242 82.929072 
L 511.295758 83.203765 
L 513.668274 83.519472 
L 516.04079 83.735863 
L 518.413306 84.243641 
L 520.785822 84.937908 
L 523.158338 85.592478 
L 525.530854 86.280582 
L 527.90337 86.865611 
L 530.275886 87.325849 
L 532.648403 87.715241 
L 535.020919 88.020222 
L 537.393435 88.143523 
L 539.765951 88.291389 
" clip-path="url(#p4fe86e0b4f)" style="fill: none; stroke-dasharray: 5.55,2.4; stroke-dashoffset: 0; stroke: #ffdb89; stroke-opacity: 0; stroke-width: 1.5"/>
   </g>
   <g id="line2d_45">
    <path d="M 424.431982 -1 
L 425.88518 11.096231 
L 428.257696 21.141474 
L 430.630212 28.184947 
L 433.002729 33.108778 
L 435.375245 35.538884 
L 437.747761 37.400822 
L 440.120277 40.373779 
L 442.492793 42.546157 
L 444.865309 44.504947 
L 447.237825 46.431286 
L 449.610341 48.459508 
L 451.982857 50.437093 
L 454.355373 52.156389 
L 456.727889 53.837624 
L 459.100405 55.508264 
L 461.472921 57.170468 
L 463.845437 58.540368 
L 466.217953 59.97826 
L 468.590469 61.37588 
L 470.962985 62.531165 
L 473.335501 63.805256 
L 475.708017 65.096956 
L 478.080533 66.347143 
L 480.453049 67.469719 
L 482.825566 68.3592 
L 485.198082 69.082238 
L 487.570598 69.506904 
L 489.943114 70.476594 
L 492.31563 70.966099 
L 494.688146 71.10926 
L 497.060662 71.11246 
L 499.433178 71.178583 
L 501.805694 71.179468 
L 504.17821 71.180114 
L 506.550726 71.180585 
L 508.923242 71.180928 
L 511.295758 71.181179 
L 513.668274 71.181361 
L 516.04079 71.181495 
L 518.413306 71.181592 
L 520.785822 71.181663 
L 523.158338 71.181714 
L 525.530854 71.181752 
L 527.90337 71.181779 
L 530.275886 71.181799 
L 532.648403 71.181814 
L 535.020919 71.181825 
L 537.393435 71.181833 
L 539.765951 71.181838 
" clip-path="url(#p4fe86e0b4f)" style="fill: none; stroke: #ffdb89; stroke-opacity: 0; stroke-width: 1.5; stroke-linecap: square"/>
   </g>
   <g id="line2d_46">
    <g clip-path="url(#p4fe86e0b4f)">
     <use xlink:href="#mddee1f4122" x="423.512664" y="28.564942" style="fill: #444444; stroke: #444444"/>
     <use xlink:href="#mddee1f4122" x="423.997053" y="23.179615" style="fill: #444444; stroke: #444444"/>
     <use xlink:href="#mddee1f4122" x="435.137993" y="50.868538" style="fill: #444444; stroke: #444444"/>
     <use xlink:href="#mddee1f4122" x="446.763322" y="67.239771" style="fill: #444444; stroke: #444444"/>
     <use xlink:href="#mddee1f4122" x="470.013979" y="81.970722" style="fill: #444444; stroke: #444444"/>
     <use xlink:href="#mddee1f4122" x="493.264636" y="87.533754" style="fill: #444444; stroke: #444444"/>
     <use xlink:href="#mddee1f4122" x="516.515293" y="95.884027" style="fill: #444444; stroke: #444444"/>
     <use xlink:href="#mddee1f4122" x="539.765951" y="97.465601" style="fill: #444444; stroke: #444444"/>
    </g>
   </g>
   <g id="line2d_47">
    <path d="M 423.512664 25.816014 
L 425.88518 31.516901 
L 428.257696 36.762122 
L 430.630212 41.588097 
L 433.002729 46.028336 
L 435.375245 50.113671 
L 437.747761 53.872468 
L 440.120277 57.330828 
L 442.492793 60.512764 
L 444.865309 63.440371 
L 447.237825 66.133977 
L 449.610341 68.612285 
L 451.982857 70.892504 
L 454.355373 72.990467 
L 456.727889 74.920742 
L 459.100405 76.696732 
L 461.472921 78.330769 
L 463.845437 79.834198 
L 466.217953 81.217459 
L 468.590469 82.490158 
L 470.962985 83.661131 
L 473.335501 84.738509 
L 475.708017 85.729773 
L 478.080533 86.641807 
L 480.453049 87.480942 
L 482.825566 88.253006 
L 485.198082 88.963359 
L 487.570598 89.616935 
L 489.943114 90.218271 
L 492.31563 90.771543 
L 494.688146 91.280592 
L 497.060662 91.748953 
L 499.433178 92.179878 
L 501.805694 92.576361 
L 504.17821 92.941152 
L 506.550726 93.276786 
L 508.923242 93.585593 
L 511.295758 93.869718 
L 513.668274 94.131133 
L 516.04079 94.371653 
L 518.413306 94.592948 
L 520.785822 94.796556 
L 523.158338 94.983889 
L 525.530854 95.156249 
L 527.90337 95.314832 
L 530.275886 95.46074 
L 532.648403 95.594986 
L 535.020919 95.718501 
L 537.393435 95.832144 
L 539.765951 95.936704 
" clip-path="url(#p4fe86e0b4f)" style="fill: none; stroke: #444444; stroke-width: 1.5; stroke-linecap: square"/>
   </g>
   <g id="line2d_48">
    <path d="M 423.512664 7.144269 
L 425.88518 17.366443 
L 428.257696 26.279742 
L 430.630212 34.051759 
L 433.002729 40.828627 
L 435.375245 46.737766 
L 437.747761 51.890284 
L 440.120277 56.383059 
L 442.492793 60.300568 
L 444.865309 63.716469 
L 447.237825 66.694988 
L 449.610341 69.292131 
L 451.982857 71.556728 
L 454.355373 73.53136 
L 456.727889 75.253155 
L 459.100405 76.754487 
L 461.472921 78.063584 
L 463.845437 79.205061 
L 466.217953 80.20038 
L 468.590469 81.068256 
L 470.962985 81.825007 
L 473.335501 82.484862 
L 475.708017 83.060227 
L 478.080533 83.561921 
L 480.453049 83.999376 
L 482.825566 84.380819 
L 485.198082 84.71342 
L 487.570598 85.003435 
L 489.943114 85.256315 
L 492.31563 85.476816 
L 494.688146 85.669083 
L 497.060662 85.836732 
L 499.433178 85.982915 
L 501.805694 86.11038 
L 504.17821 86.221524 
L 506.550726 86.318437 
L 508.923242 86.402941 
L 511.295758 86.476624 
L 513.668274 86.540873 
L 516.04079 86.596896 
L 518.413306 86.645745 
L 520.785822 86.68834 
L 523.158338 86.72548 
L 525.530854 86.757865 
L 527.90337 86.786104 
L 530.275886 86.810726 
L 532.648403 86.832196 
L 535.020919 86.850917 
L 537.393435 86.867241 
L 539.765951 86.881474 
" clip-path="url(#p4fe86e0b4f)" style="fill: none; stroke-dasharray: 5.55,2.4; stroke-dashoffset: 0; stroke: #e6bc5c; stroke-width: 1.5"/>
   </g>
   <g id="patch_9">
    <path d="M 417.7 103.01375 
L 417.7 19.98625 
" style="fill: none; stroke: #000000; stroke-width: 0.8; stroke-linejoin: miter; stroke-linecap: square"/>
   </g>
   <g id="patch_10">
    <path d="M 417.7 103.01375 
L 545.578615 103.01375 
" style="fill: none; stroke: #000000; stroke-width: 0.8; stroke-linejoin: miter; stroke-linecap: square"/>
   </g>
  </g>
 </g>
 <defs>
  <clipPath id="pda66aa6d96">
   <rect x="43.3" y="19.98625" width="127.878615" height="83.0275"/>
  </clipPath>
  <clipPath id="p1494c4a68e">
   <rect x="230.5" y="19.98625" width="127.878615" height="83.0275"/>
  </clipPath>
  <clipPath id="p4fe86e0b4f">
   <rect x="417.7" y="19.98625" width="127.878615" height="83.0275"/>
  </clipPath>
 </defs>
</svg>
