<?xml version="1.0" encoding="utf-8" standalone="no"?>
<!DOCTYPE svg PUBLIC "-//W3C//DTD SVG 1.1//EN"
  "http://www.w3.org/Graphics/SVG/1.1/DTD/svg11.dtd">
<svg xmlns:xlink="http://www.w3.org/1999/xlink" width="555.307357pt" height="140.543437pt" viewBox="0 0 555.307357 140.543437" xmlns="http://www.w3.org/2000/svg" version="1.1">
 <metadata>
  <rdf:RDF xmlns:dc="http://purl.org/dc/elements/1.1/" xmlns:cc="http://creativecommons.org/ns#" xmlns:rdf="http://www.w3.org/1999/02/22-rdf-syntax-ns#">
   <cc:Work>
    <dc:type rdf:resource="http://purl.org/dc/dcmitype/StillImage"/>
    <dc:date>2022-12-21T23:25:32.885095</dc:date>
    <dc:format>image/svg+xml</dc:format>
    <dc:creator>
     <cc:Agent>
      <dc:title>Matplotlib v3.5.1, https://matplotlib.org/</dc:title>
     </cc:Agent>
    </dc:creator>
   </cc:Work>
  </rdf:RDF>
 </metadata>
 <defs>
  <style type="text/css">*{stroke-linejoin: round; stroke-linecap: butt}</style>
 </defs>
 <g id="figure_1">
  <g id="patch_1">
   <path d="M 0 140.543437 
L 555.307357 140.543437 
L 555.307357 0 
L 0 0 
L 0 140.543437 
z
" style="fill: none"/>
  </g>
  <g id="axes_1">
   <g id="patch_2">
    <path d="M 43.3 103.81375 
L 171.178615 103.81375 
L 171.178615 20.78625 
L 43.3 20.78625 
L 43.3 103.81375 
z
" style="fill: none"/>
   </g>
   <g id="PolyCollection_1">
    <defs>
     <path id="m080688768f" d="M 49.112664 -108.839775 
L 49.112664 -127.851045 
L 51.48518 -118.433346 
L 53.857696 -111.145733 
L 56.230212 -105.388297 
L 58.602729 -100.155968 
L 60.975245 -96.215356 
L 63.347761 -93.629292 
L 65.720277 -91.068472 
L 68.092793 -88.590584 
L 70.465309 -86.32197 
L 72.837825 -84.200848 
L 75.210341 -82.071491 
L 77.582857 -79.955551 
L 79.955373 -77.930519 
L 82.327889 -75.992491 
L 84.700405 -74.137728 
L 87.072921 -72.362652 
L 89.445437 -70.66384 
L 91.817953 -69.038016 
L 94.190469 -67.482044 
L 96.562985 -65.992922 
L 98.935501 -64.567778 
L 101.308017 -63.203864 
L 103.680533 -61.898549 
L 106.053049 -60.649315 
L 108.425566 -59.453753 
L 110.798082 -58.309557 
L 113.170598 -57.217741 
L 115.543114 -56.169739 
L 117.91563 -55.16676 
L 120.288146 -54.20687 
L 122.660662 -53.288219 
L 125.033178 -52.534366 
L 127.405694 -51.948473 
L 129.77821 -51.609405 
L 132.150726 -50.840106 
L 134.523242 -50.289129 
L 136.895758 -50.123234 
L 139.268274 -49.387853 
L 141.64079 -48.930685 
L 144.013306 -48.788809 
L 146.385822 -48.718783 
L 148.758338 -48.669437 
L 151.130854 -48.626048 
L 153.50337 -48.587897 
L 155.875886 -48.293873 
L 158.248403 -48.253453 
L 160.620919 -48.217612 
L 162.993435 -48.185831 
L 165.365951 -48.157651 
L 165.365951 -33.444848 
L 165.365951 -33.444848 
L 162.993435 -33.715036 
L 160.620919 -33.995458 
L 158.248403 -34.30347 
L 155.875886 -34.630023 
L 153.50337 -34.976234 
L 151.130854 -35.340876 
L 148.758338 -35.581213 
L 146.385822 -35.942758 
L 144.013306 -36.355339 
L 141.64079 -36.790324 
L 139.268274 -37.228758 
L 136.895758 -37.531854 
L 134.523242 -37.879572 
L 132.150726 -38.395973 
L 129.77821 -38.947058 
L 127.405694 -39.535157 
L 125.033178 -40.201961 
L 122.660662 -40.937404 
L 120.288146 -41.717472 
L 117.91563 -42.385641 
L 115.543114 -43.123964 
L 113.170598 -43.838508 
L 110.798082 -44.690776 
L 108.425566 -45.374974 
L 106.053049 -46.126523 
L 103.680533 -46.853166 
L 101.308017 -47.329602 
L 98.935501 -48.396358 
L 96.562985 -49.670093 
L 94.190469 -51.045005 
L 91.817953 -52.468195 
L 89.445437 -53.916154 
L 87.072921 -55.47385 
L 84.700405 -57.106241 
L 82.327889 -58.760675 
L 79.955373 -60.580911 
L 77.582857 -62.727771 
L 75.210341 -65.055948 
L 72.837825 -67.722209 
L 70.465309 -70.699948 
L 68.092793 -74.134701 
L 65.720277 -77.497894 
L 63.347761 -81.504704 
L 60.975245 -86.627085 
L 58.602729 -90.666791 
L 56.230212 -94.95626 
L 53.857696 -99.558529 
L 51.48518 -104.079512 
L 49.112664 -108.839775 
z
" style="stroke: #ffdb89; stroke-opacity: 0.3"/>
    </defs>
    <g clip-path="url(#pe47aae7493)">
     <use xlink:href="#m080688768f" x="0" y="140.543437" style="fill: #ffdb89; fill-opacity: 0.3; stroke: #ffdb89; stroke-opacity: 0.3"/>
    </g>
   </g>
   <g id="matplotlib.axis_1">
    <g id="xtick_1">
     <g id="line2d_1">
      <defs>
       <path id="m91294adc3c" d="M 0 0 
L 0 3.5 
" style="stroke: #000000; stroke-width: 0.8"/>
      </defs>
      <g>
       <use xlink:href="#m91294adc3c" x="49.112664" y="103.81375" style="stroke: #000000; stroke-width: 0.8"/>
      </g>
     </g>
     <g id="text_1">
      <!-- 0 -->
      <g transform="translate(46.332196 117.971562)scale(0.1 -0.1)">
       <defs>
        <path id="ArialMT-30" d="M 266 2259 
Q 266 3072 433 3567 
Q 600 4063 929 4331 
Q 1259 4600 1759 4600 
Q 2128 4600 2406 4451 
Q 2684 4303 2865 4023 
Q 3047 3744 3150 3342 
Q 3253 2941 3253 2259 
Q 3253 1453 3087 958 
Q 2922 463 2592 192 
Q 2263 -78 1759 -78 
Q 1097 -78 719 397 
Q 266 969 266 2259 
z
M 844 2259 
Q 844 1131 1108 757 
Q 1372 384 1759 384 
Q 2147 384 2411 759 
Q 2675 1134 2675 2259 
Q 2675 3391 2411 3762 
Q 2147 4134 1753 4134 
Q 1366 4134 1134 3806 
Q 844 3388 844 2259 
z
" transform="scale(0.015625)"/>
       </defs>
       <use xlink:href="#ArialMT-30"/>
      </g>
     </g>
    </g>
    <g id="xtick_2">
     <g id="line2d_2">
      <g>
       <use xlink:href="#m91294adc3c" x="60.737993" y="103.81375" style="stroke: #000000; stroke-width: 0.8"/>
      </g>
     </g>
     <g id="text_2">
      <!-- 24 -->
      <g transform="translate(55.177055 117.971562)scale(0.1 -0.1)">
       <defs>
        <path id="ArialMT-32" d="M 3222 541 
L 3222 0 
L 194 0 
Q 188 203 259 391 
Q 375 700 629 1000 
Q 884 1300 1366 1694 
Q 2113 2306 2375 2664 
Q 2638 3022 2638 3341 
Q 2638 3675 2398 3904 
Q 2159 4134 1775 4134 
Q 1369 4134 1125 3890 
Q 881 3647 878 3216 
L 300 3275 
Q 359 3922 746 4261 
Q 1134 4600 1788 4600 
Q 2447 4600 2831 4234 
Q 3216 3869 3216 3328 
Q 3216 3053 3103 2787 
Q 2991 2522 2730 2228 
Q 2469 1934 1863 1422 
Q 1356 997 1212 845 
Q 1069 694 975 541 
L 3222 541 
z
" transform="scale(0.015625)"/>
        <path id="ArialMT-34" d="M 2069 0 
L 2069 1097 
L 81 1097 
L 81 1613 
L 2172 4581 
L 2631 4581 
L 2631 1613 
L 3250 1613 
L 3250 1097 
L 2631 1097 
L 2631 0 
L 2069 0 
z
M 2069 1613 
L 2069 3678 
L 634 1613 
L 2069 1613 
z
" transform="scale(0.015625)"/>
       </defs>
       <use xlink:href="#ArialMT-32"/>
       <use xlink:href="#ArialMT-34" x="55.615234"/>
      </g>
     </g>
    </g>
    <g id="xtick_3">
     <g id="line2d_3">
      <g>
       <use xlink:href="#m91294adc3c" x="72.363322" y="103.81375" style="stroke: #000000; stroke-width: 0.8"/>
      </g>
     </g>
     <g id="text_3">
      <!-- 48 -->
      <g transform="translate(66.802384 117.971562)scale(0.1 -0.1)">
       <defs>
        <path id="ArialMT-38" d="M 1131 2484 
Q 781 2613 612 2850 
Q 444 3088 444 3419 
Q 444 3919 803 4259 
Q 1163 4600 1759 4600 
Q 2359 4600 2725 4251 
Q 3091 3903 3091 3403 
Q 3091 3084 2923 2848 
Q 2756 2613 2416 2484 
Q 2838 2347 3058 2040 
Q 3278 1734 3278 1309 
Q 3278 722 2862 322 
Q 2447 -78 1769 -78 
Q 1091 -78 675 323 
Q 259 725 259 1325 
Q 259 1772 486 2073 
Q 713 2375 1131 2484 
z
M 1019 3438 
Q 1019 3113 1228 2906 
Q 1438 2700 1772 2700 
Q 2097 2700 2305 2904 
Q 2513 3109 2513 3406 
Q 2513 3716 2298 3927 
Q 2084 4138 1766 4138 
Q 1444 4138 1231 3931 
Q 1019 3725 1019 3438 
z
M 838 1322 
Q 838 1081 952 856 
Q 1066 631 1291 507 
Q 1516 384 1775 384 
Q 2178 384 2440 643 
Q 2703 903 2703 1303 
Q 2703 1709 2433 1975 
Q 2163 2241 1756 2241 
Q 1359 2241 1098 1978 
Q 838 1716 838 1322 
z
" transform="scale(0.015625)"/>
       </defs>
       <use xlink:href="#ArialMT-34"/>
       <use xlink:href="#ArialMT-38" x="55.615234"/>
      </g>
     </g>
    </g>
    <g id="xtick_4">
     <g id="line2d_4">
      <g>
       <use xlink:href="#m91294adc3c" x="95.613979" y="103.81375" style="stroke: #000000; stroke-width: 0.8"/>
      </g>
     </g>
     <g id="text_4">
      <!-- 96 -->
      <g transform="translate(90.053041 117.971562)scale(0.1 -0.1)">
       <defs>
        <path id="ArialMT-39" d="M 350 1059 
L 891 1109 
Q 959 728 1153 556 
Q 1347 384 1650 384 
Q 1909 384 2104 503 
Q 2300 622 2425 820 
Q 2550 1019 2634 1356 
Q 2719 1694 2719 2044 
Q 2719 2081 2716 2156 
Q 2547 1888 2255 1720 
Q 1963 1553 1622 1553 
Q 1053 1553 659 1965 
Q 266 2378 266 3053 
Q 266 3750 677 4175 
Q 1088 4600 1706 4600 
Q 2153 4600 2523 4359 
Q 2894 4119 3086 3673 
Q 3278 3228 3278 2384 
Q 3278 1506 3087 986 
Q 2897 466 2520 194 
Q 2144 -78 1638 -78 
Q 1100 -78 759 220 
Q 419 519 350 1059 
z
M 2653 3081 
Q 2653 3566 2395 3850 
Q 2138 4134 1775 4134 
Q 1400 4134 1122 3828 
Q 844 3522 844 3034 
Q 844 2597 1108 2323 
Q 1372 2050 1759 2050 
Q 2150 2050 2401 2323 
Q 2653 2597 2653 3081 
z
" transform="scale(0.015625)"/>
        <path id="ArialMT-36" d="M 3184 3459 
L 2625 3416 
Q 2550 3747 2413 3897 
Q 2184 4138 1850 4138 
Q 1581 4138 1378 3988 
Q 1113 3794 959 3422 
Q 806 3050 800 2363 
Q 1003 2672 1297 2822 
Q 1591 2972 1913 2972 
Q 2475 2972 2870 2558 
Q 3266 2144 3266 1488 
Q 3266 1056 3080 686 
Q 2894 316 2569 119 
Q 2244 -78 1831 -78 
Q 1128 -78 684 439 
Q 241 956 241 2144 
Q 241 3472 731 4075 
Q 1159 4600 1884 4600 
Q 2425 4600 2770 4297 
Q 3116 3994 3184 3459 
z
M 888 1484 
Q 888 1194 1011 928 
Q 1134 663 1356 523 
Q 1578 384 1822 384 
Q 2178 384 2434 671 
Q 2691 959 2691 1453 
Q 2691 1928 2437 2201 
Q 2184 2475 1800 2475 
Q 1419 2475 1153 2201 
Q 888 1928 888 1484 
z
" transform="scale(0.015625)"/>
       </defs>
       <use xlink:href="#ArialMT-39"/>
       <use xlink:href="#ArialMT-36" x="55.615234"/>
      </g>
     </g>
    </g>
    <g id="xtick_5">
     <g id="line2d_5">
      <g>
       <use xlink:href="#m91294adc3c" x="118.864636" y="103.81375" style="stroke: #000000; stroke-width: 0.8"/>
      </g>
     </g>
     <g id="text_5">
      <!-- 144 -->
      <g transform="translate(110.52323 117.971562)scale(0.1 -0.1)">
       <defs>
        <path id="ArialMT-31" d="M 2384 0 
L 1822 0 
L 1822 3584 
Q 1619 3391 1289 3197 
Q 959 3003 697 2906 
L 697 3450 
Q 1169 3672 1522 3987 
Q 1875 4303 2022 4600 
L 2384 4600 
L 2384 0 
z
" transform="scale(0.015625)"/>
       </defs>
       <use xlink:href="#ArialMT-31"/>
       <use xlink:href="#ArialMT-34" x="55.615234"/>
       <use xlink:href="#ArialMT-34" x="111.230469"/>
      </g>
     </g>
    </g>
    <g id="xtick_6">
     <g id="line2d_6">
      <g>
       <use xlink:href="#m91294adc3c" x="142.115293" y="103.81375" style="stroke: #000000; stroke-width: 0.8"/>
      </g>
     </g>
     <g id="text_6">
      <!-- 192 -->
      <g transform="translate(133.773887 117.971562)scale(0.1 -0.1)">
       <use xlink:href="#ArialMT-31"/>
       <use xlink:href="#ArialMT-39" x="55.615234"/>
       <use xlink:href="#ArialMT-32" x="111.230469"/>
      </g>
     </g>
    </g>
    <g id="xtick_7">
     <g id="line2d_7">
      <g>
       <use xlink:href="#m91294adc3c" x="165.365951" y="103.81375" style="stroke: #000000; stroke-width: 0.8"/>
      </g>
     </g>
     <g id="text_7">
      <!-- 240 -->
      <g transform="translate(157.024544 117.971562)scale(0.1 -0.1)">
       <use xlink:href="#ArialMT-32"/>
       <use xlink:href="#ArialMT-34" x="55.615234"/>
       <use xlink:href="#ArialMT-30" x="111.230469"/>
      </g>
     </g>
    </g>
    <g id="text_8">
     <!-- Time in captivity (hours) -->
     <g transform="translate(54.361182 131.23875)scale(0.1 -0.1)">
      <defs>
       <path id="ArialMT-54" d="M 1659 0 
L 1659 4041 
L 150 4041 
L 150 4581 
L 3781 4581 
L 3781 4041 
L 2266 4041 
L 2266 0 
L 1659 0 
z
" transform="scale(0.015625)"/>
       <path id="ArialMT-69" d="M 425 3934 
L 425 4581 
L 988 4581 
L 988 3934 
L 425 3934 
z
M 425 0 
L 425 3319 
L 988 3319 
L 988 0 
L 425 0 
z
" transform="scale(0.015625)"/>
       <path id="ArialMT-6d" d="M 422 0 
L 422 3319 
L 925 3319 
L 925 2853 
Q 1081 3097 1340 3245 
Q 1600 3394 1931 3394 
Q 2300 3394 2536 3241 
Q 2772 3088 2869 2813 
Q 3263 3394 3894 3394 
Q 4388 3394 4653 3120 
Q 4919 2847 4919 2278 
L 4919 0 
L 4359 0 
L 4359 2091 
Q 4359 2428 4304 2576 
Q 4250 2725 4106 2815 
Q 3963 2906 3769 2906 
Q 3419 2906 3187 2673 
Q 2956 2441 2956 1928 
L 2956 0 
L 2394 0 
L 2394 2156 
Q 2394 2531 2256 2718 
Q 2119 2906 1806 2906 
Q 1569 2906 1367 2781 
Q 1166 2656 1075 2415 
Q 984 2175 984 1722 
L 984 0 
L 422 0 
z
" transform="scale(0.015625)"/>
       <path id="ArialMT-65" d="M 2694 1069 
L 3275 997 
Q 3138 488 2766 206 
Q 2394 -75 1816 -75 
Q 1088 -75 661 373 
Q 234 822 234 1631 
Q 234 2469 665 2931 
Q 1097 3394 1784 3394 
Q 2450 3394 2872 2941 
Q 3294 2488 3294 1666 
Q 3294 1616 3291 1516 
L 816 1516 
Q 847 969 1125 678 
Q 1403 388 1819 388 
Q 2128 388 2347 550 
Q 2566 713 2694 1069 
z
M 847 1978 
L 2700 1978 
Q 2663 2397 2488 2606 
Q 2219 2931 1791 2931 
Q 1403 2931 1139 2672 
Q 875 2413 847 1978 
z
" transform="scale(0.015625)"/>
       <path id="ArialMT-20" transform="scale(0.015625)"/>
       <path id="ArialMT-6e" d="M 422 0 
L 422 3319 
L 928 3319 
L 928 2847 
Q 1294 3394 1984 3394 
Q 2284 3394 2536 3286 
Q 2788 3178 2913 3003 
Q 3038 2828 3088 2588 
Q 3119 2431 3119 2041 
L 3119 0 
L 2556 0 
L 2556 2019 
Q 2556 2363 2490 2533 
Q 2425 2703 2258 2804 
Q 2091 2906 1866 2906 
Q 1506 2906 1245 2678 
Q 984 2450 984 1813 
L 984 0 
L 422 0 
z
" transform="scale(0.015625)"/>
       <path id="ArialMT-63" d="M 2588 1216 
L 3141 1144 
Q 3050 572 2676 248 
Q 2303 -75 1759 -75 
Q 1078 -75 664 370 
Q 250 816 250 1647 
Q 250 2184 428 2587 
Q 606 2991 970 3192 
Q 1334 3394 1763 3394 
Q 2303 3394 2647 3120 
Q 2991 2847 3088 2344 
L 2541 2259 
Q 2463 2594 2264 2762 
Q 2066 2931 1784 2931 
Q 1359 2931 1093 2626 
Q 828 2322 828 1663 
Q 828 994 1084 691 
Q 1341 388 1753 388 
Q 2084 388 2306 591 
Q 2528 794 2588 1216 
z
" transform="scale(0.015625)"/>
       <path id="ArialMT-61" d="M 2588 409 
Q 2275 144 1986 34 
Q 1697 -75 1366 -75 
Q 819 -75 525 192 
Q 231 459 231 875 
Q 231 1119 342 1320 
Q 453 1522 633 1644 
Q 813 1766 1038 1828 
Q 1203 1872 1538 1913 
Q 2219 1994 2541 2106 
Q 2544 2222 2544 2253 
Q 2544 2597 2384 2738 
Q 2169 2928 1744 2928 
Q 1347 2928 1158 2789 
Q 969 2650 878 2297 
L 328 2372 
Q 403 2725 575 2942 
Q 747 3159 1072 3276 
Q 1397 3394 1825 3394 
Q 2250 3394 2515 3294 
Q 2781 3194 2906 3042 
Q 3031 2891 3081 2659 
Q 3109 2516 3109 2141 
L 3109 1391 
Q 3109 606 3145 398 
Q 3181 191 3288 0 
L 2700 0 
Q 2613 175 2588 409 
z
M 2541 1666 
Q 2234 1541 1622 1453 
Q 1275 1403 1131 1340 
Q 988 1278 909 1158 
Q 831 1038 831 891 
Q 831 666 1001 516 
Q 1172 366 1500 366 
Q 1825 366 2078 508 
Q 2331 650 2450 897 
Q 2541 1088 2541 1459 
L 2541 1666 
z
" transform="scale(0.015625)"/>
       <path id="ArialMT-70" d="M 422 -1272 
L 422 3319 
L 934 3319 
L 934 2888 
Q 1116 3141 1344 3267 
Q 1572 3394 1897 3394 
Q 2322 3394 2647 3175 
Q 2972 2956 3137 2557 
Q 3303 2159 3303 1684 
Q 3303 1175 3120 767 
Q 2938 359 2589 142 
Q 2241 -75 1856 -75 
Q 1575 -75 1351 44 
Q 1128 163 984 344 
L 984 -1272 
L 422 -1272 
z
M 931 1641 
Q 931 1000 1190 694 
Q 1450 388 1819 388 
Q 2194 388 2461 705 
Q 2728 1022 2728 1688 
Q 2728 2322 2467 2637 
Q 2206 2953 1844 2953 
Q 1484 2953 1207 2617 
Q 931 2281 931 1641 
z
" transform="scale(0.015625)"/>
       <path id="ArialMT-74" d="M 1650 503 
L 1731 6 
Q 1494 -44 1306 -44 
Q 1000 -44 831 53 
Q 663 150 594 308 
Q 525 466 525 972 
L 525 2881 
L 113 2881 
L 113 3319 
L 525 3319 
L 525 4141 
L 1084 4478 
L 1084 3319 
L 1650 3319 
L 1650 2881 
L 1084 2881 
L 1084 941 
Q 1084 700 1114 631 
Q 1144 563 1211 522 
Q 1278 481 1403 481 
Q 1497 481 1650 503 
z
" transform="scale(0.015625)"/>
       <path id="ArialMT-76" d="M 1344 0 
L 81 3319 
L 675 3319 
L 1388 1331 
Q 1503 1009 1600 663 
Q 1675 925 1809 1294 
L 2547 3319 
L 3125 3319 
L 1869 0 
L 1344 0 
z
" transform="scale(0.015625)"/>
       <path id="ArialMT-79" d="M 397 -1278 
L 334 -750 
Q 519 -800 656 -800 
Q 844 -800 956 -737 
Q 1069 -675 1141 -563 
Q 1194 -478 1313 -144 
Q 1328 -97 1363 -6 
L 103 3319 
L 709 3319 
L 1400 1397 
Q 1534 1031 1641 628 
Q 1738 1016 1872 1384 
L 2581 3319 
L 3144 3319 
L 1881 -56 
Q 1678 -603 1566 -809 
Q 1416 -1088 1222 -1217 
Q 1028 -1347 759 -1347 
Q 597 -1347 397 -1278 
z
" transform="scale(0.015625)"/>
       <path id="ArialMT-28" d="M 1497 -1347 
Q 1031 -759 709 28 
Q 388 816 388 1659 
Q 388 2403 628 3084 
Q 909 3875 1497 4659 
L 1900 4659 
Q 1522 4009 1400 3731 
Q 1209 3300 1100 2831 
Q 966 2247 966 1656 
Q 966 153 1900 -1347 
L 1497 -1347 
z
" transform="scale(0.015625)"/>
       <path id="ArialMT-68" d="M 422 0 
L 422 4581 
L 984 4581 
L 984 2938 
Q 1378 3394 1978 3394 
Q 2347 3394 2619 3248 
Q 2891 3103 3008 2847 
Q 3125 2591 3125 2103 
L 3125 0 
L 2563 0 
L 2563 2103 
Q 2563 2525 2380 2717 
Q 2197 2909 1863 2909 
Q 1613 2909 1392 2779 
Q 1172 2650 1078 2428 
Q 984 2206 984 1816 
L 984 0 
L 422 0 
z
" transform="scale(0.015625)"/>
       <path id="ArialMT-6f" d="M 213 1659 
Q 213 2581 725 3025 
Q 1153 3394 1769 3394 
Q 2453 3394 2887 2945 
Q 3322 2497 3322 1706 
Q 3322 1066 3130 698 
Q 2938 331 2570 128 
Q 2203 -75 1769 -75 
Q 1072 -75 642 372 
Q 213 819 213 1659 
z
M 791 1659 
Q 791 1022 1069 705 
Q 1347 388 1769 388 
Q 2188 388 2466 706 
Q 2744 1025 2744 1678 
Q 2744 2294 2464 2611 
Q 2184 2928 1769 2928 
Q 1347 2928 1069 2612 
Q 791 2297 791 1659 
z
" transform="scale(0.015625)"/>
       <path id="ArialMT-75" d="M 2597 0 
L 2597 488 
Q 2209 -75 1544 -75 
Q 1250 -75 995 37 
Q 741 150 617 320 
Q 494 491 444 738 
Q 409 903 409 1263 
L 409 3319 
L 972 3319 
L 972 1478 
Q 972 1038 1006 884 
Q 1059 663 1231 536 
Q 1403 409 1656 409 
Q 1909 409 2131 539 
Q 2353 669 2445 892 
Q 2538 1116 2538 1541 
L 2538 3319 
L 3100 3319 
L 3100 0 
L 2597 0 
z
" transform="scale(0.015625)"/>
       <path id="ArialMT-72" d="M 416 0 
L 416 3319 
L 922 3319 
L 922 2816 
Q 1116 3169 1280 3281 
Q 1444 3394 1641 3394 
Q 1925 3394 2219 3213 
L 2025 2691 
Q 1819 2813 1613 2813 
Q 1428 2813 1281 2702 
Q 1134 2591 1072 2394 
Q 978 2094 978 1738 
L 978 0 
L 416 0 
z
" transform="scale(0.015625)"/>
       <path id="ArialMT-73" d="M 197 991 
L 753 1078 
Q 800 744 1014 566 
Q 1228 388 1613 388 
Q 2000 388 2187 545 
Q 2375 703 2375 916 
Q 2375 1106 2209 1216 
Q 2094 1291 1634 1406 
Q 1016 1563 777 1677 
Q 538 1791 414 1992 
Q 291 2194 291 2438 
Q 291 2659 392 2848 
Q 494 3038 669 3163 
Q 800 3259 1026 3326 
Q 1253 3394 1513 3394 
Q 1903 3394 2198 3281 
Q 2494 3169 2634 2976 
Q 2775 2784 2828 2463 
L 2278 2388 
Q 2241 2644 2061 2787 
Q 1881 2931 1553 2931 
Q 1166 2931 1000 2803 
Q 834 2675 834 2503 
Q 834 2394 903 2306 
Q 972 2216 1119 2156 
Q 1203 2125 1616 2013 
Q 2213 1853 2448 1751 
Q 2684 1650 2818 1456 
Q 2953 1263 2953 975 
Q 2953 694 2789 445 
Q 2625 197 2315 61 
Q 2006 -75 1616 -75 
Q 969 -75 630 194 
Q 291 463 197 991 
z
" transform="scale(0.015625)"/>
       <path id="ArialMT-29" d="M 791 -1347 
L 388 -1347 
Q 1322 153 1322 1656 
Q 1322 2244 1188 2822 
Q 1081 3291 891 3722 
Q 769 4003 388 4659 
L 791 4659 
Q 1378 3875 1659 3084 
Q 1900 2403 1900 1659 
Q 1900 816 1576 28 
Q 1253 -759 791 -1347 
z
" transform="scale(0.015625)"/>
      </defs>
      <use xlink:href="#ArialMT-54"/>
      <use xlink:href="#ArialMT-69" x="57.333984"/>
      <use xlink:href="#ArialMT-6d" x="79.550781"/>
      <use xlink:href="#ArialMT-65" x="162.851562"/>
      <use xlink:href="#ArialMT-20" x="218.466797"/>
      <use xlink:href="#ArialMT-69" x="246.25"/>
      <use xlink:href="#ArialMT-6e" x="268.466797"/>
      <use xlink:href="#ArialMT-20" x="324.082031"/>
      <use xlink:href="#ArialMT-63" x="351.865234"/>
      <use xlink:href="#ArialMT-61" x="401.865234"/>
      <use xlink:href="#ArialMT-70" x="457.480469"/>
      <use xlink:href="#ArialMT-74" x="513.095703"/>
      <use xlink:href="#ArialMT-69" x="540.878906"/>
      <use xlink:href="#ArialMT-76" x="563.095703"/>
      <use xlink:href="#ArialMT-69" x="613.095703"/>
      <use xlink:href="#ArialMT-74" x="635.3125"/>
      <use xlink:href="#ArialMT-79" x="663.095703"/>
      <use xlink:href="#ArialMT-20" x="713.095703"/>
      <use xlink:href="#ArialMT-28" x="740.878906"/>
      <use xlink:href="#ArialMT-68" x="774.179688"/>
      <use xlink:href="#ArialMT-6f" x="829.794922"/>
      <use xlink:href="#ArialMT-75" x="885.410156"/>
      <use xlink:href="#ArialMT-72" x="941.025391"/>
      <use xlink:href="#ArialMT-73" x="974.326172"/>
      <use xlink:href="#ArialMT-29" x="1024.326172"/>
     </g>
    </g>
   </g>
   <g id="matplotlib.axis_2">
    <g id="ytick_1">
     <g id="line2d_8">
      <defs>
       <path id="m757be25dea" d="M 0 0 
L -3.5 0 
" style="stroke: #000000; stroke-width: 0.8"/>
      </defs>
      <g>
       <use xlink:href="#m757be25dea" x="43.3" y="103.81375" style="stroke: #000000; stroke-width: 0.8"/>
      </g>
     </g>
     <g id="text_9">
      <!-- 0.0 -->
      <g transform="translate(22.4 107.392656)scale(0.1 -0.1)">
       <defs>
        <path id="ArialMT-2e" d="M 581 0 
L 581 641 
L 1222 641 
L 1222 0 
L 581 0 
z
" transform="scale(0.015625)"/>
       </defs>
       <use xlink:href="#ArialMT-30"/>
       <use xlink:href="#ArialMT-2e" x="55.615234"/>
       <use xlink:href="#ArialMT-30" x="83.398438"/>
      </g>
     </g>
    </g>
    <g id="ytick_2">
     <g id="line2d_9">
      <g>
       <use xlink:href="#m757be25dea" x="43.3" y="63.896683" style="stroke: #000000; stroke-width: 0.8"/>
      </g>
     </g>
     <g id="text_10">
      <!-- 0.5 -->
      <g transform="translate(22.4 67.475589)scale(0.1 -0.1)">
       <defs>
        <path id="ArialMT-35" d="M 266 1200 
L 856 1250 
Q 922 819 1161 601 
Q 1400 384 1738 384 
Q 2144 384 2425 690 
Q 2706 997 2706 1503 
Q 2706 1984 2436 2262 
Q 2166 2541 1728 2541 
Q 1456 2541 1237 2417 
Q 1019 2294 894 2097 
L 366 2166 
L 809 4519 
L 3088 4519 
L 3088 3981 
L 1259 3981 
L 1013 2750 
Q 1425 3038 1878 3038 
Q 2478 3038 2890 2622 
Q 3303 2206 3303 1553 
Q 3303 931 2941 478 
Q 2500 -78 1738 -78 
Q 1113 -78 717 272 
Q 322 622 266 1200 
z
" transform="scale(0.015625)"/>
       </defs>
       <use xlink:href="#ArialMT-30"/>
       <use xlink:href="#ArialMT-2e" x="55.615234"/>
       <use xlink:href="#ArialMT-35" x="83.398438"/>
      </g>
     </g>
    </g>
    <g id="ytick_3">
     <g id="line2d_10">
      <g>
       <use xlink:href="#m757be25dea" x="43.3" y="23.979615" style="stroke: #000000; stroke-width: 0.8"/>
      </g>
     </g>
     <g id="text_11">
      <!-- 1.0 -->
      <g transform="translate(22.4 27.558522)scale(0.1 -0.1)">
       <use xlink:href="#ArialMT-31"/>
       <use xlink:href="#ArialMT-2e" x="55.615234"/>
       <use xlink:href="#ArialMT-30" x="83.398438"/>
      </g>
     </g>
    </g>
    <g id="text_12">
     <!-- Distance accuracy (m$^{-1}$) -->
     <g transform="translate(16.2 117.4)rotate(-90)scale(0.1 -0.1)">
      <defs>
       <path id="ArialMT-44" d="M 494 0 
L 494 4581 
L 2072 4581 
Q 2606 4581 2888 4516 
Q 3281 4425 3559 4188 
Q 3922 3881 4101 3404 
Q 4281 2928 4281 2316 
Q 4281 1794 4159 1391 
Q 4038 988 3847 723 
Q 3656 459 3429 307 
Q 3203 156 2883 78 
Q 2563 0 2147 0 
L 494 0 
z
M 1100 541 
L 2078 541 
Q 2531 541 2789 625 
Q 3047 709 3200 863 
Q 3416 1078 3536 1442 
Q 3656 1806 3656 2325 
Q 3656 3044 3420 3430 
Q 3184 3816 2847 3947 
Q 2603 4041 2063 4041 
L 1100 4041 
L 1100 541 
z
" transform="scale(0.015625)"/>
       <path id="DejaVuSans-2212" d="M 678 2272 
L 4684 2272 
L 4684 1741 
L 678 1741 
L 678 2272 
z
" transform="scale(0.015625)"/>
       <path id="DejaVuSans-31" d="M 794 531 
L 1825 531 
L 1825 4091 
L 703 3866 
L 703 4441 
L 1819 4666 
L 2450 4666 
L 2450 531 
L 3481 531 
L 3481 0 
L 794 0 
L 794 531 
z
" transform="scale(0.015625)"/>
      </defs>
      <use xlink:href="#ArialMT-44" transform="translate(0 0.684375)"/>
      <use xlink:href="#ArialMT-69" transform="translate(72.216797 0.684375)"/>
      <use xlink:href="#ArialMT-73" transform="translate(94.433594 0.684375)"/>
      <use xlink:href="#ArialMT-74" transform="translate(144.433594 0.684375)"/>
      <use xlink:href="#ArialMT-61" transform="translate(172.216797 0.684375)"/>
      <use xlink:href="#ArialMT-6e" transform="translate(227.832031 0.684375)"/>
      <use xlink:href="#ArialMT-63" transform="translate(283.447266 0.684375)"/>
      <use xlink:href="#ArialMT-65" transform="translate(333.447266 0.684375)"/>
      <use xlink:href="#ArialMT-20" transform="translate(389.0625 0.684375)"/>
      <use xlink:href="#ArialMT-61" transform="translate(416.845703 0.684375)"/>
      <use xlink:href="#ArialMT-63" transform="translate(472.460938 0.684375)"/>
      <use xlink:href="#ArialMT-63" transform="translate(522.460938 0.684375)"/>
      <use xlink:href="#ArialMT-75" transform="translate(572.460938 0.684375)"/>
      <use xlink:href="#ArialMT-72" transform="translate(628.076172 0.684375)"/>
      <use xlink:href="#ArialMT-61" transform="translate(661.376953 0.684375)"/>
      <use xlink:href="#ArialMT-63" transform="translate(716.992188 0.684375)"/>
      <use xlink:href="#ArialMT-79" transform="translate(766.992188 0.684375)"/>
      <use xlink:href="#ArialMT-20" transform="translate(816.992188 0.684375)"/>
      <use xlink:href="#ArialMT-28" transform="translate(844.775391 0.684375)"/>
      <use xlink:href="#ArialMT-6d" transform="translate(878.076172 0.684375)"/>
      <use xlink:href="#DejaVuSans-2212" transform="translate(962.333984 38.965625)scale(0.7)"/>
      <use xlink:href="#DejaVuSans-31" transform="translate(1020.986328 38.965625)scale(0.7)"/>
      <use xlink:href="#ArialMT-29" transform="translate(1068.256836 0.684375)"/>
     </g>
    </g>
   </g>
   <g id="line2d_11">
    <path d="M 49.112664 31.703663 
L 51.48518 36.463925 
L 53.857696 40.984909 
L 56.230212 45.587178 
L 58.602729 49.876647 
L 60.975245 53.916352 
L 63.347761 59.038733 
L 65.720277 63.045544 
L 68.092793 66.408737 
L 70.465309 69.84349 
L 72.837825 72.821229 
L 75.210341 75.487489 
L 77.582857 77.815666 
L 79.955373 79.962526 
L 82.327889 81.782763 
L 84.700405 83.437196 
L 87.072921 85.069587 
L 89.445437 86.627284 
L 91.817953 88.075243 
L 94.190469 89.498433 
L 96.562985 90.873345 
L 98.935501 92.147079 
L 101.308017 93.213836 
L 103.680533 93.690271 
L 106.053049 94.416914 
L 108.425566 95.168463 
L 110.798082 95.852662 
L 113.170598 96.704929 
L 115.543114 97.419474 
L 117.91563 98.157797 
L 120.288146 98.825965 
L 122.660662 99.606033 
L 125.033178 100.341476 
L 127.405694 101.008281 
L 129.77821 101.59638 
L 132.150726 102.147465 
L 134.523242 102.663865 
L 136.895758 103.011584 
L 139.268274 103.31468 
L 141.64079 103.753113 
L 144.013306 104.188098 
L 146.385822 104.600679 
L 148.758338 104.962225 
L 151.130854 105.202562 
L 153.50337 105.567203 
L 155.875886 105.913414 
L 158.248403 106.239967 
L 160.620919 106.547979 
L 162.993435 106.828401 
L 165.365951 107.09859 
" clip-path="url(#pe47aae7493)" style="fill: none; stroke: #ffdb89; stroke-opacity: 0; stroke-width: 1.5; stroke-linecap: square"/>
   </g>
   <g id="line2d_12">
    <path d="M 49.112664 23.515478 
L 51.48518 29.983435 
L 53.857696 35.106423 
L 56.230212 40.219917 
L 58.602729 44.811055 
L 60.975245 49.300813 
L 63.347761 53.176014 
L 65.720277 56.795231 
L 68.092793 59.96707 
L 70.465309 63.108421 
L 72.837825 65.90242 
L 75.210341 68.656941 
L 77.582857 71.09677 
L 79.955373 73.397891 
L 82.327889 75.493385 
L 84.700405 77.445766 
L 87.072921 79.320995 
L 89.445437 81.033327 
L 91.817953 82.510395 
L 94.190469 83.912428 
L 96.562985 85.153366 
L 98.935501 86.424604 
L 101.308017 87.449238 
L 103.680533 88.35532 
L 106.053049 89.322869 
L 108.425566 90.003589 
L 110.798082 90.635734 
L 113.170598 91.205713 
L 115.543114 91.868826 
L 117.91563 92.380011 
L 120.288146 92.845227 
L 122.660662 93.274947 
L 125.033178 93.619737 
L 127.405694 94.045493 
L 129.77821 94.551504 
L 132.150726 95.06597 
L 134.523242 95.622854 
L 136.895758 96.202491 
L 139.268274 96.770684 
L 141.64079 97.268865 
L 144.013306 97.696651 
L 146.385822 98.029012 
L 148.758338 98.223697 
L 151.130854 98.444634 
L 153.50337 98.792276 
L 155.875886 99.219406 
L 158.248403 99.62554 
L 160.620919 99.851031 
L 162.993435 99.967305 
L 165.365951 100.165567 
" clip-path="url(#pe47aae7493)" style="fill: none; stroke-dasharray: 5.55,2.4; stroke-dashoffset: 0; stroke: #ffdb89; stroke-opacity: 0; stroke-width: 1.5"/>
   </g>
   <g id="line2d_13">
    <path d="M 49.112664 12.692393 
L 51.48518 22.110091 
L 53.857696 29.397705 
L 56.230212 35.15514 
L 58.602729 40.387469 
L 60.975245 44.328082 
L 63.347761 46.914145 
L 65.720277 49.474966 
L 68.092793 51.952853 
L 70.465309 54.221467 
L 72.837825 56.34259 
L 75.210341 58.471946 
L 77.582857 60.587887 
L 79.955373 62.612918 
L 82.327889 64.550947 
L 84.700405 66.40571 
L 87.072921 68.180786 
L 89.445437 69.879597 
L 91.817953 71.505421 
L 94.190469 73.061394 
L 96.562985 74.550516 
L 98.935501 75.975659 
L 101.308017 77.339573 
L 103.680533 78.644888 
L 106.053049 79.894122 
L 108.425566 81.089684 
L 110.798082 82.23388 
L 113.170598 83.325696 
L 115.543114 84.373699 
L 117.91563 85.376678 
L 120.288146 86.336567 
L 122.660662 87.255218 
L 125.033178 88.009071 
L 127.405694 88.594964 
L 129.77821 88.934032 
L 132.150726 89.703332 
L 134.523242 90.254309 
L 136.895758 90.420204 
L 139.268274 91.155584 
L 141.64079 91.612753 
L 144.013306 91.754628 
L 146.385822 91.824655 
L 148.758338 91.874 
L 151.130854 91.917389 
L 153.50337 91.95554 
L 155.875886 92.249565 
L 158.248403 92.289985 
L 160.620919 92.325826 
L 162.993435 92.357606 
L 165.365951 92.385786 
" clip-path="url(#pe47aae7493)" style="fill: none; stroke: #ffdb89; stroke-opacity: 0; stroke-width: 1.5; stroke-linecap: square"/>
   </g>
   <g id="line2d_14">
    <defs>
     <path id="mc375e162ee" d="M -3 3 
L 3 -3 
M -3 -3 
L 3 3 
" style="stroke: #444444"/>
    </defs>
    <g clip-path="url(#pe47aae7493)">
     <use xlink:href="#mc375e162ee" x="49.112664" y="23.979615" style="fill: #444444; stroke: #444444"/>
     <use xlink:href="#mc375e162ee" x="49.597053" y="30.972853" style="fill: #444444; stroke: #444444"/>
     <use xlink:href="#mc375e162ee" x="60.737993" y="41.878776" style="fill: #444444; stroke: #444444"/>
     <use xlink:href="#mc375e162ee" x="72.363322" y="70.899939" style="fill: #444444; stroke: #444444"/>
     <use xlink:href="#mc375e162ee" x="95.613979" y="79.815442" style="fill: #444444; stroke: #444444"/>
     <use xlink:href="#mc375e162ee" x="118.864636" y="87.783494" style="fill: #444444; stroke: #444444"/>
     <use xlink:href="#mc375e162ee" x="142.115293" y="88.99934" style="fill: #444444; stroke: #444444"/>
     <use xlink:href="#mc375e162ee" x="165.365951" y="90.98463" style="fill: #444444; stroke: #444444"/>
    </g>
   </g>
   <g id="line2d_15">
    <path d="M 49.112664 22.362209 
L 51.48518 27.39935 
L 53.857696 32.118673 
L 56.230212 36.54023 
L 58.602729 40.682808 
L 60.975245 44.56401 
L 63.347761 48.200327 
L 65.720277 51.60721 
L 68.092793 54.799136 
L 70.465309 57.789667 
L 72.837825 60.59151 
L 75.210341 63.21657 
L 77.582857 65.676002 
L 79.955373 67.980256 
L 82.327889 70.139123 
L 84.700405 72.161776 
L 87.072921 74.05681 
L 89.445437 75.832276 
L 91.817953 77.495719 
L 94.190469 79.054207 
L 96.562985 80.514362 
L 98.935501 81.882389 
L 101.308017 83.1641 
L 103.680533 84.364941 
L 106.053049 85.490014 
L 108.425566 86.544102 
L 110.798082 87.531681 
L 113.170598 88.456949 
L 115.543114 89.323838 
L 117.91563 90.136029 
L 120.288146 90.896976 
L 122.660662 91.609911 
L 125.033178 92.277862 
L 127.405694 92.90367 
L 129.77821 93.489992 
L 132.150726 94.03932 
L 134.523242 94.553988 
L 136.895758 95.036183 
L 139.268274 95.487954 
L 141.64079 95.91122 
L 144.013306 96.307781 
L 146.385822 96.67932 
L 148.758338 97.027417 
L 151.130854 97.353551 
L 153.50337 97.659107 
L 155.875886 97.945385 
L 158.248403 98.213599 
L 160.620919 98.464891 
L 162.993435 98.700327 
L 165.365951 98.920909 
" clip-path="url(#pe47aae7493)" style="fill: none; stroke: #444444; stroke-width: 1.5; stroke-linecap: square"/>
   </g>
   <g id="line2d_16">
    <path d="M 49.112664 23.227566 
L 51.48518 28.972573 
L 53.857696 34.304159 
L 56.230212 39.252075 
L 58.602729 43.84393 
L 60.975245 48.105347 
L 63.347761 52.060105 
L 65.720277 55.730271 
L 68.092793 59.136325 
L 70.465309 62.297274 
L 72.837825 65.230755 
L 75.210341 67.953138 
L 77.582857 70.479613 
L 79.955373 72.824278 
L 82.327889 75.000217 
L 84.700405 77.019572 
L 87.072921 78.89361 
L 89.445437 80.632789 
L 91.817953 82.246814 
L 94.190469 83.744691 
L 96.562985 85.134777 
L 98.935501 86.424831 
L 101.308017 87.62205 
L 103.680533 88.733115 
L 106.053049 89.764225 
L 108.425566 90.721135 
L 110.798082 91.609185 
L 113.170598 92.433328 
L 115.543114 93.198165 
L 117.91563 93.907962 
L 120.288146 94.566682 
L 122.660662 95.177999 
L 125.033178 95.745324 
L 127.405694 96.271823 
L 129.77821 96.760435 
L 132.150726 97.213885 
L 134.523242 97.634705 
L 136.895758 98.025241 
L 139.268274 98.387674 
L 141.64079 98.724025 
L 144.013306 99.036172 
L 146.385822 99.325856 
L 148.758338 99.594694 
L 151.130854 99.844186 
L 153.50337 100.075724 
L 155.875886 100.2906 
L 158.248403 100.490014 
L 160.620919 100.675077 
L 162.993435 100.846823 
L 165.365951 101.006209 
" clip-path="url(#pe47aae7493)" style="fill: none; stroke-dasharray: 5.55,2.4; stroke-dashoffset: 0; stroke: #e6bc5c; stroke-width: 1.5"/>
   </g>
   <g id="patch_3">
    <path d="M 43.3 103.81375 
L 43.3 20.78625 
" style="fill: none; stroke: #000000; stroke-width: 0.8; stroke-linejoin: miter; stroke-linecap: square"/>
   </g>
   <g id="patch_4">
    <path d="M 43.3 103.81375 
L 171.178615 103.81375 
" style="fill: none; stroke: #000000; stroke-width: 0.8; stroke-linejoin: miter; stroke-linecap: square"/>
   </g>
  </g>
  <g id="axes_2">
   <g id="patch_5">
    <path d="M 230.5 103.81375 
L 358.378615 103.81375 
L 358.378615 20.78625 
L 230.5 20.78625 
L 230.5 103.81375 
z
" style="fill: none"/>
   </g>
   <g id="PolyCollection_2">
    <defs>
     <path id="m8521568403" d="M 236.312664 -108.839775 
L 236.312664 -127.851045 
L 238.68518 -118.433346 
L 241.057696 -111.145733 
L 243.430212 -105.388297 
L 245.802729 -100.155968 
L 248.175245 -96.215356 
L 250.547761 -93.629292 
L 252.920277 -91.068472 
L 255.292793 -88.590584 
L 257.665309 -86.32197 
L 260.037825 -84.200848 
L 262.410341 -82.071491 
L 264.782857 -79.955551 
L 267.155373 -77.930519 
L 269.527889 -75.992491 
L 271.900405 -74.137728 
L 274.272921 -72.362652 
L 276.645437 -70.66384 
L 279.017953 -69.038016 
L 281.390469 -67.482044 
L 283.762985 -65.992922 
L 286.135501 -64.567778 
L 288.508017 -63.203864 
L 290.880533 -61.898549 
L 293.253049 -60.649315 
L 295.625566 -59.453753 
L 297.998082 -58.309557 
L 300.370598 -57.217741 
L 302.743114 -56.169739 
L 305.11563 -55.16676 
L 307.488146 -54.20687 
L 309.860662 -53.288219 
L 312.233178 -52.534366 
L 314.605694 -51.948473 
L 316.97821 -51.609405 
L 319.350726 -50.840106 
L 321.723242 -50.289129 
L 324.095758 -50.123234 
L 326.468274 -49.387853 
L 328.84079 -48.930685 
L 331.213306 -48.788809 
L 333.585822 -48.718783 
L 335.958338 -48.669437 
L 338.330854 -48.626048 
L 340.70337 -48.587897 
L 343.075886 -48.293873 
L 345.448403 -48.253453 
L 347.820919 -48.217612 
L 350.193435 -48.185831 
L 352.565951 -48.157651 
L 352.565951 -33.444848 
L 352.565951 -33.444848 
L 350.193435 -33.715036 
L 347.820919 -33.995458 
L 345.448403 -34.30347 
L 343.075886 -34.630023 
L 340.70337 -34.976234 
L 338.330854 -35.340876 
L 335.958338 -35.581213 
L 333.585822 -35.942758 
L 331.213306 -36.355339 
L 328.84079 -36.790324 
L 326.468274 -37.228758 
L 324.095758 -37.531854 
L 321.723242 -37.879572 
L 319.350726 -38.395973 
L 316.97821 -38.947058 
L 314.605694 -39.535157 
L 312.233178 -40.201961 
L 309.860662 -40.937404 
L 307.488146 -41.717472 
L 305.11563 -42.385641 
L 302.743114 -43.123964 
L 300.370598 -43.838508 
L 297.998082 -44.690776 
L 295.625566 -45.374974 
L 293.253049 -46.126523 
L 290.880533 -46.853166 
L 288.508017 -47.329602 
L 286.135501 -48.396358 
L 283.762985 -49.670093 
L 281.390469 -51.045005 
L 279.017953 -52.468195 
L 276.645437 -53.916154 
L 274.272921 -55.47385 
L 271.900405 -57.106241 
L 269.527889 -58.760675 
L 267.155373 -60.580911 
L 264.782857 -62.727771 
L 262.410341 -65.055948 
L 260.037825 -67.722209 
L 257.665309 -70.699948 
L 255.292793 -74.134701 
L 252.920277 -77.497894 
L 250.547761 -81.504704 
L 248.175245 -86.627085 
L 245.802729 -90.666791 
L 243.430212 -94.95626 
L 241.057696 -99.558529 
L 238.68518 -104.079512 
L 236.312664 -108.839775 
z
" style="stroke: #ffdb89; stroke-opacity: 0.3"/>
    </defs>
    <g clip-path="url(#p2a17f19d47)">
     <use xlink:href="#m8521568403" x="0" y="140.543437" style="fill: #ffdb89; fill-opacity: 0.3; stroke: #ffdb89; stroke-opacity: 0.3"/>
    </g>
   </g>
   <g id="matplotlib.axis_3">
    <g id="xtick_8">
     <g id="line2d_17">
      <g>
       <use xlink:href="#m91294adc3c" x="236.312664" y="103.81375" style="stroke: #000000; stroke-width: 0.8"/>
      </g>
     </g>
     <g id="text_13">
      <!-- 0 -->
      <g transform="translate(233.532196 117.971562)scale(0.1 -0.1)">
       <use xlink:href="#ArialMT-30"/>
      </g>
     </g>
    </g>
    <g id="xtick_9">
     <g id="line2d_18">
      <g>
       <use xlink:href="#m91294adc3c" x="247.937993" y="103.81375" style="stroke: #000000; stroke-width: 0.8"/>
      </g>
     </g>
     <g id="text_14">
      <!-- 24 -->
      <g transform="translate(242.377055 117.971562)scale(0.1 -0.1)">
       <use xlink:href="#ArialMT-32"/>
       <use xlink:href="#ArialMT-34" x="55.615234"/>
      </g>
     </g>
    </g>
    <g id="xtick_10">
     <g id="line2d_19">
      <g>
       <use xlink:href="#m91294adc3c" x="259.563322" y="103.81375" style="stroke: #000000; stroke-width: 0.8"/>
      </g>
     </g>
     <g id="text_15">
      <!-- 48 -->
      <g transform="translate(254.002384 117.971562)scale(0.1 -0.1)">
       <use xlink:href="#ArialMT-34"/>
       <use xlink:href="#ArialMT-38" x="55.615234"/>
      </g>
     </g>
    </g>
    <g id="xtick_11">
     <g id="line2d_20">
      <g>
       <use xlink:href="#m91294adc3c" x="282.813979" y="103.81375" style="stroke: #000000; stroke-width: 0.8"/>
      </g>
     </g>
     <g id="text_16">
      <!-- 96 -->
      <g transform="translate(277.253041 117.971562)scale(0.1 -0.1)">
       <use xlink:href="#ArialMT-39"/>
       <use xlink:href="#ArialMT-36" x="55.615234"/>
      </g>
     </g>
    </g>
    <g id="xtick_12">
     <g id="line2d_21">
      <g>
       <use xlink:href="#m91294adc3c" x="306.064636" y="103.81375" style="stroke: #000000; stroke-width: 0.8"/>
      </g>
     </g>
     <g id="text_17">
      <!-- 144 -->
      <g transform="translate(297.72323 117.971562)scale(0.1 -0.1)">
       <use xlink:href="#ArialMT-31"/>
       <use xlink:href="#ArialMT-34" x="55.615234"/>
       <use xlink:href="#ArialMT-34" x="111.230469"/>
      </g>
     </g>
    </g>
    <g id="xtick_13">
     <g id="line2d_22">
      <g>
       <use xlink:href="#m91294adc3c" x="329.315293" y="103.81375" style="stroke: #000000; stroke-width: 0.8"/>
      </g>
     </g>
     <g id="text_18">
      <!-- 192 -->
      <g transform="translate(320.973887 117.971562)scale(0.1 -0.1)">
       <use xlink:href="#ArialMT-31"/>
       <use xlink:href="#ArialMT-39" x="55.615234"/>
       <use xlink:href="#ArialMT-32" x="111.230469"/>
      </g>
     </g>
    </g>
    <g id="xtick_14">
     <g id="line2d_23">
      <g>
       <use xlink:href="#m91294adc3c" x="352.565951" y="103.81375" style="stroke: #000000; stroke-width: 0.8"/>
      </g>
     </g>
     <g id="text_19">
      <!-- 240 -->
      <g transform="translate(344.224544 117.971562)scale(0.1 -0.1)">
       <use xlink:href="#ArialMT-32"/>
       <use xlink:href="#ArialMT-34" x="55.615234"/>
       <use xlink:href="#ArialMT-30" x="111.230469"/>
      </g>
     </g>
    </g>
    <g id="text_20">
     <!-- Time in captivity (hours) -->
     <g transform="translate(241.561182 131.23875)scale(0.1 -0.1)">
      <use xlink:href="#ArialMT-54"/>
      <use xlink:href="#ArialMT-69" x="57.333984"/>
      <use xlink:href="#ArialMT-6d" x="79.550781"/>
      <use xlink:href="#ArialMT-65" x="162.851562"/>
      <use xlink:href="#ArialMT-20" x="218.466797"/>
      <use xlink:href="#ArialMT-69" x="246.25"/>
      <use xlink:href="#ArialMT-6e" x="268.466797"/>
      <use xlink:href="#ArialMT-20" x="324.082031"/>
      <use xlink:href="#ArialMT-63" x="351.865234"/>
      <use xlink:href="#ArialMT-61" x="401.865234"/>
      <use xlink:href="#ArialMT-70" x="457.480469"/>
      <use xlink:href="#ArialMT-74" x="513.095703"/>
      <use xlink:href="#ArialMT-69" x="540.878906"/>
      <use xlink:href="#ArialMT-76" x="563.095703"/>
      <use xlink:href="#ArialMT-69" x="613.095703"/>
      <use xlink:href="#ArialMT-74" x="635.3125"/>
      <use xlink:href="#ArialMT-79" x="663.095703"/>
      <use xlink:href="#ArialMT-20" x="713.095703"/>
      <use xlink:href="#ArialMT-28" x="740.878906"/>
      <use xlink:href="#ArialMT-68" x="774.179688"/>
      <use xlink:href="#ArialMT-6f" x="829.794922"/>
      <use xlink:href="#ArialMT-75" x="885.410156"/>
      <use xlink:href="#ArialMT-72" x="941.025391"/>
      <use xlink:href="#ArialMT-73" x="974.326172"/>
      <use xlink:href="#ArialMT-29" x="1024.326172"/>
     </g>
    </g>
   </g>
   <g id="matplotlib.axis_4">
    <g id="ytick_4">
     <g id="line2d_24">
      <g>
       <use xlink:href="#m757be25dea" x="230.5" y="103.81375" style="stroke: #000000; stroke-width: 0.8"/>
      </g>
     </g>
     <g id="text_21">
      <!-- 0.0 -->
      <g transform="translate(209.6 107.392656)scale(0.1 -0.1)">
       <use xlink:href="#ArialMT-30"/>
       <use xlink:href="#ArialMT-2e" x="55.615234"/>
       <use xlink:href="#ArialMT-30" x="83.398438"/>
      </g>
     </g>
    </g>
    <g id="ytick_5">
     <g id="line2d_25">
      <g>
       <use xlink:href="#m757be25dea" x="230.5" y="63.896683" style="stroke: #000000; stroke-width: 0.8"/>
      </g>
     </g>
     <g id="text_22">
      <!-- 0.5 -->
      <g transform="translate(209.6 67.475589)scale(0.1 -0.1)">
       <use xlink:href="#ArialMT-30"/>
       <use xlink:href="#ArialMT-2e" x="55.615234"/>
       <use xlink:href="#ArialMT-35" x="83.398438"/>
      </g>
     </g>
    </g>
    <g id="ytick_6">
     <g id="line2d_26">
      <g>
       <use xlink:href="#m757be25dea" x="230.5" y="23.979615" style="stroke: #000000; stroke-width: 0.8"/>
      </g>
     </g>
     <g id="text_23">
      <!-- 1.0 -->
      <g transform="translate(209.6 27.558522)scale(0.1 -0.1)">
       <use xlink:href="#ArialMT-31"/>
       <use xlink:href="#ArialMT-2e" x="55.615234"/>
       <use xlink:href="#ArialMT-30" x="83.398438"/>
      </g>
     </g>
    </g>
    <g id="text_24">
     <!-- Distance accuracy (m$^{-1}$) -->
     <g transform="translate(203.4 117.4)rotate(-90)scale(0.1 -0.1)">
      <use xlink:href="#ArialMT-44" transform="translate(0 0.684375)"/>
      <use xlink:href="#ArialMT-69" transform="translate(72.216797 0.684375)"/>
      <use xlink:href="#ArialMT-73" transform="translate(94.433594 0.684375)"/>
      <use xlink:href="#ArialMT-74" transform="translate(144.433594 0.684375)"/>
      <use xlink:href="#ArialMT-61" transform="translate(172.216797 0.684375)"/>
      <use xlink:href="#ArialMT-6e" transform="translate(227.832031 0.684375)"/>
      <use xlink:href="#ArialMT-63" transform="translate(283.447266 0.684375)"/>
      <use xlink:href="#ArialMT-65" transform="translate(333.447266 0.684375)"/>
      <use xlink:href="#ArialMT-20" transform="translate(389.0625 0.684375)"/>
      <use xlink:href="#ArialMT-61" transform="translate(416.845703 0.684375)"/>
      <use xlink:href="#ArialMT-63" transform="translate(472.460938 0.684375)"/>
      <use xlink:href="#ArialMT-63" transform="translate(522.460938 0.684375)"/>
      <use xlink:href="#ArialMT-75" transform="translate(572.460938 0.684375)"/>
      <use xlink:href="#ArialMT-72" transform="translate(628.076172 0.684375)"/>
      <use xlink:href="#ArialMT-61" transform="translate(661.376953 0.684375)"/>
      <use xlink:href="#ArialMT-63" transform="translate(716.992188 0.684375)"/>
      <use xlink:href="#ArialMT-79" transform="translate(766.992188 0.684375)"/>
      <use xlink:href="#ArialMT-20" transform="translate(816.992188 0.684375)"/>
      <use xlink:href="#ArialMT-28" transform="translate(844.775391 0.684375)"/>
      <use xlink:href="#ArialMT-6d" transform="translate(878.076172 0.684375)"/>
      <use xlink:href="#DejaVuSans-2212" transform="translate(962.333984 38.965625)scale(0.7)"/>
      <use xlink:href="#DejaVuSans-31" transform="translate(1020.986328 38.965625)scale(0.7)"/>
      <use xlink:href="#ArialMT-29" transform="translate(1068.256836 0.684375)"/>
     </g>
    </g>
   </g>
   <g id="line2d_27">
    <path d="M 236.312664 31.703663 
L 238.68518 36.463925 
L 241.057696 40.984909 
L 243.430212 45.587178 
L 245.802729 49.876647 
L 248.175245 53.916352 
L 250.547761 59.038733 
L 252.920277 63.045544 
L 255.292793 66.408737 
L 257.665309 69.84349 
L 260.037825 72.821229 
L 262.410341 75.487489 
L 264.782857 77.815666 
L 267.155373 79.962526 
L 269.527889 81.782763 
L 271.900405 83.437196 
L 274.272921 85.069587 
L 276.645437 86.627284 
L 279.017953 88.075243 
L 281.390469 89.498433 
L 283.762985 90.873345 
L 286.135501 92.147079 
L 288.508017 93.213836 
L 290.880533 93.690271 
L 293.253049 94.416914 
L 295.625566 95.168463 
L 297.998082 95.852662 
L 300.370598 96.704929 
L 302.743114 97.419474 
L 305.11563 98.157797 
L 307.488146 98.825965 
L 309.860662 99.606033 
L 312.233178 100.341476 
L 314.605694 101.008281 
L 316.97821 101.59638 
L 319.350726 102.147465 
L 321.723242 102.663865 
L 324.095758 103.011584 
L 326.468274 103.31468 
L 328.84079 103.753113 
L 331.213306 104.188098 
L 333.585822 104.600679 
L 335.958338 104.962225 
L 338.330854 105.202562 
L 340.70337 105.567203 
L 343.075886 105.913414 
L 345.448403 106.239967 
L 347.820919 106.547979 
L 350.193435 106.828401 
L 352.565951 107.09859 
" clip-path="url(#p2a17f19d47)" style="fill: none; stroke: #ffdb89; stroke-opacity: 0; stroke-width: 1.5; stroke-linecap: square"/>
   </g>
   <g id="line2d_28">
    <path d="M 236.312664 23.515478 
L 238.68518 29.983435 
L 241.057696 35.106423 
L 243.430212 40.219917 
L 245.802729 44.811055 
L 248.175245 49.300813 
L 250.547761 53.176014 
L 252.920277 56.795231 
L 255.292793 59.96707 
L 257.665309 63.108421 
L 260.037825 65.90242 
L 262.410341 68.656941 
L 264.782857 71.09677 
L 267.155373 73.397891 
L 269.527889 75.493385 
L 271.900405 77.445766 
L 274.272921 79.320995 
L 276.645437 81.033327 
L 279.017953 82.510395 
L 281.390469 83.912428 
L 283.762985 85.153366 
L 286.135501 86.424604 
L 288.508017 87.449238 
L 290.880533 88.35532 
L 293.253049 89.322869 
L 295.625566 90.003589 
L 297.998082 90.635734 
L 300.370598 91.205713 
L 302.743114 91.868826 
L 305.11563 92.380011 
L 307.488146 92.845227 
L 309.860662 93.274947 
L 312.233178 93.619737 
L 314.605694 94.045493 
L 316.97821 94.551504 
L 319.350726 95.06597 
L 321.723242 95.622854 
L 324.095758 96.202491 
L 326.468274 96.770684 
L 328.84079 97.268865 
L 331.213306 97.696651 
L 333.585822 98.029012 
L 335.958338 98.223697 
L 338.330854 98.444634 
L 340.70337 98.792276 
L 343.075886 99.219406 
L 345.448403 99.62554 
L 347.820919 99.851031 
L 350.193435 99.967305 
L 352.565951 100.165567 
" clip-path="url(#p2a17f19d47)" style="fill: none; stroke-dasharray: 5.55,2.4; stroke-dashoffset: 0; stroke: #ffdb89; stroke-opacity: 0; stroke-width: 1.5"/>
   </g>
   <g id="line2d_29">
    <path d="M 236.312664 12.692393 
L 238.68518 22.110091 
L 241.057696 29.397705 
L 243.430212 35.15514 
L 245.802729 40.387469 
L 248.175245 44.328082 
L 250.547761 46.914145 
L 252.920277 49.474966 
L 255.292793 51.952853 
L 257.665309 54.221467 
L 260.037825 56.34259 
L 262.410341 58.471946 
L 264.782857 60.587887 
L 267.155373 62.612918 
L 269.527889 64.550947 
L 271.900405 66.40571 
L 274.272921 68.180786 
L 276.645437 69.879597 
L 279.017953 71.505421 
L 281.390469 73.061394 
L 283.762985 74.550516 
L 286.135501 75.975659 
L 288.508017 77.339573 
L 290.880533 78.644888 
L 293.253049 79.894122 
L 295.625566 81.089684 
L 297.998082 82.23388 
L 300.370598 83.325696 
L 302.743114 84.373699 
L 305.11563 85.376678 
L 307.488146 86.336567 
L 309.860662 87.255218 
L 312.233178 88.009071 
L 314.605694 88.594964 
L 316.97821 88.934032 
L 319.350726 89.703332 
L 321.723242 90.254309 
L 324.095758 90.420204 
L 326.468274 91.155584 
L 328.84079 91.612753 
L 331.213306 91.754628 
L 333.585822 91.824655 
L 335.958338 91.874 
L 338.330854 91.917389 
L 340.70337 91.95554 
L 343.075886 92.249565 
L 345.448403 92.289985 
L 347.820919 92.325826 
L 350.193435 92.357606 
L 352.565951 92.385786 
" clip-path="url(#p2a17f19d47)" style="fill: none; stroke: #ffdb89; stroke-opacity: 0; stroke-width: 1.5; stroke-linecap: square"/>
   </g>
   <g id="line2d_30">
    <g clip-path="url(#p2a17f19d47)">
     <use xlink:href="#mc375e162ee" x="236.312664" y="23.979615" style="fill: #444444; stroke: #444444"/>
     <use xlink:href="#mc375e162ee" x="236.797053" y="32.955696" style="fill: #444444; stroke: #444444"/>
     <use xlink:href="#mc375e162ee" x="247.937993" y="32.970651" style="fill: #444444; stroke: #444444"/>
     <use xlink:href="#mc375e162ee" x="259.563322" y="45.784388" style="fill: #444444; stroke: #444444"/>
     <use xlink:href="#mc375e162ee" x="282.813979" y="50.61517" style="fill: #444444; stroke: #444444"/>
     <use xlink:href="#mc375e162ee" x="306.064636" y="72.058425" style="fill: #444444; stroke: #444444"/>
     <use xlink:href="#mc375e162ee" x="329.315293" y="85.631687" style="fill: #444444; stroke: #444444"/>
     <use xlink:href="#mc375e162ee" x="352.565951" y="91.361142" style="fill: #444444; stroke: #444444"/>
    </g>
   </g>
   <g id="line2d_31">
    <path d="M 236.312664 26.381813 
L 238.68518 28.636564 
L 241.057696 30.827635 
L 243.430212 32.956824 
L 245.802729 35.025878 
L 248.175245 37.036496 
L 250.547761 38.990328 
L 252.920277 40.888978 
L 255.292793 42.734004 
L 257.665309 44.526922 
L 260.037825 46.269202 
L 262.410341 47.962275 
L 264.782857 49.607531 
L 267.155373 51.20632 
L 269.527889 52.759954 
L 271.900405 54.26971 
L 274.272921 55.736825 
L 276.645437 57.162504 
L 279.017953 58.547918 
L 281.390469 59.894204 
L 283.762985 61.202467 
L 286.135501 62.473781 
L 288.508017 63.709189 
L 290.880533 64.909705 
L 293.253049 66.076316 
L 295.625566 67.209977 
L 297.998082 68.311621 
L 300.370598 69.382151 
L 302.743114 70.422446 
L 305.11563 71.433361 
L 307.488146 72.415724 
L 309.860662 73.370342 
L 312.233178 74.297999 
L 314.605694 75.199456 
L 316.97821 76.075453 
L 319.350726 76.92671 
L 321.723242 77.753924 
L 324.095758 78.557776 
L 326.468274 79.338924 
L 328.84079 80.098011 
L 331.213306 80.835659 
L 333.585822 81.552473 
L 335.958338 82.249042 
L 338.330854 82.925938 
L 340.70337 83.583717 
L 343.075886 84.222918 
L 345.448403 84.844066 
L 347.820919 85.447671 
L 350.193435 86.034229 
L 352.565951 86.60422 
" clip-path="url(#p2a17f19d47)" style="fill: none; stroke: #444444; stroke-width: 1.5; stroke-linecap: square"/>
   </g>
   <g id="line2d_32">
    <path d="M 236.312664 23.227566 
L 238.68518 28.972573 
L 241.057696 34.304159 
L 243.430212 39.252075 
L 245.802729 43.84393 
L 248.175245 48.105347 
L 250.547761 52.060105 
L 252.920277 55.730271 
L 255.292793 59.136325 
L 257.665309 62.297274 
L 260.037825 65.230755 
L 262.410341 67.953138 
L 264.782857 70.479613 
L 267.155373 72.824278 
L 269.527889 75.000217 
L 271.900405 77.019572 
L 274.272921 78.89361 
L 276.645437 80.632789 
L 279.017953 82.246814 
L 281.390469 83.744691 
L 283.762985 85.134777 
L 286.135501 86.424831 
L 288.508017 87.62205 
L 290.880533 88.733115 
L 293.253049 89.764225 
L 295.625566 90.721135 
L 297.998082 91.609185 
L 300.370598 92.433328 
L 302.743114 93.198165 
L 305.11563 93.907962 
L 307.488146 94.566682 
L 309.860662 95.177999 
L 312.233178 95.745324 
L 314.605694 96.271823 
L 316.97821 96.760435 
L 319.350726 97.213885 
L 321.723242 97.634705 
L 324.095758 98.025241 
L 326.468274 98.387674 
L 328.84079 98.724025 
L 331.213306 99.036172 
L 333.585822 99.325856 
L 335.958338 99.594694 
L 338.330854 99.844186 
L 340.70337 100.075724 
L 343.075886 100.2906 
L 345.448403 100.490014 
L 347.820919 100.675077 
L 350.193435 100.846823 
L 352.565951 101.006209 
" clip-path="url(#p2a17f19d47)" style="fill: none; stroke-dasharray: 5.55,2.4; stroke-dashoffset: 0; stroke: #e6bc5c; stroke-width: 1.5"/>
   </g>
   <g id="patch_6">
    <path d="M 230.5 103.81375 
L 230.5 20.78625 
" style="fill: none; stroke: #000000; stroke-width: 0.8; stroke-linejoin: miter; stroke-linecap: square"/>
   </g>
   <g id="patch_7">
    <path d="M 230.5 103.81375 
L 358.378615 103.81375 
" style="fill: none; stroke: #000000; stroke-width: 0.8; stroke-linejoin: miter; stroke-linecap: square"/>
   </g>
  </g>
  <g id="axes_3">
   <g id="patch_8">
    <path d="M 417.7 103.81375 
L 545.578615 103.81375 
L 545.578615 20.78625 
L 417.7 20.78625 
L 417.7 103.81375 
z
" style="fill: none"/>
   </g>
   <g id="PolyCollection_3">
    <defs>
     <path id="mf8fa3cef10" d="M 423.512664 -108.839775 
L 423.512664 -127.851045 
L 425.88518 -118.433346 
L 428.257696 -111.145733 
L 430.630212 -105.388297 
L 433.002729 -100.155968 
L 435.375245 -96.215356 
L 437.747761 -93.629292 
L 440.120277 -91.068472 
L 442.492793 -88.590584 
L 444.865309 -86.32197 
L 447.237825 -84.200848 
L 449.610341 -82.071491 
L 451.982857 -79.955551 
L 454.355373 -77.930519 
L 456.727889 -75.992491 
L 459.100405 -74.137728 
L 461.472921 -72.362652 
L 463.845437 -70.66384 
L 466.217953 -69.038016 
L 468.590469 -67.482044 
L 470.962985 -65.992922 
L 473.335501 -64.567778 
L 475.708017 -63.203864 
L 478.080533 -61.898549 
L 480.453049 -60.649315 
L 482.825566 -59.453753 
L 485.198082 -58.309557 
L 487.570598 -57.217741 
L 489.943114 -56.169739 
L 492.31563 -55.16676 
L 494.688146 -54.20687 
L 497.060662 -53.288219 
L 499.433178 -52.534366 
L 501.805694 -51.948473 
L 504.17821 -51.609405 
L 506.550726 -50.840106 
L 508.923242 -50.289129 
L 511.295758 -50.123234 
L 513.668274 -49.387853 
L 516.04079 -48.930685 
L 518.413306 -48.788809 
L 520.785822 -48.718783 
L 523.158338 -48.669437 
L 525.530854 -48.626048 
L 527.90337 -48.587897 
L 530.275886 -48.293873 
L 532.648403 -48.253453 
L 535.020919 -48.217612 
L 537.393435 -48.185831 
L 539.765951 -48.157651 
L 539.765951 -33.444848 
L 539.765951 -33.444848 
L 537.393435 -33.715036 
L 535.020919 -33.995458 
L 532.648403 -34.30347 
L 530.275886 -34.630023 
L 527.90337 -34.976234 
L 525.530854 -35.340876 
L 523.158338 -35.581213 
L 520.785822 -35.942758 
L 518.413306 -36.355339 
L 516.04079 -36.790324 
L 513.668274 -37.228758 
L 511.295758 -37.531854 
L 508.923242 -37.879572 
L 506.550726 -38.395973 
L 504.17821 -38.947058 
L 501.805694 -39.535157 
L 499.433178 -40.201961 
L 497.060662 -40.937404 
L 494.688146 -41.717472 
L 492.31563 -42.385641 
L 489.943114 -43.123964 
L 487.570598 -43.838508 
L 485.198082 -44.690776 
L 482.825566 -45.374974 
L 480.453049 -46.126523 
L 478.080533 -46.853166 
L 475.708017 -47.329602 
L 473.335501 -48.396358 
L 470.962985 -49.670093 
L 468.590469 -51.045005 
L 466.217953 -52.468195 
L 463.845437 -53.916154 
L 461.472921 -55.47385 
L 459.100405 -57.106241 
L 456.727889 -58.760675 
L 454.355373 -60.580911 
L 451.982857 -62.727771 
L 449.610341 -65.055948 
L 447.237825 -67.722209 
L 444.865309 -70.699948 
L 442.492793 -74.134701 
L 440.120277 -77.497894 
L 437.747761 -81.504704 
L 435.375245 -86.627085 
L 433.002729 -90.666791 
L 430.630212 -94.95626 
L 428.257696 -99.558529 
L 425.88518 -104.079512 
L 423.512664 -108.839775 
z
" style="stroke: #ffdb89; stroke-opacity: 0.3"/>
    </defs>
    <g clip-path="url(#p6c1a216f10)">
     <use xlink:href="#mf8fa3cef10" x="0" y="140.543437" style="fill: #ffdb89; fill-opacity: 0.3; stroke: #ffdb89; stroke-opacity: 0.3"/>
    </g>
   </g>
   <g id="matplotlib.axis_5">
    <g id="xtick_15">
     <g id="line2d_33">
      <g>
       <use xlink:href="#m91294adc3c" x="423.512664" y="103.81375" style="stroke: #000000; stroke-width: 0.8"/>
      </g>
     </g>
     <g id="text_25">
      <!-- 0 -->
      <g transform="translate(420.732196 117.971562)scale(0.1 -0.1)">
       <use xlink:href="#ArialMT-30"/>
      </g>
     </g>
    </g>
    <g id="xtick_16">
     <g id="line2d_34">
      <g>
       <use xlink:href="#m91294adc3c" x="435.137993" y="103.81375" style="stroke: #000000; stroke-width: 0.8"/>
      </g>
     </g>
     <g id="text_26">
      <!-- 24 -->
      <g transform="translate(429.577055 117.971562)scale(0.1 -0.1)">
       <use xlink:href="#ArialMT-32"/>
       <use xlink:href="#ArialMT-34" x="55.615234"/>
      </g>
     </g>
    </g>
    <g id="xtick_17">
     <g id="line2d_35">
      <g>
       <use xlink:href="#m91294adc3c" x="446.763322" y="103.81375" style="stroke: #000000; stroke-width: 0.8"/>
      </g>
     </g>
     <g id="text_27">
      <!-- 48 -->
      <g transform="translate(441.202384 117.971562)scale(0.1 -0.1)">
       <use xlink:href="#ArialMT-34"/>
       <use xlink:href="#ArialMT-38" x="55.615234"/>
      </g>
     </g>
    </g>
    <g id="xtick_18">
     <g id="line2d_36">
      <g>
       <use xlink:href="#m91294adc3c" x="470.013979" y="103.81375" style="stroke: #000000; stroke-width: 0.8"/>
      </g>
     </g>
     <g id="text_28">
      <!-- 96 -->
      <g transform="translate(464.453041 117.971562)scale(0.1 -0.1)">
       <use xlink:href="#ArialMT-39"/>
       <use xlink:href="#ArialMT-36" x="55.615234"/>
      </g>
     </g>
    </g>
    <g id="xtick_19">
     <g id="line2d_37">
      <g>
       <use xlink:href="#m91294adc3c" x="493.264636" y="103.81375" style="stroke: #000000; stroke-width: 0.8"/>
      </g>
     </g>
     <g id="text_29">
      <!-- 144 -->
      <g transform="translate(484.92323 117.971562)scale(0.1 -0.1)">
       <use xlink:href="#ArialMT-31"/>
       <use xlink:href="#ArialMT-34" x="55.615234"/>
       <use xlink:href="#ArialMT-34" x="111.230469"/>
      </g>
     </g>
    </g>
    <g id="xtick_20">
     <g id="line2d_38">
      <g>
       <use xlink:href="#m91294adc3c" x="516.515293" y="103.81375" style="stroke: #000000; stroke-width: 0.8"/>
      </g>
     </g>
     <g id="text_30">
      <!-- 192 -->
      <g transform="translate(508.173887 117.971562)scale(0.1 -0.1)">
       <use xlink:href="#ArialMT-31"/>
       <use xlink:href="#ArialMT-39" x="55.615234"/>
       <use xlink:href="#ArialMT-32" x="111.230469"/>
      </g>
     </g>
    </g>
    <g id="xtick_21">
     <g id="line2d_39">
      <g>
       <use xlink:href="#m91294adc3c" x="539.765951" y="103.81375" style="stroke: #000000; stroke-width: 0.8"/>
      </g>
     </g>
     <g id="text_31">
      <!-- 240 -->
      <g transform="translate(531.424544 117.971562)scale(0.1 -0.1)">
       <use xlink:href="#ArialMT-32"/>
       <use xlink:href="#ArialMT-34" x="55.615234"/>
       <use xlink:href="#ArialMT-30" x="111.230469"/>
      </g>
     </g>
    </g>
    <g id="text_32">
     <!-- Time in captivity (hours) -->
     <g transform="translate(428.761182 131.23875)scale(0.1 -0.1)">
      <use xlink:href="#ArialMT-54"/>
      <use xlink:href="#ArialMT-69" x="57.333984"/>
      <use xlink:href="#ArialMT-6d" x="79.550781"/>
      <use xlink:href="#ArialMT-65" x="162.851562"/>
      <use xlink:href="#ArialMT-20" x="218.466797"/>
      <use xlink:href="#ArialMT-69" x="246.25"/>
      <use xlink:href="#ArialMT-6e" x="268.466797"/>
      <use xlink:href="#ArialMT-20" x="324.082031"/>
      <use xlink:href="#ArialMT-63" x="351.865234"/>
      <use xlink:href="#ArialMT-61" x="401.865234"/>
      <use xlink:href="#ArialMT-70" x="457.480469"/>
      <use xlink:href="#ArialMT-74" x="513.095703"/>
      <use xlink:href="#ArialMT-69" x="540.878906"/>
      <use xlink:href="#ArialMT-76" x="563.095703"/>
      <use xlink:href="#ArialMT-69" x="613.095703"/>
      <use xlink:href="#ArialMT-74" x="635.3125"/>
      <use xlink:href="#ArialMT-79" x="663.095703"/>
      <use xlink:href="#ArialMT-20" x="713.095703"/>
      <use xlink:href="#ArialMT-28" x="740.878906"/>
      <use xlink:href="#ArialMT-68" x="774.179688"/>
      <use xlink:href="#ArialMT-6f" x="829.794922"/>
      <use xlink:href="#ArialMT-75" x="885.410156"/>
      <use xlink:href="#ArialMT-72" x="941.025391"/>
      <use xlink:href="#ArialMT-73" x="974.326172"/>
      <use xlink:href="#ArialMT-29" x="1024.326172"/>
     </g>
    </g>
   </g>
   <g id="matplotlib.axis_6">
    <g id="ytick_7">
     <g id="line2d_40">
      <g>
       <use xlink:href="#m757be25dea" x="417.7" y="103.81375" style="stroke: #000000; stroke-width: 0.8"/>
      </g>
     </g>
     <g id="text_33">
      <!-- 0.0 -->
      <g transform="translate(396.8 107.392656)scale(0.1 -0.1)">
       <use xlink:href="#ArialMT-30"/>
       <use xlink:href="#ArialMT-2e" x="55.615234"/>
       <use xlink:href="#ArialMT-30" x="83.398438"/>
      </g>
     </g>
    </g>
    <g id="ytick_8">
     <g id="line2d_41">
      <g>
       <use xlink:href="#m757be25dea" x="417.7" y="63.896683" style="stroke: #000000; stroke-width: 0.8"/>
      </g>
     </g>
     <g id="text_34">
      <!-- 0.5 -->
      <g transform="translate(396.8 67.475589)scale(0.1 -0.1)">
       <use xlink:href="#ArialMT-30"/>
       <use xlink:href="#ArialMT-2e" x="55.615234"/>
       <use xlink:href="#ArialMT-35" x="83.398438"/>
      </g>
     </g>
    </g>
    <g id="ytick_9">
     <g id="line2d_42">
      <g>
       <use xlink:href="#m757be25dea" x="417.7" y="23.979615" style="stroke: #000000; stroke-width: 0.8"/>
      </g>
     </g>
     <g id="text_35">
      <!-- 1.0 -->
      <g transform="translate(396.8 27.558522)scale(0.1 -0.1)">
       <use xlink:href="#ArialMT-31"/>
       <use xlink:href="#ArialMT-2e" x="55.615234"/>
       <use xlink:href="#ArialMT-30" x="83.398438"/>
      </g>
     </g>
    </g>
    <g id="text_36">
     <!-- Distance accuracy (m$^{-1}$) -->
     <g transform="translate(390.6 117.4)rotate(-90)scale(0.1 -0.1)">
      <use xlink:href="#ArialMT-44" transform="translate(0 0.684375)"/>
      <use xlink:href="#ArialMT-69" transform="translate(72.216797 0.684375)"/>
      <use xlink:href="#ArialMT-73" transform="translate(94.433594 0.684375)"/>
      <use xlink:href="#ArialMT-74" transform="translate(144.433594 0.684375)"/>
      <use xlink:href="#ArialMT-61" transform="translate(172.216797 0.684375)"/>
      <use xlink:href="#ArialMT-6e" transform="translate(227.832031 0.684375)"/>
      <use xlink:href="#ArialMT-63" transform="translate(283.447266 0.684375)"/>
      <use xlink:href="#ArialMT-65" transform="translate(333.447266 0.684375)"/>
      <use xlink:href="#ArialMT-20" transform="translate(389.0625 0.684375)"/>
      <use xlink:href="#ArialMT-61" transform="translate(416.845703 0.684375)"/>
      <use xlink:href="#ArialMT-63" transform="translate(472.460938 0.684375)"/>
      <use xlink:href="#ArialMT-63" transform="translate(522.460938 0.684375)"/>
      <use xlink:href="#ArialMT-75" transform="translate(572.460938 0.684375)"/>
      <use xlink:href="#ArialMT-72" transform="translate(628.076172 0.684375)"/>
      <use xlink:href="#ArialMT-61" transform="translate(661.376953 0.684375)"/>
      <use xlink:href="#ArialMT-63" transform="translate(716.992188 0.684375)"/>
      <use xlink:href="#ArialMT-79" transform="translate(766.992188 0.684375)"/>
      <use xlink:href="#ArialMT-20" transform="translate(816.992188 0.684375)"/>
      <use xlink:href="#ArialMT-28" transform="translate(844.775391 0.684375)"/>
      <use xlink:href="#ArialMT-6d" transform="translate(878.076172 0.684375)"/>
      <use xlink:href="#DejaVuSans-2212" transform="translate(962.333984 38.965625)scale(0.7)"/>
      <use xlink:href="#DejaVuSans-31" transform="translate(1020.986328 38.965625)scale(0.7)"/>
      <use xlink:href="#ArialMT-29" transform="translate(1068.256836 0.684375)"/>
     </g>
    </g>
   </g>
   <g id="line2d_43">
    <path d="M 423.512664 31.703663 
L 425.88518 36.463925 
L 428.257696 40.984909 
L 430.630212 45.587178 
L 433.002729 49.876647 
L 435.375245 53.916352 
L 437.747761 59.038733 
L 440.120277 63.045544 
L 442.492793 66.408737 
L 444.865309 69.84349 
L 447.237825 72.821229 
L 449.610341 75.487489 
L 451.982857 77.815666 
L 454.355373 79.962526 
L 456.727889 81.782763 
L 459.100405 83.437196 
L 461.472921 85.069587 
L 463.845437 86.627284 
L 466.217953 88.075243 
L 468.590469 89.498433 
L 470.962985 90.873345 
L 473.335501 92.147079 
L 475.708017 93.213836 
L 478.080533 93.690271 
L 480.453049 94.416914 
L 482.825566 95.168463 
L 485.198082 95.852662 
L 487.570598 96.704929 
L 489.943114 97.419474 
L 492.31563 98.157797 
L 494.688146 98.825965 
L 497.060662 99.606033 
L 499.433178 100.341476 
L 501.805694 101.008281 
L 504.17821 101.59638 
L 506.550726 102.147465 
L 508.923242 102.663865 
L 511.295758 103.011584 
L 513.668274 103.31468 
L 516.04079 103.753113 
L 518.413306 104.188098 
L 520.785822 104.600679 
L 523.158338 104.962225 
L 525.530854 105.202562 
L 527.90337 105.567203 
L 530.275886 105.913414 
L 532.648403 106.239967 
L 535.020919 106.547979 
L 537.393435 106.828401 
L 539.765951 107.09859 
" clip-path="url(#p6c1a216f10)" style="fill: none; stroke: #ffdb89; stroke-opacity: 0; stroke-width: 1.5; stroke-linecap: square"/>
   </g>
   <g id="line2d_44">
    <path d="M 423.512664 23.515478 
L 425.88518 29.983435 
L 428.257696 35.106423 
L 430.630212 40.219917 
L 433.002729 44.811055 
L 435.375245 49.300813 
L 437.747761 53.176014 
L 440.120277 56.795231 
L 442.492793 59.96707 
L 444.865309 63.108421 
L 447.237825 65.90242 
L 449.610341 68.656941 
L 451.982857 71.09677 
L 454.355373 73.397891 
L 456.727889 75.493385 
L 459.100405 77.445766 
L 461.472921 79.320995 
L 463.845437 81.033327 
L 466.217953 82.510395 
L 468.590469 83.912428 
L 470.962985 85.153366 
L 473.335501 86.424604 
L 475.708017 87.449238 
L 478.080533 88.35532 
L 480.453049 89.322869 
L 482.825566 90.003589 
L 485.198082 90.635734 
L 487.570598 91.205713 
L 489.943114 91.868826 
L 492.31563 92.380011 
L 494.688146 92.845227 
L 497.060662 93.274947 
L 499.433178 93.619737 
L 501.805694 94.045493 
L 504.17821 94.551504 
L 506.550726 95.06597 
L 508.923242 95.622854 
L 511.295758 96.202491 
L 513.668274 96.770684 
L 516.04079 97.268865 
L 518.413306 97.696651 
L 520.785822 98.029012 
L 523.158338 98.223697 
L 525.530854 98.444634 
L 527.90337 98.792276 
L 530.275886 99.219406 
L 532.648403 99.62554 
L 535.020919 99.851031 
L 537.393435 99.967305 
L 539.765951 100.165567 
" clip-path="url(#p6c1a216f10)" style="fill: none; stroke-dasharray: 5.55,2.4; stroke-dashoffset: 0; stroke: #ffdb89; stroke-opacity: 0; stroke-width: 1.5"/>
   </g>
   <g id="line2d_45">
    <path d="M 423.512664 12.692393 
L 425.88518 22.110091 
L 428.257696 29.397705 
L 430.630212 35.15514 
L 433.002729 40.387469 
L 435.375245 44.328082 
L 437.747761 46.914145 
L 440.120277 49.474966 
L 442.492793 51.952853 
L 444.865309 54.221467 
L 447.237825 56.34259 
L 449.610341 58.471946 
L 451.982857 60.587887 
L 454.355373 62.612918 
L 456.727889 64.550947 
L 459.100405 66.40571 
L 461.472921 68.180786 
L 463.845437 69.879597 
L 466.217953 71.505421 
L 468.590469 73.061394 
L 470.962985 74.550516 
L 473.335501 75.975659 
L 475.708017 77.339573 
L 478.080533 78.644888 
L 480.453049 79.894122 
L 482.825566 81.089684 
L 485.198082 82.23388 
L 487.570598 83.325696 
L 489.943114 84.373699 
L 492.31563 85.376678 
L 494.688146 86.336567 
L 497.060662 87.255218 
L 499.433178 88.009071 
L 501.805694 88.594964 
L 504.17821 88.934032 
L 506.550726 89.703332 
L 508.923242 90.254309 
L 511.295758 90.420204 
L 513.668274 91.155584 
L 516.04079 91.612753 
L 518.413306 91.754628 
L 520.785822 91.824655 
L 523.158338 91.874 
L 525.530854 91.917389 
L 527.90337 91.95554 
L 530.275886 92.249565 
L 532.648403 92.289985 
L 535.020919 92.325826 
L 537.393435 92.357606 
L 539.765951 92.385786 
" clip-path="url(#p6c1a216f10)" style="fill: none; stroke: #ffdb89; stroke-opacity: 0; stroke-width: 1.5; stroke-linecap: square"/>
   </g>
   <g id="line2d_46">
    <g clip-path="url(#p6c1a216f10)">
     <use xlink:href="#mc375e162ee" x="423.512664" y="23.979615" style="fill: #444444; stroke: #444444"/>
     <use xlink:href="#mc375e162ee" x="423.997053" y="25.682681" style="fill: #444444; stroke: #444444"/>
     <use xlink:href="#mc375e162ee" x="435.137993" y="54.409107" style="fill: #444444; stroke: #444444"/>
     <use xlink:href="#mc375e162ee" x="446.763322" y="62.340397" style="fill: #444444; stroke: #444444"/>
     <use xlink:href="#mc375e162ee" x="470.013979" y="79.601875" style="fill: #444444; stroke: #444444"/>
     <use xlink:href="#mc375e162ee" x="493.264636" y="86.963399" style="fill: #444444; stroke: #444444"/>
     <use xlink:href="#mc375e162ee" x="516.515293" y="92.481709" style="fill: #444444; stroke: #444444"/>
     <use xlink:href="#mc375e162ee" x="539.765951" y="94.762913" style="fill: #444444; stroke: #444444"/>
    </g>
   </g>
   <g id="line2d_47">
    <path d="M 423.512664 23.358763 
L 425.88518 28.27717 
L 428.257696 32.892564 
L 430.630212 37.223614 
L 433.002729 41.287837 
L 435.375245 45.101673 
L 437.747761 48.680546 
L 440.120277 52.038933 
L 442.492793 55.190417 
L 444.865309 58.147745 
L 447.237825 60.922878 
L 449.610341 63.527042 
L 451.982857 65.970769 
L 454.355373 68.263943 
L 456.727889 70.415839 
L 459.100405 72.435162 
L 461.472921 74.330079 
L 463.845437 76.108254 
L 466.217953 77.77688 
L 468.590469 79.342705 
L 470.962985 80.812064 
L 473.335501 82.190898 
L 475.708017 83.484785 
L 478.080533 84.698959 
L 480.453049 85.83833 
L 482.825566 86.907507 
L 485.198082 87.910814 
L 487.570598 88.85231 
L 489.943114 89.735802 
L 492.31563 90.564865 
L 494.688146 91.34285 
L 497.060662 92.072906 
L 499.433178 92.757984 
L 501.805694 93.400856 
L 504.17821 94.004123 
L 506.550726 94.570223 
L 508.923242 95.101447 
L 511.295758 95.599944 
L 513.668274 96.067729 
L 516.04079 96.506695 
L 518.413306 96.918618 
L 520.785822 97.305162 
L 523.158338 97.667893 
L 525.530854 98.008276 
L 527.90337 98.32769 
L 530.275886 98.627424 
L 532.648403 98.908693 
L 535.020919 99.172634 
L 537.393435 99.420313 
L 539.765951 99.652734 
" clip-path="url(#p6c1a216f10)" style="fill: none; stroke: #444444; stroke-width: 1.5; stroke-linecap: square"/>
   </g>
   <g id="line2d_48">
    <path d="M 423.512664 23.227566 
L 425.88518 28.972573 
L 428.257696 34.304159 
L 430.630212 39.252075 
L 433.002729 43.84393 
L 435.375245 48.105347 
L 437.747761 52.060105 
L 440.120277 55.730271 
L 442.492793 59.136325 
L 444.865309 62.297274 
L 447.237825 65.230755 
L 449.610341 67.953138 
L 451.982857 70.479613 
L 454.355373 72.824278 
L 456.727889 75.000217 
L 459.100405 77.019572 
L 461.472921 78.89361 
L 463.845437 80.632789 
L 466.217953 82.246814 
L 468.590469 83.744691 
L 470.962985 85.134777 
L 473.335501 86.424831 
L 475.708017 87.62205 
L 478.080533 88.733115 
L 480.453049 89.764225 
L 482.825566 90.721135 
L 485.198082 91.609185 
L 487.570598 92.433328 
L 489.943114 93.198165 
L 492.31563 93.907962 
L 494.688146 94.566682 
L 497.060662 95.177999 
L 499.433178 95.745324 
L 501.805694 96.271823 
L 504.17821 96.760435 
L 506.550726 97.213885 
L 508.923242 97.634705 
L 511.295758 98.025241 
L 513.668274 98.387674 
L 516.04079 98.724025 
L 518.413306 99.036172 
L 520.785822 99.325856 
L 523.158338 99.594694 
L 525.530854 99.844186 
L 527.90337 100.075724 
L 530.275886 100.2906 
L 532.648403 100.490014 
L 535.020919 100.675077 
L 537.393435 100.846823 
L 539.765951 101.006209 
" clip-path="url(#p6c1a216f10)" style="fill: none; stroke-dasharray: 5.55,2.4; stroke-dashoffset: 0; stroke: #e6bc5c; stroke-width: 1.5"/>
   </g>
   <g id="patch_9">
    <path d="M 417.7 103.81375 
L 417.7 20.78625 
" style="fill: none; stroke: #000000; stroke-width: 0.8; stroke-linejoin: miter; stroke-linecap: square"/>
   </g>
   <g id="patch_10">
    <path d="M 417.7 103.81375 
L 545.578615 103.81375 
" style="fill: none; stroke: #000000; stroke-width: 0.8; stroke-linejoin: miter; stroke-linecap: square"/>
   </g>
  </g>
 </g>
 <defs>
  <clipPath id="pe47aae7493">
   <rect x="43.3" y="20.78625" width="127.878615" height="83.0275"/>
  </clipPath>
  <clipPath id="p2a17f19d47">
   <rect x="230.5" y="20.78625" width="127.878615" height="83.0275"/>
  </clipPath>
  <clipPath id="p6c1a216f10">
   <rect x="417.7" y="20.78625" width="127.878615" height="83.0275"/>
  </clipPath>
 </defs>
</svg>
