<?xml version="1.0" encoding="utf-8" standalone="no"?>
<!DOCTYPE svg PUBLIC "-//W3C//DTD SVG 1.1//EN"
  "http://www.w3.org/Graphics/SVG/1.1/DTD/svg11.dtd">
<svg xmlns:xlink="http://www.w3.org/1999/xlink" width="264.681293pt" height="188.073688pt" viewBox="0 0 264.681293 188.073688" xmlns="http://www.w3.org/2000/svg" version="1.1">
 <metadata>
  <rdf:RDF xmlns:dc="http://purl.org/dc/elements/1.1/" xmlns:cc="http://creativecommons.org/ns#" xmlns:rdf="http://www.w3.org/1999/02/22-rdf-syntax-ns#">
   <cc:Work>
    <dc:type rdf:resource="http://purl.org/dc/dcmitype/StillImage"/>
    <dc:date>2022-12-21T21:40:37.900984</dc:date>
    <dc:format>image/svg+xml</dc:format>
    <dc:creator>
     <cc:Agent>
      <dc:title>Matplotlib v3.5.1, https://matplotlib.org/</dc:title>
     </cc:Agent>
    </dc:creator>
   </cc:Work>
  </rdf:RDF>
 </metadata>
 <defs>
  <style type="text/css">*{stroke-linejoin: round; stroke-linecap: butt}</style>
 </defs>
 <g id="figure_1">
  <g id="patch_1">
   <path d="M 0 188.073688 
L 264.681293 188.073688 
L 264.681293 0 
L 0 0 
L 0 188.073688 
z
" style="fill: none"/>
  </g>
  <g id="axes_1">
   <g id="patch_2">
    <path d="M 38.70625 151.344 
L 250.74625 151.344 
L 250.74625 7.2 
L 38.70625 7.2 
L 38.70625 151.344 
z
" style="fill: none"/>
   </g>
   <g id="PolyCollection_1">
    <defs>
     <path id="m31fa389e09" d="M 48.344432 -154.741607 
L 48.344432 -174.321687 
L 52.278384 -174.27275 
L 56.212335 -174.216684 
L 60.146287 -174.152456 
L 64.080239 -173.89966 
L 68.014191 -173.77517 
L 71.948142 -173.633718 
L 75.882094 -173.473037 
L 79.816046 -173.290572 
L 83.749998 -173.083444 
L 87.683949 -172.848416 
L 91.617901 -172.591128 
L 95.551853 -172.348862 
L 99.485805 -172.0784 
L 103.419756 -171.750231 
L 107.353708 -171.279901 
L 111.28766 -170.751341 
L 115.221612 -170.157896 
L 119.155564 -169.492308 
L 123.089515 -168.746698 
L 127.023467 -167.910474 
L 130.957419 -166.942917 
L 134.891371 -166.268878 
L 138.825322 -166.220136 
L 142.759274 -166.14728 
L 146.693226 -165.857326 
L 150.627178 -165.717814 
L 154.561129 -165.506918 
L 158.495081 -165.188582 
L 162.429033 -164.709133 
L 166.362985 -164.273539 
L 170.296936 -163.959518 
L 174.230888 -163.527875 
L 178.16484 -162.971012 
L 182.098792 -162.254337 
L 186.032744 -161.334855 
L 189.966695 -160.428885 
L 193.900647 -160.167444 
L 197.834599 -159.717756 
L 201.768551 -159.031616 
L 205.702502 -158.24262 
L 209.636454 -158.049677 
L 213.570406 -157.898262 
L 217.504358 -157.756377 
L 221.438309 -157.720119 
L 225.372261 -157.683661 
L 229.306213 -157.647003 
L 233.240165 -157.610145 
L 237.174116 -157.573084 
L 241.108068 -157.535822 
L 241.108068 -43.868651 
L 241.108068 -43.868651 
L 237.174116 -44.412262 
L 233.240165 -45.336666 
L 229.306213 -46.894828 
L 225.372261 -49.482672 
L 221.438309 -53.676817 
L 217.504358 -60.21217 
L 213.570406 -69.796471 
L 209.636454 -80.539062 
L 205.702502 -92.13369 
L 201.768551 -100.270997 
L 197.834599 -102.704743 
L 193.900647 -105.172922 
L 189.966695 -107.668495 
L 186.032744 -110.18381 
L 182.098792 -112.653198 
L 178.16484 -114.769527 
L 174.230888 -116.880844 
L 170.296936 -118.979835 
L 166.362985 -121.059157 
L 162.429033 -123.111589 
L 158.495081 -125.130181 
L 154.561129 -127.108391 
L 150.627178 -129.04021 
L 146.693226 -130.920262 
L 142.759274 -132.743881 
L 138.825322 -134.507161 
L 134.891371 -136.152083 
L 130.957419 -137.346062 
L 127.023467 -141.014241 
L 123.089515 -144.181607 
L 119.155564 -145.527901 
L 115.221612 -146.801529 
L 111.28766 -148.029727 
L 107.353708 -149.237198 
L 103.419756 -150.34594 
L 99.485805 -151.186057 
L 95.551853 -151.55303 
L 91.617901 -152.584544 
L 87.683949 -153.547808 
L 83.749998 -154.398461 
L 79.816046 -154.446004 
L 75.882094 -154.485166 
L 71.948142 -154.51871 
L 68.014191 -154.547439 
L 64.080239 -154.572042 
L 60.146287 -154.593111 
L 56.212335 -154.611152 
L 52.278384 -154.648404 
L 48.344432 -154.741607 
z
" style="stroke: #444444; stroke-opacity: 0.3"/>
    </defs>
    <g clip-path="url(#p819fc47af0)">
     <use xlink:href="#m31fa389e09" x="0" y="188.073688" style="fill: #444444; fill-opacity: 0.3; stroke: #444444; stroke-opacity: 0.3"/>
    </g>
   </g>
   <g id="PolyCollection_2">
    <defs>
     <path id="mff73da9cd9" d="M 48.344432 -106.175841 
L 48.344432 -118.899845 
L 52.278384 -118.878127 
L 56.212335 -118.85148 
L 60.146287 -118.818794 
L 64.080239 -118.778704 
L 68.014191 -118.729546 
L 71.948142 -118.669284 
L 75.882094 -118.595434 
L 79.816046 -118.50497 
L 83.749998 -118.394206 
L 87.683949 -118.258672 
L 91.617901 -118.092947 
L 95.551853 -117.890492 
L 99.485805 -117.643437 
L 103.419756 -117.450814 
L 107.353708 -117.086867 
L 111.28766 -116.645063 
L 115.221612 -116.110028 
L 119.155564 -115.403298 
L 123.089515 -114.717834 
L 127.023467 -114.347141 
L 130.957419 -114.296225 
L 134.891371 -114.296225 
L 138.825322 -114.296225 
L 142.759274 -114.296225 
L 146.693226 -114.296225 
L 150.627178 -114.296225 
L 154.561129 -114.296225 
L 158.495081 -114.296225 
L 162.429033 -114.296225 
L 166.362985 -114.296225 
L 170.296936 -114.296225 
L 174.230888 -114.296225 
L 178.16484 -114.296225 
L 182.098792 -114.296225 
L 186.032744 -114.296225 
L 189.966695 -114.296225 
L 193.900647 -114.296225 
L 197.834599 -114.296225 
L 201.768551 -114.296225 
L 205.702502 -114.296225 
L 209.636454 -114.296225 
L 213.570406 -114.296225 
L 217.504358 -114.296225 
L 221.438309 -114.296225 
L 225.372261 -114.296225 
L 229.306213 -114.296225 
L 233.240165 -114.296225 
L 237.174116 -114.296225 
L 241.108068 -114.296225 
L 241.108068 -43.281687 
L 241.108068 -43.281687 
L 237.174116 -43.331679 
L 233.240165 -43.395927 
L 229.306213 -43.478456 
L 225.372261 -43.584396 
L 221.438309 -43.720272 
L 217.504358 -43.894352 
L 213.570406 -44.117064 
L 209.636454 -44.401482 
L 205.702502 -44.763873 
L 201.768551 -45.224262 
L 197.834599 -45.806983 
L 193.900647 -46.541087 
L 189.966695 -47.460449 
L 186.032744 -48.60333 
L 182.098792 -50.011077 
L 178.16484 -51.725575 
L 174.230888 -53.785139 
L 170.296936 -56.218727 
L 166.362985 -59.03882 
L 162.429033 -62.23401 
L 158.495081 -65.763094 
L 154.561129 -69.552915 
L 150.627178 -73.501836 
L 146.693226 -77.489328 
L 142.759274 -81.39011 
L 138.825322 -85.089491 
L 134.891371 -88.496062 
L 130.957419 -91.54898 
L 127.023467 -94.219106 
L 123.089515 -96.505125 
L 119.155564 -98.426803 
L 115.221612 -100.017512 
L 111.28766 -101.317549 
L 107.353708 -102.368986 
L 103.419756 -103.193531 
L 99.485805 -103.872386 
L 95.551853 -104.423308 
L 91.617901 -104.831825 
L 87.683949 -105.162304 
L 83.749998 -105.374655 
L 79.816046 -105.54367 
L 75.882094 -105.684038 
L 71.948142 -105.800517 
L 68.014191 -105.897103 
L 64.080239 -105.977147 
L 60.146287 -106.04345 
L 56.212335 -106.098349 
L 52.278384 -106.143792 
L 48.344432 -106.175841 
z
" style="stroke: #444444; stroke-opacity: 0.1"/>
    </defs>
    <g clip-path="url(#p819fc47af0)">
     <use xlink:href="#mff73da9cd9" x="0" y="188.073688" style="fill: #444444; fill-opacity: 0.1; stroke: #444444; stroke-opacity: 0.1"/>
    </g>
   </g>
   <g id="matplotlib.axis_1">
    <g id="xtick_1">
     <g id="line2d_1">
      <defs>
       <path id="m90d9b4a72f" d="M 0 0 
L 0 3.5 
" style="stroke: #000000; stroke-width: 0.8"/>
      </defs>
      <g>
       <use xlink:href="#m90d9b4a72f" x="48.344432" y="151.344" style="stroke: #000000; stroke-width: 0.8"/>
      </g>
     </g>
     <g id="text_1">
      <!-- 0 -->
      <g transform="translate(45.563963 165.501812)scale(0.1 -0.1)">
       <defs>
        <path id="ArialMT-30" d="M 266 2259 
Q 266 3072 433 3567 
Q 600 4063 929 4331 
Q 1259 4600 1759 4600 
Q 2128 4600 2406 4451 
Q 2684 4303 2865 4023 
Q 3047 3744 3150 3342 
Q 3253 2941 3253 2259 
Q 3253 1453 3087 958 
Q 2922 463 2592 192 
Q 2263 -78 1759 -78 
Q 1097 -78 719 397 
Q 266 969 266 2259 
z
M 844 2259 
Q 844 1131 1108 757 
Q 1372 384 1759 384 
Q 2147 384 2411 759 
Q 2675 1134 2675 2259 
Q 2675 3391 2411 3762 
Q 2147 4134 1753 4134 
Q 1366 4134 1134 3806 
Q 844 3388 844 2259 
z
" transform="scale(0.015625)"/>
       </defs>
       <use xlink:href="#ArialMT-30"/>
      </g>
     </g>
    </g>
    <g id="xtick_2">
     <g id="line2d_2">
      <g>
       <use xlink:href="#m90d9b4a72f" x="88.503523" y="151.344" style="stroke: #000000; stroke-width: 0.8"/>
      </g>
     </g>
     <g id="text_2">
      <!-- 50 -->
      <g transform="translate(82.942585 165.501812)scale(0.1 -0.1)">
       <defs>
        <path id="ArialMT-35" d="M 266 1200 
L 856 1250 
Q 922 819 1161 601 
Q 1400 384 1738 384 
Q 2144 384 2425 690 
Q 2706 997 2706 1503 
Q 2706 1984 2436 2262 
Q 2166 2541 1728 2541 
Q 1456 2541 1237 2417 
Q 1019 2294 894 2097 
L 366 2166 
L 809 4519 
L 3088 4519 
L 3088 3981 
L 1259 3981 
L 1013 2750 
Q 1425 3038 1878 3038 
Q 2478 3038 2890 2622 
Q 3303 2206 3303 1553 
Q 3303 931 2941 478 
Q 2500 -78 1738 -78 
Q 1113 -78 717 272 
Q 322 622 266 1200 
z
" transform="scale(0.015625)"/>
       </defs>
       <use xlink:href="#ArialMT-35"/>
       <use xlink:href="#ArialMT-30" x="55.615234"/>
      </g>
     </g>
    </g>
    <g id="xtick_3">
     <g id="line2d_3">
      <g>
       <use xlink:href="#m90d9b4a72f" x="128.662614" y="151.344" style="stroke: #000000; stroke-width: 0.8"/>
      </g>
     </g>
     <g id="text_3">
      <!-- 100 -->
      <g transform="translate(120.321207 165.501812)scale(0.1 -0.1)">
       <defs>
        <path id="ArialMT-31" d="M 2384 0 
L 1822 0 
L 1822 3584 
Q 1619 3391 1289 3197 
Q 959 3003 697 2906 
L 697 3450 
Q 1169 3672 1522 3987 
Q 1875 4303 2022 4600 
L 2384 4600 
L 2384 0 
z
" transform="scale(0.015625)"/>
       </defs>
       <use xlink:href="#ArialMT-31"/>
       <use xlink:href="#ArialMT-30" x="55.615234"/>
       <use xlink:href="#ArialMT-30" x="111.230469"/>
      </g>
     </g>
    </g>
    <g id="xtick_4">
     <g id="line2d_4">
      <g>
       <use xlink:href="#m90d9b4a72f" x="168.821705" y="151.344" style="stroke: #000000; stroke-width: 0.8"/>
      </g>
     </g>
     <g id="text_4">
      <!-- 150 -->
      <g transform="translate(160.480298 165.501812)scale(0.1 -0.1)">
       <use xlink:href="#ArialMT-31"/>
       <use xlink:href="#ArialMT-35" x="55.615234"/>
       <use xlink:href="#ArialMT-30" x="111.230469"/>
      </g>
     </g>
    </g>
    <g id="xtick_5">
     <g id="line2d_5">
      <g>
       <use xlink:href="#m90d9b4a72f" x="208.980795" y="151.344" style="stroke: #000000; stroke-width: 0.8"/>
      </g>
     </g>
     <g id="text_5">
      <!-- 200 -->
      <g transform="translate(200.639389 165.501812)scale(0.1 -0.1)">
       <defs>
        <path id="ArialMT-32" d="M 3222 541 
L 3222 0 
L 194 0 
Q 188 203 259 391 
Q 375 700 629 1000 
Q 884 1300 1366 1694 
Q 2113 2306 2375 2664 
Q 2638 3022 2638 3341 
Q 2638 3675 2398 3904 
Q 2159 4134 1775 4134 
Q 1369 4134 1125 3890 
Q 881 3647 878 3216 
L 300 3275 
Q 359 3922 746 4261 
Q 1134 4600 1788 4600 
Q 2447 4600 2831 4234 
Q 3216 3869 3216 3328 
Q 3216 3053 3103 2787 
Q 2991 2522 2730 2228 
Q 2469 1934 1863 1422 
Q 1356 997 1212 845 
Q 1069 694 975 541 
L 3222 541 
z
" transform="scale(0.015625)"/>
       </defs>
       <use xlink:href="#ArialMT-32"/>
       <use xlink:href="#ArialMT-30" x="55.615234"/>
       <use xlink:href="#ArialMT-30" x="111.230469"/>
      </g>
     </g>
    </g>
    <g id="xtick_6">
     <g id="line2d_6">
      <g>
       <use xlink:href="#m90d9b4a72f" x="249.139886" y="151.344" style="stroke: #000000; stroke-width: 0.8"/>
      </g>
     </g>
     <g id="text_6">
      <!-- 250 -->
      <g transform="translate(240.79848 165.501812)scale(0.1 -0.1)">
       <use xlink:href="#ArialMT-32"/>
       <use xlink:href="#ArialMT-35" x="55.615234"/>
       <use xlink:href="#ArialMT-30" x="111.230469"/>
      </g>
     </g>
    </g>
    <g id="text_7">
     <!-- Time in captivity (hours) -->
     <g transform="translate(91.848125 178.769)scale(0.1 -0.1)">
      <defs>
       <path id="ArialMT-54" d="M 1659 0 
L 1659 4041 
L 150 4041 
L 150 4581 
L 3781 4581 
L 3781 4041 
L 2266 4041 
L 2266 0 
L 1659 0 
z
" transform="scale(0.015625)"/>
       <path id="ArialMT-69" d="M 425 3934 
L 425 4581 
L 988 4581 
L 988 3934 
L 425 3934 
z
M 425 0 
L 425 3319 
L 988 3319 
L 988 0 
L 425 0 
z
" transform="scale(0.015625)"/>
       <path id="ArialMT-6d" d="M 422 0 
L 422 3319 
L 925 3319 
L 925 2853 
Q 1081 3097 1340 3245 
Q 1600 3394 1931 3394 
Q 2300 3394 2536 3241 
Q 2772 3088 2869 2813 
Q 3263 3394 3894 3394 
Q 4388 3394 4653 3120 
Q 4919 2847 4919 2278 
L 4919 0 
L 4359 0 
L 4359 2091 
Q 4359 2428 4304 2576 
Q 4250 2725 4106 2815 
Q 3963 2906 3769 2906 
Q 3419 2906 3187 2673 
Q 2956 2441 2956 1928 
L 2956 0 
L 2394 0 
L 2394 2156 
Q 2394 2531 2256 2718 
Q 2119 2906 1806 2906 
Q 1569 2906 1367 2781 
Q 1166 2656 1075 2415 
Q 984 2175 984 1722 
L 984 0 
L 422 0 
z
" transform="scale(0.015625)"/>
       <path id="ArialMT-65" d="M 2694 1069 
L 3275 997 
Q 3138 488 2766 206 
Q 2394 -75 1816 -75 
Q 1088 -75 661 373 
Q 234 822 234 1631 
Q 234 2469 665 2931 
Q 1097 3394 1784 3394 
Q 2450 3394 2872 2941 
Q 3294 2488 3294 1666 
Q 3294 1616 3291 1516 
L 816 1516 
Q 847 969 1125 678 
Q 1403 388 1819 388 
Q 2128 388 2347 550 
Q 2566 713 2694 1069 
z
M 847 1978 
L 2700 1978 
Q 2663 2397 2488 2606 
Q 2219 2931 1791 2931 
Q 1403 2931 1139 2672 
Q 875 2413 847 1978 
z
" transform="scale(0.015625)"/>
       <path id="ArialMT-20" transform="scale(0.015625)"/>
       <path id="ArialMT-6e" d="M 422 0 
L 422 3319 
L 928 3319 
L 928 2847 
Q 1294 3394 1984 3394 
Q 2284 3394 2536 3286 
Q 2788 3178 2913 3003 
Q 3038 2828 3088 2588 
Q 3119 2431 3119 2041 
L 3119 0 
L 2556 0 
L 2556 2019 
Q 2556 2363 2490 2533 
Q 2425 2703 2258 2804 
Q 2091 2906 1866 2906 
Q 1506 2906 1245 2678 
Q 984 2450 984 1813 
L 984 0 
L 422 0 
z
" transform="scale(0.015625)"/>
       <path id="ArialMT-63" d="M 2588 1216 
L 3141 1144 
Q 3050 572 2676 248 
Q 2303 -75 1759 -75 
Q 1078 -75 664 370 
Q 250 816 250 1647 
Q 250 2184 428 2587 
Q 606 2991 970 3192 
Q 1334 3394 1763 3394 
Q 2303 3394 2647 3120 
Q 2991 2847 3088 2344 
L 2541 2259 
Q 2463 2594 2264 2762 
Q 2066 2931 1784 2931 
Q 1359 2931 1093 2626 
Q 828 2322 828 1663 
Q 828 994 1084 691 
Q 1341 388 1753 388 
Q 2084 388 2306 591 
Q 2528 794 2588 1216 
z
" transform="scale(0.015625)"/>
       <path id="ArialMT-61" d="M 2588 409 
Q 2275 144 1986 34 
Q 1697 -75 1366 -75 
Q 819 -75 525 192 
Q 231 459 231 875 
Q 231 1119 342 1320 
Q 453 1522 633 1644 
Q 813 1766 1038 1828 
Q 1203 1872 1538 1913 
Q 2219 1994 2541 2106 
Q 2544 2222 2544 2253 
Q 2544 2597 2384 2738 
Q 2169 2928 1744 2928 
Q 1347 2928 1158 2789 
Q 969 2650 878 2297 
L 328 2372 
Q 403 2725 575 2942 
Q 747 3159 1072 3276 
Q 1397 3394 1825 3394 
Q 2250 3394 2515 3294 
Q 2781 3194 2906 3042 
Q 3031 2891 3081 2659 
Q 3109 2516 3109 2141 
L 3109 1391 
Q 3109 606 3145 398 
Q 3181 191 3288 0 
L 2700 0 
Q 2613 175 2588 409 
z
M 2541 1666 
Q 2234 1541 1622 1453 
Q 1275 1403 1131 1340 
Q 988 1278 909 1158 
Q 831 1038 831 891 
Q 831 666 1001 516 
Q 1172 366 1500 366 
Q 1825 366 2078 508 
Q 2331 650 2450 897 
Q 2541 1088 2541 1459 
L 2541 1666 
z
" transform="scale(0.015625)"/>
       <path id="ArialMT-70" d="M 422 -1272 
L 422 3319 
L 934 3319 
L 934 2888 
Q 1116 3141 1344 3267 
Q 1572 3394 1897 3394 
Q 2322 3394 2647 3175 
Q 2972 2956 3137 2557 
Q 3303 2159 3303 1684 
Q 3303 1175 3120 767 
Q 2938 359 2589 142 
Q 2241 -75 1856 -75 
Q 1575 -75 1351 44 
Q 1128 163 984 344 
L 984 -1272 
L 422 -1272 
z
M 931 1641 
Q 931 1000 1190 694 
Q 1450 388 1819 388 
Q 2194 388 2461 705 
Q 2728 1022 2728 1688 
Q 2728 2322 2467 2637 
Q 2206 2953 1844 2953 
Q 1484 2953 1207 2617 
Q 931 2281 931 1641 
z
" transform="scale(0.015625)"/>
       <path id="ArialMT-74" d="M 1650 503 
L 1731 6 
Q 1494 -44 1306 -44 
Q 1000 -44 831 53 
Q 663 150 594 308 
Q 525 466 525 972 
L 525 2881 
L 113 2881 
L 113 3319 
L 525 3319 
L 525 4141 
L 1084 4478 
L 1084 3319 
L 1650 3319 
L 1650 2881 
L 1084 2881 
L 1084 941 
Q 1084 700 1114 631 
Q 1144 563 1211 522 
Q 1278 481 1403 481 
Q 1497 481 1650 503 
z
" transform="scale(0.015625)"/>
       <path id="ArialMT-76" d="M 1344 0 
L 81 3319 
L 675 3319 
L 1388 1331 
Q 1503 1009 1600 663 
Q 1675 925 1809 1294 
L 2547 3319 
L 3125 3319 
L 1869 0 
L 1344 0 
z
" transform="scale(0.015625)"/>
       <path id="ArialMT-79" d="M 397 -1278 
L 334 -750 
Q 519 -800 656 -800 
Q 844 -800 956 -737 
Q 1069 -675 1141 -563 
Q 1194 -478 1313 -144 
Q 1328 -97 1363 -6 
L 103 3319 
L 709 3319 
L 1400 1397 
Q 1534 1031 1641 628 
Q 1738 1016 1872 1384 
L 2581 3319 
L 3144 3319 
L 1881 -56 
Q 1678 -603 1566 -809 
Q 1416 -1088 1222 -1217 
Q 1028 -1347 759 -1347 
Q 597 -1347 397 -1278 
z
" transform="scale(0.015625)"/>
       <path id="ArialMT-28" d="M 1497 -1347 
Q 1031 -759 709 28 
Q 388 816 388 1659 
Q 388 2403 628 3084 
Q 909 3875 1497 4659 
L 1900 4659 
Q 1522 4009 1400 3731 
Q 1209 3300 1100 2831 
Q 966 2247 966 1656 
Q 966 153 1900 -1347 
L 1497 -1347 
z
" transform="scale(0.015625)"/>
       <path id="ArialMT-68" d="M 422 0 
L 422 4581 
L 984 4581 
L 984 2938 
Q 1378 3394 1978 3394 
Q 2347 3394 2619 3248 
Q 2891 3103 3008 2847 
Q 3125 2591 3125 2103 
L 3125 0 
L 2563 0 
L 2563 2103 
Q 2563 2525 2380 2717 
Q 2197 2909 1863 2909 
Q 1613 2909 1392 2779 
Q 1172 2650 1078 2428 
Q 984 2206 984 1816 
L 984 0 
L 422 0 
z
" transform="scale(0.015625)"/>
       <path id="ArialMT-6f" d="M 213 1659 
Q 213 2581 725 3025 
Q 1153 3394 1769 3394 
Q 2453 3394 2887 2945 
Q 3322 2497 3322 1706 
Q 3322 1066 3130 698 
Q 2938 331 2570 128 
Q 2203 -75 1769 -75 
Q 1072 -75 642 372 
Q 213 819 213 1659 
z
M 791 1659 
Q 791 1022 1069 705 
Q 1347 388 1769 388 
Q 2188 388 2466 706 
Q 2744 1025 2744 1678 
Q 2744 2294 2464 2611 
Q 2184 2928 1769 2928 
Q 1347 2928 1069 2612 
Q 791 2297 791 1659 
z
" transform="scale(0.015625)"/>
       <path id="ArialMT-75" d="M 2597 0 
L 2597 488 
Q 2209 -75 1544 -75 
Q 1250 -75 995 37 
Q 741 150 617 320 
Q 494 491 444 738 
Q 409 903 409 1263 
L 409 3319 
L 972 3319 
L 972 1478 
Q 972 1038 1006 884 
Q 1059 663 1231 536 
Q 1403 409 1656 409 
Q 1909 409 2131 539 
Q 2353 669 2445 892 
Q 2538 1116 2538 1541 
L 2538 3319 
L 3100 3319 
L 3100 0 
L 2597 0 
z
" transform="scale(0.015625)"/>
       <path id="ArialMT-72" d="M 416 0 
L 416 3319 
L 922 3319 
L 922 2816 
Q 1116 3169 1280 3281 
Q 1444 3394 1641 3394 
Q 1925 3394 2219 3213 
L 2025 2691 
Q 1819 2813 1613 2813 
Q 1428 2813 1281 2702 
Q 1134 2591 1072 2394 
Q 978 2094 978 1738 
L 978 0 
L 416 0 
z
" transform="scale(0.015625)"/>
       <path id="ArialMT-73" d="M 197 991 
L 753 1078 
Q 800 744 1014 566 
Q 1228 388 1613 388 
Q 2000 388 2187 545 
Q 2375 703 2375 916 
Q 2375 1106 2209 1216 
Q 2094 1291 1634 1406 
Q 1016 1563 777 1677 
Q 538 1791 414 1992 
Q 291 2194 291 2438 
Q 291 2659 392 2848 
Q 494 3038 669 3163 
Q 800 3259 1026 3326 
Q 1253 3394 1513 3394 
Q 1903 3394 2198 3281 
Q 2494 3169 2634 2976 
Q 2775 2784 2828 2463 
L 2278 2388 
Q 2241 2644 2061 2787 
Q 1881 2931 1553 2931 
Q 1166 2931 1000 2803 
Q 834 2675 834 2503 
Q 834 2394 903 2306 
Q 972 2216 1119 2156 
Q 1203 2125 1616 2013 
Q 2213 1853 2448 1751 
Q 2684 1650 2818 1456 
Q 2953 1263 2953 975 
Q 2953 694 2789 445 
Q 2625 197 2315 61 
Q 2006 -75 1616 -75 
Q 969 -75 630 194 
Q 291 463 197 991 
z
" transform="scale(0.015625)"/>
       <path id="ArialMT-29" d="M 791 -1347 
L 388 -1347 
Q 1322 153 1322 1656 
Q 1322 2244 1188 2822 
Q 1081 3291 891 3722 
Q 769 4003 388 4659 
L 791 4659 
Q 1378 3875 1659 3084 
Q 1900 2403 1900 1659 
Q 1900 816 1576 28 
Q 1253 -759 791 -1347 
z
" transform="scale(0.015625)"/>
      </defs>
      <use xlink:href="#ArialMT-54"/>
      <use xlink:href="#ArialMT-69" x="57.333984"/>
      <use xlink:href="#ArialMT-6d" x="79.550781"/>
      <use xlink:href="#ArialMT-65" x="162.851562"/>
      <use xlink:href="#ArialMT-20" x="218.466797"/>
      <use xlink:href="#ArialMT-69" x="246.25"/>
      <use xlink:href="#ArialMT-6e" x="268.466797"/>
      <use xlink:href="#ArialMT-20" x="324.082031"/>
      <use xlink:href="#ArialMT-63" x="351.865234"/>
      <use xlink:href="#ArialMT-61" x="401.865234"/>
      <use xlink:href="#ArialMT-70" x="457.480469"/>
      <use xlink:href="#ArialMT-74" x="513.095703"/>
      <use xlink:href="#ArialMT-69" x="540.878906"/>
      <use xlink:href="#ArialMT-76" x="563.095703"/>
      <use xlink:href="#ArialMT-69" x="613.095703"/>
      <use xlink:href="#ArialMT-74" x="635.3125"/>
      <use xlink:href="#ArialMT-79" x="663.095703"/>
      <use xlink:href="#ArialMT-20" x="713.095703"/>
      <use xlink:href="#ArialMT-28" x="740.878906"/>
      <use xlink:href="#ArialMT-68" x="774.179688"/>
      <use xlink:href="#ArialMT-6f" x="829.794922"/>
      <use xlink:href="#ArialMT-75" x="885.410156"/>
      <use xlink:href="#ArialMT-72" x="941.025391"/>
      <use xlink:href="#ArialMT-73" x="974.326172"/>
      <use xlink:href="#ArialMT-29" x="1024.326172"/>
     </g>
    </g>
   </g>
   <g id="matplotlib.axis_2">
    <g id="ytick_1">
     <g id="line2d_7">
      <defs>
       <path id="m9fb9163ca8" d="M 0 0 
L -3.5 0 
" style="stroke: #000000; stroke-width: 0.8"/>
      </defs>
      <g>
       <use xlink:href="#m9fb9163ca8" x="38.70625" y="144.966486" style="stroke: #000000; stroke-width: 0.8"/>
      </g>
     </g>
     <g id="text_8">
      <!-- 0 -->
      <g transform="translate(26.145313 148.545392)scale(0.1 -0.1)">
       <use xlink:href="#ArialMT-30"/>
      </g>
     </g>
    </g>
    <g id="ytick_2">
     <g id="line2d_8">
      <g>
       <use xlink:href="#m9fb9163ca8" x="38.70625" y="125.856408" style="stroke: #000000; stroke-width: 0.8"/>
      </g>
     </g>
     <g id="text_9">
      <!-- 2 -->
      <g transform="translate(26.145313 129.435314)scale(0.1 -0.1)">
       <use xlink:href="#ArialMT-32"/>
      </g>
     </g>
    </g>
    <g id="ytick_3">
     <g id="line2d_9">
      <g>
       <use xlink:href="#m9fb9163ca8" x="38.70625" y="106.746329" style="stroke: #000000; stroke-width: 0.8"/>
      </g>
     </g>
     <g id="text_10">
      <!-- 4 -->
      <g transform="translate(26.145313 110.325235)scale(0.1 -0.1)">
       <defs>
        <path id="ArialMT-34" d="M 2069 0 
L 2069 1097 
L 81 1097 
L 81 1613 
L 2172 4581 
L 2631 4581 
L 2631 1613 
L 3250 1613 
L 3250 1097 
L 2631 1097 
L 2631 0 
L 2069 0 
z
M 2069 1613 
L 2069 3678 
L 634 1613 
L 2069 1613 
z
" transform="scale(0.015625)"/>
       </defs>
       <use xlink:href="#ArialMT-34"/>
      </g>
     </g>
    </g>
    <g id="ytick_4">
     <g id="line2d_10">
      <g>
       <use xlink:href="#m9fb9163ca8" x="38.70625" y="87.63625" style="stroke: #000000; stroke-width: 0.8"/>
      </g>
     </g>
     <g id="text_11">
      <!-- 6 -->
      <g transform="translate(26.145313 91.215157)scale(0.1 -0.1)">
       <defs>
        <path id="ArialMT-36" d="M 3184 3459 
L 2625 3416 
Q 2550 3747 2413 3897 
Q 2184 4138 1850 4138 
Q 1581 4138 1378 3988 
Q 1113 3794 959 3422 
Q 806 3050 800 2363 
Q 1003 2672 1297 2822 
Q 1591 2972 1913 2972 
Q 2475 2972 2870 2558 
Q 3266 2144 3266 1488 
Q 3266 1056 3080 686 
Q 2894 316 2569 119 
Q 2244 -78 1831 -78 
Q 1128 -78 684 439 
Q 241 956 241 2144 
Q 241 3472 731 4075 
Q 1159 4600 1884 4600 
Q 2425 4600 2770 4297 
Q 3116 3994 3184 3459 
z
M 888 1484 
Q 888 1194 1011 928 
Q 1134 663 1356 523 
Q 1578 384 1822 384 
Q 2178 384 2434 671 
Q 2691 959 2691 1453 
Q 2691 1928 2437 2201 
Q 2184 2475 1800 2475 
Q 1419 2475 1153 2201 
Q 888 1928 888 1484 
z
" transform="scale(0.015625)"/>
       </defs>
       <use xlink:href="#ArialMT-36"/>
      </g>
     </g>
    </g>
    <g id="ytick_5">
     <g id="line2d_11">
      <g>
       <use xlink:href="#m9fb9163ca8" x="38.70625" y="68.526172" style="stroke: #000000; stroke-width: 0.8"/>
      </g>
     </g>
     <g id="text_12">
      <!-- 8 -->
      <g transform="translate(26.145313 72.105078)scale(0.1 -0.1)">
       <defs>
        <path id="ArialMT-38" d="M 1131 2484 
Q 781 2613 612 2850 
Q 444 3088 444 3419 
Q 444 3919 803 4259 
Q 1163 4600 1759 4600 
Q 2359 4600 2725 4251 
Q 3091 3903 3091 3403 
Q 3091 3084 2923 2848 
Q 2756 2613 2416 2484 
Q 2838 2347 3058 2040 
Q 3278 1734 3278 1309 
Q 3278 722 2862 322 
Q 2447 -78 1769 -78 
Q 1091 -78 675 323 
Q 259 725 259 1325 
Q 259 1772 486 2073 
Q 713 2375 1131 2484 
z
M 1019 3438 
Q 1019 3113 1228 2906 
Q 1438 2700 1772 2700 
Q 2097 2700 2305 2904 
Q 2513 3109 2513 3406 
Q 2513 3716 2298 3927 
Q 2084 4138 1766 4138 
Q 1444 4138 1231 3931 
Q 1019 3725 1019 3438 
z
M 838 1322 
Q 838 1081 952 856 
Q 1066 631 1291 507 
Q 1516 384 1775 384 
Q 2178 384 2440 643 
Q 2703 903 2703 1303 
Q 2703 1709 2433 1975 
Q 2163 2241 1756 2241 
Q 1359 2241 1098 1978 
Q 838 1716 838 1322 
z
" transform="scale(0.015625)"/>
       </defs>
       <use xlink:href="#ArialMT-38"/>
      </g>
     </g>
    </g>
    <g id="ytick_6">
     <g id="line2d_12">
      <g>
       <use xlink:href="#m9fb9163ca8" x="38.70625" y="49.416093" style="stroke: #000000; stroke-width: 0.8"/>
      </g>
     </g>
     <g id="text_13">
      <!-- 10 -->
      <g transform="translate(20.584375 52.994999)scale(0.1 -0.1)">
       <use xlink:href="#ArialMT-31"/>
       <use xlink:href="#ArialMT-30" x="55.615234"/>
      </g>
     </g>
    </g>
    <g id="ytick_7">
     <g id="line2d_13">
      <g>
       <use xlink:href="#m9fb9163ca8" x="38.70625" y="30.306014" style="stroke: #000000; stroke-width: 0.8"/>
      </g>
     </g>
     <g id="text_14">
      <!-- 12 -->
      <g transform="translate(20.584375 33.884921)scale(0.1 -0.1)">
       <use xlink:href="#ArialMT-31"/>
       <use xlink:href="#ArialMT-32" x="55.615234"/>
      </g>
     </g>
    </g>
    <g id="ytick_8">
     <g id="line2d_14">
      <g>
       <use xlink:href="#m9fb9163ca8" x="38.70625" y="11.195936" style="stroke: #000000; stroke-width: 0.8"/>
      </g>
     </g>
     <g id="text_15">
      <!-- 14 -->
      <g transform="translate(20.584375 14.774842)scale(0.1 -0.1)">
       <use xlink:href="#ArialMT-31"/>
       <use xlink:href="#ArialMT-34" x="55.615234"/>
      </g>
     </g>
    </g>
    <g id="text_16">
     <!-- Median distance (m) -->
     <g transform="translate(14.479687 124.564188)rotate(-90)scale(0.1 -0.1)">
      <defs>
       <path id="ArialMT-4d" d="M 475 0 
L 475 4581 
L 1388 4581 
L 2472 1338 
Q 2622 884 2691 659 
Q 2769 909 2934 1394 
L 4031 4581 
L 4847 4581 
L 4847 0 
L 4263 0 
L 4263 3834 
L 2931 0 
L 2384 0 
L 1059 3900 
L 1059 0 
L 475 0 
z
" transform="scale(0.015625)"/>
       <path id="ArialMT-64" d="M 2575 0 
L 2575 419 
Q 2259 -75 1647 -75 
Q 1250 -75 917 144 
Q 584 363 401 755 
Q 219 1147 219 1656 
Q 219 2153 384 2558 
Q 550 2963 881 3178 
Q 1213 3394 1622 3394 
Q 1922 3394 2156 3267 
Q 2391 3141 2538 2938 
L 2538 4581 
L 3097 4581 
L 3097 0 
L 2575 0 
z
M 797 1656 
Q 797 1019 1065 703 
Q 1334 388 1700 388 
Q 2069 388 2326 689 
Q 2584 991 2584 1609 
Q 2584 2291 2321 2609 
Q 2059 2928 1675 2928 
Q 1300 2928 1048 2622 
Q 797 2316 797 1656 
z
" transform="scale(0.015625)"/>
      </defs>
      <use xlink:href="#ArialMT-4d"/>
      <use xlink:href="#ArialMT-65" x="83.300781"/>
      <use xlink:href="#ArialMT-64" x="138.916016"/>
      <use xlink:href="#ArialMT-69" x="194.53125"/>
      <use xlink:href="#ArialMT-61" x="216.748047"/>
      <use xlink:href="#ArialMT-6e" x="272.363281"/>
      <use xlink:href="#ArialMT-20" x="327.978516"/>
      <use xlink:href="#ArialMT-64" x="355.761719"/>
      <use xlink:href="#ArialMT-69" x="411.376953"/>
      <use xlink:href="#ArialMT-73" x="433.59375"/>
      <use xlink:href="#ArialMT-74" x="483.59375"/>
      <use xlink:href="#ArialMT-61" x="511.376953"/>
      <use xlink:href="#ArialMT-6e" x="566.992188"/>
      <use xlink:href="#ArialMT-63" x="622.607422"/>
      <use xlink:href="#ArialMT-65" x="672.607422"/>
      <use xlink:href="#ArialMT-20" x="728.222656"/>
      <use xlink:href="#ArialMT-28" x="756.005859"/>
      <use xlink:href="#ArialMT-6d" x="789.306641"/>
      <use xlink:href="#ArialMT-29" x="872.607422"/>
     </g>
    </g>
   </g>
   <g id="line2d_15">
    <defs>
     <path id="mf253386a37" d="M -3 3 
L 3 -3 
M -3 -3 
L 3 3 
" style="stroke: #000000"/>
    </defs>
    <g clip-path="url(#p819fc47af0)">
     <use xlink:href="#mf253386a37" x="48.344432" y="21.706479" style="stroke: #000000"/>
     <use xlink:href="#mf253386a37" x="86.897159" y="22.661983" style="stroke: #000000"/>
     <use xlink:href="#mf253386a37" x="125.449886" y="45.594077" style="stroke: #000000"/>
     <use xlink:href="#mf253386a37" x="164.002614" y="23.617487" style="stroke: #000000"/>
     <use xlink:href="#mf253386a37" x="202.555341" y="77.125707" style="stroke: #000000"/>
     <use xlink:href="#mf253386a37" x="241.108068" y="93.369274" style="stroke: #000000"/>
    </g>
   </g>
   <g id="line2d_16">
    <path d="M 48.344432 33.332081 
L 52.278384 33.425283 
L 56.212335 33.462535 
L 60.146287 33.480576 
L 64.080239 33.501645 
L 68.014191 33.526249 
L 71.948142 33.554978 
L 75.882094 33.588522 
L 79.816046 33.627683 
L 83.749998 33.675226 
L 87.683949 34.52588 
L 91.617901 35.489144 
L 95.551853 36.520658 
L 99.485805 36.88763 
L 103.419756 37.727747 
L 107.353708 38.836489 
L 111.28766 40.043961 
L 115.221612 41.272158 
L 119.155564 42.545787 
L 123.089515 43.892081 
L 127.023467 47.059447 
L 130.957419 50.727626 
L 134.891371 51.921605 
L 138.825322 53.566526 
L 142.759274 55.329806 
L 146.693226 57.153425 
L 150.627178 59.033477 
L 154.561129 60.965296 
L 158.495081 62.943506 
L 162.429033 64.962098 
L 166.362985 67.014531 
L 170.296936 69.093853 
L 174.230888 71.192844 
L 178.16484 73.30416 
L 182.098792 75.42049 
L 186.032744 77.889878 
L 189.966695 80.405193 
L 193.900647 82.900765 
L 197.834599 85.368944 
L 201.768551 87.80269 
L 205.702502 95.939997 
L 209.636454 107.534625 
L 213.570406 118.277217 
L 217.504358 127.861518 
L 221.438309 134.39687 
L 225.372261 138.591016 
L 229.306213 141.17886 
L 233.240165 142.737021 
L 237.174116 143.661426 
L 241.108068 144.205037 
" clip-path="url(#p819fc47af0)" style="fill: none; stroke: #444444; stroke-opacity: 0; stroke-width: 1.5; stroke-linecap: square"/>
   </g>
   <g id="line2d_17">
    <path d="M 48.344432 22.422864 
L 52.278384 22.656938 
L 56.212335 23.156523 
L 60.146287 23.708728 
L 64.080239 24.206328 
L 68.014191 24.611545 
L 71.948142 24.838118 
L 75.882094 25.115057 
L 79.816046 25.637517 
L 83.749998 26.200681 
L 87.683949 26.466899 
L 91.617901 26.83901 
L 95.551853 27.29899 
L 99.485805 27.707822 
L 103.419756 27.897002 
L 107.353708 28.286955 
L 111.28766 29.259655 
L 115.221612 29.548255 
L 119.155564 30.077824 
L 123.089515 30.078337 
L 127.023467 30.623812 
L 130.957419 31.133276 
L 134.891371 31.204195 
L 138.825322 31.331514 
L 142.759274 31.676879 
L 146.693226 32.546706 
L 150.627178 33.824582 
L 154.561129 35.259364 
L 158.495081 37.120203 
L 162.429033 38.960273 
L 166.362985 40.88491 
L 170.296936 42.334789 
L 174.230888 43.705436 
L 178.16484 45.261029 
L 182.098792 47.708849 
L 186.032744 50.456947 
L 189.966695 53.822209 
L 193.900647 57.716562 
L 197.834599 62.199504 
L 201.768551 73.184357 
L 205.702502 75.331806 
L 209.636454 77.677697 
L 213.570406 79.91538 
L 217.504358 82.096474 
L 221.438309 84.712548 
L 225.372261 86.891261 
L 229.306213 89.08971 
L 233.240165 91.617564 
L 237.174116 93.959834 
L 241.108068 96.800409 
" clip-path="url(#p819fc47af0)" style="fill: none; stroke-dasharray: 5.55,2.4; stroke-dashoffset: 0; stroke: #000000; stroke-opacity: 0; stroke-width: 1.5"/>
   </g>
   <g id="line2d_18">
    <path d="M 48.344432 13.752 
L 52.278384 13.800937 
L 56.212335 13.857004 
L 60.146287 13.921232 
L 64.080239 14.174027 
L 68.014191 14.298517 
L 71.948142 14.43997 
L 75.882094 14.60065 
L 79.816046 14.783115 
L 83.749998 14.990243 
L 87.683949 15.225272 
L 91.617901 15.48256 
L 95.551853 15.724826 
L 99.485805 15.995287 
L 103.419756 16.323457 
L 107.353708 16.793786 
L 111.28766 17.322347 
L 115.221612 17.915792 
L 119.155564 18.58138 
L 123.089515 19.32699 
L 127.023467 20.163213 
L 130.957419 21.130771 
L 134.891371 21.80481 
L 138.825322 21.853551 
L 142.759274 21.926407 
L 146.693226 22.216362 
L 150.627178 22.355874 
L 154.561129 22.566769 
L 158.495081 22.885105 
L 162.429033 23.364554 
L 166.362985 23.800148 
L 170.296936 24.11417 
L 174.230888 24.545813 
L 178.16484 25.102676 
L 182.098792 25.81935 
L 186.032744 26.738833 
L 189.966695 27.644802 
L 193.900647 27.906244 
L 197.834599 28.355931 
L 201.768551 29.042071 
L 205.702502 29.831068 
L 209.636454 30.02401 
L 213.570406 30.175426 
L 217.504358 30.31731 
L 221.438309 30.353568 
L 225.372261 30.390026 
L 229.306213 30.426684 
L 233.240165 30.463543 
L 237.174116 30.500603 
L 241.108068 30.537865 
" clip-path="url(#p819fc47af0)" style="fill: none; stroke: #444444; stroke-opacity: 0; stroke-width: 1.5; stroke-linecap: square"/>
   </g>
   <g id="line2d_19">
    <path d="M 48.344432 23.698026 
L 52.278384 23.805653 
L 56.212335 23.92534 
L 60.146287 24.058409 
L 64.080239 24.206323 
L 68.014191 24.370694 
L 71.948142 24.5533 
L 75.882094 24.756099 
L 79.816046 24.981241 
L 83.749998 25.23109 
L 87.683949 25.508235 
L 91.617901 25.815505 
L 95.551853 26.15599 
L 99.485805 26.533054 
L 103.419756 26.950347 
L 107.353708 27.411819 
L 111.28766 27.921732 
L 115.221612 28.484662 
L 119.155564 29.105501 
L 123.089515 29.789453 
L 127.023467 30.542024 
L 130.957419 31.368993 
L 134.891371 32.276388 
L 138.825322 33.27043 
L 142.759274 34.357478 
L 146.693226 35.54395 
L 150.627178 36.836221 
L 154.561129 38.240511 
L 158.495081 39.76274 
L 162.429033 41.408376 
L 166.362985 43.182249 
L 170.296936 45.08836 
L 174.230888 47.129673 
L 178.16484 49.307898 
L 182.098792 51.623281 
L 186.032744 54.074399 
L 189.966695 56.65799 
L 193.900647 59.3688 
L 197.834599 62.199497 
L 201.768551 65.140629 
L 205.702502 68.180659 
L 209.636454 71.306076 
L 213.570406 74.50158 
L 217.504358 77.750345 
L 221.438309 81.034353 
L 225.372261 84.334779 
L 229.306213 87.632417 
L 233.240165 90.908129 
L 237.174116 94.143279 
L 241.108068 97.320158 
" clip-path="url(#p819fc47af0)" style="fill: none; stroke-dasharray: 5.55,2.4; stroke-dashoffset: 0; stroke: #000000; stroke-width: 1.5"/>
   </g>
   <g id="line2d_20">
    <defs>
     <path id="m0f457f6a0f" d="M 0 3 
C 0.795609 3 1.55874 2.683901 2.12132 2.12132 
C 2.683901 1.55874 3 0.795609 3 0 
C 3 -0.795609 2.683901 -1.55874 2.12132 -2.12132 
C 1.55874 -2.683901 0.795609 -3 0 -3 
C -0.795609 -3 -1.55874 -2.683901 -2.12132 -2.12132 
C -2.683901 -1.55874 -3 -0.795609 -3 0 
C -3 0.795609 -2.683901 1.55874 -2.12132 2.12132 
C -1.55874 2.683901 -0.795609 3 0 3 
z
" style="stroke: #000000; stroke-opacity: 0.6; stroke-width: 1.5"/>
    </defs>
    <g clip-path="url(#p819fc47af0)">
     <use xlink:href="#m0f457f6a0f" x="48.344432" y="81.903227" style="fill-opacity: 0; stroke: #000000; stroke-opacity: 0.6; stroke-width: 1.5"/>
     <use xlink:href="#m0f457f6a0f" x="50.753977" y="81.903227" style="fill-opacity: 0; stroke: #000000; stroke-opacity: 0.6; stroke-width: 1.5"/>
     <use xlink:href="#m0f457f6a0f" x="67.620795" y="81.903227" style="fill-opacity: 0; stroke: #000000; stroke-opacity: 0.6; stroke-width: 1.5"/>
     <use xlink:href="#m0f457f6a0f" x="86.897159" y="82.858731" style="fill-opacity: 0; stroke: #000000; stroke-opacity: 0.6; stroke-width: 1.5"/>
     <use xlink:href="#m0f457f6a0f" x="125.449886" y="64.704156" style="fill-opacity: 0; stroke: #000000; stroke-opacity: 0.6; stroke-width: 1.5"/>
     <use xlink:href="#m0f457f6a0f" x="202.555341" y="134.455943" style="fill-opacity: 0; stroke: #000000; stroke-opacity: 0.6; stroke-width: 1.5"/>
    </g>
   </g>
   <g id="line2d_21">
    <path d="M 48.344432 81.897846 
L 52.278384 81.929896 
L 56.212335 81.975338 
L 60.146287 82.030237 
L 64.080239 82.09654 
L 68.014191 82.176585 
L 71.948142 82.273171 
L 75.882094 82.389649 
L 79.816046 82.530018 
L 83.749998 82.699032 
L 87.683949 82.911383 
L 91.617901 83.241862 
L 95.551853 83.650379 
L 99.485805 84.201301 
L 103.419756 84.880157 
L 107.353708 85.704701 
L 111.28766 86.756138 
L 115.221612 88.056175 
L 119.155564 89.646885 
L 123.089515 91.568563 
L 127.023467 93.854582 
L 130.957419 96.524708 
L 134.891371 99.577626 
L 138.825322 102.984196 
L 142.759274 106.683577 
L 146.693226 110.58436 
L 150.627178 114.571852 
L 154.561129 118.520772 
L 158.495081 122.310593 
L 162.429033 125.839677 
L 166.362985 129.034868 
L 170.296936 131.854961 
L 174.230888 134.288549 
L 178.16484 136.348113 
L 182.098792 138.06261 
L 186.032744 139.470358 
L 189.966695 140.613239 
L 193.900647 141.5326 
L 197.834599 142.266704 
L 201.768551 142.849426 
L 205.702502 143.309815 
L 209.636454 143.672205 
L 213.570406 143.956624 
L 217.504358 144.179336 
L 221.438309 144.353416 
L 225.372261 144.489291 
L 229.306213 144.595231 
L 233.240165 144.67776 
L 237.174116 144.742009 
L 241.108068 144.792 
" clip-path="url(#p819fc47af0)" style="fill: none; stroke: #444444; stroke-opacity: 0; stroke-width: 1.5; stroke-linecap: square"/>
   </g>
   <g id="line2d_22">
    <path d="M 48.344432 77.901181 
L 52.278384 77.922487 
L 56.212335 77.948533 
L 60.146287 77.980369 
L 64.080239 78.019275 
L 68.014191 78.066811 
L 71.948142 78.124872 
L 75.882094 78.195765 
L 79.816046 78.282289 
L 83.749998 78.387834 
L 87.683949 78.516502 
L 91.617901 78.673235 
L 95.551853 78.863973 
L 99.485805 79.086121 
L 103.419756 79.304425 
L 107.353708 79.572279 
L 111.28766 79.984213 
L 115.221612 80.48112 
L 119.155564 81.078739 
L 123.089515 81.794899 
L 127.023467 82.436652 
L 130.957419 83.505728 
L 134.891371 84.767668 
L 138.825322 86.229977 
L 142.759274 87.912812 
L 146.693226 89.862467 
L 150.627178 91.992481 
L 154.561129 94.382592 
L 158.495081 97.036849 
L 162.429033 99.916264 
L 166.362985 103.000113 
L 170.296936 106.244967 
L 174.230888 109.594857 
L 178.16484 112.980068 
L 182.098792 116.332462 
L 186.032744 119.637984 
L 189.966695 122.72988 
L 193.900647 125.619037 
L 197.834599 128.272406 
L 201.768551 130.670755 
L 205.702502 132.807613 
L 209.636454 134.687208 
L 213.570406 136.321936 
L 217.504358 137.729785 
L 221.438309 138.932009 
L 225.372261 139.951234 
L 229.306213 140.810023 
L 233.240165 141.529893 
L 237.174116 142.130701 
L 241.108068 142.630325 
" clip-path="url(#p819fc47af0)" style="fill: none; stroke-dasharray: 5.55,2.4; stroke-dashoffset: 0; stroke: #000000; stroke-opacity: 0; stroke-width: 1.5"/>
   </g>
   <g id="line2d_23">
    <path d="M 48.344432 69.173842 
L 52.278384 69.195561 
L 56.212335 69.222207 
L 60.146287 69.254894 
L 64.080239 69.294984 
L 68.014191 69.344142 
L 71.948142 69.404403 
L 75.882094 69.478253 
L 79.816046 69.568718 
L 83.749998 69.679481 
L 87.683949 69.815016 
L 91.617901 69.98074 
L 95.551853 70.183195 
L 99.485805 70.430251 
L 103.419756 70.622873 
L 107.353708 70.98682 
L 111.28766 71.428625 
L 115.221612 71.963659 
L 119.155564 72.670389 
L 123.089515 73.355854 
L 127.023467 73.726547 
L 130.957419 73.777462 
L 134.891371 73.777462 
L 138.825322 73.777462 
L 142.759274 73.777462 
L 146.693226 73.777462 
L 150.627178 73.777462 
L 154.561129 73.777462 
L 158.495081 73.777462 
L 162.429033 73.777462 
L 166.362985 73.777462 
L 170.296936 73.777462 
L 174.230888 73.777462 
L 178.16484 73.777462 
L 182.098792 73.777462 
L 186.032744 73.777462 
L 189.966695 73.777462 
L 193.900647 73.777462 
L 197.834599 73.777462 
L 201.768551 73.777462 
L 205.702502 73.777462 
L 209.636454 73.777462 
L 213.570406 73.777462 
L 217.504358 73.777462 
L 221.438309 73.777462 
L 225.372261 73.777462 
L 229.306213 73.777462 
L 233.240165 73.777462 
L 237.174116 73.777462 
L 241.108068 73.777462 
" clip-path="url(#p819fc47af0)" style="fill: none; stroke: #444444; stroke-opacity: 0; stroke-width: 1.5; stroke-linecap: square"/>
   </g>
   <g id="line2d_24">
    <path d="M 48.344432 77.863477 
L 52.278384 77.884772 
L 56.212335 77.910802 
L 60.146287 77.942616 
L 64.080239 77.981492 
L 68.014191 78.028986 
L 71.948142 78.086992 
L 75.882094 78.15781 
L 79.816046 78.244236 
L 83.749998 78.349652 
L 87.683949 78.478151 
L 91.617901 78.634665 
L 95.551853 78.825122 
L 99.485805 79.056617 
L 103.419756 79.337599 
L 107.353708 79.678071 
L 111.28766 80.08978 
L 115.221612 80.586397 
L 119.155564 81.183643 
L 123.089515 81.899326 
L 127.023467 82.753242 
L 130.957419 83.766867 
L 134.891371 84.962749 
L 138.825322 86.363546 
L 142.759274 87.990606 
L 146.693226 89.862092 
L 150.627178 91.990668 
L 154.561129 94.38093 
L 158.495081 97.02686 
L 162.429033 99.909747 
L 166.362985 102.997068 
L 170.296936 106.242814 
L 174.230888 109.589525 
L 178.16484 112.971986 
L 182.098792 116.322157 
L 186.032744 119.574553 
L 189.966695 122.671213 
L 193.900647 125.565476 
L 197.834599 128.224109 
L 201.768551 130.627708 
L 205.702502 132.769652 
L 209.636454 134.654052 
L 213.570406 136.293224 
L 217.504358 137.705106 
L 221.438309 138.910934 
L 225.372261 139.933337 
L 229.306213 140.794898 
L 233.240165 141.517162 
L 237.174116 142.120022 
L 241.108068 142.621392 
" clip-path="url(#p819fc47af0)" style="fill: none; stroke-dasharray: 5.55,2.4; stroke-dashoffset: 0; stroke: #000000; stroke-opacity: 0.6; stroke-width: 1.5"/>
   </g>
   <g id="patch_3">
    <path d="M 38.70625 151.344 
L 38.70625 7.2 
" style="fill: none; stroke: #000000; stroke-width: 0.8; stroke-linejoin: miter; stroke-linecap: square"/>
   </g>
   <g id="patch_4">
    <path d="M 250.74625 151.344 
L 250.74625 7.2 
" style="fill: none; stroke: #000000; stroke-width: 0.8; stroke-linejoin: miter; stroke-linecap: square"/>
   </g>
   <g id="patch_5">
    <path d="M 38.70625 151.344 
L 250.74625 151.344 
" style="fill: none; stroke: #000000; stroke-width: 0.8; stroke-linejoin: miter; stroke-linecap: square"/>
   </g>
   <g id="patch_6">
    <path d="M 38.70625 7.2 
L 250.74625 7.2 
" style="fill: none; stroke: #000000; stroke-width: 0.8; stroke-linejoin: miter; stroke-linecap: square"/>
   </g>
   <g id="legend_1">
    <g id="patch_7">
     <path d="M 45.70625 146.344 
L 161.615625 146.344 
Q 163.615625 146.344 163.615625 144.344 
L 163.615625 116.57525 
Q 163.615625 114.57525 161.615625 114.57525 
L 45.70625 114.57525 
Q 43.70625 114.57525 43.70625 116.57525 
L 43.70625 144.344 
Q 43.70625 146.344 45.70625 146.344 
z
" style="fill: #ffffff; opacity: 0.8; stroke: #cccccc; stroke-linejoin: miter"/>
    </g>
    <g id="line2d_25">
     <g>
      <use xlink:href="#mf253386a37" x="57.70625" y="122.354938" style="stroke: #000000"/>
     </g>
    </g>
    <g id="text_17">
     <!-- Ziegler et al. (12m) -->
     <g transform="translate(75.70625 125.854938)scale(0.1 -0.1)">
      <defs>
       <path id="ArialMT-5a" d="M 128 0 
L 128 563 
L 2475 3497 
Q 2725 3809 2950 4041 
L 394 4041 
L 394 4581 
L 3675 4581 
L 3675 4041 
L 1103 863 
L 825 541 
L 3750 541 
L 3750 0 
L 128 0 
z
" transform="scale(0.015625)"/>
       <path id="ArialMT-67" d="M 319 -275 
L 866 -356 
Q 900 -609 1056 -725 
Q 1266 -881 1628 -881 
Q 2019 -881 2231 -725 
Q 2444 -569 2519 -288 
Q 2563 -116 2559 434 
Q 2191 0 1641 0 
Q 956 0 581 494 
Q 206 988 206 1678 
Q 206 2153 378 2554 
Q 550 2956 876 3175 
Q 1203 3394 1644 3394 
Q 2231 3394 2613 2919 
L 2613 3319 
L 3131 3319 
L 3131 450 
Q 3131 -325 2973 -648 
Q 2816 -972 2473 -1159 
Q 2131 -1347 1631 -1347 
Q 1038 -1347 672 -1080 
Q 306 -813 319 -275 
z
M 784 1719 
Q 784 1066 1043 766 
Q 1303 466 1694 466 
Q 2081 466 2343 764 
Q 2606 1063 2606 1700 
Q 2606 2309 2336 2618 
Q 2066 2928 1684 2928 
Q 1309 2928 1046 2623 
Q 784 2319 784 1719 
z
" transform="scale(0.015625)"/>
       <path id="ArialMT-6c" d="M 409 0 
L 409 4581 
L 972 4581 
L 972 0 
L 409 0 
z
" transform="scale(0.015625)"/>
       <path id="ArialMT-2e" d="M 581 0 
L 581 641 
L 1222 641 
L 1222 0 
L 581 0 
z
" transform="scale(0.015625)"/>
      </defs>
      <use xlink:href="#ArialMT-5a"/>
      <use xlink:href="#ArialMT-69" x="61.083984"/>
      <use xlink:href="#ArialMT-65" x="83.300781"/>
      <use xlink:href="#ArialMT-67" x="138.916016"/>
      <use xlink:href="#ArialMT-6c" x="194.53125"/>
      <use xlink:href="#ArialMT-65" x="216.748047"/>
      <use xlink:href="#ArialMT-72" x="272.363281"/>
      <use xlink:href="#ArialMT-20" x="305.664062"/>
      <use xlink:href="#ArialMT-65" x="333.447266"/>
      <use xlink:href="#ArialMT-74" x="389.0625"/>
      <use xlink:href="#ArialMT-20" x="416.845703"/>
      <use xlink:href="#ArialMT-61" x="444.628906"/>
      <use xlink:href="#ArialMT-6c" x="500.244141"/>
      <use xlink:href="#ArialMT-2e" x="522.460938"/>
      <use xlink:href="#ArialMT-20" x="550.244141"/>
      <use xlink:href="#ArialMT-28" x="578.027344"/>
      <use xlink:href="#ArialMT-31" x="611.328125"/>
      <use xlink:href="#ArialMT-32" x="666.943359"/>
      <use xlink:href="#ArialMT-6d" x="722.558594"/>
      <use xlink:href="#ArialMT-29" x="805.859375"/>
     </g>
    </g>
    <g id="line2d_26">
     <g>
      <use xlink:href="#m0f457f6a0f" x="57.70625" y="136.739313" style="fill-opacity: 0; stroke: #000000; stroke-opacity: 0.6; stroke-width: 1.5"/>
     </g>
    </g>
    <g id="text_18">
     <!-- Cheng et al. (6m) -->
     <g transform="translate(75.70625 140.239313)scale(0.1 -0.1)">
      <defs>
       <path id="ArialMT-43" d="M 3763 1606 
L 4369 1453 
Q 4178 706 3683 314 
Q 3188 -78 2472 -78 
Q 1731 -78 1267 223 
Q 803 525 561 1097 
Q 319 1669 319 2325 
Q 319 3041 592 3573 
Q 866 4106 1370 4382 
Q 1875 4659 2481 4659 
Q 3169 4659 3637 4309 
Q 4106 3959 4291 3325 
L 3694 3184 
Q 3534 3684 3231 3912 
Q 2928 4141 2469 4141 
Q 1941 4141 1586 3887 
Q 1231 3634 1087 3207 
Q 944 2781 944 2328 
Q 944 1744 1114 1308 
Q 1284 872 1643 656 
Q 2003 441 2422 441 
Q 2931 441 3284 734 
Q 3638 1028 3763 1606 
z
" transform="scale(0.015625)"/>
      </defs>
      <use xlink:href="#ArialMT-43"/>
      <use xlink:href="#ArialMT-68" x="72.216797"/>
      <use xlink:href="#ArialMT-65" x="127.832031"/>
      <use xlink:href="#ArialMT-6e" x="183.447266"/>
      <use xlink:href="#ArialMT-67" x="239.0625"/>
      <use xlink:href="#ArialMT-20" x="294.677734"/>
      <use xlink:href="#ArialMT-65" x="322.460938"/>
      <use xlink:href="#ArialMT-74" x="378.076172"/>
      <use xlink:href="#ArialMT-20" x="405.859375"/>
      <use xlink:href="#ArialMT-61" x="433.642578"/>
      <use xlink:href="#ArialMT-6c" x="489.257812"/>
      <use xlink:href="#ArialMT-2e" x="511.474609"/>
      <use xlink:href="#ArialMT-20" x="539.257812"/>
      <use xlink:href="#ArialMT-28" x="567.041016"/>
      <use xlink:href="#ArialMT-36" x="600.341797"/>
      <use xlink:href="#ArialMT-6d" x="655.957031"/>
      <use xlink:href="#ArialMT-29" x="739.257812"/>
     </g>
    </g>
   </g>
  </g>
 </g>
 <defs>
  <clipPath id="p819fc47af0">
   <rect x="38.70625" y="7.2" width="212.04" height="144.144"/>
  </clipPath>
 </defs>
</svg>
