<?xml version="1.0" encoding="utf-8" standalone="no"?>
<!DOCTYPE svg PUBLIC "-//W3C//DTD SVG 1.1//EN"
  "http://www.w3.org/Graphics/SVG/1.1/DTD/svg11.dtd">
<svg xmlns:xlink="http://www.w3.org/1999/xlink" width="257.94625pt" height="188.073688pt" viewBox="0 0 257.94625 188.073688" xmlns="http://www.w3.org/2000/svg" version="1.1">
 <metadata>
  <rdf:RDF xmlns:dc="http://purl.org/dc/elements/1.1/" xmlns:cc="http://creativecommons.org/ns#" xmlns:rdf="http://www.w3.org/1999/02/22-rdf-syntax-ns#">
   <cc:Work>
    <dc:type rdf:resource="http://purl.org/dc/dcmitype/StillImage"/>
    <dc:date>2022-12-21T20:00:29.260405</dc:date>
    <dc:format>image/svg+xml</dc:format>
    <dc:creator>
     <cc:Agent>
      <dc:title>Matplotlib v3.5.1, https://matplotlib.org/</dc:title>
     </cc:Agent>
    </dc:creator>
   </cc:Work>
  </rdf:RDF>
 </metadata>
 <defs>
  <style type="text/css">*{stroke-linejoin: round; stroke-linecap: butt}</style>
 </defs>
 <g id="figure_1">
  <g id="patch_1">
   <path d="M 0 188.073688 
L 257.94625 188.073688 
L 257.94625 0 
L 0 0 
L 0 188.073688 
z
" style="fill: none"/>
  </g>
  <g id="axes_1">
   <g id="patch_2">
    <path d="M 38.70625 151.344 
L 250.74625 151.344 
L 250.74625 7.2 
L 38.70625 7.2 
L 38.70625 151.344 
z
" style="fill: none"/>
   </g>
   <g id="matplotlib.axis_1">
    <g id="xtick_1">
     <g id="line2d_1">
      <defs>
       <path id="maed47a498a" d="M 0 0 
L 0 3.5 
" style="stroke: #000000; stroke-width: 0.8"/>
      </defs>
      <g>
       <use xlink:href="#maed47a498a" x="48.151346" y="151.344" style="stroke: #000000; stroke-width: 0.8"/>
      </g>
     </g>
     <g id="text_1">
      <!-- 0 -->
      <g transform="translate(45.370878 165.501812)scale(0.1 -0.1)">
       <defs>
        <path id="ArialMT-30" d="M 266 2259 
Q 266 3072 433 3567 
Q 600 4063 929 4331 
Q 1259 4600 1759 4600 
Q 2128 4600 2406 4451 
Q 2684 4303 2865 4023 
Q 3047 3744 3150 3342 
Q 3253 2941 3253 2259 
Q 3253 1453 3087 958 
Q 2922 463 2592 192 
Q 2263 -78 1759 -78 
Q 1097 -78 719 397 
Q 266 969 266 2259 
z
M 844 2259 
Q 844 1131 1108 757 
Q 1372 384 1759 384 
Q 2147 384 2411 759 
Q 2675 1134 2675 2259 
Q 2675 3391 2411 3762 
Q 2147 4134 1753 4134 
Q 1366 4134 1134 3806 
Q 844 3388 844 2259 
z
" transform="scale(0.015625)"/>
       </defs>
       <use xlink:href="#ArialMT-30"/>
      </g>
     </g>
    </g>
    <g id="xtick_2">
     <g id="line2d_2">
      <g>
       <use xlink:href="#maed47a498a" x="80.332254" y="151.344" style="stroke: #000000; stroke-width: 0.8"/>
      </g>
     </g>
     <g id="text_2">
      <!-- 50 -->
      <g transform="translate(74.771316 165.501812)scale(0.1 -0.1)">
       <defs>
        <path id="ArialMT-35" d="M 266 1200 
L 856 1250 
Q 922 819 1161 601 
Q 1400 384 1738 384 
Q 2144 384 2425 690 
Q 2706 997 2706 1503 
Q 2706 1984 2436 2262 
Q 2166 2541 1728 2541 
Q 1456 2541 1237 2417 
Q 1019 2294 894 2097 
L 366 2166 
L 809 4519 
L 3088 4519 
L 3088 3981 
L 1259 3981 
L 1013 2750 
Q 1425 3038 1878 3038 
Q 2478 3038 2890 2622 
Q 3303 2206 3303 1553 
Q 3303 931 2941 478 
Q 2500 -78 1738 -78 
Q 1113 -78 717 272 
Q 322 622 266 1200 
z
" transform="scale(0.015625)"/>
       </defs>
       <use xlink:href="#ArialMT-35"/>
       <use xlink:href="#ArialMT-30" x="55.615234"/>
      </g>
     </g>
    </g>
    <g id="xtick_3">
     <g id="line2d_3">
      <g>
       <use xlink:href="#maed47a498a" x="112.513162" y="151.344" style="stroke: #000000; stroke-width: 0.8"/>
      </g>
     </g>
     <g id="text_3">
      <!-- 100 -->
      <g transform="translate(104.171755 165.501812)scale(0.1 -0.1)">
       <defs>
        <path id="ArialMT-31" d="M 2384 0 
L 1822 0 
L 1822 3584 
Q 1619 3391 1289 3197 
Q 959 3003 697 2906 
L 697 3450 
Q 1169 3672 1522 3987 
Q 1875 4303 2022 4600 
L 2384 4600 
L 2384 0 
z
" transform="scale(0.015625)"/>
       </defs>
       <use xlink:href="#ArialMT-31"/>
       <use xlink:href="#ArialMT-30" x="55.615234"/>
       <use xlink:href="#ArialMT-30" x="111.230469"/>
      </g>
     </g>
    </g>
    <g id="xtick_4">
     <g id="line2d_4">
      <g>
       <use xlink:href="#maed47a498a" x="144.694069" y="151.344" style="stroke: #000000; stroke-width: 0.8"/>
      </g>
     </g>
     <g id="text_4">
      <!-- 150 -->
      <g transform="translate(136.352663 165.501812)scale(0.1 -0.1)">
       <use xlink:href="#ArialMT-31"/>
       <use xlink:href="#ArialMT-35" x="55.615234"/>
       <use xlink:href="#ArialMT-30" x="111.230469"/>
      </g>
     </g>
    </g>
    <g id="xtick_5">
     <g id="line2d_5">
      <g>
       <use xlink:href="#maed47a498a" x="176.874977" y="151.344" style="stroke: #000000; stroke-width: 0.8"/>
      </g>
     </g>
     <g id="text_5">
      <!-- 200 -->
      <g transform="translate(168.53357 165.501812)scale(0.1 -0.1)">
       <defs>
        <path id="ArialMT-32" d="M 3222 541 
L 3222 0 
L 194 0 
Q 188 203 259 391 
Q 375 700 629 1000 
Q 884 1300 1366 1694 
Q 2113 2306 2375 2664 
Q 2638 3022 2638 3341 
Q 2638 3675 2398 3904 
Q 2159 4134 1775 4134 
Q 1369 4134 1125 3890 
Q 881 3647 878 3216 
L 300 3275 
Q 359 3922 746 4261 
Q 1134 4600 1788 4600 
Q 2447 4600 2831 4234 
Q 3216 3869 3216 3328 
Q 3216 3053 3103 2787 
Q 2991 2522 2730 2228 
Q 2469 1934 1863 1422 
Q 1356 997 1212 845 
Q 1069 694 975 541 
L 3222 541 
z
" transform="scale(0.015625)"/>
       </defs>
       <use xlink:href="#ArialMT-32"/>
       <use xlink:href="#ArialMT-30" x="55.615234"/>
       <use xlink:href="#ArialMT-30" x="111.230469"/>
      </g>
     </g>
    </g>
    <g id="xtick_6">
     <g id="line2d_6">
      <g>
       <use xlink:href="#maed47a498a" x="209.055884" y="151.344" style="stroke: #000000; stroke-width: 0.8"/>
      </g>
     </g>
     <g id="text_6">
      <!-- 250 -->
      <g transform="translate(200.714478 165.501812)scale(0.1 -0.1)">
       <use xlink:href="#ArialMT-32"/>
       <use xlink:href="#ArialMT-35" x="55.615234"/>
       <use xlink:href="#ArialMT-30" x="111.230469"/>
      </g>
     </g>
    </g>
    <g id="xtick_7">
     <g id="line2d_7">
      <g>
       <use xlink:href="#maed47a498a" x="241.236792" y="151.344" style="stroke: #000000; stroke-width: 0.8"/>
      </g>
     </g>
     <g id="text_7">
      <!-- 300 -->
      <g transform="translate(232.895386 165.501812)scale(0.1 -0.1)">
       <defs>
        <path id="ArialMT-33" d="M 269 1209 
L 831 1284 
Q 928 806 1161 595 
Q 1394 384 1728 384 
Q 2125 384 2398 659 
Q 2672 934 2672 1341 
Q 2672 1728 2419 1979 
Q 2166 2231 1775 2231 
Q 1616 2231 1378 2169 
L 1441 2663 
Q 1497 2656 1531 2656 
Q 1891 2656 2178 2843 
Q 2466 3031 2466 3422 
Q 2466 3731 2256 3934 
Q 2047 4138 1716 4138 
Q 1388 4138 1169 3931 
Q 950 3725 888 3313 
L 325 3413 
Q 428 3978 793 4289 
Q 1159 4600 1703 4600 
Q 2078 4600 2393 4439 
Q 2709 4278 2876 4000 
Q 3044 3722 3044 3409 
Q 3044 3113 2884 2869 
Q 2725 2625 2413 2481 
Q 2819 2388 3044 2092 
Q 3269 1797 3269 1353 
Q 3269 753 2831 336 
Q 2394 -81 1725 -81 
Q 1122 -81 723 278 
Q 325 638 269 1209 
z
" transform="scale(0.015625)"/>
       </defs>
       <use xlink:href="#ArialMT-33"/>
       <use xlink:href="#ArialMT-30" x="55.615234"/>
       <use xlink:href="#ArialMT-30" x="111.230469"/>
      </g>
     </g>
    </g>
    <g id="text_8">
     <!-- Time (s) -->
     <g transform="translate(126.584844 178.769)scale(0.1 -0.1)">
      <defs>
       <path id="ArialMT-54" d="M 1659 0 
L 1659 4041 
L 150 4041 
L 150 4581 
L 3781 4581 
L 3781 4041 
L 2266 4041 
L 2266 0 
L 1659 0 
z
" transform="scale(0.015625)"/>
       <path id="ArialMT-69" d="M 425 3934 
L 425 4581 
L 988 4581 
L 988 3934 
L 425 3934 
z
M 425 0 
L 425 3319 
L 988 3319 
L 988 0 
L 425 0 
z
" transform="scale(0.015625)"/>
       <path id="ArialMT-6d" d="M 422 0 
L 422 3319 
L 925 3319 
L 925 2853 
Q 1081 3097 1340 3245 
Q 1600 3394 1931 3394 
Q 2300 3394 2536 3241 
Q 2772 3088 2869 2813 
Q 3263 3394 3894 3394 
Q 4388 3394 4653 3120 
Q 4919 2847 4919 2278 
L 4919 0 
L 4359 0 
L 4359 2091 
Q 4359 2428 4304 2576 
Q 4250 2725 4106 2815 
Q 3963 2906 3769 2906 
Q 3419 2906 3187 2673 
Q 2956 2441 2956 1928 
L 2956 0 
L 2394 0 
L 2394 2156 
Q 2394 2531 2256 2718 
Q 2119 2906 1806 2906 
Q 1569 2906 1367 2781 
Q 1166 2656 1075 2415 
Q 984 2175 984 1722 
L 984 0 
L 422 0 
z
" transform="scale(0.015625)"/>
       <path id="ArialMT-65" d="M 2694 1069 
L 3275 997 
Q 3138 488 2766 206 
Q 2394 -75 1816 -75 
Q 1088 -75 661 373 
Q 234 822 234 1631 
Q 234 2469 665 2931 
Q 1097 3394 1784 3394 
Q 2450 3394 2872 2941 
Q 3294 2488 3294 1666 
Q 3294 1616 3291 1516 
L 816 1516 
Q 847 969 1125 678 
Q 1403 388 1819 388 
Q 2128 388 2347 550 
Q 2566 713 2694 1069 
z
M 847 1978 
L 2700 1978 
Q 2663 2397 2488 2606 
Q 2219 2931 1791 2931 
Q 1403 2931 1139 2672 
Q 875 2413 847 1978 
z
" transform="scale(0.015625)"/>
       <path id="ArialMT-20" transform="scale(0.015625)"/>
       <path id="ArialMT-28" d="M 1497 -1347 
Q 1031 -759 709 28 
Q 388 816 388 1659 
Q 388 2403 628 3084 
Q 909 3875 1497 4659 
L 1900 4659 
Q 1522 4009 1400 3731 
Q 1209 3300 1100 2831 
Q 966 2247 966 1656 
Q 966 153 1900 -1347 
L 1497 -1347 
z
" transform="scale(0.015625)"/>
       <path id="ArialMT-73" d="M 197 991 
L 753 1078 
Q 800 744 1014 566 
Q 1228 388 1613 388 
Q 2000 388 2187 545 
Q 2375 703 2375 916 
Q 2375 1106 2209 1216 
Q 2094 1291 1634 1406 
Q 1016 1563 777 1677 
Q 538 1791 414 1992 
Q 291 2194 291 2438 
Q 291 2659 392 2848 
Q 494 3038 669 3163 
Q 800 3259 1026 3326 
Q 1253 3394 1513 3394 
Q 1903 3394 2198 3281 
Q 2494 3169 2634 2976 
Q 2775 2784 2828 2463 
L 2278 2388 
Q 2241 2644 2061 2787 
Q 1881 2931 1553 2931 
Q 1166 2931 1000 2803 
Q 834 2675 834 2503 
Q 834 2394 903 2306 
Q 972 2216 1119 2156 
Q 1203 2125 1616 2013 
Q 2213 1853 2448 1751 
Q 2684 1650 2818 1456 
Q 2953 1263 2953 975 
Q 2953 694 2789 445 
Q 2625 197 2315 61 
Q 2006 -75 1616 -75 
Q 969 -75 630 194 
Q 291 463 197 991 
z
" transform="scale(0.015625)"/>
       <path id="ArialMT-29" d="M 791 -1347 
L 388 -1347 
Q 1322 153 1322 1656 
Q 1322 2244 1188 2822 
Q 1081 3291 891 3722 
Q 769 4003 388 4659 
L 791 4659 
Q 1378 3875 1659 3084 
Q 1900 2403 1900 1659 
Q 1900 816 1576 28 
Q 1253 -759 791 -1347 
z
" transform="scale(0.015625)"/>
      </defs>
      <use xlink:href="#ArialMT-54"/>
      <use xlink:href="#ArialMT-69" x="57.333984"/>
      <use xlink:href="#ArialMT-6d" x="79.550781"/>
      <use xlink:href="#ArialMT-65" x="162.851562"/>
      <use xlink:href="#ArialMT-20" x="218.466797"/>
      <use xlink:href="#ArialMT-28" x="246.25"/>
      <use xlink:href="#ArialMT-73" x="279.550781"/>
      <use xlink:href="#ArialMT-29" x="329.550781"/>
     </g>
    </g>
   </g>
   <g id="matplotlib.axis_2">
    <g id="ytick_1">
     <g id="line2d_8">
      <defs>
       <path id="mb76fff92cb" d="M 0 0 
L -3.5 0 
" style="stroke: #000000; stroke-width: 0.8"/>
      </defs>
      <g>
       <use xlink:href="#mb76fff92cb" x="38.70625" y="126.637634" style="stroke: #000000; stroke-width: 0.8"/>
      </g>
     </g>
     <g id="text_9">
      <!-- 0 -->
      <g transform="translate(26.145313 130.21654)scale(0.1 -0.1)">
       <use xlink:href="#ArialMT-30"/>
      </g>
     </g>
    </g>
    <g id="ytick_2">
     <g id="line2d_9">
      <g>
       <use xlink:href="#mb76fff92cb" x="38.70625" y="86.321336" style="stroke: #000000; stroke-width: 0.8"/>
      </g>
     </g>
     <g id="text_10">
      <!-- 5 -->
      <g transform="translate(26.145313 89.900242)scale(0.1 -0.1)">
       <use xlink:href="#ArialMT-35"/>
      </g>
     </g>
    </g>
    <g id="ytick_3">
     <g id="line2d_10">
      <g>
       <use xlink:href="#mb76fff92cb" x="38.70625" y="46.005038" style="stroke: #000000; stroke-width: 0.8"/>
      </g>
     </g>
     <g id="text_11">
      <!-- 10 -->
      <g transform="translate(20.584375 49.583945)scale(0.1 -0.1)">
       <use xlink:href="#ArialMT-31"/>
       <use xlink:href="#ArialMT-30" x="55.615234"/>
      </g>
     </g>
    </g>
    <g id="text_12">
     <!-- Median bump location (m) -->
     <g transform="translate(14.479687 137.070438)rotate(-90)scale(0.1 -0.1)">
      <defs>
       <path id="ArialMT-4d" d="M 475 0 
L 475 4581 
L 1388 4581 
L 2472 1338 
Q 2622 884 2691 659 
Q 2769 909 2934 1394 
L 4031 4581 
L 4847 4581 
L 4847 0 
L 4263 0 
L 4263 3834 
L 2931 0 
L 2384 0 
L 1059 3900 
L 1059 0 
L 475 0 
z
" transform="scale(0.015625)"/>
       <path id="ArialMT-64" d="M 2575 0 
L 2575 419 
Q 2259 -75 1647 -75 
Q 1250 -75 917 144 
Q 584 363 401 755 
Q 219 1147 219 1656 
Q 219 2153 384 2558 
Q 550 2963 881 3178 
Q 1213 3394 1622 3394 
Q 1922 3394 2156 3267 
Q 2391 3141 2538 2938 
L 2538 4581 
L 3097 4581 
L 3097 0 
L 2575 0 
z
M 797 1656 
Q 797 1019 1065 703 
Q 1334 388 1700 388 
Q 2069 388 2326 689 
Q 2584 991 2584 1609 
Q 2584 2291 2321 2609 
Q 2059 2928 1675 2928 
Q 1300 2928 1048 2622 
Q 797 2316 797 1656 
z
" transform="scale(0.015625)"/>
       <path id="ArialMT-61" d="M 2588 409 
Q 2275 144 1986 34 
Q 1697 -75 1366 -75 
Q 819 -75 525 192 
Q 231 459 231 875 
Q 231 1119 342 1320 
Q 453 1522 633 1644 
Q 813 1766 1038 1828 
Q 1203 1872 1538 1913 
Q 2219 1994 2541 2106 
Q 2544 2222 2544 2253 
Q 2544 2597 2384 2738 
Q 2169 2928 1744 2928 
Q 1347 2928 1158 2789 
Q 969 2650 878 2297 
L 328 2372 
Q 403 2725 575 2942 
Q 747 3159 1072 3276 
Q 1397 3394 1825 3394 
Q 2250 3394 2515 3294 
Q 2781 3194 2906 3042 
Q 3031 2891 3081 2659 
Q 3109 2516 3109 2141 
L 3109 1391 
Q 3109 606 3145 398 
Q 3181 191 3288 0 
L 2700 0 
Q 2613 175 2588 409 
z
M 2541 1666 
Q 2234 1541 1622 1453 
Q 1275 1403 1131 1340 
Q 988 1278 909 1158 
Q 831 1038 831 891 
Q 831 666 1001 516 
Q 1172 366 1500 366 
Q 1825 366 2078 508 
Q 2331 650 2450 897 
Q 2541 1088 2541 1459 
L 2541 1666 
z
" transform="scale(0.015625)"/>
       <path id="ArialMT-6e" d="M 422 0 
L 422 3319 
L 928 3319 
L 928 2847 
Q 1294 3394 1984 3394 
Q 2284 3394 2536 3286 
Q 2788 3178 2913 3003 
Q 3038 2828 3088 2588 
Q 3119 2431 3119 2041 
L 3119 0 
L 2556 0 
L 2556 2019 
Q 2556 2363 2490 2533 
Q 2425 2703 2258 2804 
Q 2091 2906 1866 2906 
Q 1506 2906 1245 2678 
Q 984 2450 984 1813 
L 984 0 
L 422 0 
z
" transform="scale(0.015625)"/>
       <path id="ArialMT-62" d="M 941 0 
L 419 0 
L 419 4581 
L 981 4581 
L 981 2947 
Q 1338 3394 1891 3394 
Q 2197 3394 2470 3270 
Q 2744 3147 2920 2923 
Q 3097 2700 3197 2384 
Q 3297 2069 3297 1709 
Q 3297 856 2875 390 
Q 2453 -75 1863 -75 
Q 1275 -75 941 416 
L 941 0 
z
M 934 1684 
Q 934 1088 1097 822 
Q 1363 388 1816 388 
Q 2184 388 2453 708 
Q 2722 1028 2722 1663 
Q 2722 2313 2464 2622 
Q 2206 2931 1841 2931 
Q 1472 2931 1203 2611 
Q 934 2291 934 1684 
z
" transform="scale(0.015625)"/>
       <path id="ArialMT-75" d="M 2597 0 
L 2597 488 
Q 2209 -75 1544 -75 
Q 1250 -75 995 37 
Q 741 150 617 320 
Q 494 491 444 738 
Q 409 903 409 1263 
L 409 3319 
L 972 3319 
L 972 1478 
Q 972 1038 1006 884 
Q 1059 663 1231 536 
Q 1403 409 1656 409 
Q 1909 409 2131 539 
Q 2353 669 2445 892 
Q 2538 1116 2538 1541 
L 2538 3319 
L 3100 3319 
L 3100 0 
L 2597 0 
z
" transform="scale(0.015625)"/>
       <path id="ArialMT-70" d="M 422 -1272 
L 422 3319 
L 934 3319 
L 934 2888 
Q 1116 3141 1344 3267 
Q 1572 3394 1897 3394 
Q 2322 3394 2647 3175 
Q 2972 2956 3137 2557 
Q 3303 2159 3303 1684 
Q 3303 1175 3120 767 
Q 2938 359 2589 142 
Q 2241 -75 1856 -75 
Q 1575 -75 1351 44 
Q 1128 163 984 344 
L 984 -1272 
L 422 -1272 
z
M 931 1641 
Q 931 1000 1190 694 
Q 1450 388 1819 388 
Q 2194 388 2461 705 
Q 2728 1022 2728 1688 
Q 2728 2322 2467 2637 
Q 2206 2953 1844 2953 
Q 1484 2953 1207 2617 
Q 931 2281 931 1641 
z
" transform="scale(0.015625)"/>
       <path id="ArialMT-6c" d="M 409 0 
L 409 4581 
L 972 4581 
L 972 0 
L 409 0 
z
" transform="scale(0.015625)"/>
       <path id="ArialMT-6f" d="M 213 1659 
Q 213 2581 725 3025 
Q 1153 3394 1769 3394 
Q 2453 3394 2887 2945 
Q 3322 2497 3322 1706 
Q 3322 1066 3130 698 
Q 2938 331 2570 128 
Q 2203 -75 1769 -75 
Q 1072 -75 642 372 
Q 213 819 213 1659 
z
M 791 1659 
Q 791 1022 1069 705 
Q 1347 388 1769 388 
Q 2188 388 2466 706 
Q 2744 1025 2744 1678 
Q 2744 2294 2464 2611 
Q 2184 2928 1769 2928 
Q 1347 2928 1069 2612 
Q 791 2297 791 1659 
z
" transform="scale(0.015625)"/>
       <path id="ArialMT-63" d="M 2588 1216 
L 3141 1144 
Q 3050 572 2676 248 
Q 2303 -75 1759 -75 
Q 1078 -75 664 370 
Q 250 816 250 1647 
Q 250 2184 428 2587 
Q 606 2991 970 3192 
Q 1334 3394 1763 3394 
Q 2303 3394 2647 3120 
Q 2991 2847 3088 2344 
L 2541 2259 
Q 2463 2594 2264 2762 
Q 2066 2931 1784 2931 
Q 1359 2931 1093 2626 
Q 828 2322 828 1663 
Q 828 994 1084 691 
Q 1341 388 1753 388 
Q 2084 388 2306 591 
Q 2528 794 2588 1216 
z
" transform="scale(0.015625)"/>
       <path id="ArialMT-74" d="M 1650 503 
L 1731 6 
Q 1494 -44 1306 -44 
Q 1000 -44 831 53 
Q 663 150 594 308 
Q 525 466 525 972 
L 525 2881 
L 113 2881 
L 113 3319 
L 525 3319 
L 525 4141 
L 1084 4478 
L 1084 3319 
L 1650 3319 
L 1650 2881 
L 1084 2881 
L 1084 941 
Q 1084 700 1114 631 
Q 1144 563 1211 522 
Q 1278 481 1403 481 
Q 1497 481 1650 503 
z
" transform="scale(0.015625)"/>
      </defs>
      <use xlink:href="#ArialMT-4d"/>
      <use xlink:href="#ArialMT-65" x="83.300781"/>
      <use xlink:href="#ArialMT-64" x="138.916016"/>
      <use xlink:href="#ArialMT-69" x="194.53125"/>
      <use xlink:href="#ArialMT-61" x="216.748047"/>
      <use xlink:href="#ArialMT-6e" x="272.363281"/>
      <use xlink:href="#ArialMT-20" x="327.978516"/>
      <use xlink:href="#ArialMT-62" x="355.761719"/>
      <use xlink:href="#ArialMT-75" x="411.376953"/>
      <use xlink:href="#ArialMT-6d" x="466.992188"/>
      <use xlink:href="#ArialMT-70" x="550.292969"/>
      <use xlink:href="#ArialMT-20" x="605.908203"/>
      <use xlink:href="#ArialMT-6c" x="633.691406"/>
      <use xlink:href="#ArialMT-6f" x="655.908203"/>
      <use xlink:href="#ArialMT-63" x="711.523438"/>
      <use xlink:href="#ArialMT-61" x="761.523438"/>
      <use xlink:href="#ArialMT-74" x="817.138672"/>
      <use xlink:href="#ArialMT-69" x="844.921875"/>
      <use xlink:href="#ArialMT-6f" x="867.138672"/>
      <use xlink:href="#ArialMT-6e" x="922.753906"/>
      <use xlink:href="#ArialMT-20" x="978.369141"/>
      <use xlink:href="#ArialMT-28" x="1006.152344"/>
      <use xlink:href="#ArialMT-6d" x="1039.453125"/>
      <use xlink:href="#ArialMT-29" x="1122.753906"/>
     </g>
    </g>
   </g>
   <g id="line2d_11">
    <path d="M 48.344432 13.752 
L 48.408794 13.752 
L 48.537517 13.981867 
L 48.601879 13.943096 
L 49.245497 14.263114 
L 49.502944 14.943412 
L 49.69603 14.709126 
L 49.760392 14.636687 
L 50.017839 15.388735 
L 50.082201 15.027286 
L 50.146563 15.162229 
L 50.661457 16.849612 
L 50.725819 16.831708 
L 50.918904 17.09993 
L 50.983266 17.128513 
L 51.047628 17.3634 
L 51.11199 17.131516 
L 51.176352 17.396506 
L 51.240713 17.229215 
L 51.305075 17.045722 
L 51.369437 17.197101 
L 51.498161 16.893301 
L 51.626884 17.500485 
L 51.755608 17.415154 
L 51.81997 17.365948 
L 52.013055 17.575847 
L 52.077417 17.42937 
L 52.141779 17.698453 
L 52.206141 17.589915 
L 52.270503 17.525154 
L 52.334864 17.612932 
L 52.463588 17.952405 
L 52.52795 17.731453 
L 52.592312 17.752167 
L 52.785397 18.724171 
L 52.849759 18.6466 
L 53.107206 19.275796 
L 53.171568 18.931453 
L 53.23593 19.151211 
L 53.364653 18.792592 
L 53.557739 19.763652 
L 53.750824 19.153094 
L 54.072633 20.13252 
L 54.136995 20.09992 
L 54.201357 19.819451 
L 54.265719 19.895412 
L 54.587528 19.729767 
L 54.65189 19.994966 
L 54.716252 19.88647 
L 54.780613 19.843818 
L 54.844975 20.085323 
L 54.909337 20.06447 
L 54.973699 19.943118 
L 55.038061 20.05368 
L 55.102422 19.988656 
L 55.166784 20.069856 
L 55.295508 20.353918 
L 55.35987 20.157946 
L 55.424231 20.276433 
L 55.488593 20.136645 
L 55.681679 20.292531 
L 55.874764 20.550651 
L 55.939126 20.43521 
L 56.06785 20.191469 
L 56.196573 20.336192 
L 56.389659 20.776463 
L 56.454021 20.811753 
L 56.518382 20.99628 
L 56.582744 20.793364 
L 56.647106 20.866833 
L 56.711468 20.887432 
L 57.033277 21.499046 
L 57.162 21.236078 
L 57.226362 21.330885 
L 57.290724 21.262385 
L 57.48381 21.094762 
L 57.612533 21.425717 
L 57.741257 20.968754 
L 57.934342 21.214747 
L 57.998704 20.972043 
L 58.256151 21.517082 
L 58.320513 21.537062 
L 58.384875 21.389384 
L 58.642322 22.076276 
L 58.771046 22.028364 
L 58.835408 21.939472 
L 59.028493 22.3483 
L 59.157217 21.961673 
L 59.221579 22.07139 
L 59.28594 21.95347 
L 59.350302 21.989355 
L 59.607749 22.176541 
L 59.672111 22.047045 
L 59.736473 22.155172 
L 59.99392 21.867677 
L 60.187006 22.460436 
L 60.315729 22.254861 
L 60.444453 22.529792 
L 60.508815 22.41257 
L 60.573177 22.575294 
L 60.637539 22.478534 
L 60.7019 22.345163 
L 60.766262 22.410126 
L 60.959348 22.501346 
L 61.152433 22.32655 
L 61.216795 22.401509 
L 61.281157 22.229272 
L 61.40988 22.493757 
L 61.474242 22.376489 
L 61.538604 22.480901 
L 61.731689 22.406308 
L 61.924775 22.742176 
L 62.053498 22.486103 
L 62.246584 22.919418 
L 62.310946 22.766433 
L 62.375308 22.689867 
L 62.504031 22.913473 
L 62.568393 22.716563 
L 62.632755 22.856349 
L 62.82584 22.699982 
L 62.890202 22.75686 
L 63.083287 23.296837 
L 63.276373 22.82251 
L 63.340735 22.930785 
L 63.405097 22.908631 
L 63.469458 23.04473 
L 63.53382 22.870575 
L 63.598182 23.239672 
L 63.662544 22.985318 
L 63.726906 23.184903 
L 63.791267 22.987037 
L 63.855629 23.287197 
L 63.919991 23.271342 
L 64.048715 23.359486 
L 64.306162 24.864753 
L 64.370524 24.786589 
L 64.499247 24.583051 
L 64.563609 24.853594 
L 64.627971 24.499393 
L 64.756695 25.373948 
L 64.821056 25.314428 
L 64.885418 25.477276 
L 64.94978 25.289514 
L 65.078504 25.772822 
L 65.142866 25.537683 
L 65.207227 26.33841 
L 65.271589 26.130007 
L 65.335951 25.827678 
L 65.400313 26.359437 
L 65.464675 26.002396 
L 65.529036 26.051349 
L 65.593398 26.44707 
L 65.65776 26.133891 
L 65.722122 26.412388 
L 65.915207 26.066978 
L 65.979569 26.121867 
L 66.043931 25.963454 
L 66.108293 26.025281 
L 66.237016 26.352791 
L 66.430102 26.087273 
L 66.494464 25.974511 
L 66.558826 26.148617 
L 66.623187 26.061902 
L 66.816273 26.384517 
L 66.880635 26.564599 
L 67.009358 26.281341 
L 67.07372 26.747311 
L 67.138082 26.466364 
L 67.331167 25.840563 
L 67.395529 25.878608 
L 67.652976 26.872352 
L 67.7817 26.809428 
L 67.974785 26.173602 
L 68.103509 26.456439 
L 68.232233 25.497871 
L 68.360956 26.121992 
L 68.425318 26.09235 
L 68.554042 25.677542 
L 68.618404 25.602444 
L 68.875851 26.219733 
L 68.940213 26.770975 
L 69.004574 26.726222 
L 69.133298 26.256097 
L 69.19766 26.527294 
L 69.326384 26.227744 
L 69.390745 26.325373 
L 69.519469 27.759656 
L 69.583831 27.656766 
L 69.712554 26.99832 
L 69.90564 28.155964 
L 70.034364 28.111491 
L 70.227449 27.273512 
L 70.291811 27.44575 
L 70.356173 27.966043 
L 70.420534 27.677413 
L 70.484896 27.458935 
L 70.549258 26.75259 
L 70.61362 27.193783 
L 70.742343 27.200899 
L 70.935429 28.029225 
L 70.999791 27.763641 
L 71.257238 29.493503 
L 71.385962 29.001375 
L 71.579047 29.412887 
L 71.643409 29.295291 
L 71.707771 29.405792 
L 71.772133 29.46278 
L 71.836494 29.07131 
L 71.900856 29.334127 
L 72.093942 29.793954 
L 72.158303 29.698212 
L 72.287027 29.818341 
L 72.351389 29.567853 
L 72.415751 29.637504 
L 72.930645 30.558225 
L 73.123731 29.974593 
L 73.252454 30.335597 
L 73.381178 29.974218 
L 73.44554 30.793501 
L 73.509902 30.247418 
L 73.574263 30.401074 
L 73.702987 29.881815 
L 73.767349 29.9633 
L 73.831711 29.9445 
L 73.896072 30.091991 
L 74.024796 29.944248 
L 74.15352 30.302977 
L 74.282243 29.691466 
L 74.410967 29.893866 
L 74.475329 29.726477 
L 74.539691 29.852638 
L 74.732776 29.668294 
L 74.925861 30.549349 
L 74.990223 30.240781 
L 75.054585 30.317427 
L 75.376394 30.558244 
L 75.505118 31.198347 
L 75.56948 31.21972 
L 75.762565 30.789781 
L 75.955651 32.405934 
L 76.020012 31.542277 
L 76.084374 31.753814 
L 76.148736 33.016386 
L 76.213098 32.139602 
L 76.27746 31.695083 
L 76.470545 32.977554 
L 76.534907 33.015175 
L 76.727992 32.588492 
L 76.98544 34.281327 
L 77.114163 34.483735 
L 77.178525 33.986192 
L 77.242887 34.170544 
L 77.37161 35.258992 
L 77.500334 34.555954 
L 77.564696 35.01543 
L 77.629058 34.692611 
L 77.757781 35.131541 
L 77.886505 34.607617 
L 78.015229 34.859978 
L 78.07959 34.678926 
L 78.208314 35.523776 
L 78.272676 35.491832 
L 78.337038 35.059554 
L 78.401399 35.349647 
L 78.465761 35.459552 
L 78.530123 34.927759 
L 78.594485 35.214301 
L 78.723209 35.869249 
L 78.851932 35.526211 
L 78.916294 35.848971 
L 79.109379 34.734151 
L 79.173741 35.389655 
L 79.238103 34.88508 
L 79.366827 35.400341 
L 79.431189 35.357083 
L 79.559912 35.982706 
L 79.624274 35.836064 
L 79.881721 36.188179 
L 79.946083 35.912971 
L 80.010445 36.240604 
L 80.074807 36.206118 
L 80.139169 36.152615 
L 80.20353 36.237223 
L 80.267892 36.205565 
L 80.332254 36.026595 
L 80.589701 36.825954 
L 80.654063 36.753774 
L 80.782787 36.51273 
L 81.040234 37.044887 
L 81.233319 36.754408 
L 81.362043 37.019575 
L 81.426405 37.216799 
L 81.61949 36.654421 
L 81.812576 36.81192 
L 81.876938 36.914126 
L 82.070023 36.404573 
L 82.134385 36.588949 
L 82.391832 37.40243 
L 82.456194 37.382515 
L 82.520556 37.212342 
L 82.584917 37.627553 
L 82.649279 37.46245 
L 82.713641 37.573984 
L 82.778003 37.507474 
L 82.842365 37.530406 
L 82.906727 37.365 
L 82.971088 37.836069 
L 83.03545 37.162998 
L 83.099812 37.326 
L 83.228536 38.019751 
L 83.292897 37.709101 
L 83.357259 37.724119 
L 83.550345 38.746078 
L 83.614707 38.666453 
L 83.679068 38.713442 
L 83.74343 38.438694 
L 83.807792 38.906702 
L 83.872154 38.684746 
L 83.936516 38.43359 
L 84.129601 39.274875 
L 84.193963 39.167913 
L 84.387048 39.598276 
L 84.515772 39.197634 
L 84.580134 38.959431 
L 84.644496 39.538885 
L 84.708857 39.468392 
L 84.773219 39.657566 
L 84.837581 39.495463 
L 84.966305 39.936659 
L 85.095028 39.314374 
L 85.15939 39.384959 
L 85.223752 40.011869 
L 85.288114 39.831125 
L 85.352476 39.585288 
L 85.416837 39.728478 
L 85.481199 39.63088 
L 85.545561 39.771865 
L 85.609923 39.526992 
L 85.674285 39.872119 
L 85.738646 39.660348 
L 85.931732 38.61034 
L 86.060455 39.486223 
L 86.124817 39.579912 
L 86.189179 39.479983 
L 86.253541 39.566818 
L 86.317903 39.443906 
L 86.510988 40.012271 
L 86.57535 40.117273 
L 86.704074 39.316428 
L 87.025883 40.637495 
L 87.154606 40.868358 
L 87.218968 41.453713 
L 87.28333 40.846084 
L 87.347692 41.029747 
L 87.669501 42.326852 
L 87.733863 42.272211 
L 87.798225 42.314277 
L 87.862586 42.633503 
L 87.926948 42.543991 
L 88.055672 42.563015 
L 88.120034 42.067388 
L 88.184395 42.344605 
L 88.248757 42.828915 
L 88.313119 42.744412 
L 88.377481 42.612686 
L 88.570566 43.211297 
L 88.69929 42.514559 
L 88.763652 42.587451 
L 88.828014 42.50804 
L 89.021099 42.257038 
L 89.085461 41.565714 
L 89.149823 41.602649 
L 89.664717 42.683083 
L 89.729079 42.492591 
L 89.793441 42.310916 
L 89.857803 42.935932 
L 89.922164 42.81205 
L 90.050888 42.875762 
L 90.11525 42.405159 
L 90.179612 42.53975 
L 90.243973 42.523834 
L 90.308335 42.345953 
L 90.372697 42.475502 
L 90.565783 43.320213 
L 90.694506 42.6638 
L 90.758868 42.680412 
L 90.82323 42.516203 
L 90.887592 42.57273 
L 91.080677 43.725518 
L 91.209401 43.656312 
L 91.273763 43.668549 
L 91.402486 43.0061 
L 91.53121 43.850865 
L 91.659933 43.139137 
L 91.724295 43.432999 
L 91.788657 43.293948 
L 91.981742 44.213853 
L 92.046104 43.657643 
L 92.174828 44.633712 
L 92.23919 44.603257 
L 92.303552 44.787024 
L 92.367913 44.402203 
L 92.432275 44.665989 
L 92.496637 45.062622 
L 92.560999 44.821916 
L 92.689722 45.021462 
L 92.754084 44.980093 
L 92.818446 45.479314 
L 92.94717 44.988852 
L 93.397702 46.196795 
L 93.462064 46.129928 
L 93.65515 45.382365 
L 93.783873 45.983594 
L 93.848235 45.831854 
L 93.912597 46.021101 
L 93.976959 45.87405 
L 94.041321 45.719108 
L 94.105682 45.833263 
L 94.427491 45.715782 
L 94.620577 46.001253 
L 94.749301 46.386507 
L 94.878024 47.276306 
L 95.07111 46.419652 
L 95.135471 46.746341 
L 95.199833 46.71985 
L 95.264195 46.076722 
L 95.328557 46.40808 
L 95.521642 45.954929 
L 95.586004 46.174024 
L 95.650366 46.060482 
L 95.714728 45.849516 
L 95.77909 45.973251 
L 95.907813 46.135342 
L 96.100899 46.636978 
L 96.16526 46.114069 
L 96.229622 46.282276 
L 96.358346 46.273549 
L 96.422708 45.991278 
L 96.48707 46.035967 
L 96.680155 46.17155 
L 96.744517 46.328084 
L 96.937602 47.216385 
L 97.001964 46.905774 
L 97.066326 47.177189 
L 97.130688 46.927502 
L 97.19505 47.646016 
L 97.259411 46.561553 
L 97.323773 46.644789 
L 97.516859 48.120082 
L 97.709944 46.261318 
L 97.774306 46.387285 
L 97.903029 46.462793 
L 97.967391 47.449008 
L 98.031753 46.755497 
L 98.096115 46.604118 
L 98.160477 47.105107 
L 98.353562 46.15587 
L 98.417924 46.250234 
L 98.482286 46.791147 
L 98.546648 46.636893 
L 99.061542 48.565383 
L 99.318989 46.50199 
L 99.576437 47.846208 
L 99.640798 47.764478 
L 99.769522 47.335353 
L 99.833884 48.623636 
L 99.898246 48.116031 
L 99.962608 48.816927 
L 100.026969 48.687885 
L 100.284417 49.310582 
L 100.348778 48.344146 
L 100.41314 48.384409 
L 100.477502 48.423108 
L 100.606226 48.748072 
L 100.734949 48.575081 
L 100.799311 48.842403 
L 100.863673 48.247346 
L 100.928035 48.588808 
L 101.056758 49.69974 
L 101.185482 49.15182 
L 101.442929 49.62833 
L 101.700377 50.742912 
L 101.8291 50.291954 
L 101.893462 50.360634 
L 102.022186 50.701995 
L 102.150909 50.183426 
L 102.215271 50.496505 
L 102.343995 51.847092 
L 102.601442 50.599166 
L 102.794527 51.386393 
L 102.987613 50.712701 
L 103.116337 51.021699 
L 103.24506 51.861898 
L 103.309422 51.821552 
L 103.438146 52.272687 
L 103.502507 52.05011 
L 103.566869 51.925481 
L 103.824316 50.299442 
L 103.95304 51.044205 
L 104.017402 50.77377 
L 104.081764 49.8347 
L 104.146126 50.189937 
L 104.274849 51.005613 
L 104.339211 50.977081 
L 104.467935 51.775077 
L 104.596658 51.695569 
L 104.66102 51.02285 
L 104.725382 51.140657 
L 104.854106 50.967902 
L 104.918467 51.089632 
L 105.111553 49.951783 
L 105.240276 51.532199 
L 105.304638 51.386107 
L 105.433362 51.178971 
L 105.497724 51.487372 
L 105.562085 51.374208 
L 105.626447 51.376684 
L 105.819533 52.228589 
L 106.012618 52.70948 
L 106.205704 52.360787 
L 106.270065 52.237351 
L 106.334427 52.354556 
L 106.527513 52.086804 
L 106.656236 52.458821 
L 106.78496 53.126277 
L 106.913684 52.851511 
L 106.978045 53.10126 
L 107.042407 53.01648 
L 107.106769 52.990793 
L 107.171131 52.81997 
L 107.364216 53.193657 
L 107.428578 53.235965 
L 107.621664 53.77155 
L 107.686025 53.550752 
L 107.814749 54.576498 
L 107.943473 53.94577 
L 108.007834 54.217578 
L 108.136558 53.662938 
L 108.20092 53.75641 
L 108.265282 53.685762 
L 108.329644 53.069017 
L 108.394005 53.203888 
L 108.587091 53.65023 
L 108.651453 53.434754 
L 108.715814 53.858464 
L 108.780176 53.727397 
L 108.844538 53.374607 
L 109.230709 55.073723 
L 109.359433 54.888709 
L 109.423794 55.127252 
L 109.488156 54.769529 
L 109.61688 55.579789 
L 109.681242 55.379064 
L 110.003051 56.067629 
L 110.067413 56.244374 
L 110.131774 56.154641 
L 110.196136 56.983229 
L 110.260498 56.881273 
L 110.32486 56.365548 
L 110.389222 56.516014 
L 110.517945 57.422194 
L 110.582307 57.090073 
L 110.775393 58.669856 
L 110.839754 58.961522 
L 110.968478 58.447461 
L 111.097202 58.967208 
L 111.161563 58.489372 
L 111.225925 58.626515 
L 111.354649 60.210191 
L 111.419011 60.077141 
L 111.612096 58.943723 
L 111.74082 59.518234 
L 111.805182 59.219618 
L 111.869543 59.421298 
L 111.998267 59.557108 
L 112.062629 59.536828 
L 112.255714 60.484794 
L 112.320076 59.322789 
L 112.384438 59.990773 
L 112.4488 60.077763 
L 112.513162 59.839943 
L 112.577523 60.355815 
L 112.641885 60.166875 
L 112.706247 59.990864 
L 112.770609 60.684247 
L 112.834971 60.611138 
L 113.092418 61.153342 
L 113.15678 61.064157 
L 113.221141 61.153073 
L 113.285503 61.407742 
L 113.542951 60.532693 
L 113.607312 60.650011 
L 113.736036 61.228749 
L 113.800398 61.199659 
L 113.86476 61.155456 
L 114.057845 60.697029 
L 114.122207 61.080122 
L 114.250931 59.963259 
L 114.315292 60.513667 
L 114.379654 60.251322 
L 114.444016 60.199369 
L 114.765825 61.469972 
L 114.894549 61.52989 
L 114.95891 61.195196 
L 115.023272 61.569898 
L 115.087634 61.447889 
L 115.151996 61.291104 
L 115.28072 61.659544 
L 115.345081 61.612521 
L 115.409443 61.63291 
L 115.602529 61.959648 
L 115.795614 61.574847 
L 116.181785 62.349365 
L 116.246147 61.916314 
L 116.310509 61.931982 
L 116.37487 61.996808 
L 116.632318 61.452857 
L 116.69668 61.587109 
L 116.761041 62.124575 
L 116.825403 62.02589 
L 116.889765 61.878925 
L 116.954127 62.179778 
L 117.018489 62.007729 
L 117.08285 61.764115 
L 117.147212 62.002649 
L 117.211574 61.97387 
L 117.275936 61.783642 
L 117.340298 62.351913 
L 117.404659 61.950299 
L 117.533383 61.649332 
L 117.726469 62.673735 
L 117.79083 62.137348 
L 117.855192 62.1607 
L 117.983916 62.535103 
L 118.048278 63.097812 
L 118.112639 62.726382 
L 118.305725 62.004582 
L 118.370087 62.205723 
L 118.434449 62.10783 
L 118.627534 62.516572 
L 118.756258 63.102131 
L 118.884981 64.288788 
L 119.013705 62.635314 
L 119.142428 63.219912 
L 119.335514 64.823987 
L 119.399876 64.38293 
L 119.464238 64.420413 
L 119.850408 65.236795 
L 119.979132 64.355638 
L 120.236579 66.480454 
L 120.300941 66.1777 
L 120.365303 66.224619 
L 120.429665 66.930972 
L 120.62275 65.246127 
L 120.687112 65.3085 
L 120.751474 65.606418 
L 120.815836 65.452142 
L 120.880197 65.209514 
L 120.944559 65.405948 
L 121.073283 66.758573 
L 121.202007 65.394219 
L 121.33073 66.869833 
L 121.395092 66.640437 
L 121.588177 67.52362 
L 121.716901 66.466219 
L 121.845625 66.813729 
L 121.974348 67.625061 
L 122.03871 67.347179 
L 122.103072 66.982783 
L 122.167434 67.209162 
L 122.231796 67.352899 
L 122.296157 66.500318 
L 122.360519 67.539323 
L 122.424881 66.723515 
L 122.489243 67.313279 
L 122.553605 67.167447 
L 122.74669 65.853689 
L 122.811052 66.016735 
L 123.004137 67.785772 
L 123.068499 67.256208 
L 123.261585 68.683417 
L 123.325946 68.317755 
L 123.390308 68.392818 
L 123.647756 67.585679 
L 123.712117 66.743831 
L 123.776479 67.161638 
L 123.840841 67.791845 
L 123.905203 67.509895 
L 123.969565 67.659645 
L 124.033926 68.136444 
L 124.16265 67.778731 
L 124.355736 68.398796 
L 124.420097 68.161765 
L 124.548821 68.538318 
L 124.741906 67.88941 
L 124.999354 68.755512 
L 125.063715 68.660383 
L 125.128077 68.37248 
L 125.192439 68.556554 
L 125.256801 68.430588 
L 125.321163 68.497811 
L 125.385525 68.664746 
L 125.514248 68.175748 
L 125.57861 68.229553 
L 125.707334 69.073992 
L 125.900419 68.758618 
L 125.964781 69.181864 
L 126.029143 68.872118 
L 126.157866 69.150356 
L 126.28659 68.468386 
L 126.350952 68.905854 
L 126.415314 69.125604 
L 126.479675 69.006294 
L 126.672761 69.475455 
L 126.801484 69.186509 
L 126.865846 69.163609 
L 126.99457 68.599779 
L 127.058932 69.001536 
L 127.123294 68.769828 
L 127.187655 68.727945 
L 127.252017 68.480866 
L 127.380741 69.121196 
L 127.445103 68.770462 
L 127.573826 69.591679 
L 127.638188 69.34156 
L 127.70255 69.60388 
L 127.766912 69.394298 
L 127.959997 70.867069 
L 128.024359 70.954591 
L 128.088721 70.855011 
L 128.153083 70.730456 
L 128.217444 71.004895 
L 128.41053 70.008624 
L 128.539253 71.28258 
L 128.603615 70.90971 
L 128.732339 71.572881 
L 128.796701 71.495279 
L 129.182872 69.935771 
L 129.375957 70.932022 
L 129.633404 69.558336 
L 129.697766 70.013955 
L 129.82649 69.331246 
L 129.890852 69.552622 
L 129.955213 69.448623 
L 130.019575 69.294967 
L 130.083937 69.408989 
L 130.148299 69.446826 
L 130.277022 69.101591 
L 130.470108 69.699267 
L 130.53447 69.611155 
L 130.791917 68.631648 
L 130.856279 68.986411 
L 130.920641 68.887635 
L 131.113726 68.748054 
L 131.24245 69.144972 
L 131.306812 68.956613 
L 131.499897 69.174735 
L 131.628621 69.093026 
L 131.692982 69.211598 
L 131.821706 70.530025 
L 132.014792 69.042827 
L 132.143515 70.216351 
L 132.336601 69.362696 
L 132.400962 69.344993 
L 132.529686 68.996714 
L 132.787133 69.418897 
L 132.851495 69.128884 
L 132.915857 69.511965 
L 132.980219 69.280505 
L 133.044581 69.167958 
L 133.108942 68.763433 
L 133.173304 68.998965 
L 133.36639 69.468984 
L 133.430751 69.234826 
L 133.495113 69.403901 
L 133.559475 69.62128 
L 133.623837 69.502465 
L 133.688199 69.516917 
L 133.752561 69.16777 
L 133.945646 70.041446 
L 134.010008 70.416013 
L 134.07437 70.115532 
L 134.138731 70.480679 
L 134.203093 70.147086 
L 134.267455 70.285106 
L 134.331817 70.313148 
L 134.524902 69.401796 
L 134.589264 69.570787 
L 134.717988 69.479719 
L 134.78235 69.55655 
L 134.846711 69.381647 
L 135.104159 70.949087 
L 135.297244 71.902914 
L 135.361606 71.849895 
L 135.49033 70.963999 
L 135.554691 70.99516 
L 135.683415 71.450466 
L 135.747777 71.209197 
L 136.005224 72.797248 
L 136.069586 72.297253 
L 136.133948 72.311283 
L 136.262671 73.553326 
L 136.327033 73.162389 
L 136.391395 72.896611 
L 136.455757 72.928553 
L 136.58448 73.527108 
L 136.648842 73.247445 
L 136.777566 72.646232 
L 136.841928 73.00242 
L 137.035013 74.29283 
L 137.099375 73.945337 
L 137.163737 73.957603 
L 137.421184 74.450874 
L 137.485546 74.401877 
L 137.678631 73.71723 
L 137.742993 73.60623 
L 138.064802 74.976738 
L 138.129164 74.92288 
L 138.193526 74.640437 
L 138.257888 74.748941 
L 138.322249 75.314275 
L 138.386611 74.925205 
L 138.450973 74.618388 
L 138.515335 74.7324 
L 138.579697 74.924417 
L 138.644058 74.527747 
L 138.70842 74.779941 
L 138.837144 75.997641 
L 138.901506 76.027069 
L 138.965868 76.524303 
L 139.030229 75.866218 
L 139.094591 76.326185 
L 139.352038 74.421198 
L 139.4164 74.601172 
L 139.673848 75.146448 
L 139.738209 75.995649 
L 139.802571 75.676396 
L 139.931295 74.796136 
L 140.060018 75.571563 
L 140.317466 74.857069 
L 140.510551 75.550056 
L 140.574913 74.956205 
L 140.639275 75.130665 
L 140.83236 76.54891 
L 140.896722 76.088083 
L 141.411617 77.34986 
L 141.475978 77.017512 
L 141.54034 77.274765 
L 141.604702 76.981727 
L 141.797787 77.68828 
L 142.055235 77.756401 
L 142.312682 78.98487 
L 142.377044 78.455337 
L 142.505767 78.972811 
L 142.698853 77.938536 
L 142.763215 77.617205 
L 142.827576 77.674418 
L 142.9563 78.435298 
L 143.020662 77.689314 
L 143.085024 77.985099 
L 143.278109 77.792147 
L 143.406833 78.114787 
L 143.471195 77.821153 
L 143.793004 78.858313 
L 143.857365 78.545044 
L 144.050451 80.099796 
L 144.243536 78.920383 
L 144.565345 80.755136 
L 144.629707 80.677443 
L 144.694069 80.28901 
L 144.887155 81.463359 
L 145.015878 80.459973 
L 145.08024 81.131721 
L 145.144602 80.774061 
L 145.208964 80.787943 
L 145.273325 81.275643 
L 145.337687 81.046982 
L 145.402049 80.640646 
L 145.466411 80.697047 
L 145.595135 81.411865 
L 145.916944 80.440969 
L 146.045667 80.628032 
L 146.238753 81.598568 
L 146.303114 81.8193 
L 146.367476 81.269468 
L 146.431838 81.623169 
L 146.4962 81.553764 
L 146.689285 82.370026 
L 146.882371 81.443047 
L 147.139818 82.494962 
L 147.20418 82.649165 
L 147.332904 82.237479 
L 147.397265 81.132923 
L 147.461627 81.342137 
L 147.525989 82.230521 
L 147.590351 81.854345 
L 147.654713 81.263682 
L 147.719074 81.453621 
L 147.91216 82.004933 
L 147.976522 81.353546 
L 148.040883 81.659841 
L 148.169607 81.010411 
L 148.233969 81.252821 
L 148.298331 81.275764 
L 148.362693 81.120618 
L 148.555778 81.810891 
L 148.62014 81.572434 
L 148.813225 83.521474 
L 148.877587 83.507721 
L 149.070673 83.723484 
L 149.135034 83.690369 
L 149.199396 83.223454 
L 149.263758 83.412696 
L 149.32812 83.902598 
L 149.392482 83.674776 
L 149.521205 82.808832 
L 149.585567 82.905167 
L 149.714291 83.265724 
L 149.843014 82.56761 
L 149.907376 82.80952 
L 149.971738 83.84538 
L 150.0361 83.712495 
L 150.229185 83.159793 
L 150.293547 83.311535 
L 150.486632 82.56883 
L 150.679718 83.462878 
L 150.74408 83.599697 
L 150.808442 83.509724 
L 150.872803 83.509782 
L 151.001527 83.80703 
L 151.065889 83.431833 
L 151.130251 83.554205 
L 151.258974 84.034854 
L 151.323336 83.773051 
L 151.645145 84.935587 
L 151.709507 84.88663 
L 151.838231 84.272438 
L 151.902592 84.484306 
L 151.966954 84.714934 
L 152.031316 84.616048 
L 152.224401 84.191069 
L 152.739296 86.007566 
L 152.803658 85.801008 
L 152.932381 85.2815 
L 152.996743 85.832231 
L 153.061105 85.344359 
L 153.254191 86.591894 
L 153.318552 86.570674 
L 153.447276 86.434327 
L 153.511638 87.005049 
L 153.704723 85.383832 
L 153.769085 85.081941 
L 153.833447 85.381685 
L 153.897809 85.140105 
L 153.96217 85.560571 
L 154.026532 85.069441 
L 154.090894 85.340648 
L 154.155256 85.275002 
L 154.219618 86.166262 
L 154.28398 85.835882 
L 154.348341 85.945221 
L 154.412703 86.378076 
L 154.477065 86.20017 
L 154.541427 85.736175 
L 154.734512 86.729022 
L 154.798874 86.423783 
L 154.927598 86.850599 
L 154.99196 86.827739 
L 155.056321 86.988369 
L 155.249407 86.616564 
L 155.313769 86.925924 
L 155.37813 86.201577 
L 155.506854 87.219781 
L 155.699939 87.245824 
L 155.893025 88.272058 
L 155.957387 88.13281 
L 156.021749 87.680042 
L 156.08611 87.999947 
L 156.536643 87.015244 
L 156.665367 87.581593 
L 156.79409 86.865729 
L 156.858452 87.02675 
L 156.922814 87.321299 
L 157.115899 86.194243 
L 157.308985 87.143256 
L 157.50207 87.631537 
L 157.566432 87.78376 
L 157.695156 87.164422 
L 157.823879 87.8139 
L 157.888241 87.466305 
L 157.952603 87.75334 
L 158.081327 87.360731 
L 158.21005 88.144576 
L 158.274412 88.04428 
L 158.338774 88.429213 
L 158.403136 88.016409 
L 158.596221 88.889194 
L 158.724945 87.881363 
L 158.789307 88.003128 
L 158.853668 87.50877 
L 158.91803 88.35301 
L 158.982392 88.250804 
L 159.046754 88.038915 
L 159.175478 88.769197 
L 159.239839 88.639951 
L 159.432925 89.606372 
L 159.497287 89.488498 
L 159.690372 88.828689 
L 159.819096 87.884269 
L 159.947819 88.263 
L 160.012181 87.764109 
L 160.076543 87.896077 
L 160.205267 87.707546 
L 160.398352 88.924823 
L 160.462714 88.546706 
L 160.527076 89.345413 
L 160.591437 88.776367 
L 160.655799 88.845264 
L 160.720161 87.907634 
L 160.848885 88.974016 
L 160.977608 88.019592 
L 161.04197 88.132715 
L 161.106332 88.014109 
L 161.235056 88.314316 
L 161.428141 89.120702 
L 161.492503 88.986881 
L 161.621226 87.93024 
L 161.685588 88.441146 
L 161.74995 88.416021 
L 161.878674 87.895353 
L 162.393568 89.898493 
L 162.586654 90.175543 
L 162.715377 88.974578 
L 162.779739 88.993891 
L 162.844101 89.642067 
L 162.908463 89.629793 
L 162.972825 89.485438 
L 163.037186 89.527779 
L 163.294634 90.081816 
L 163.358995 89.996565 
L 163.487719 90.299464 
L 163.552081 90.263789 
L 163.616443 90.240982 
L 163.680805 89.884772 
L 163.745166 90.144763 
L 163.938252 90.583661 
L 164.002614 90.326801 
L 164.066975 90.348992 
L 164.195699 90.864443 
L 164.260061 90.664384 
L 164.324423 90.033724 
L 164.388785 90.323793 
L 164.453146 90.430647 
L 164.58187 90.166371 
L 164.710594 90.734699 
L 164.774955 90.578836 
L 164.839317 91.816731 
L 164.903679 91.351774 
L 165.096764 90.122345 
L 165.161126 90.741441 
L 165.225488 90.396326 
L 165.28985 90.087256 
L 165.418574 90.99617 
L 165.547297 92.4811 
L 165.611659 91.702233 
L 165.676021 91.891002 
L 165.869106 92.586148 
L 165.933468 92.022264 
L 166.062192 93.522003 
L 166.126554 93.293971 
L 166.255277 92.371608 
L 166.319639 92.902268 
L 166.384001 92.594285 
L 166.448363 92.646448 
L 166.577086 93.111713 
L 166.641448 92.996948 
L 166.70581 92.634876 
L 166.770172 92.709124 
L 166.834534 92.583312 
L 166.963257 93.071559 
L 167.156343 92.831915 
L 167.220704 93.018536 
L 167.478152 91.051298 
L 167.542513 91.212481 
L 167.606875 90.856125 
L 167.671237 91.04786 
L 167.864323 90.854481 
L 167.993046 90.912056 
L 168.057408 90.599777 
L 168.12177 90.69778 
L 168.186132 90.530706 
L 168.250493 90.66889 
L 168.379217 90.178767 
L 168.507941 90.274956 
L 168.572303 90.224075 
L 168.701026 90.674641 
L 168.765388 90.330175 
L 168.82975 90.457289 
L 169.151559 90.023082 
L 169.409006 90.841206 
L 169.473368 90.968796 
L 169.53773 90.84717 
L 169.602092 91.563225 
L 169.666453 91.458223 
L 169.795177 90.429057 
L 169.859539 90.812355 
L 169.923901 91.572593 
L 169.988262 91.521641 
L 170.052624 91.044631 
L 170.181348 91.729505 
L 170.24571 91.357434 
L 170.310072 91.828063 
L 170.374433 91.540319 
L 170.438795 91.261202 
L 170.503157 91.382018 
L 170.567519 91.644673 
L 170.631881 92.701414 
L 170.696242 92.376757 
L 170.824966 92.40914 
L 170.889328 92.106875 
L 171.018051 92.65823 
L 171.082413 92.39581 
L 171.146775 92.518353 
L 171.211137 92.930867 
L 171.275499 92.884503 
L 171.404222 92.580803 
L 171.468584 92.826925 
L 171.790393 91.884804 
L 171.919117 92.763946 
L 171.983479 92.724807 
L 172.112202 92.603227 
L 172.36965 93.321028 
L 172.434011 93.070055 
L 172.498373 93.244854 
L 172.627097 92.719516 
L 172.691459 92.946794 
L 172.75582 92.963337 
L 172.820182 93.103742 
L 172.884544 93.02146 
L 172.948906 92.728322 
L 173.07763 93.284902 
L 173.141991 93.213832 
L 173.528162 95.384503 
L 173.592524 95.148621 
L 173.656886 95.358739 
L 173.721248 94.946785 
L 173.849971 96.159955 
L 173.914333 95.046253 
L 173.978695 95.251264 
L 174.107419 96.755107 
L 174.300504 95.677815 
L 174.364866 96.29894 
L 174.557951 94.648664 
L 174.622313 94.947401 
L 174.686675 94.874037 
L 174.751037 94.59572 
L 174.815399 94.871992 
L 174.87976 94.385864 
L 175.137208 95.872475 
L 175.265931 96.930319 
L 175.330293 97.92741 
L 175.394655 97.765065 
L 175.58774 97.308566 
L 175.716464 98.313074 
L 175.909549 96.794584 
L 176.038273 97.926134 
L 176.102635 97.631694 
L 176.166997 97.829831 
L 176.360082 98.581306 
L 176.424444 97.487493 
L 176.488806 97.642053 
L 176.617529 98.001443 
L 176.810615 98.649492 
L 176.874977 98.158133 
L 177.068062 99.556572 
L 177.132424 99.9631 
L 177.261148 99.081485 
L 177.325509 99.5354 
L 177.389871 98.970751 
L 177.454233 99.190081 
L 177.518595 99.205203 
L 177.647318 100.130674 
L 177.840404 99.487018 
L 177.904766 99.459735 
L 177.969128 99.681086 
L 178.033489 100.355039 
L 178.097851 100.142032 
L 178.162213 99.912162 
L 178.226575 100.089169 
L 178.355298 100.220781 
L 178.41966 100.156941 
L 178.677107 100.515153 
L 178.805831 100.025431 
L 178.870193 100.515702 
L 178.934555 100.197956 
L 179.063278 99.683997 
L 179.12764 99.913131 
L 179.256364 100.852581 
L 179.320726 100.463874 
L 179.385087 100.502169 
L 179.449449 101.08482 
L 179.513811 100.718767 
L 179.83562 100.066037 
L 179.899982 100.388941 
L 180.028706 99.664787 
L 180.221791 100.353593 
L 180.350515 99.941838 
L 180.414876 100.415288 
L 180.479238 100.363708 
L 180.5436 100.529172 
L 180.672324 101.897283 
L 180.736686 101.7357 
L 180.801047 101.137694 
L 180.865409 101.539733 
L 180.929771 101.378991 
L 180.994133 101.411433 
L 181.058495 100.647324 
L 181.122856 101.016671 
L 181.380304 102.840046 
L 181.444666 101.9822 
L 181.509027 102.329873 
L 181.573389 102.758475 
L 181.830836 100.560935 
L 181.895198 100.878109 
L 181.95956 100.985403 
L 182.023922 100.7658 
L 182.217007 102.10052 
L 182.345731 101.365553 
L 182.410093 101.481992 
L 182.474455 101.873385 
L 182.538816 101.840819 
L 182.603178 101.166217 
L 182.66754 101.208597 
L 182.860625 102.314261 
L 182.924987 102.232166 
L 182.989349 101.736948 
L 183.182435 102.87313 
L 183.246796 102.463696 
L 183.439882 103.535656 
L 183.761691 103.183858 
L 183.954776 103.710282 
L 184.019138 104.386513 
L 184.147862 103.357186 
L 184.276585 103.741184 
L 184.340947 103.573347 
L 184.405309 103.931356 
L 184.469671 103.599934 
L 184.534033 103.812301 
L 184.598394 103.925899 
L 184.662756 104.274644 
L 184.727118 104.033607 
L 184.920204 103.471115 
L 184.984565 103.714492 
L 185.048927 103.920101 
L 185.242013 103.343894 
L 185.49946 104.744152 
L 185.563822 104.774813 
L 185.628184 104.623113 
L 186.143078 107.629624 
L 186.20744 107.60952 
L 186.271802 107.320666 
L 186.464887 108.485193 
L 186.722334 107.153806 
L 186.786696 107.092977 
L 186.851058 106.536858 
L 186.979782 107.328108 
L 187.172867 106.163159 
L 187.365953 106.590239 
L 187.559038 108.259922 
L 187.687762 108.357533 
L 187.752123 108.561759 
L 187.816485 108.442866 
L 187.945209 108.479142 
L 188.073933 108.366178 
L 188.138294 107.895634 
L 188.202656 108.168656 
L 188.33138 107.617015 
L 188.395742 108.01246 
L 188.524465 107.073575 
L 188.588827 108.500664 
L 188.653189 108.286788 
L 188.717551 108.42888 
L 188.910636 107.680204 
L 189.03936 107.905285 
L 189.103722 107.64438 
L 189.168083 108.344212 
L 189.232445 108.281508 
L 189.296807 108.341013 
L 189.489892 106.866931 
L 189.554254 107.019591 
L 189.682978 108.509445 
L 189.74734 108.251204 
L 189.876063 108.007966 
L 190.004787 108.522459 
L 190.133511 108.45361 
L 190.197872 107.517343 
L 190.390958 109.115686 
L 190.45532 109.21113 
L 190.584043 108.87803 
L 190.648405 109.068938 
L 190.777129 108.407613 
L 190.905852 107.866062 
L 190.970214 108.129536 
L 191.1633 108.29081 
L 191.227661 107.828635 
L 191.292023 108.120412 
L 191.485109 108.378838 
L 191.549471 108.87914 
L 191.613832 108.595508 
L 191.806918 107.729068 
L 191.87128 107.767732 
L 192.064365 109.014013 
L 192.193089 108.837253 
L 192.25745 108.834556 
L 192.450536 109.067602 
L 192.643621 108.84959 
L 192.707983 109.409178 
L 192.772345 109.106038 
L 192.836707 109.389652 
L 192.901069 109.103276 
L 192.96543 109.230327 
L 193.029792 109.469466 
L 193.094154 109.227815 
L 193.158516 109.249159 
L 193.222878 109.385741 
L 193.415963 111.365555 
L 193.544687 111.2549 
L 193.737772 112.0326 
L 193.930858 111.187775 
L 194.123943 110.848127 
L 194.252667 111.151697 
L 194.317029 110.947437 
L 194.510114 109.669798 
L 194.574476 110.206317 
L 194.767561 109.512452 
L 194.831923 109.400794 
L 194.960647 109.627116 
L 195.025009 109.394472 
L 195.153732 109.967129 
L 195.218094 109.688327 
L 195.282456 109.885548 
L 195.346818 110.483728 
L 195.475541 109.850638 
L 195.539903 109.998068 
L 195.604265 110.765052 
L 195.668627 110.48408 
L 195.732989 109.921471 
L 196.054798 111.82758 
L 196.183521 112.356556 
L 196.312245 112.231952 
L 196.50533 111.296023 
L 196.827139 113.69725 
L 196.891501 113.218528 
L 196.955863 113.455888 
L 197.020225 113.501527 
L 197.148948 114.666544 
L 197.21331 114.409358 
L 197.277672 114.446346 
L 197.342034 115.886858 
L 197.406396 115.62149 
L 197.535119 114.739821 
L 197.92129 116.238606 
L 197.985652 116.136475 
L 198.050014 115.821143 
L 198.307461 116.852311 
L 198.371823 116.950299 
L 198.436185 117.837507 
L 198.500547 117.698226 
L 198.693632 116.187998 
L 198.757994 116.357696 
L 198.822356 116.834962 
L 198.886717 116.646586 
L 199.079803 116.162061 
L 199.401612 116.749689 
L 199.465974 116.0686 
L 199.530336 116.774568 
L 199.594697 116.591559 
L 199.659059 116.709397 
L 199.723421 117.11722 
L 199.787783 115.780831 
L 199.852145 116.465988 
L 199.916506 116.231443 
L 199.980868 116.264492 
L 200.173954 116.866955 
L 200.302677 115.546088 
L 200.367039 115.686798 
L 200.431401 116.181041 
L 200.495763 116.020646 
L 200.560125 115.896312 
L 200.624486 115.996933 
L 200.688848 116.009573 
L 200.75321 116.296291 
L 200.817572 116.087675 
L 201.075019 115.720394 
L 201.203743 115.754903 
L 201.332466 115.490864 
L 201.589914 116.352773 
L 201.654275 116.158276 
L 201.718637 116.210225 
L 201.782999 116.201852 
L 201.847361 115.849258 
L 201.911723 115.947473 
L 201.976085 115.816037 
L 202.104808 116.175366 
L 202.16917 115.845702 
L 202.233532 115.903749 
L 202.297894 116.213485 
L 202.426617 115.739416 
L 202.748426 116.242011 
L 202.812788 115.702445 
L 202.87715 116.254665 
L 202.941512 116.132968 
L 203.005874 116.205514 
L 203.134597 116.722642 
L 203.327683 116.129627 
L 203.392045 116.233176 
L 203.649492 116.021629 
L 203.778215 116.264303 
L 203.971301 115.848538 
L 204.100024 116.12302 
L 204.164386 116.039101 
L 204.228748 116.409584 
L 204.29311 116.319597 
L 204.357472 116.213081 
L 204.486195 117.239859 
L 204.550557 116.964041 
L 204.679281 118.511474 
L 204.743643 118.191365 
L 204.872366 116.858352 
L 205.258537 119.05729 
L 205.322899 119.154991 
L 205.580346 118.096604 
L 205.644708 118.309924 
L 205.773432 119.035586 
L 205.837793 118.800579 
L 205.966517 119.496285 
L 206.030879 119.42077 
L 206.159603 119.28285 
L 206.223964 119.291017 
L 206.481412 119.785561 
L 206.545773 119.131157 
L 206.610135 119.358089 
L 206.738859 119.217103 
L 206.931944 117.756386 
L 206.996306 117.751353 
L 207.060668 118.070768 
L 207.253753 116.482844 
L 207.318115 116.789881 
L 207.382477 116.993576 
L 207.639924 118.765729 
L 207.704286 119.045719 
L 207.83301 117.140103 
L 207.897372 117.955918 
L 207.961733 117.744764 
L 208.090457 117.487925 
L 208.154819 116.93677 
L 208.219181 117.10892 
L 208.412266 118.389782 
L 208.476628 118.237901 
L 208.54099 117.532004 
L 208.605352 117.787874 
L 208.669713 118.412006 
L 208.734075 117.904451 
L 208.927161 119.402526 
L 208.991522 119.482626 
L 209.055884 120.411029 
L 209.120246 119.812746 
L 209.184608 119.783391 
L 209.24897 119.545622 
L 209.313331 119.621689 
L 209.506417 119.948909 
L 209.763864 119.288365 
L 209.828226 119.571401 
L 209.892588 119.547547 
L 210.085673 119.104949 
L 210.278759 120.696711 
L 210.343121 120.253931 
L 210.407482 120.556952 
L 210.66493 121.867351 
L 210.793653 122.173992 
L 210.858015 122.153076 
L 210.986739 121.413414 
L 211.051101 121.857651 
L 211.308548 123.0991 
L 211.437271 122.887418 
L 211.630357 122.56867 
L 211.694719 122.818489 
L 211.75908 122.540316 
L 211.823442 122.710498 
L 211.952166 123.660206 
L 212.016528 123.64629 
L 212.145251 122.141503 
L 212.209613 122.153264 
L 212.273975 122.155875 
L 212.338337 122.014021 
L 212.531422 124.262786 
L 212.595784 123.834037 
L 212.660146 123.90454 
L 212.78887 123.983846 
L 212.981955 122.351761 
L 213.046317 122.415141 
L 213.239402 122.247843 
L 213.303764 122.50837 
L 213.496849 123.761055 
L 213.561211 123.377605 
L 213.625573 123.449314 
L 213.947382 124.320894 
L 214.076106 124.923421 
L 214.204829 124.216513 
L 214.269191 124.410872 
L 214.333553 124.733856 
L 214.397915 124.438963 
L 214.462277 124.807236 
L 214.591 124.184323 
L 214.784086 125.244544 
L 214.848448 124.974756 
L 214.977171 124.954872 
L 215.041533 125.531421 
L 215.105895 125.449582 
L 215.234618 125.136148 
L 215.363342 126.028882 
L 215.427704 125.89509 
L 215.492066 125.308811 
L 215.556428 125.663575 
L 215.620789 126.119647 
L 215.749513 125.551133 
L 215.813875 125.879626 
L 215.878237 125.785646 
L 216.00696 125.899645 
L 216.135684 125.165572 
L 216.200046 125.21137 
L 216.264408 125.117867 
L 216.328769 124.703784 
L 216.393131 124.896459 
L 216.650578 125.515016 
L 216.71494 125.572335 
L 216.843664 125.105209 
L 216.908026 125.284286 
L 216.972388 125.282632 
L 217.036749 125.113308 
L 217.101111 125.190129 
L 217.165473 125.429642 
L 217.229835 125.281407 
L 217.294197 125.433874 
L 217.358558 125.123136 
L 217.487282 125.69425 
L 217.551644 124.923554 
L 217.873453 127.719593 
L 217.937815 126.817232 
L 218.002177 127.108754 
L 218.581433 124.634944 
L 218.645795 125.098205 
L 218.710157 124.860373 
L 219.031966 125.28329 
L 219.096327 125.79967 
L 219.160689 125.410537 
L 219.289413 126.238485 
L 219.418136 125.765141 
L 219.482498 125.782295 
L 219.54686 126.036159 
L 219.611222 126.789521 
L 219.675584 126.381182 
L 219.739946 126.618934 
L 219.804307 126.146279 
L 219.868669 126.209787 
L 219.933031 126.10529 
L 219.997393 127.684808 
L 220.061755 127.666145 
L 220.25484 126.187138 
L 220.383564 125.755696 
L 220.447926 125.41607 
L 220.769735 128.488101 
L 220.834096 128.476534 
L 220.898458 128.825523 
L 221.027182 128.523716 
L 221.091544 128.45074 
L 221.155905 128.037006 
L 221.284629 128.535905 
L 221.348991 128.376274 
L 221.542076 126.192017 
L 221.6708 127.119602 
L 221.735162 126.894243 
L 221.799524 127.119128 
L 221.863885 127.793774 
L 221.928247 127.056161 
L 221.992609 127.46874 
L 222.185695 128.635695 
L 222.314418 127.731584 
L 222.37878 127.785532 
L 222.443142 128.191611 
L 222.507504 127.947683 
L 222.571865 127.799068 
L 222.700589 128.16625 
L 222.764951 127.810463 
L 223.022398 129.384059 
L 223.08676 129.088882 
L 223.408569 131.493471 
L 223.537293 131.438112 
L 223.666016 130.92379 
L 223.859102 131.790658 
L 224.116549 133.039532 
L 224.180911 132.496489 
L 224.245273 132.580999 
L 224.309634 133.591914 
L 224.373996 133.106482 
L 224.438358 133.231859 
L 224.50272 133.115914 
L 224.695805 132.969797 
L 224.888891 134.295387 
L 225.017614 133.784561 
L 225.081976 134.252839 
L 225.339423 132.070425 
L 225.468147 132.469423 
L 225.532509 132.289363 
L 225.725594 133.387709 
L 225.91868 132.542027 
L 225.983042 132.622876 
L 226.047403 133.005833 
L 226.111765 132.890996 
L 226.176127 132.60895 
L 226.433574 133.472164 
L 226.497936 133.152184 
L 226.755383 134.317716 
L 226.884107 133.995297 
L 227.077192 134.92623 
L 227.141554 134.765331 
L 227.205916 134.867618 
L 227.270278 135.128645 
L 227.33464 135.866548 
L 227.399002 135.7071 
L 227.527725 134.830284 
L 227.592087 133.469826 
L 227.656449 134.953315 
L 227.720811 134.266706 
L 227.849534 133.648728 
L 227.913896 133.136579 
L 228.04262 133.668727 
L 228.106982 133.470496 
L 228.171343 132.813811 
L 228.235705 132.930357 
L 228.364429 133.617308 
L 228.428791 133.626759 
L 228.493152 133.803653 
L 228.686238 132.612803 
L 228.7506 132.895197 
L 228.814961 132.789204 
L 228.943685 133.117251 
L 229.008047 132.761675 
L 229.265494 133.865017 
L 229.329856 133.581169 
L 229.394218 133.653001 
L 229.45858 133.576418 
L 229.587303 134.850036 
L 229.651665 134.941802 
L 229.716027 135.290575 
L 229.909112 133.237649 
L 230.102198 133.85449 
L 230.16656 134.009413 
L 230.230921 134.538305 
L 230.295283 134.166567 
L 230.359645 134.324401 
L 230.617092 135.90099 
L 230.681454 135.791707 
L 231.003263 136.422514 
L 231.067625 136.109772 
L 231.26071 137.268059 
L 231.325072 136.49585 
L 231.389434 136.700365 
L 231.711243 139.248361 
L 232.033052 137.619534 
L 232.161776 137.290058 
L 232.226138 137.363067 
L 232.2905 137.555684 
L 232.354861 137.421985 
L 232.419223 137.451163 
L 232.805394 139.966457 
L 232.869756 139.412735 
L 232.934118 139.628777 
L 233.062841 139.272847 
L 233.191565 137.799095 
L 233.255927 138.081122 
L 233.320289 138.858438 
L 233.38465 138.233251 
L 233.449012 138.462024 
L 233.642098 140.902176 
L 233.706459 140.398196 
L 233.835183 139.282751 
L 233.963907 139.969631 
L 234.028269 140.644525 
L 234.09263 140.255848 
L 234.156992 140.312197 
L 234.350078 141.116621 
L 234.864972 138.669798 
L 234.929334 138.714305 
L 235.315505 140.980153 
L 235.444228 140.537688 
L 235.50859 140.889218 
L 235.572952 140.686676 
L 235.637314 140.700591 
L 235.701676 140.92379 
L 235.766038 140.903773 
L 235.959123 139.643416 
L 236.087847 140.451963 
L 236.21657 139.792507 
L 236.280932 139.870159 
L 236.345294 140.338604 
L 236.409656 140.255037 
L 236.538379 140.200203 
L 236.667103 139.059494 
L 236.860188 140.659903 
L 236.92455 140.693133 
L 236.988912 140.518385 
L 237.053274 140.707923 
L 237.246359 140.387508 
L 237.310721 140.553498 
L 237.375083 141.060123 
L 237.439445 140.892662 
L 237.503807 140.362842 
L 237.63253 141.230818 
L 237.696892 141.140608 
L 237.889977 140.870531 
L 237.954339 141.217938 
L 238.018701 141.016746 
L 238.211787 140.667711 
L 238.404872 139.652768 
L 238.469234 139.713737 
L 238.662319 140.566194 
L 238.726681 140.827674 
L 238.791043 140.020075 
L 238.855405 140.413029 
L 238.984128 140.075722 
L 239.112852 140.628439 
L 239.177214 140.203209 
L 239.241576 140.323713 
L 239.305937 140.330561 
L 239.434661 140.62634 
L 239.563385 140.368684 
L 239.75647 140.918545 
L 239.820832 140.890643 
L 239.885194 140.769264 
L 239.949556 140.831506 
L 240.013917 140.807363 
L 240.078279 140.935032 
L 240.142641 141.411042 
L 240.207003 141.079905 
L 240.271365 141.225851 
L 240.335726 141.109508 
L 240.46445 140.757667 
L 240.528812 140.779319 
L 240.721897 142.414163 
L 240.786259 142.546802 
L 240.850621 142.503843 
L 241.043706 144.792 
L 241.108068 144.629544 
" clip-path="url(#p460af7db88)" style="fill: none; stroke: #000000; stroke-width: 1.5; stroke-linecap: square"/>
   </g>
   <g id="patch_3">
    <path d="M 38.70625 151.344 
L 38.70625 7.2 
" style="fill: none; stroke: #000000; stroke-width: 0.8; stroke-linejoin: miter; stroke-linecap: square"/>
   </g>
   <g id="patch_4">
    <path d="M 250.74625 151.344 
L 250.74625 7.2 
" style="fill: none; stroke: #000000; stroke-width: 0.8; stroke-linejoin: miter; stroke-linecap: square"/>
   </g>
   <g id="patch_5">
    <path d="M 38.70625 151.344 
L 250.74625 151.344 
" style="fill: none; stroke: #000000; stroke-width: 0.8; stroke-linejoin: miter; stroke-linecap: square"/>
   </g>
   <g id="patch_6">
    <path d="M 38.70625 7.2 
L 250.74625 7.2 
" style="fill: none; stroke: #000000; stroke-width: 0.8; stroke-linejoin: miter; stroke-linecap: square"/>
   </g>
  </g>
 </g>
 <defs>
  <clipPath id="p460af7db88">
   <rect x="38.70625" y="7.2" width="212.04" height="144.144"/>
  </clipPath>
 </defs>
</svg>
