<?xml version="1.0" encoding="utf-8" standalone="no"?>
<!DOCTYPE svg PUBLIC "-//W3C//DTD SVG 1.1//EN"
  "http://www.w3.org/Graphics/SVG/1.1/DTD/svg11.dtd">
<svg xmlns:xlink="http://www.w3.org/1999/xlink" width="266.285312pt" height="191.451145pt" viewBox="0 0 266.285312 191.451145" xmlns="http://www.w3.org/2000/svg" version="1.1">
 <metadata>
  <rdf:RDF xmlns:dc="http://purl.org/dc/elements/1.1/" xmlns:cc="http://creativecommons.org/ns#" xmlns:rdf="http://www.w3.org/1999/02/22-rdf-syntax-ns#">
   <cc:Work>
    <dc:type rdf:resource="http://purl.org/dc/dcmitype/StillImage"/>
    <dc:date>2022-12-21T19:57:59.809828</dc:date>
    <dc:format>image/svg+xml</dc:format>
    <dc:creator>
     <cc:Agent>
      <dc:title>Matplotlib v3.5.1, https://matplotlib.org/</dc:title>
     </cc:Agent>
    </dc:creator>
   </cc:Work>
  </rdf:RDF>
 </metadata>
 <defs>
  <style type="text/css">*{stroke-linejoin: round; stroke-linecap: butt}</style>
 </defs>
 <g id="figure_1">
  <g id="patch_1">
   <path d="M 0 191.451145 
L 266.285312 191.451145 
L 266.285312 0 
L 0 0 
L 0 191.451145 
z
" style="fill: none"/>
  </g>
  <g id="axes_1">
   <g id="patch_2">
    <path d="M 47.045313 154.721458 
L 259.085312 154.721458 
L 259.085312 10.577458 
L 47.045313 10.577458 
L 47.045313 154.721458 
z
" style="fill: none"/>
   </g>
   <g id="matplotlib.axis_1">
    <g id="xtick_1">
     <g id="line2d_1">
      <defs>
       <path id="me48ccd7168" d="M 0 0 
L 0 3.5 
" style="stroke: #000000; stroke-width: 0.8"/>
      </defs>
      <g>
       <use xlink:href="#me48ccd7168" x="80.778949" y="154.721458" style="stroke: #000000; stroke-width: 0.8"/>
      </g>
     </g>
     <g id="text_1">
      <!-- 2 -->
      <g transform="translate(77.99848 168.87927)scale(0.1 -0.1)">
       <defs>
        <path id="ArialMT-32" d="M 3222 541 
L 3222 0 
L 194 0 
Q 188 203 259 391 
Q 375 700 629 1000 
Q 884 1300 1366 1694 
Q 2113 2306 2375 2664 
Q 2638 3022 2638 3341 
Q 2638 3675 2398 3904 
Q 2159 4134 1775 4134 
Q 1369 4134 1125 3890 
Q 881 3647 878 3216 
L 300 3275 
Q 359 3922 746 4261 
Q 1134 4600 1788 4600 
Q 2447 4600 2831 4234 
Q 3216 3869 3216 3328 
Q 3216 3053 3103 2787 
Q 2991 2522 2730 2228 
Q 2469 1934 1863 1422 
Q 1356 997 1212 845 
Q 1069 694 975 541 
L 3222 541 
z
" transform="scale(0.015625)"/>
       </defs>
       <use xlink:href="#ArialMT-32"/>
      </g>
     </g>
    </g>
    <g id="xtick_2">
     <g id="line2d_2">
      <g>
       <use xlink:href="#me48ccd7168" x="128.969858" y="154.721458" style="stroke: #000000; stroke-width: 0.8"/>
      </g>
     </g>
     <g id="text_2">
      <!-- 4 -->
      <g transform="translate(126.189389 168.87927)scale(0.1 -0.1)">
       <defs>
        <path id="ArialMT-34" d="M 2069 0 
L 2069 1097 
L 81 1097 
L 81 1613 
L 2172 4581 
L 2631 4581 
L 2631 1613 
L 3250 1613 
L 3250 1097 
L 2631 1097 
L 2631 0 
L 2069 0 
z
M 2069 1613 
L 2069 3678 
L 634 1613 
L 2069 1613 
z
" transform="scale(0.015625)"/>
       </defs>
       <use xlink:href="#ArialMT-34"/>
      </g>
     </g>
    </g>
    <g id="xtick_3">
     <g id="line2d_3">
      <g>
       <use xlink:href="#me48ccd7168" x="177.160767" y="154.721458" style="stroke: #000000; stroke-width: 0.8"/>
      </g>
     </g>
     <g id="text_3">
      <!-- 6 -->
      <g transform="translate(174.380298 168.87927)scale(0.1 -0.1)">
       <defs>
        <path id="ArialMT-36" d="M 3184 3459 
L 2625 3416 
Q 2550 3747 2413 3897 
Q 2184 4138 1850 4138 
Q 1581 4138 1378 3988 
Q 1113 3794 959 3422 
Q 806 3050 800 2363 
Q 1003 2672 1297 2822 
Q 1591 2972 1913 2972 
Q 2475 2972 2870 2558 
Q 3266 2144 3266 1488 
Q 3266 1056 3080 686 
Q 2894 316 2569 119 
Q 2244 -78 1831 -78 
Q 1128 -78 684 439 
Q 241 956 241 2144 
Q 241 3472 731 4075 
Q 1159 4600 1884 4600 
Q 2425 4600 2770 4297 
Q 3116 3994 3184 3459 
z
M 888 1484 
Q 888 1194 1011 928 
Q 1134 663 1356 523 
Q 1578 384 1822 384 
Q 2178 384 2434 671 
Q 2691 959 2691 1453 
Q 2691 1928 2437 2201 
Q 2184 2475 1800 2475 
Q 1419 2475 1153 2201 
Q 888 1928 888 1484 
z
" transform="scale(0.015625)"/>
       </defs>
       <use xlink:href="#ArialMT-36"/>
      </g>
     </g>
    </g>
    <g id="xtick_4">
     <g id="line2d_4">
      <g>
       <use xlink:href="#me48ccd7168" x="225.351676" y="154.721458" style="stroke: #000000; stroke-width: 0.8"/>
      </g>
     </g>
     <g id="text_4">
      <!-- 8 -->
      <g transform="translate(222.571207 168.87927)scale(0.1 -0.1)">
       <defs>
        <path id="ArialMT-38" d="M 1131 2484 
Q 781 2613 612 2850 
Q 444 3088 444 3419 
Q 444 3919 803 4259 
Q 1163 4600 1759 4600 
Q 2359 4600 2725 4251 
Q 3091 3903 3091 3403 
Q 3091 3084 2923 2848 
Q 2756 2613 2416 2484 
Q 2838 2347 3058 2040 
Q 3278 1734 3278 1309 
Q 3278 722 2862 322 
Q 2447 -78 1769 -78 
Q 1091 -78 675 323 
Q 259 725 259 1325 
Q 259 1772 486 2073 
Q 713 2375 1131 2484 
z
M 1019 3438 
Q 1019 3113 1228 2906 
Q 1438 2700 1772 2700 
Q 2097 2700 2305 2904 
Q 2513 3109 2513 3406 
Q 2513 3716 2298 3927 
Q 2084 4138 1766 4138 
Q 1444 4138 1231 3931 
Q 1019 3725 1019 3438 
z
M 838 1322 
Q 838 1081 952 856 
Q 1066 631 1291 507 
Q 1516 384 1775 384 
Q 2178 384 2440 643 
Q 2703 903 2703 1303 
Q 2703 1709 2433 1975 
Q 2163 2241 1756 2241 
Q 1359 2241 1098 1978 
Q 838 1716 838 1322 
z
" transform="scale(0.015625)"/>
       </defs>
       <use xlink:href="#ArialMT-38"/>
      </g>
     </g>
    </g>
    <g id="text_5">
     <!-- Neuronal noise (Hz) -->
     <g transform="translate(108.605156 182.146458)scale(0.1 -0.1)">
      <defs>
       <path id="ArialMT-4e" d="M 488 0 
L 488 4581 
L 1109 4581 
L 3516 984 
L 3516 4581 
L 4097 4581 
L 4097 0 
L 3475 0 
L 1069 3600 
L 1069 0 
L 488 0 
z
" transform="scale(0.015625)"/>
       <path id="ArialMT-65" d="M 2694 1069 
L 3275 997 
Q 3138 488 2766 206 
Q 2394 -75 1816 -75 
Q 1088 -75 661 373 
Q 234 822 234 1631 
Q 234 2469 665 2931 
Q 1097 3394 1784 3394 
Q 2450 3394 2872 2941 
Q 3294 2488 3294 1666 
Q 3294 1616 3291 1516 
L 816 1516 
Q 847 969 1125 678 
Q 1403 388 1819 388 
Q 2128 388 2347 550 
Q 2566 713 2694 1069 
z
M 847 1978 
L 2700 1978 
Q 2663 2397 2488 2606 
Q 2219 2931 1791 2931 
Q 1403 2931 1139 2672 
Q 875 2413 847 1978 
z
" transform="scale(0.015625)"/>
       <path id="ArialMT-75" d="M 2597 0 
L 2597 488 
Q 2209 -75 1544 -75 
Q 1250 -75 995 37 
Q 741 150 617 320 
Q 494 491 444 738 
Q 409 903 409 1263 
L 409 3319 
L 972 3319 
L 972 1478 
Q 972 1038 1006 884 
Q 1059 663 1231 536 
Q 1403 409 1656 409 
Q 1909 409 2131 539 
Q 2353 669 2445 892 
Q 2538 1116 2538 1541 
L 2538 3319 
L 3100 3319 
L 3100 0 
L 2597 0 
z
" transform="scale(0.015625)"/>
       <path id="ArialMT-72" d="M 416 0 
L 416 3319 
L 922 3319 
L 922 2816 
Q 1116 3169 1280 3281 
Q 1444 3394 1641 3394 
Q 1925 3394 2219 3213 
L 2025 2691 
Q 1819 2813 1613 2813 
Q 1428 2813 1281 2702 
Q 1134 2591 1072 2394 
Q 978 2094 978 1738 
L 978 0 
L 416 0 
z
" transform="scale(0.015625)"/>
       <path id="ArialMT-6f" d="M 213 1659 
Q 213 2581 725 3025 
Q 1153 3394 1769 3394 
Q 2453 3394 2887 2945 
Q 3322 2497 3322 1706 
Q 3322 1066 3130 698 
Q 2938 331 2570 128 
Q 2203 -75 1769 -75 
Q 1072 -75 642 372 
Q 213 819 213 1659 
z
M 791 1659 
Q 791 1022 1069 705 
Q 1347 388 1769 388 
Q 2188 388 2466 706 
Q 2744 1025 2744 1678 
Q 2744 2294 2464 2611 
Q 2184 2928 1769 2928 
Q 1347 2928 1069 2612 
Q 791 2297 791 1659 
z
" transform="scale(0.015625)"/>
       <path id="ArialMT-6e" d="M 422 0 
L 422 3319 
L 928 3319 
L 928 2847 
Q 1294 3394 1984 3394 
Q 2284 3394 2536 3286 
Q 2788 3178 2913 3003 
Q 3038 2828 3088 2588 
Q 3119 2431 3119 2041 
L 3119 0 
L 2556 0 
L 2556 2019 
Q 2556 2363 2490 2533 
Q 2425 2703 2258 2804 
Q 2091 2906 1866 2906 
Q 1506 2906 1245 2678 
Q 984 2450 984 1813 
L 984 0 
L 422 0 
z
" transform="scale(0.015625)"/>
       <path id="ArialMT-61" d="M 2588 409 
Q 2275 144 1986 34 
Q 1697 -75 1366 -75 
Q 819 -75 525 192 
Q 231 459 231 875 
Q 231 1119 342 1320 
Q 453 1522 633 1644 
Q 813 1766 1038 1828 
Q 1203 1872 1538 1913 
Q 2219 1994 2541 2106 
Q 2544 2222 2544 2253 
Q 2544 2597 2384 2738 
Q 2169 2928 1744 2928 
Q 1347 2928 1158 2789 
Q 969 2650 878 2297 
L 328 2372 
Q 403 2725 575 2942 
Q 747 3159 1072 3276 
Q 1397 3394 1825 3394 
Q 2250 3394 2515 3294 
Q 2781 3194 2906 3042 
Q 3031 2891 3081 2659 
Q 3109 2516 3109 2141 
L 3109 1391 
Q 3109 606 3145 398 
Q 3181 191 3288 0 
L 2700 0 
Q 2613 175 2588 409 
z
M 2541 1666 
Q 2234 1541 1622 1453 
Q 1275 1403 1131 1340 
Q 988 1278 909 1158 
Q 831 1038 831 891 
Q 831 666 1001 516 
Q 1172 366 1500 366 
Q 1825 366 2078 508 
Q 2331 650 2450 897 
Q 2541 1088 2541 1459 
L 2541 1666 
z
" transform="scale(0.015625)"/>
       <path id="ArialMT-6c" d="M 409 0 
L 409 4581 
L 972 4581 
L 972 0 
L 409 0 
z
" transform="scale(0.015625)"/>
       <path id="ArialMT-20" transform="scale(0.015625)"/>
       <path id="ArialMT-69" d="M 425 3934 
L 425 4581 
L 988 4581 
L 988 3934 
L 425 3934 
z
M 425 0 
L 425 3319 
L 988 3319 
L 988 0 
L 425 0 
z
" transform="scale(0.015625)"/>
       <path id="ArialMT-73" d="M 197 991 
L 753 1078 
Q 800 744 1014 566 
Q 1228 388 1613 388 
Q 2000 388 2187 545 
Q 2375 703 2375 916 
Q 2375 1106 2209 1216 
Q 2094 1291 1634 1406 
Q 1016 1563 777 1677 
Q 538 1791 414 1992 
Q 291 2194 291 2438 
Q 291 2659 392 2848 
Q 494 3038 669 3163 
Q 800 3259 1026 3326 
Q 1253 3394 1513 3394 
Q 1903 3394 2198 3281 
Q 2494 3169 2634 2976 
Q 2775 2784 2828 2463 
L 2278 2388 
Q 2241 2644 2061 2787 
Q 1881 2931 1553 2931 
Q 1166 2931 1000 2803 
Q 834 2675 834 2503 
Q 834 2394 903 2306 
Q 972 2216 1119 2156 
Q 1203 2125 1616 2013 
Q 2213 1853 2448 1751 
Q 2684 1650 2818 1456 
Q 2953 1263 2953 975 
Q 2953 694 2789 445 
Q 2625 197 2315 61 
Q 2006 -75 1616 -75 
Q 969 -75 630 194 
Q 291 463 197 991 
z
" transform="scale(0.015625)"/>
       <path id="ArialMT-28" d="M 1497 -1347 
Q 1031 -759 709 28 
Q 388 816 388 1659 
Q 388 2403 628 3084 
Q 909 3875 1497 4659 
L 1900 4659 
Q 1522 4009 1400 3731 
Q 1209 3300 1100 2831 
Q 966 2247 966 1656 
Q 966 153 1900 -1347 
L 1497 -1347 
z
" transform="scale(0.015625)"/>
       <path id="ArialMT-48" d="M 513 0 
L 513 4581 
L 1119 4581 
L 1119 2700 
L 3500 2700 
L 3500 4581 
L 4106 4581 
L 4106 0 
L 3500 0 
L 3500 2159 
L 1119 2159 
L 1119 0 
L 513 0 
z
" transform="scale(0.015625)"/>
       <path id="ArialMT-7a" d="M 125 0 
L 125 456 
L 2238 2881 
Q 1878 2863 1603 2863 
L 250 2863 
L 250 3319 
L 2963 3319 
L 2963 2947 
L 1166 841 
L 819 456 
Q 1197 484 1528 484 
L 3063 484 
L 3063 0 
L 125 0 
z
" transform="scale(0.015625)"/>
       <path id="ArialMT-29" d="M 791 -1347 
L 388 -1347 
Q 1322 153 1322 1656 
Q 1322 2244 1188 2822 
Q 1081 3291 891 3722 
Q 769 4003 388 4659 
L 791 4659 
Q 1378 3875 1659 3084 
Q 1900 2403 1900 1659 
Q 1900 816 1576 28 
Q 1253 -759 791 -1347 
z
" transform="scale(0.015625)"/>
      </defs>
      <use xlink:href="#ArialMT-4e"/>
      <use xlink:href="#ArialMT-65" x="72.216797"/>
      <use xlink:href="#ArialMT-75" x="127.832031"/>
      <use xlink:href="#ArialMT-72" x="183.447266"/>
      <use xlink:href="#ArialMT-6f" x="216.748047"/>
      <use xlink:href="#ArialMT-6e" x="272.363281"/>
      <use xlink:href="#ArialMT-61" x="327.978516"/>
      <use xlink:href="#ArialMT-6c" x="383.59375"/>
      <use xlink:href="#ArialMT-20" x="405.810547"/>
      <use xlink:href="#ArialMT-6e" x="433.59375"/>
      <use xlink:href="#ArialMT-6f" x="489.208984"/>
      <use xlink:href="#ArialMT-69" x="544.824219"/>
      <use xlink:href="#ArialMT-73" x="567.041016"/>
      <use xlink:href="#ArialMT-65" x="617.041016"/>
      <use xlink:href="#ArialMT-20" x="672.65625"/>
      <use xlink:href="#ArialMT-28" x="700.439453"/>
      <use xlink:href="#ArialMT-48" x="733.740234"/>
      <use xlink:href="#ArialMT-7a" x="805.957031"/>
      <use xlink:href="#ArialMT-29" x="855.957031"/>
     </g>
    </g>
   </g>
   <g id="matplotlib.axis_2">
    <g id="ytick_1">
     <g id="line2d_5">
      <defs>
       <path id="m1b300b26ad" d="M 0 0 
L -3.5 0 
" style="stroke: #000000; stroke-width: 0.8"/>
      </defs>
      <g>
       <use xlink:href="#m1b300b26ad" x="47.045313" y="120.741978" style="stroke: #000000; stroke-width: 0.8"/>
      </g>
     </g>
     <g id="text_6">
      <!-- 0.01 -->
      <g transform="translate(20.584375 124.320884)scale(0.1 -0.1)">
       <defs>
        <path id="ArialMT-30" d="M 266 2259 
Q 266 3072 433 3567 
Q 600 4063 929 4331 
Q 1259 4600 1759 4600 
Q 2128 4600 2406 4451 
Q 2684 4303 2865 4023 
Q 3047 3744 3150 3342 
Q 3253 2941 3253 2259 
Q 3253 1453 3087 958 
Q 2922 463 2592 192 
Q 2263 -78 1759 -78 
Q 1097 -78 719 397 
Q 266 969 266 2259 
z
M 844 2259 
Q 844 1131 1108 757 
Q 1372 384 1759 384 
Q 2147 384 2411 759 
Q 2675 1134 2675 2259 
Q 2675 3391 2411 3762 
Q 2147 4134 1753 4134 
Q 1366 4134 1134 3806 
Q 844 3388 844 2259 
z
" transform="scale(0.015625)"/>
        <path id="ArialMT-2e" d="M 581 0 
L 581 641 
L 1222 641 
L 1222 0 
L 581 0 
z
" transform="scale(0.015625)"/>
        <path id="ArialMT-31" d="M 2384 0 
L 1822 0 
L 1822 3584 
Q 1619 3391 1289 3197 
Q 959 3003 697 2906 
L 697 3450 
Q 1169 3672 1522 3987 
Q 1875 4303 2022 4600 
L 2384 4600 
L 2384 0 
z
" transform="scale(0.015625)"/>
       </defs>
       <use xlink:href="#ArialMT-30"/>
       <use xlink:href="#ArialMT-2e" x="55.615234"/>
       <use xlink:href="#ArialMT-30" x="83.398438"/>
       <use xlink:href="#ArialMT-31" x="139.013672"/>
      </g>
     </g>
    </g>
    <g id="ytick_2">
     <g id="line2d_6">
      <g>
       <use xlink:href="#m1b300b26ad" x="47.045313" y="84.087621" style="stroke: #000000; stroke-width: 0.8"/>
      </g>
     </g>
     <g id="text_7">
      <!-- 0.02 -->
      <g transform="translate(20.584375 87.666527)scale(0.1 -0.1)">
       <use xlink:href="#ArialMT-30"/>
       <use xlink:href="#ArialMT-2e" x="55.615234"/>
       <use xlink:href="#ArialMT-30" x="83.398438"/>
       <use xlink:href="#ArialMT-32" x="139.013672"/>
      </g>
     </g>
    </g>
    <g id="ytick_3">
     <g id="line2d_7">
      <g>
       <use xlink:href="#m1b300b26ad" x="47.045313" y="47.433263" style="stroke: #000000; stroke-width: 0.8"/>
      </g>
     </g>
     <g id="text_8">
      <!-- 0.03 -->
      <g transform="translate(20.584375 51.01217)scale(0.1 -0.1)">
       <defs>
        <path id="ArialMT-33" d="M 269 1209 
L 831 1284 
Q 928 806 1161 595 
Q 1394 384 1728 384 
Q 2125 384 2398 659 
Q 2672 934 2672 1341 
Q 2672 1728 2419 1979 
Q 2166 2231 1775 2231 
Q 1616 2231 1378 2169 
L 1441 2663 
Q 1497 2656 1531 2656 
Q 1891 2656 2178 2843 
Q 2466 3031 2466 3422 
Q 2466 3731 2256 3934 
Q 2047 4138 1716 4138 
Q 1388 4138 1169 3931 
Q 950 3725 888 3313 
L 325 3413 
Q 428 3978 793 4289 
Q 1159 4600 1703 4600 
Q 2078 4600 2393 4439 
Q 2709 4278 2876 4000 
Q 3044 3722 3044 3409 
Q 3044 3113 2884 2869 
Q 2725 2625 2413 2481 
Q 2819 2388 3044 2092 
Q 3269 1797 3269 1353 
Q 3269 753 2831 336 
Q 2394 -81 1725 -81 
Q 1122 -81 723 278 
Q 325 638 269 1209 
z
" transform="scale(0.015625)"/>
       </defs>
       <use xlink:href="#ArialMT-30"/>
       <use xlink:href="#ArialMT-2e" x="55.615234"/>
       <use xlink:href="#ArialMT-30" x="83.398438"/>
       <use xlink:href="#ArialMT-33" x="139.013672"/>
      </g>
     </g>
    </g>
    <g id="ytick_4">
     <g id="line2d_8">
      <g>
       <use xlink:href="#m1b300b26ad" x="47.045313" y="10.778906" style="stroke: #000000; stroke-width: 0.8"/>
      </g>
     </g>
     <g id="text_9">
      <!-- 0.04 -->
      <g transform="translate(20.584375 14.357812)scale(0.1 -0.1)">
       <use xlink:href="#ArialMT-30"/>
       <use xlink:href="#ArialMT-2e" x="55.615234"/>
       <use xlink:href="#ArialMT-30" x="83.398438"/>
       <use xlink:href="#ArialMT-34" x="139.013672"/>
      </g>
     </g>
    </g>
    <g id="text_10">
     <!-- Dispersion rate (m/s) -->
     <g transform="translate(14.479688 129.045551)rotate(-90)scale(0.1 -0.1)">
      <defs>
       <path id="ArialMT-44" d="M 494 0 
L 494 4581 
L 2072 4581 
Q 2606 4581 2888 4516 
Q 3281 4425 3559 4188 
Q 3922 3881 4101 3404 
Q 4281 2928 4281 2316 
Q 4281 1794 4159 1391 
Q 4038 988 3847 723 
Q 3656 459 3429 307 
Q 3203 156 2883 78 
Q 2563 0 2147 0 
L 494 0 
z
M 1100 541 
L 2078 541 
Q 2531 541 2789 625 
Q 3047 709 3200 863 
Q 3416 1078 3536 1442 
Q 3656 1806 3656 2325 
Q 3656 3044 3420 3430 
Q 3184 3816 2847 3947 
Q 2603 4041 2063 4041 
L 1100 4041 
L 1100 541 
z
" transform="scale(0.015625)"/>
       <path id="ArialMT-70" d="M 422 -1272 
L 422 3319 
L 934 3319 
L 934 2888 
Q 1116 3141 1344 3267 
Q 1572 3394 1897 3394 
Q 2322 3394 2647 3175 
Q 2972 2956 3137 2557 
Q 3303 2159 3303 1684 
Q 3303 1175 3120 767 
Q 2938 359 2589 142 
Q 2241 -75 1856 -75 
Q 1575 -75 1351 44 
Q 1128 163 984 344 
L 984 -1272 
L 422 -1272 
z
M 931 1641 
Q 931 1000 1190 694 
Q 1450 388 1819 388 
Q 2194 388 2461 705 
Q 2728 1022 2728 1688 
Q 2728 2322 2467 2637 
Q 2206 2953 1844 2953 
Q 1484 2953 1207 2617 
Q 931 2281 931 1641 
z
" transform="scale(0.015625)"/>
       <path id="ArialMT-74" d="M 1650 503 
L 1731 6 
Q 1494 -44 1306 -44 
Q 1000 -44 831 53 
Q 663 150 594 308 
Q 525 466 525 972 
L 525 2881 
L 113 2881 
L 113 3319 
L 525 3319 
L 525 4141 
L 1084 4478 
L 1084 3319 
L 1650 3319 
L 1650 2881 
L 1084 2881 
L 1084 941 
Q 1084 700 1114 631 
Q 1144 563 1211 522 
Q 1278 481 1403 481 
Q 1497 481 1650 503 
z
" transform="scale(0.015625)"/>
       <path id="ArialMT-6d" d="M 422 0 
L 422 3319 
L 925 3319 
L 925 2853 
Q 1081 3097 1340 3245 
Q 1600 3394 1931 3394 
Q 2300 3394 2536 3241 
Q 2772 3088 2869 2813 
Q 3263 3394 3894 3394 
Q 4388 3394 4653 3120 
Q 4919 2847 4919 2278 
L 4919 0 
L 4359 0 
L 4359 2091 
Q 4359 2428 4304 2576 
Q 4250 2725 4106 2815 
Q 3963 2906 3769 2906 
Q 3419 2906 3187 2673 
Q 2956 2441 2956 1928 
L 2956 0 
L 2394 0 
L 2394 2156 
Q 2394 2531 2256 2718 
Q 2119 2906 1806 2906 
Q 1569 2906 1367 2781 
Q 1166 2656 1075 2415 
Q 984 2175 984 1722 
L 984 0 
L 422 0 
z
" transform="scale(0.015625)"/>
       <path id="ArialMT-2f" d="M 0 -78 
L 1328 4659 
L 1778 4659 
L 453 -78 
L 0 -78 
z
" transform="scale(0.015625)"/>
      </defs>
      <use xlink:href="#ArialMT-44"/>
      <use xlink:href="#ArialMT-69" x="72.216797"/>
      <use xlink:href="#ArialMT-73" x="94.433594"/>
      <use xlink:href="#ArialMT-70" x="144.433594"/>
      <use xlink:href="#ArialMT-65" x="200.048828"/>
      <use xlink:href="#ArialMT-72" x="255.664062"/>
      <use xlink:href="#ArialMT-73" x="288.964844"/>
      <use xlink:href="#ArialMT-69" x="338.964844"/>
      <use xlink:href="#ArialMT-6f" x="361.181641"/>
      <use xlink:href="#ArialMT-6e" x="416.796875"/>
      <use xlink:href="#ArialMT-20" x="472.412109"/>
      <use xlink:href="#ArialMT-72" x="500.195312"/>
      <use xlink:href="#ArialMT-61" x="533.496094"/>
      <use xlink:href="#ArialMT-74" x="589.111328"/>
      <use xlink:href="#ArialMT-65" x="616.894531"/>
      <use xlink:href="#ArialMT-20" x="672.509766"/>
      <use xlink:href="#ArialMT-28" x="700.292969"/>
      <use xlink:href="#ArialMT-6d" x="733.59375"/>
      <use xlink:href="#ArialMT-2f" x="816.894531"/>
      <use xlink:href="#ArialMT-73" x="844.677734"/>
      <use xlink:href="#ArialMT-29" x="894.677734"/>
     </g>
    </g>
   </g>
   <g id="line2d_9">
    <defs>
     <path id="m19722f4ed6" d="M -3 3 
L 3 -3 
M -3 -3 
L 3 3 
" style="stroke: #440154"/>
    </defs>
    <g clip-path="url(#p30752931b9)">
     <use xlink:href="#m19722f4ed6" x="56.683494" y="114.27528" style="fill: #440154; stroke: #440154"/>
     <use xlink:href="#m19722f4ed6" x="80.778949" y="71.894143" style="fill: #440154; stroke: #440154"/>
     <use xlink:href="#m19722f4ed6" x="104.874403" y="35.116352" style="fill: #440154; stroke: #440154"/>
     <use xlink:href="#m19722f4ed6" x="128.969858" y="46.311945" style="fill: #440154; stroke: #440154"/>
     <use xlink:href="#m19722f4ed6" x="153.065313" y="23.873696" style="fill: #440154; stroke: #440154"/>
     <use xlink:href="#m19722f4ed6" x="177.160767" y="28.565797" style="fill: #440154; stroke: #440154"/>
     <use xlink:href="#m19722f4ed6" x="201.256222" y="20.817151" style="fill: #440154; stroke: #440154"/>
     <use xlink:href="#m19722f4ed6" x="225.351676" y="17.129458" style="fill: #440154; stroke: #440154"/>
     <use xlink:href="#m19722f4ed6" x="249.447131" y="36.642612" style="fill: #440154; stroke: #440154"/>
    </g>
   </g>
   <g id="line2d_10">
    <path d="M 56.683494 115.141577 
L 59.577843 107.448536 
L 62.472192 100.411832 
L 65.366541 93.975471 
L 68.26089 88.088233 
L 71.155239 82.703269 
L 74.049588 77.777728 
L 76.943937 73.272413 
L 80.031242 68.889591 
L 83.118548 64.904454 
L 86.205853 61.28092 
L 89.293159 57.986176 
L 92.573421 54.812445 
L 95.853683 51.943797 
L 99.326901 49.206388 
L 102.80012 46.746784 
L 106.466295 44.420813 
L 110.325427 42.240302 
L 114.377516 40.213346 
L 118.622561 38.344542 
L 123.060562 36.635295 
L 127.884477 35.024234 
L 132.901349 33.584312 
L 138.304133 32.263379 
L 144.285788 31.035852 
L 150.846312 29.925757 
L 157.985706 28.947256 
L 166.089883 28.068486 
L 175.158842 27.313198 
L 185.771455 26.659736 
L 198.313634 26.118207 
L 213.750161 25.683701 
L 233.817647 25.354688 
L 249.447131 25.207752 
L 249.447131 25.207752 
" clip-path="url(#p30752931b9)" style="fill: none; stroke-dasharray: 5.55,2.4; stroke-dashoffset: 0; stroke: #440154; stroke-width: 1.5"/>
   </g>
   <g id="line2d_11">
    <defs>
     <path id="m413079fa2a" d="M -3 3 
L 3 -3 
M -3 -3 
L 3 3 
" style="stroke: #46327e"/>
    </defs>
    <g clip-path="url(#p30752931b9)">
     <use xlink:href="#m413079fa2a" x="56.683494" y="114.53206" style="fill: #46327e; stroke: #46327e"/>
     <use xlink:href="#m413079fa2a" x="80.778949" y="93.412816" style="fill: #46327e; stroke: #46327e"/>
     <use xlink:href="#m413079fa2a" x="104.874403" y="74.752145" style="fill: #46327e; stroke: #46327e"/>
     <use xlink:href="#m413079fa2a" x="128.969858" y="60.209074" style="fill: #46327e; stroke: #46327e"/>
     <use xlink:href="#m413079fa2a" x="153.065313" y="68.282481" style="fill: #46327e; stroke: #46327e"/>
     <use xlink:href="#m413079fa2a" x="177.160767" y="60.731455" style="fill: #46327e; stroke: #46327e"/>
     <use xlink:href="#m413079fa2a" x="201.256222" y="60.358594" style="fill: #46327e; stroke: #46327e"/>
     <use xlink:href="#m413079fa2a" x="225.351676" y="45.01696" style="fill: #46327e; stroke: #46327e"/>
     <use xlink:href="#m413079fa2a" x="249.447131" y="54.662165" style="fill: #46327e; stroke: #46327e"/>
    </g>
   </g>
   <g id="line2d_12">
    <path d="M 56.683494 115.029066 
L 60.542626 110.434307 
L 64.401758 106.173685 
L 68.453846 102.033084 
L 72.505935 98.20806 
L 76.75098 94.513185 
L 80.996025 91.112778 
L 85.434027 87.847205 
L 89.872028 84.85321 
L 94.502987 81.99418 
L 99.326901 79.279037 
L 104.343773 76.714362 
L 109.553601 74.304512 
L 114.956385 72.051765 
L 120.552127 69.956486 
L 126.533781 67.956385 
L 132.901349 66.069377 
L 139.461873 64.356079 
L 146.601267 62.725248 
L 154.126574 61.235851 
L 162.230751 59.859089 
L 171.106754 58.581708 
L 180.754584 57.4231 
L 191.367196 56.377438 
L 203.137548 55.44537 
L 216.451553 54.619963 
L 231.695124 53.904635 
L 249.447131 53.3006 
L 249.447131 53.3006 
" clip-path="url(#p30752931b9)" style="fill: none; stroke-dasharray: 5.55,2.4; stroke-dashoffset: 0; stroke: #46327e; stroke-width: 1.5"/>
   </g>
   <g id="line2d_13">
    <defs>
     <path id="m532e9de351" d="M -3 3 
L 3 -3 
M -3 -3 
L 3 3 
" style="stroke: #365c8d"/>
    </defs>
    <g clip-path="url(#p30752931b9)">
     <use xlink:href="#m532e9de351" x="56.683494" y="131.290577" style="fill: #365c8d; stroke: #365c8d"/>
     <use xlink:href="#m532e9de351" x="80.778949" y="110.87035" style="fill: #365c8d; stroke: #365c8d"/>
     <use xlink:href="#m532e9de351" x="104.874403" y="96.551421" style="fill: #365c8d; stroke: #365c8d"/>
     <use xlink:href="#m532e9de351" x="128.969858" y="92.810896" style="fill: #365c8d; stroke: #365c8d"/>
     <use xlink:href="#m532e9de351" x="153.065313" y="92.716392" style="fill: #365c8d; stroke: #365c8d"/>
     <use xlink:href="#m532e9de351" x="177.160767" y="79.383756" style="fill: #365c8d; stroke: #365c8d"/>
     <use xlink:href="#m532e9de351" x="201.256222" y="76.693352" style="fill: #365c8d; stroke: #365c8d"/>
     <use xlink:href="#m532e9de351" x="225.351676" y="78.517728" style="fill: #365c8d; stroke: #365c8d"/>
     <use xlink:href="#m532e9de351" x="249.447131" y="73.182512" style="fill: #365c8d; stroke: #365c8d"/>
    </g>
   </g>
   <g id="line2d_14">
    <path d="M 56.683494 129.818248 
L 61.507409 125.839972 
L 66.524281 121.991026 
L 71.541152 118.415561 
L 76.75098 114.971224 
L 82.153765 111.667134 
L 87.749506 108.510583 
L 93.538204 105.507091 
L 99.519858 102.660492 
L 105.694469 99.973025 
L 112.062036 97.445446 
L 118.622561 95.077146 
L 125.568998 92.806282 
L 132.901349 90.647833 
L 140.619612 88.613477 
L 148.723789 86.711682 
L 157.213879 84.947865 
L 166.282839 83.29163 
L 175.930669 81.755858 
L 186.350325 80.324356 
L 197.541807 79.012312 
L 209.698073 77.811527 
L 223.012077 76.720503 
L 237.869735 75.730188 
L 249.447131 75.095203 
L 249.447131 75.095203 
" clip-path="url(#p30752931b9)" style="fill: none; stroke-dasharray: 5.55,2.4; stroke-dashoffset: 0; stroke: #365c8d; stroke-width: 1.5"/>
   </g>
   <g id="line2d_15">
    <defs>
     <path id="m04ce1cfd4f" d="M -3 3 
L 3 -3 
M -3 -3 
L 3 3 
" style="stroke: #277f8e"/>
    </defs>
    <g clip-path="url(#p30752931b9)">
     <use xlink:href="#m04ce1cfd4f" x="56.683494" y="132.998987" style="fill: #277f8e; stroke: #277f8e"/>
     <use xlink:href="#m04ce1cfd4f" x="80.778949" y="132.744157" style="fill: #277f8e; stroke: #277f8e"/>
     <use xlink:href="#m04ce1cfd4f" x="104.874403" y="129.172864" style="fill: #277f8e; stroke: #277f8e"/>
     <use xlink:href="#m04ce1cfd4f" x="128.969858" y="121.990761" style="fill: #277f8e; stroke: #277f8e"/>
     <use xlink:href="#m04ce1cfd4f" x="153.065313" y="112.625731" style="fill: #277f8e; stroke: #277f8e"/>
     <use xlink:href="#m04ce1cfd4f" x="177.160767" y="114.64782" style="fill: #277f8e; stroke: #277f8e"/>
     <use xlink:href="#m04ce1cfd4f" x="201.256222" y="108.895569" style="fill: #277f8e; stroke: #277f8e"/>
     <use xlink:href="#m04ce1cfd4f" x="225.351676" y="112.289038" style="fill: #277f8e; stroke: #277f8e"/>
     <use xlink:href="#m04ce1cfd4f" x="249.447131" y="97.387716" style="fill: #277f8e; stroke: #277f8e"/>
    </g>
   </g>
   <g id="line2d_16">
    <path d="M 56.683494 135.563485 
L 81.767851 130.562535 
L 107.431078 125.673395 
L 133.673175 120.900948 
L 160.494141 116.249496 
L 187.893978 111.722779 
L 216.06564 107.2944 
L 245.009129 102.971453 
L 249.447131 102.328187 
L 249.447131 102.328187 
" clip-path="url(#p30752931b9)" style="fill: none; stroke-dasharray: 5.55,2.4; stroke-dashoffset: 0; stroke: #277f8e; stroke-width: 1.5"/>
   </g>
   <g id="line2d_17">
    <defs>
     <path id="mc9c32ff01b" d="M -3 3 
L 3 -3 
M -3 -3 
L 3 3 
" style="stroke: #1fa187"/>
    </defs>
    <g clip-path="url(#p30752931b9)">
     <use xlink:href="#mc9c32ff01b" x="56.683494" y="147.201488" style="fill: #1fa187; stroke: #1fa187"/>
     <use xlink:href="#mc9c32ff01b" x="80.778949" y="140.575701" style="fill: #1fa187; stroke: #1fa187"/>
     <use xlink:href="#mc9c32ff01b" x="104.874403" y="139.386819" style="fill: #1fa187; stroke: #1fa187"/>
     <use xlink:href="#mc9c32ff01b" x="128.969858" y="133.471785" style="fill: #1fa187; stroke: #1fa187"/>
     <use xlink:href="#mc9c32ff01b" x="153.065313" y="137.72759" style="fill: #1fa187; stroke: #1fa187"/>
     <use xlink:href="#mc9c32ff01b" x="177.160767" y="133.979735" style="fill: #1fa187; stroke: #1fa187"/>
     <use xlink:href="#mc9c32ff01b" x="201.256222" y="132.695774" style="fill: #1fa187; stroke: #1fa187"/>
     <use xlink:href="#mc9c32ff01b" x="225.351676" y="133.140927" style="fill: #1fa187; stroke: #1fa187"/>
     <use xlink:href="#mc9c32ff01b" x="249.447131" y="127.990602" style="fill: #1fa187; stroke: #1fa187"/>
    </g>
   </g>
   <g id="line2d_18">
    <path d="M 56.683494 146.198561 
L 67.296107 144.275806 
L 78.487589 142.47479 
L 90.450898 140.777207 
L 103.186033 139.197088 
L 116.885951 137.7247 
L 131.550652 136.373739 
L 147.56605 135.124822 
L 165.1251 133.98376 
L 184.420759 132.957261 
L 205.838941 132.043766 
L 230.151471 131.234621 
L 249.447131 130.728574 
L 249.447131 130.728574 
" clip-path="url(#p30752931b9)" style="fill: none; stroke-dasharray: 5.55,2.4; stroke-dashoffset: 0; stroke: #1fa187; stroke-width: 1.5"/>
   </g>
   <g id="line2d_19">
    <defs>
     <path id="mb297f614bd" d="M -3 3 
L 3 -3 
M -3 -3 
L 3 3 
" style="stroke: #4ac16d"/>
    </defs>
    <g clip-path="url(#p30752931b9)">
     <use xlink:href="#mb297f614bd" x="56.683494" y="147.525849" style="fill: #4ac16d; stroke: #4ac16d"/>
     <use xlink:href="#mb297f614bd" x="80.778949" y="147.431729" style="fill: #4ac16d; stroke: #4ac16d"/>
     <use xlink:href="#mb297f614bd" x="104.874403" y="144.564478" style="fill: #4ac16d; stroke: #4ac16d"/>
     <use xlink:href="#mb297f614bd" x="128.969858" y="141.491313" style="fill: #4ac16d; stroke: #4ac16d"/>
     <use xlink:href="#mb297f614bd" x="153.065313" y="142.714727" style="fill: #4ac16d; stroke: #4ac16d"/>
     <use xlink:href="#mb297f614bd" x="177.160767" y="142.788429" style="fill: #4ac16d; stroke: #4ac16d"/>
     <use xlink:href="#mb297f614bd" x="201.256222" y="138.343215" style="fill: #4ac16d; stroke: #4ac16d"/>
     <use xlink:href="#mb297f614bd" x="225.351676" y="140.68636" style="fill: #4ac16d; stroke: #4ac16d"/>
     <use xlink:href="#mb297f614bd" x="249.447131" y="142.890131" style="fill: #4ac16d; stroke: #4ac16d"/>
    </g>
   </g>
   <g id="line2d_20">
    <path d="M 56.683494 143.159732 
L 249.447131 143.159732 
L 249.447131 143.159732 
" clip-path="url(#p30752931b9)" style="fill: none; stroke-dasharray: 5.55,2.4; stroke-dashoffset: 0; stroke: #4ac16d; stroke-width: 1.5"/>
   </g>
   <g id="line2d_21">
    <defs>
     <path id="m99110c9b80" d="M -3 3 
L 3 -3 
M -3 -3 
L 3 3 
" style="stroke: #a0da39"/>
    </defs>
    <g clip-path="url(#p30752931b9)">
     <use xlink:href="#m99110c9b80" x="56.683494" y="147.527339" style="fill: #a0da39; stroke: #a0da39"/>
     <use xlink:href="#m99110c9b80" x="80.778949" y="147.62972" style="fill: #a0da39; stroke: #a0da39"/>
     <use xlink:href="#m99110c9b80" x="104.874403" y="148.169458" style="fill: #a0da39; stroke: #a0da39"/>
     <use xlink:href="#m99110c9b80" x="128.969858" y="147.920862" style="fill: #a0da39; stroke: #a0da39"/>
     <use xlink:href="#m99110c9b80" x="153.065313" y="147.179642" style="fill: #a0da39; stroke: #a0da39"/>
     <use xlink:href="#m99110c9b80" x="177.160767" y="147.03673" style="fill: #a0da39; stroke: #a0da39"/>
     <use xlink:href="#m99110c9b80" x="201.256222" y="143.443757" style="fill: #a0da39; stroke: #a0da39"/>
     <use xlink:href="#m99110c9b80" x="225.351676" y="147.5529" style="fill: #a0da39; stroke: #a0da39"/>
     <use xlink:href="#m99110c9b80" x="249.447131" y="144.22568" style="fill: #a0da39; stroke: #a0da39"/>
    </g>
   </g>
   <g id="line2d_22">
    <path d="M 56.683494 146.742628 
L 249.447131 146.742932 
L 249.447131 146.742932 
" clip-path="url(#p30752931b9)" style="fill: none; stroke-dasharray: 5.55,2.4; stroke-dashoffset: 0; stroke: #a0da39; stroke-width: 1.5"/>
   </g>
   <g id="patch_3">
    <path d="M 47.045313 154.721458 
L 47.045313 10.577458 
" style="fill: none; stroke: #000000; stroke-width: 0.8; stroke-linejoin: miter; stroke-linecap: square"/>
   </g>
   <g id="patch_4">
    <path d="M 259.085312 154.721458 
L 259.085312 10.577458 
" style="fill: none; stroke: #000000; stroke-width: 0.8; stroke-linejoin: miter; stroke-linecap: square"/>
   </g>
   <g id="patch_5">
    <path d="M 47.045313 154.721458 
L 259.085312 154.721458 
" style="fill: none; stroke: #000000; stroke-width: 0.8; stroke-linejoin: miter; stroke-linecap: square"/>
   </g>
   <g id="patch_6">
    <path d="M 47.045313 10.577458 
L 259.085312 10.577458 
" style="fill: none; stroke: #000000; stroke-width: 0.8; stroke-linejoin: miter; stroke-linecap: square"/>
   </g>
   <g id="legend_1">
    <g id="patch_7">
     <path d="M 54.045313 117.594645 
L 108.289063 117.594645 
Q 110.289063 117.594645 110.289063 115.594645 
L 110.289063 17.577458 
Q 110.289063 15.577458 108.289063 15.577458 
L 54.045313 15.577458 
Q 52.045313 15.577458 52.045313 17.577458 
L 52.045313 115.594645 
Q 52.045313 117.594645 54.045313 117.594645 
z
" style="fill: #ffffff; opacity: 0.8; stroke: #cccccc; stroke-linejoin: miter"/>
    </g>
    <g id="line2d_23">
     <g>
      <use xlink:href="#m19722f4ed6" x="66.045313" y="23.23527" style="fill: #440154; stroke: #440154"/>
     </g>
    </g>
    <g id="text_11">
     <!-- 128 -->
     <g transform="translate(84.045313 26.73527)scale(0.1 -0.1)">
      <use xlink:href="#ArialMT-31"/>
      <use xlink:href="#ArialMT-32" x="55.615234"/>
      <use xlink:href="#ArialMT-38" x="111.230469"/>
     </g>
    </g>
    <g id="line2d_24">
     <g>
      <use xlink:href="#m413079fa2a" x="66.045313" y="37.380583" style="fill: #46327e; stroke: #46327e"/>
     </g>
    </g>
    <g id="text_12">
     <!-- 256 -->
     <g transform="translate(84.045313 40.880583)scale(0.1 -0.1)">
      <defs>
       <path id="ArialMT-35" d="M 266 1200 
L 856 1250 
Q 922 819 1161 601 
Q 1400 384 1738 384 
Q 2144 384 2425 690 
Q 2706 997 2706 1503 
Q 2706 1984 2436 2262 
Q 2166 2541 1728 2541 
Q 1456 2541 1237 2417 
Q 1019 2294 894 2097 
L 366 2166 
L 809 4519 
L 3088 4519 
L 3088 3981 
L 1259 3981 
L 1013 2750 
Q 1425 3038 1878 3038 
Q 2478 3038 2890 2622 
Q 3303 2206 3303 1553 
Q 3303 931 2941 478 
Q 2500 -78 1738 -78 
Q 1113 -78 717 272 
Q 322 622 266 1200 
z
" transform="scale(0.015625)"/>
      </defs>
      <use xlink:href="#ArialMT-32"/>
      <use xlink:href="#ArialMT-35" x="55.615234"/>
      <use xlink:href="#ArialMT-36" x="111.230469"/>
     </g>
    </g>
    <g id="line2d_25">
     <g>
      <use xlink:href="#m532e9de351" x="66.045313" y="51.525895" style="fill: #365c8d; stroke: #365c8d"/>
     </g>
    </g>
    <g id="text_13">
     <!-- 512 -->
     <g transform="translate(84.045313 55.025895)scale(0.1 -0.1)">
      <use xlink:href="#ArialMT-35"/>
      <use xlink:href="#ArialMT-31" x="55.615234"/>
      <use xlink:href="#ArialMT-32" x="111.230469"/>
     </g>
    </g>
    <g id="line2d_26">
     <g>
      <use xlink:href="#m04ce1cfd4f" x="66.045313" y="65.671208" style="fill: #277f8e; stroke: #277f8e"/>
     </g>
    </g>
    <g id="text_14">
     <!-- 1024 -->
     <g transform="translate(84.045313 69.171208)scale(0.1 -0.1)">
      <use xlink:href="#ArialMT-31"/>
      <use xlink:href="#ArialMT-30" x="55.615234"/>
      <use xlink:href="#ArialMT-32" x="111.230469"/>
      <use xlink:href="#ArialMT-34" x="166.845703"/>
     </g>
    </g>
    <g id="line2d_27">
     <g>
      <use xlink:href="#mc9c32ff01b" x="66.045313" y="79.81652" style="fill: #1fa187; stroke: #1fa187"/>
     </g>
    </g>
    <g id="text_15">
     <!-- 2048 -->
     <g transform="translate(84.045313 83.31652)scale(0.1 -0.1)">
      <use xlink:href="#ArialMT-32"/>
      <use xlink:href="#ArialMT-30" x="55.615234"/>
      <use xlink:href="#ArialMT-34" x="111.230469"/>
      <use xlink:href="#ArialMT-38" x="166.845703"/>
     </g>
    </g>
    <g id="line2d_28">
     <g>
      <use xlink:href="#mb297f614bd" x="66.045313" y="93.961833" style="fill: #4ac16d; stroke: #4ac16d"/>
     </g>
    </g>
    <g id="text_16">
     <!-- 4096 -->
     <g transform="translate(84.045313 97.461833)scale(0.1 -0.1)">
      <defs>
       <path id="ArialMT-39" d="M 350 1059 
L 891 1109 
Q 959 728 1153 556 
Q 1347 384 1650 384 
Q 1909 384 2104 503 
Q 2300 622 2425 820 
Q 2550 1019 2634 1356 
Q 2719 1694 2719 2044 
Q 2719 2081 2716 2156 
Q 2547 1888 2255 1720 
Q 1963 1553 1622 1553 
Q 1053 1553 659 1965 
Q 266 2378 266 3053 
Q 266 3750 677 4175 
Q 1088 4600 1706 4600 
Q 2153 4600 2523 4359 
Q 2894 4119 3086 3673 
Q 3278 3228 3278 2384 
Q 3278 1506 3087 986 
Q 2897 466 2520 194 
Q 2144 -78 1638 -78 
Q 1100 -78 759 220 
Q 419 519 350 1059 
z
M 2653 3081 
Q 2653 3566 2395 3850 
Q 2138 4134 1775 4134 
Q 1400 4134 1122 3828 
Q 844 3522 844 3034 
Q 844 2597 1108 2323 
Q 1372 2050 1759 2050 
Q 2150 2050 2401 2323 
Q 2653 2597 2653 3081 
z
" transform="scale(0.015625)"/>
      </defs>
      <use xlink:href="#ArialMT-34"/>
      <use xlink:href="#ArialMT-30" x="55.615234"/>
      <use xlink:href="#ArialMT-39" x="111.230469"/>
      <use xlink:href="#ArialMT-36" x="166.845703"/>
     </g>
    </g>
    <g id="line2d_29">
     <g>
      <use xlink:href="#m99110c9b80" x="66.045313" y="108.107145" style="fill: #a0da39; stroke: #a0da39"/>
     </g>
    </g>
    <g id="text_17">
     <!-- 8192 -->
     <g transform="translate(84.045313 111.607145)scale(0.1 -0.1)">
      <use xlink:href="#ArialMT-38"/>
      <use xlink:href="#ArialMT-31" x="55.615234"/>
      <use xlink:href="#ArialMT-39" x="111.230469"/>
      <use xlink:href="#ArialMT-32" x="166.845703"/>
     </g>
    </g>
   </g>
  </g>
 </g>
 <defs>
  <clipPath id="p30752931b9">
   <rect x="47.045313" y="10.577458" width="212.04" height="144.144"/>
  </clipPath>
 </defs>
</svg>
