<?xml version="1.0" encoding="utf-8" standalone="no"?>
<!DOCTYPE svg PUBLIC "-//W3C//DTD SVG 1.1//EN"
  "http://www.w3.org/Graphics/SVG/1.1/DTD/svg11.dtd">
<svg xmlns:xlink="http://www.w3.org/1999/xlink" width="270.332969pt" height="187.951813pt" viewBox="0 0 270.332969 187.951813" xmlns="http://www.w3.org/2000/svg" version="1.1">
 <metadata>
  <rdf:RDF xmlns:dc="http://purl.org/dc/elements/1.1/" xmlns:cc="http://creativecommons.org/ns#" xmlns:rdf="http://www.w3.org/1999/02/22-rdf-syntax-ns#">
   <cc:Work>
    <dc:type rdf:resource="http://purl.org/dc/dcmitype/StillImage"/>
    <dc:date>2023-01-04T00:34:23.437637</dc:date>
    <dc:format>image/svg+xml</dc:format>
    <dc:creator>
     <cc:Agent>
      <dc:title>Matplotlib v3.5.1, https://matplotlib.org/</dc:title>
     </cc:Agent>
    </dc:creator>
   </cc:Work>
  </rdf:RDF>
 </metadata>
 <defs>
  <style type="text/css">*{stroke-linejoin: round; stroke-linecap: butt}</style>
 </defs>
 <g id="figure_1">
  <g id="patch_1">
   <path d="M 0 187.951813 
L 270.332969 187.951813 
L 270.332969 0 
L 0 0 
L 0 187.951813 
z
" style="fill: none"/>
  </g>
  <g id="axes_1">
   <g id="patch_2">
    <path d="M 41.3625 151.344 
L 253.4025 151.344 
L 253.4025 7.2 
L 41.3625 7.2 
L 41.3625 151.344 
z
" style="fill: none"/>
   </g>
   <g id="PolyCollection_1">
    <path d="M 57.337204 22.684403 
L 57.337204 60.64231 
L 61.827064 61.483426 
L 66.262856 62.344569 
L 70.645865 63.227117 
L 74.977334 64.132714 
L 79.25846 65.063287 
L 83.4904 66.021056 
L 87.674272 67.008537 
L 91.811155 68.028518 
L 95.902093 69.084019 
L 99.948095 70.178208 
L 103.950138 71.314281 
L 107.909167 72.495288 
L 111.826096 73.723923 
L 115.701812 75.00228 
L 119.537172 76.331613 
L 123.333009 77.712133 
L 127.090129 79.142885 
L 130.809314 80.621734 
L 134.491321 82.145469 
L 138.136887 83.71 
L 141.746727 85.310625 
L 145.321533 86.942308 
L 148.861979 88.599945 
L 152.36872 90.278571 
L 155.842391 91.973515 
L 159.283609 93.680501 
L 162.692977 95.395689 
L 166.071077 97.115696 
L 169.418479 98.837573 
L 172.735734 100.55878 
L 176.023382 102.277149 
L 179.281946 103.990839 
L 182.511936 105.6983 
L 185.71385 107.398232 
L 188.88817 109.089553 
L 192.035368 110.771365 
L 195.155904 112.442929 
L 198.250227 114.103643 
L 201.318772 115.753017 
L 204.361965 117.390662 
L 207.380223 119.01627 
L 210.373949 120.629604 
L 213.343541 122.230489 
L 216.289384 123.818797 
L 219.211854 125.394446 
L 222.111321 126.957391 
L 224.988142 128.507617 
L 227.842669 130.045136 
L 230.675245 131.569981 
L 233.486206 133.082206 
L 236.275877 134.58188 
L 239.04458 136.069085 
L 241.792627 137.543915 
L 244.520325 139.006474 
L 247.227972 140.456872 
L 249.91586 141.895226 
L 252.584277 143.32166 
L 255.233503 144.736301 
L 257.863811 146.139278 
L 260.475469 147.530725 
L 263.068741 148.910778 
L 265.643883 150.279571 
L 268.201147 151.637243 
L 270.74078 152.983931 
L 273.263023 154.319774 
L 275.768113 155.644908 
L 278.256281 156.959472 
L 280.727754 158.263601 
L 283.182756 159.557432 
L 285.621503 160.8411 
L 288.04421 162.114737 
L 290.451087 163.378476 
L 292.842339 164.632448 
L 295.218168 165.876782 
L 297.57877 167.111605 
L 299.924341 168.337045 
L 302.255071 169.553226 
L 304.571145 170.76027 
L 306.872748 171.958298 
L 309.160059 173.14743 
L 311.433254 174.327783 
L 313.692506 175.499473 
L 315.937986 176.662614 
L 318.169861 177.817319 
L 320.388293 178.963698 
L 322.593445 180.101859 
L 324.785474 181.23191 
L 326.964536 182.353956 
L 329.130783 183.468101 
L 331.284364 184.574446 
L 333.425428 185.673092 
L 335.554119 186.764137 
L 337.670578 187.847678 
L 339.774947 188.923811 
L 341.867361 189.992629 
L 343.947957 191.054224 
L 346.016866 192.108687 
L 348.07422 193.156108 
L 350.120147 194.196573 
L 350.120147 123.630503 
L 350.120147 123.630503 
L 348.07422 123.033735 
L 346.016866 122.434767 
L 343.947957 121.833583 
L 341.867361 121.230167 
L 339.774947 120.624504 
L 337.670578 120.016578 
L 335.554119 119.406371 
L 333.425428 118.793868 
L 331.284364 118.17905 
L 329.130783 117.5619 
L 326.964536 116.9424 
L 324.785474 116.320532 
L 322.593445 115.696277 
L 320.388293 115.069615 
L 318.169861 114.440527 
L 315.937986 113.808992 
L 313.692506 113.174988 
L 311.433254 112.538495 
L 309.160059 111.899489 
L 306.872748 111.257948 
L 304.571145 110.613847 
L 302.255071 109.96716 
L 299.924341 109.317863 
L 297.57877 108.665927 
L 295.218168 108.011325 
L 292.842339 107.354027 
L 290.451087 106.694001 
L 288.04421 106.031216 
L 285.621503 105.365636 
L 283.182756 104.697225 
L 280.727754 104.025945 
L 278.256281 103.351755 
L 275.768113 102.674613 
L 273.263023 101.994472 
L 270.74078 101.311282 
L 268.201147 100.624993 
L 265.643883 99.935546 
L 263.068741 99.242883 
L 260.475469 98.546937 
L 257.863811 97.847638 
L 255.233503 97.144911 
L 252.584277 96.438671 
L 249.91586 95.728829 
L 247.227972 95.015287 
L 244.520325 94.297937 
L 241.792627 93.576661 
L 239.04458 92.851329 
L 236.275877 92.121798 
L 233.486206 91.387909 
L 230.675245 90.649489 
L 227.842669 89.906342 
L 224.988142 89.158251 
L 222.111321 88.404974 
L 219.211854 87.646241 
L 216.289384 86.881747 
L 213.343541 86.11115 
L 210.373949 85.334064 
L 207.380223 84.550051 
L 204.361965 83.758617 
L 201.318772 82.959198 
L 198.250227 82.151151 
L 195.155904 81.333744 
L 192.035368 80.506134 
L 188.88817 79.667359 
L 185.71385 78.816307 
L 182.511936 77.951703 
L 179.281946 77.072071 
L 176.023382 76.175713 
L 172.735734 75.260665 
L 169.418479 74.324666 
L 166.071077 73.36511 
L 162.692977 72.379013 
L 159.283609 71.362967 
L 155.842391 70.313114 
L 152.36872 69.225133 
L 148.861979 68.094245 
L 145.321533 66.915267 
L 141.746727 65.682706 
L 138.136887 64.390911 
L 134.491321 63.034286 
L 130.809314 61.607551 
L 127.090129 60.106023 
L 123.333009 58.525874 
L 119.537172 56.864336 
L 115.701812 55.119803 
L 111.826096 53.291812 
L 107.909167 51.38092 
L 103.950138 49.388505 
L 99.948095 47.316517 
L 95.902093 45.167242 
L 91.811155 42.943083 
L 87.674272 40.646389 
L 83.4904 38.279333 
L 79.25846 35.843826 
L 74.977334 33.341475 
L 70.645865 30.773562 
L 66.262856 28.14104 
L 61.827064 25.444544 
L 57.337204 22.684403 
z
" clip-path="url(#p6d9c9b6367)" style="fill: #444444; fill-opacity: 0.2; stroke: #444444; stroke-opacity: 0.2"/>
   </g>
   <g id="PolyCollection_2">
    <defs>
     <path id="m31ed43fc8a" d="M 64.114463 -124.883005 
L 61.656361 -124.883005 
L 61.551317 -125.31127 
L 61.442289 -125.739536 
L 61.329778 -126.167802 
L 61.214405 -126.596067 
L 61.096914 -127.024333 
L 60.978169 -127.452598 
L 60.859137 -127.880864 
L 60.740874 -128.30913 
L 60.624489 -128.737395 
L 60.511115 -129.165661 
L 60.401858 -129.593927 
L 60.297754 -130.022192 
L 60.199714 -130.450458 
L 60.108473 -130.878724 
L 60.02454 -131.306989 
L 59.948151 -131.735255 
L 59.879236 -132.16352 
L 59.81739 -132.591786 
L 59.761861 -133.020052 
L 59.711555 -133.448317 
L 59.665047 -133.876583 
L 59.620622 -134.304849 
L 59.576315 -134.733114 
L 59.529978 -135.16138 
L 59.479347 -135.589645 
L 59.422127 -136.017911 
L 59.356071 -136.446177 
L 59.279067 -136.874442 
L 59.189223 -137.302708 
L 59.084937 -137.730974 
L 58.964968 -138.159239 
L 58.828488 -138.587505 
L 58.675116 -139.01577 
L 58.50495 -139.444036 
L 58.318565 -139.872302 
L 58.117005 -140.300567 
L 57.901756 -140.728833 
L 57.674708 -141.157099 
L 57.438098 -141.585364 
L 57.19445 -142.01363 
L 56.946504 -142.441896 
L 56.697141 -142.870161 
L 56.449306 -143.298427 
L 56.205935 -143.726692 
L 55.96988 -144.154958 
L 55.74384 -144.583224 
L 55.530307 -145.011489 
L 55.331506 -145.439755 
L 55.149359 -145.868021 
L 54.985448 -146.296286 
L 54.841 -146.724552 
L 54.716875 -147.152817 
L 54.613568 -147.581083 
L 54.531223 -148.009349 
L 54.469662 -148.437614 
L 54.428415 -148.86588 
L 54.406768 -149.294146 
L 54.403812 -149.722411 
L 54.418499 -150.150677 
L 54.449702 -150.578943 
L 54.496271 -151.007208 
L 54.557091 -151.435474 
L 54.631129 -151.863739 
L 54.717475 -152.292005 
L 54.815373 -152.720271 
L 54.924238 -153.148536 
L 55.043658 -153.576802 
L 55.173389 -154.005068 
L 55.313327 -154.433333 
L 55.463478 -154.861599 
L 55.623917 -155.289864 
L 55.794734 -155.71813 
L 55.975989 -156.146396 
L 56.167661 -156.574661 
L 56.3696 -157.002927 
L 56.581492 -157.431193 
L 56.802827 -157.859458 
L 57.032886 -158.287724 
L 57.270735 -158.71599 
L 57.515234 -159.144255 
L 57.765054 -159.572521 
L 58.018714 -160.000786 
L 58.274613 -160.429052 
L 58.531079 -160.857318 
L 58.786417 -161.285583 
L 59.038957 -161.713849 
L 59.2871 -162.142115 
L 59.529365 -162.57038 
L 59.764418 -162.998646 
L 59.991107 -163.426911 
L 60.208477 -163.855177 
L 60.415785 -164.283443 
L 60.6125 -164.711708 
L 60.798295 -165.139974 
L 60.973038 -165.56824 
L 61.136768 -165.996505 
L 61.289675 -166.424771 
L 61.43207 -166.853036 
L 61.564362 -167.281302 
L 64.206462 -167.281302 
L 64.206462 -167.281302 
L 64.338753 -166.853036 
L 64.481149 -166.424771 
L 64.634055 -165.996505 
L 64.797785 -165.56824 
L 64.972528 -165.139974 
L 65.158323 -164.711708 
L 65.355038 -164.283443 
L 65.562346 -163.855177 
L 65.779717 -163.426911 
L 66.006405 -162.998646 
L 66.241458 -162.57038 
L 66.483723 -162.142115 
L 66.731867 -161.713849 
L 66.984406 -161.285583 
L 67.239744 -160.857318 
L 67.49621 -160.429052 
L 67.752109 -160.000786 
L 68.005769 -159.572521 
L 68.25559 -159.144255 
L 68.500088 -158.71599 
L 68.737938 -158.287724 
L 68.967997 -157.859458 
L 69.189332 -157.431193 
L 69.401223 -157.002927 
L 69.603162 -156.574661 
L 69.794834 -156.146396 
L 69.976089 -155.71813 
L 70.146907 -155.289864 
L 70.307345 -154.861599 
L 70.457497 -154.433333 
L 70.597435 -154.005068 
L 70.727165 -153.576802 
L 70.846586 -153.148536 
L 70.95545 -152.720271 
L 71.053348 -152.292005 
L 71.139694 -151.863739 
L 71.213732 -151.435474 
L 71.274552 -151.007208 
L 71.321121 -150.578943 
L 71.352324 -150.150677 
L 71.367012 -149.722411 
L 71.364056 -149.294146 
L 71.342409 -148.86588 
L 71.301162 -148.437614 
L 71.2396 -148.009349 
L 71.157256 -147.581083 
L 71.053948 -147.152817 
L 70.929823 -146.724552 
L 70.785375 -146.296286 
L 70.621465 -145.868021 
L 70.439317 -145.439755 
L 70.240516 -145.011489 
L 70.026983 -144.583224 
L 69.800944 -144.154958 
L 69.564888 -143.726692 
L 69.321517 -143.298427 
L 69.073682 -142.870161 
L 68.824319 -142.441896 
L 68.576373 -142.01363 
L 68.332725 -141.585364 
L 68.096115 -141.157099 
L 67.869067 -140.728833 
L 67.653819 -140.300567 
L 67.452258 -139.872302 
L 67.265873 -139.444036 
L 67.095707 -139.01577 
L 66.942336 -138.587505 
L 66.805855 -138.159239 
L 66.685886 -137.730974 
L 66.5816 -137.302708 
L 66.491756 -136.874442 
L 66.414752 -136.446177 
L 66.348696 -136.017911 
L 66.291476 -135.589645 
L 66.240845 -135.16138 
L 66.194508 -134.733114 
L 66.150201 -134.304849 
L 66.105776 -133.876583 
L 66.059269 -133.448317 
L 66.008962 -133.020052 
L 65.953434 -132.591786 
L 65.891587 -132.16352 
L 65.822672 -131.735255 
L 65.746284 -131.306989 
L 65.66235 -130.878724 
L 65.571109 -130.450458 
L 65.47307 -130.022192 
L 65.368965 -129.593927 
L 65.259708 -129.165661 
L 65.146334 -128.737395 
L 65.02995 -128.30913 
L 64.911686 -127.880864 
L 64.792655 -127.452598 
L 64.673909 -127.024333 
L 64.556418 -126.596067 
L 64.441045 -126.167802 
L 64.328534 -125.739536 
L 64.219507 -125.31127 
L 64.114463 -124.883005 
z
" style="stroke: #440154; stroke-opacity: 0.4"/>
    </defs>
    <g clip-path="url(#p6d9c9b6367)">
     <use xlink:href="#m31ed43fc8a" x="0" y="187.951813" style="fill: #440154; fill-opacity: 0.4; stroke: #440154; stroke-opacity: 0.4"/>
    </g>
   </g>
   <g id="PolyCollection_3">
    <defs>
     <path id="m66368f9843" d="M 85.294318 -108.214844 
L 83.262691 -108.214844 
L 83.194877 -108.546324 
L 83.125111 -108.877804 
L 83.053415 -109.209284 
L 82.979821 -109.540764 
L 82.904375 -109.872244 
L 82.827141 -110.203724 
L 82.74821 -110.535205 
L 82.667701 -110.866685 
L 82.585767 -111.198165 
L 82.502595 -111.529645 
L 82.418405 -111.861125 
L 82.333452 -112.192605 
L 82.248015 -112.524085 
L 82.162398 -112.855565 
L 82.076913 -113.187045 
L 81.991879 -113.518526 
L 81.907603 -113.850006 
L 81.82437 -114.181486 
L 81.742428 -114.512966 
L 81.661977 -114.844446 
L 81.58315 -115.175926 
L 81.506009 -115.507406 
L 81.430524 -115.838886 
L 81.356573 -116.170367 
L 81.283929 -116.501847 
L 81.212264 -116.833327 
L 81.141141 -117.164807 
L 81.070025 -117.496287 
L 80.998288 -117.827767 
L 80.92522 -118.159247 
L 80.850047 -118.490727 
L 80.771951 -118.822207 
L 80.690088 -119.153688 
L 80.603616 -119.485168 
L 80.511721 -119.816648 
L 80.413641 -120.148128 
L 80.308697 -120.479608 
L 80.196312 -120.811088 
L 80.076042 -121.142568 
L 79.947585 -121.474048 
L 79.810806 -121.805529 
L 79.665741 -122.137009 
L 79.512604 -122.468489 
L 79.351787 -122.799969 
L 79.183855 -123.131449 
L 79.009535 -123.462929 
L 78.829699 -123.794409 
L 78.645349 -124.125889 
L 78.457594 -124.457369 
L 78.267627 -124.78885 
L 78.076703 -125.12033 
L 77.886113 -125.45181 
L 77.697167 -125.78329 
L 77.511169 -126.11477 
L 77.329403 -126.44625 
L 77.153117 -126.77773 
L 76.98351 -127.10921 
L 76.821723 -127.44069 
L 76.668828 -127.772171 
L 76.525825 -128.103651 
L 76.393636 -128.435131 
L 76.273097 -128.766611 
L 76.164956 -129.098091 
L 76.069866 -129.429571 
L 75.988383 -129.761051 
L 75.920955 -130.092531 
L 75.867925 -130.424012 
L 75.829519 -130.755492 
L 75.805848 -131.086972 
L 75.796905 -131.418452 
L 75.802565 -131.749932 
L 75.822595 -132.081412 
L 75.856656 -132.412892 
L 75.904315 -132.744372 
L 75.965064 -133.075852 
L 76.038335 -133.407333 
L 76.123519 -133.738813 
L 76.21999 -134.070293 
L 76.327128 -134.401773 
L 76.444337 -134.733253 
L 76.571067 -135.064733 
L 76.706826 -135.396213 
L 76.851196 -135.727693 
L 77.003835 -136.059174 
L 77.16448 -136.390654 
L 77.332937 -136.722134 
L 77.50907 -137.053614 
L 77.692786 -137.385094 
L 77.884007 -137.716574 
L 78.082651 -138.048054 
L 78.288597 -138.379534 
L 78.501664 -138.711014 
L 78.72158 -139.042495 
L 78.947961 -139.373975 
L 79.180294 -139.705455 
L 79.41792 -140.036935 
L 79.660032 -140.368415 
L 79.905678 -140.699895 
L 80.153764 -141.031375 
L 88.403245 -141.031375 
L 88.403245 -141.031375 
L 88.651331 -140.699895 
L 88.896977 -140.368415 
L 89.13909 -140.036935 
L 89.376715 -139.705455 
L 89.609048 -139.373975 
L 89.835429 -139.042495 
L 90.055345 -138.711014 
L 90.268412 -138.379534 
L 90.474358 -138.048054 
L 90.673002 -137.716574 
L 90.864223 -137.385094 
L 91.047939 -137.053614 
L 91.224072 -136.722134 
L 91.392529 -136.390654 
L 91.553174 -136.059174 
L 91.705813 -135.727693 
L 91.850183 -135.396213 
L 91.985943 -135.064733 
L 92.112672 -134.733253 
L 92.229881 -134.401773 
L 92.337019 -134.070293 
L 92.433491 -133.738813 
L 92.518675 -133.407333 
L 92.591945 -133.075852 
L 92.652694 -132.744372 
L 92.700354 -132.412892 
L 92.734414 -132.081412 
L 92.754444 -131.749932 
L 92.760105 -131.418452 
L 92.751161 -131.086972 
L 92.72749 -130.755492 
L 92.689084 -130.424012 
L 92.636054 -130.092531 
L 92.568626 -129.761051 
L 92.487143 -129.429571 
L 92.392053 -129.098091 
L 92.283912 -128.766611 
L 92.163373 -128.435131 
L 92.031184 -128.103651 
L 91.888181 -127.772171 
L 91.735286 -127.44069 
L 91.573499 -127.10921 
L 91.403892 -126.77773 
L 91.227606 -126.44625 
L 91.04584 -126.11477 
L 90.859842 -125.78329 
L 90.670896 -125.45181 
L 90.480306 -125.12033 
L 90.289382 -124.78885 
L 90.099415 -124.457369 
L 89.91166 -124.125889 
L 89.72731 -123.794409 
L 89.547474 -123.462929 
L 89.373154 -123.131449 
L 89.205222 -122.799969 
L 89.044405 -122.468489 
L 88.891268 -122.137009 
L 88.746203 -121.805529 
L 88.609424 -121.474048 
L 88.480967 -121.142568 
L 88.360697 -120.811088 
L 88.248313 -120.479608 
L 88.143368 -120.148128 
L 88.045288 -119.816648 
L 87.953393 -119.485168 
L 87.866921 -119.153688 
L 87.785058 -118.822207 
L 87.706962 -118.490727 
L 87.63179 -118.159247 
L 87.558722 -117.827767 
L 87.486984 -117.496287 
L 87.415868 -117.164807 
L 87.344745 -116.833327 
L 87.27308 -116.501847 
L 87.200437 -116.170367 
L 87.126485 -115.838886 
L 87.051001 -115.507406 
L 86.973859 -115.175926 
L 86.895033 -114.844446 
L 86.814581 -114.512966 
L 86.732639 -114.181486 
L 86.649406 -113.850006 
L 86.56513 -113.518526 
L 86.480096 -113.187045 
L 86.394612 -112.855565 
L 86.308994 -112.524085 
L 86.223557 -112.192605 
L 86.138604 -111.861125 
L 86.054414 -111.529645 
L 85.971242 -111.198165 
L 85.889308 -110.866685 
L 85.808799 -110.535205 
L 85.729868 -110.203724 
L 85.652634 -109.872244 
L 85.577188 -109.540764 
L 85.503594 -109.209284 
L 85.431898 -108.877804 
L 85.362132 -108.546324 
L 85.294318 -108.214844 
z
" style="stroke: #443983; stroke-opacity: 0.4"/>
    </defs>
    <g clip-path="url(#p6d9c9b6367)">
     <use xlink:href="#m66368f9843" x="0" y="187.951813" style="fill: #443983; fill-opacity: 0.4; stroke: #443983; stroke-opacity: 0.4"/>
    </g>
   </g>
   <g id="PolyCollection_4">
    <defs>
     <path id="m55f2a7699d" d="M 111.077264 -103.138127 
L 107.688537 -103.138127 
L 107.588874 -103.593085 
L 107.493171 -104.048043 
L 107.4019 -104.503001 
L 107.315329 -104.957959 
L 107.233522 -105.412917 
L 107.156325 -105.867875 
L 107.083377 -106.322833 
L 107.014108 -106.777791 
L 106.94776 -107.232749 
L 106.883397 -107.687707 
L 106.819925 -108.142665 
L 106.756113 -108.597623 
L 106.690616 -109.052581 
L 106.622006 -109.507539 
L 106.548797 -109.962497 
L 106.469479 -110.417455 
L 106.382556 -110.872413 
L 106.286584 -111.327371 
L 106.180217 -111.782329 
L 106.062245 -112.237287 
L 105.931645 -112.692245 
L 105.78762 -113.147203 
L 105.629641 -113.602161 
L 105.457483 -114.057119 
L 105.271251 -114.512077 
L 105.0714 -114.967035 
L 104.858744 -115.421993 
L 104.634451 -115.876951 
L 104.400033 -116.331909 
L 104.157314 -116.786867 
L 103.908398 -117.241825 
L 103.655619 -117.696783 
L 103.401485 -118.151741 
L 103.148614 -118.606699 
L 102.899666 -119.061657 
L 102.657273 -119.516615 
L 102.423967 -119.971573 
L 102.202115 -120.426531 
L 101.993856 -120.881489 
L 101.801049 -121.336447 
L 101.625238 -121.791405 
L 101.467621 -122.246363 
L 101.329048 -122.701321 
L 101.210025 -123.156279 
L 101.110742 -123.611237 
L 101.031116 -124.066195 
L 100.970848 -124.521153 
L 100.929482 -124.976111 
L 100.906482 -125.431069 
L 100.901301 -125.886027 
L 100.913441 -126.340985 
L 100.942514 -126.795943 
L 100.988277 -127.250901 
L 101.050653 -127.705859 
L 101.129733 -128.160818 
L 101.225752 -128.615776 
L 101.33905 -129.070734 
L 101.470018 -129.525692 
L 101.619025 -129.98065 
L 101.786348 -130.435608 
L 101.972094 -130.890566 
L 102.176132 -131.345524 
L 102.398034 -131.800482 
L 102.637032 -132.25544 
L 102.891996 -132.710398 
L 103.161431 -133.165356 
L 103.44349 -133.620314 
L 103.73602 -134.075272 
L 104.036605 -134.53023 
L 104.34264 -134.985188 
L 104.6514 -135.440146 
L 104.960122 -135.895104 
L 105.266078 -136.350062 
L 105.566649 -136.80502 
L 105.859388 -137.259978 
L 106.142071 -137.714936 
L 106.412744 -138.169894 
L 106.669744 -138.624852 
L 106.911723 -139.07981 
L 107.137652 -139.534768 
L 107.346818 -139.989726 
L 107.538815 -140.444684 
L 107.713531 -140.899642 
L 107.871125 -141.3546 
L 108.012006 -141.809558 
L 108.13681 -142.264516 
L 108.246372 -142.719474 
L 108.3417 -143.174432 
L 108.423946 -143.62939 
L 108.494376 -144.084348 
L 108.554338 -144.539306 
L 108.60523 -144.994264 
L 108.648465 -145.449222 
L 108.685438 -145.90418 
L 108.717493 -146.359138 
L 108.745892 -146.814096 
L 108.771783 -147.269054 
L 108.79618 -147.724012 
L 108.81994 -148.17897 
L 109.945861 -148.17897 
L 109.945861 -148.17897 
L 109.969621 -147.724012 
L 109.994018 -147.269054 
L 110.019909 -146.814096 
L 110.048308 -146.359138 
L 110.080363 -145.90418 
L 110.117336 -145.449222 
L 110.160571 -144.994264 
L 110.211463 -144.539306 
L 110.271425 -144.084348 
L 110.341855 -143.62939 
L 110.424101 -143.174432 
L 110.519429 -142.719474 
L 110.628991 -142.264516 
L 110.753795 -141.809558 
L 110.894676 -141.3546 
L 111.05227 -140.899642 
L 111.226986 -140.444684 
L 111.418983 -139.989726 
L 111.628149 -139.534768 
L 111.854078 -139.07981 
L 112.096057 -138.624852 
L 112.353057 -138.169894 
L 112.62373 -137.714936 
L 112.906413 -137.259978 
L 113.199152 -136.80502 
L 113.499723 -136.350062 
L 113.805679 -135.895104 
L 114.114401 -135.440146 
L 114.423161 -134.985188 
L 114.729196 -134.53023 
L 115.029781 -134.075272 
L 115.322311 -133.620314 
L 115.604371 -133.165356 
L 115.873805 -132.710398 
L 116.128769 -132.25544 
L 116.367767 -131.800482 
L 116.589669 -131.345524 
L 116.793707 -130.890566 
L 116.979453 -130.435608 
L 117.146776 -129.98065 
L 117.295783 -129.525692 
L 117.426751 -129.070734 
L 117.540049 -128.615776 
L 117.636068 -128.160818 
L 117.715148 -127.705859 
L 117.777524 -127.250901 
L 117.823287 -126.795943 
L 117.85236 -126.340985 
L 117.864501 -125.886027 
L 117.859319 -125.431069 
L 117.836319 -124.976111 
L 117.794953 -124.521153 
L 117.734685 -124.066195 
L 117.65506 -123.611237 
L 117.555777 -123.156279 
L 117.436753 -122.701321 
L 117.29818 -122.246363 
L 117.140563 -121.791405 
L 116.964752 -121.336447 
L 116.771945 -120.881489 
L 116.563686 -120.426531 
L 116.341834 -119.971573 
L 116.108528 -119.516615 
L 115.866135 -119.061657 
L 115.617187 -118.606699 
L 115.364316 -118.151741 
L 115.110182 -117.696783 
L 114.857403 -117.241825 
L 114.608487 -116.786867 
L 114.365768 -116.331909 
L 114.13135 -115.876951 
L 113.907057 -115.421993 
L 113.694401 -114.967035 
L 113.49455 -114.512077 
L 113.308318 -114.057119 
L 113.13616 -113.602161 
L 112.978181 -113.147203 
L 112.834156 -112.692245 
L 112.703556 -112.237287 
L 112.585584 -111.782329 
L 112.479217 -111.327371 
L 112.383245 -110.872413 
L 112.296322 -110.417455 
L 112.217004 -109.962497 
L 112.143795 -109.507539 
L 112.075185 -109.052581 
L 112.009688 -108.597623 
L 111.945876 -108.142665 
L 111.882404 -107.687707 
L 111.818041 -107.232749 
L 111.751693 -106.777791 
L 111.682425 -106.322833 
L 111.609476 -105.867875 
L 111.532279 -105.412917 
L 111.450472 -104.957959 
L 111.363901 -104.503001 
L 111.27263 -104.048043 
L 111.176927 -103.593085 
L 111.077264 -103.138127 
z
" style="stroke: #31688e; stroke-opacity: 0.4"/>
    </defs>
    <g clip-path="url(#p6d9c9b6367)">
     <use xlink:href="#m55f2a7699d" x="0" y="187.951813" style="fill: #31688e; fill-opacity: 0.4; stroke: #31688e; stroke-opacity: 0.4"/>
    </g>
   </g>
   <g id="PolyCollection_5">
    <defs>
     <path id="mbffee2a1ae" d="M 156.072213 -89.357811 
L 153.881865 -89.357811 
L 153.783003 -89.710171 
L 153.676471 -90.062531 
L 153.561633 -90.414892 
L 153.437877 -90.767252 
L 153.304646 -91.119613 
L 153.161471 -91.471973 
L 153.007999 -91.824333 
L 152.84402 -92.176694 
L 152.669498 -92.529054 
L 152.484591 -92.881415 
L 152.289666 -93.233775 
L 152.085316 -93.586135 
L 151.872361 -93.938496 
L 151.651848 -94.290856 
L 151.425044 -94.643217 
L 151.193421 -94.995577 
L 150.958633 -95.347938 
L 150.722492 -95.700298 
L 150.486936 -96.052658 
L 150.253986 -96.405019 
L 150.025716 -96.757379 
L 149.804198 -97.10974 
L 149.591464 -97.4621 
L 149.389454 -97.81446 
L 149.199974 -98.166821 
L 149.024644 -98.519181 
L 148.86486 -98.871542 
L 148.721746 -99.223902 
L 148.596127 -99.576262 
L 148.48849 -99.928623 
L 148.398968 -100.280983 
L 148.327315 -100.633344 
L 148.27291 -100.985704 
L 148.234749 -101.338064 
L 148.211461 -101.690425 
L 148.201333 -102.042785 
L 148.202336 -102.395146 
L 148.21217 -102.747506 
L 148.228314 -103.099866 
L 148.248084 -103.452227 
L 148.268701 -103.804587 
L 148.287359 -104.156948 
L 148.301307 -104.509308 
L 148.307918 -104.861669 
L 148.304778 -105.214029 
L 148.28976 -105.566389 
L 148.261096 -105.91875 
L 148.217453 -106.27111 
L 148.157989 -106.623471 
L 148.082412 -106.975831 
L 147.991013 -107.328191 
L 147.884699 -107.680552 
L 147.764999 -108.032912 
L 147.634054 -108.385273 
L 147.494595 -108.737633 
L 147.349888 -109.089993 
L 147.203667 -109.442354 
L 147.060042 -109.794714 
L 146.923393 -110.147075 
L 146.798241 -110.499435 
L 146.689113 -110.851795 
L 146.600398 -111.204156 
L 146.536195 -111.556516 
L 146.500173 -111.908877 
L 146.495439 -112.261237 
L 146.524419 -112.613597 
L 146.588763 -112.965958 
L 146.689286 -113.318318 
L 146.825923 -113.670679 
L 146.997737 -114.023039 
L 147.202945 -114.375399 
L 147.438988 -114.72776 
L 147.702622 -115.08012 
L 147.99004 -115.432481 
L 148.297009 -115.784841 
L 148.619022 -116.137202 
L 148.951449 -116.489562 
L 149.289693 -116.841922 
L 149.629331 -117.194283 
L 149.966237 -117.546643 
L 150.296692 -117.899004 
L 150.617463 -118.251364 
L 150.925858 -118.603724 
L 151.219754 -118.956085 
L 151.497606 -119.308445 
L 151.758422 -119.660806 
L 152.001726 -120.013166 
L 152.227507 -120.365526 
L 152.43615 -120.717887 
L 152.628364 -121.070247 
L 152.805111 -121.422608 
L 152.967527 -121.774968 
L 153.116856 -122.127328 
L 153.254386 -122.479689 
L 153.381394 -122.832049 
L 153.499101 -123.18441 
L 153.608637 -123.53677 
L 153.711018 -123.88913 
L 153.807123 -124.241491 
L 156.146955 -124.241491 
L 156.146955 -124.241491 
L 156.243061 -123.88913 
L 156.345441 -123.53677 
L 156.454978 -123.18441 
L 156.572685 -122.832049 
L 156.699693 -122.479689 
L 156.837223 -122.127328 
L 156.986552 -121.774968 
L 157.148968 -121.422608 
L 157.325714 -121.070247 
L 157.517929 -120.717887 
L 157.726571 -120.365526 
L 157.952352 -120.013166 
L 158.195657 -119.660806 
L 158.456472 -119.308445 
L 158.734324 -118.956085 
L 159.028221 -118.603724 
L 159.336615 -118.251364 
L 159.657386 -117.899004 
L 159.987842 -117.546643 
L 160.324748 -117.194283 
L 160.664385 -116.841922 
L 161.00263 -116.489562 
L 161.335057 -116.137202 
L 161.657069 -115.784841 
L 161.964038 -115.432481 
L 162.251457 -115.08012 
L 162.515091 -114.72776 
L 162.751134 -114.375399 
L 162.956342 -114.023039 
L 163.128156 -113.670679 
L 163.264793 -113.318318 
L 163.365315 -112.965958 
L 163.42966 -112.613597 
L 163.458639 -112.261237 
L 163.453905 -111.908877 
L 163.417884 -111.556516 
L 163.353681 -111.204156 
L 163.264965 -110.851795 
L 163.155838 -110.499435 
L 163.030686 -110.147075 
L 162.894036 -109.794714 
L 162.750411 -109.442354 
L 162.60419 -109.089993 
L 162.459483 -108.737633 
L 162.320024 -108.385273 
L 162.18908 -108.032912 
L 162.069379 -107.680552 
L 161.963065 -107.328191 
L 161.871667 -106.975831 
L 161.796089 -106.623471 
L 161.736626 -106.27111 
L 161.692983 -105.91875 
L 161.664319 -105.566389 
L 161.6493 -105.214029 
L 161.646161 -104.861669 
L 161.652772 -104.509308 
L 161.666719 -104.156948 
L 161.685378 -103.804587 
L 161.705995 -103.452227 
L 161.725765 -103.099866 
L 161.741909 -102.747506 
L 161.751743 -102.395146 
L 161.752745 -102.042785 
L 161.742617 -101.690425 
L 161.71933 -101.338064 
L 161.681169 -100.985704 
L 161.626763 -100.633344 
L 161.555111 -100.280983 
L 161.465588 -99.928623 
L 161.357952 -99.576262 
L 161.232332 -99.223902 
L 161.089219 -98.871542 
L 160.929434 -98.519181 
L 160.754105 -98.166821 
L 160.564624 -97.81446 
L 160.362615 -97.4621 
L 160.149881 -97.10974 
L 159.928363 -96.757379 
L 159.700092 -96.405019 
L 159.467143 -96.052658 
L 159.231586 -95.700298 
L 158.995446 -95.347938 
L 158.760658 -94.995577 
L 158.529035 -94.643217 
L 158.302231 -94.290856 
L 158.081718 -93.938496 
L 157.868763 -93.586135 
L 157.664412 -93.233775 
L 157.469488 -92.881415 
L 157.28458 -92.529054 
L 157.110058 -92.176694 
L 156.94608 -91.824333 
L 156.792607 -91.471973 
L 156.649432 -91.119613 
L 156.516202 -90.767252 
L 156.392446 -90.414892 
L 156.277607 -90.062531 
L 156.171076 -89.710171 
L 156.072213 -89.357811 
z
" style="stroke: #21918c; stroke-opacity: 0.4"/>
    </defs>
    <g clip-path="url(#p6d9c9b6367)">
     <use xlink:href="#mbffee2a1ae" x="0" y="187.951813" style="fill: #21918c; fill-opacity: 0.4; stroke: #21918c; stroke-opacity: 0.4"/>
    </g>
   </g>
   <g id="PolyCollection_6">
    <defs>
     <path id="m1771d91bc6" d="M 198.589734 -68.843272 
L 192.498504 -68.843272 
L 192.370283 -69.223141 
L 192.246382 -69.603009 
L 192.126965 -69.982877 
L 192.012058 -70.362746 
L 191.901551 -70.742614 
L 191.795205 -71.122482 
L 191.692667 -71.502351 
L 191.593486 -71.882219 
L 191.497129 -72.262087 
L 191.403004 -72.641955 
L 191.310484 -73.021824 
L 191.218924 -73.401692 
L 191.127687 -73.78156 
L 191.036161 -74.161429 
L 190.943779 -74.541297 
L 190.850027 -74.921165 
L 190.754463 -75.301034 
L 190.656719 -75.680902 
L 190.556506 -76.06077 
L 190.453614 -76.440639 
L 190.347911 -76.820507 
L 190.239334 -77.200375 
L 190.127889 -77.580244 
L 190.013635 -77.960112 
L 189.896681 -78.33998 
L 189.777177 -78.719848 
L 189.655306 -79.099717 
L 189.53128 -79.479585 
L 189.405333 -79.859453 
L 189.277725 -80.239322 
L 189.148738 -80.61919 
L 189.018681 -80.999058 
L 188.887894 -81.378927 
L 188.756755 -81.758795 
L 188.625684 -82.138663 
L 188.495154 -82.518532 
L 188.365692 -82.8984 
L 188.23789 -83.278268 
L 188.1124 -83.658136 
L 187.989943 -84.038005 
L 187.871299 -84.417873 
L 187.757304 -84.797741 
L 187.648843 -85.17761 
L 187.546833 -85.557478 
L 187.452205 -85.937346 
L 187.365895 -86.317215 
L 187.28881 -86.697083 
L 187.221816 -87.076951 
L 187.16571 -87.45682 
L 187.121199 -87.836688 
L 187.088877 -88.216556 
L 187.069211 -88.596425 
L 187.062519 -88.976293 
L 187.068963 -89.356161 
L 187.088537 -89.736029 
L 187.12107 -90.115898 
L 187.166224 -90.495766 
L 187.223504 -90.875634 
L 187.292267 -91.255503 
L 187.371743 -91.635371 
L 187.461054 -92.015239 
L 187.559236 -92.395108 
L 187.665267 -92.774976 
L 187.778091 -93.154844 
L 187.896651 -93.534713 
L 188.019908 -93.914581 
L 188.146873 -94.294449 
L 188.276626 -94.674318 
L 188.408334 -95.054186 
L 188.54127 -95.434054 
L 188.674826 -95.813922 
L 188.808515 -96.193791 
L 188.941977 -96.573659 
L 189.074983 -96.953527 
L 189.207421 -97.333396 
L 189.339295 -97.713264 
L 189.470712 -98.093132 
L 189.601866 -98.473001 
L 189.733027 -98.852869 
L 189.864518 -99.232737 
L 189.996702 -99.612606 
L 190.129965 -99.992474 
L 190.264692 -100.372342 
L 190.401258 -100.75221 
L 190.540007 -101.132079 
L 190.681241 -101.511947 
L 190.825206 -101.891815 
L 190.972079 -102.271684 
L 191.121966 -102.651552 
L 191.274889 -103.03142 
L 191.430787 -103.411289 
L 191.589509 -103.791157 
L 191.750819 -104.171025 
L 191.914398 -104.550894 
L 192.079843 -104.930762 
L 192.246683 -105.31063 
L 192.414379 -105.690499 
L 192.582338 -106.070367 
L 192.749922 -106.450235 
L 198.338317 -106.450235 
L 198.338317 -106.450235 
L 198.5059 -106.070367 
L 198.673859 -105.690499 
L 198.841555 -105.31063 
L 199.008395 -104.930762 
L 199.173841 -104.550894 
L 199.337419 -104.171025 
L 199.49873 -103.791157 
L 199.657452 -103.411289 
L 199.813349 -103.03142 
L 199.966272 -102.651552 
L 200.116159 -102.271684 
L 200.263033 -101.891815 
L 200.406997 -101.511947 
L 200.548231 -101.132079 
L 200.686981 -100.75221 
L 200.823547 -100.372342 
L 200.958274 -99.992474 
L 201.091536 -99.612606 
L 201.223721 -99.232737 
L 201.355212 -98.852869 
L 201.486372 -98.473001 
L 201.617527 -98.093132 
L 201.748943 -97.713264 
L 201.880818 -97.333396 
L 202.013256 -96.953527 
L 202.146261 -96.573659 
L 202.279724 -96.193791 
L 202.413412 -95.813922 
L 202.546968 -95.434054 
L 202.679905 -95.054186 
L 202.811613 -94.674318 
L 202.941365 -94.294449 
L 203.06833 -93.914581 
L 203.191588 -93.534713 
L 203.310147 -93.154844 
L 203.422972 -92.774976 
L 203.529002 -92.395108 
L 203.627184 -92.015239 
L 203.716495 -91.635371 
L 203.795972 -91.255503 
L 203.864735 -90.875634 
L 203.922014 -90.495766 
L 203.967168 -90.115898 
L 203.999702 -89.736029 
L 204.019276 -89.356161 
L 204.025719 -88.976293 
L 204.019027 -88.596425 
L 203.999361 -88.216556 
L 203.96704 -87.836688 
L 203.922529 -87.45682 
L 203.866422 -87.076951 
L 203.799429 -86.697083 
L 203.722344 -86.317215 
L 203.636033 -85.937346 
L 203.541406 -85.557478 
L 203.439395 -85.17761 
L 203.330934 -84.797741 
L 203.21694 -84.417873 
L 203.098296 -84.038005 
L 202.975838 -83.658136 
L 202.850349 -83.278268 
L 202.722546 -82.8984 
L 202.593085 -82.518532 
L 202.462554 -82.138663 
L 202.331484 -81.758795 
L 202.200344 -81.378927 
L 202.069558 -80.999058 
L 201.9395 -80.61919 
L 201.810513 -80.239322 
L 201.682905 -79.859453 
L 201.556958 -79.479585 
L 201.432932 -79.099717 
L 201.311061 -78.719848 
L 201.191557 -78.33998 
L 201.074604 -77.960112 
L 200.96035 -77.580244 
L 200.848904 -77.200375 
L 200.740328 -76.820507 
L 200.634624 -76.440639 
L 200.531732 -76.06077 
L 200.431519 -75.680902 
L 200.333775 -75.301034 
L 200.238211 -74.921165 
L 200.14446 -74.541297 
L 200.052077 -74.161429 
L 199.960552 -73.78156 
L 199.869315 -73.401692 
L 199.777755 -73.021824 
L 199.685234 -72.641955 
L 199.59111 -72.262087 
L 199.494753 -71.882219 
L 199.395571 -71.502351 
L 199.293034 -71.122482 
L 199.186688 -70.742614 
L 199.07618 -70.362746 
L 198.961273 -69.982877 
L 198.841856 -69.603009 
L 198.717955 -69.223141 
L 198.589734 -68.843272 
z
" style="stroke: #35b779; stroke-opacity: 0.4"/>
    </defs>
    <g clip-path="url(#p6d9c9b6367)">
     <use xlink:href="#m1771d91bc6" x="0" y="187.951813" style="fill: #35b779; fill-opacity: 0.4; stroke: #35b779; stroke-opacity: 0.4"/>
    </g>
   </g>
   <g id="PolyCollection_7">
    <defs>
     <path id="m4433d8b563" d="M 233.583136 -63.203591 
L 230.583678 -63.203591 
L 230.459017 -63.621277 
L 230.329954 -64.038963 
L 230.196874 -64.456649 
L 230.060215 -64.874335 
L 229.920467 -65.292021 
L 229.77817 -65.709707 
L 229.633915 -66.127393 
L 229.488334 -66.545079 
L 229.342099 -66.962765 
L 229.195909 -67.380451 
L 229.050475 -67.798137 
L 228.906509 -68.215823 
L 228.7647 -68.633509 
L 228.625693 -69.051195 
L 228.490065 -69.468881 
L 228.358296 -69.886566 
L 228.230744 -70.304252 
L 228.107614 -70.721938 
L 227.98894 -71.139624 
L 227.874557 -71.55731 
L 227.764091 -71.974996 
L 227.656947 -72.392682 
L 227.552314 -72.810368 
L 227.449174 -73.228054 
L 227.346321 -73.64574 
L 227.242402 -74.063426 
L 227.135956 -74.481112 
L 227.025472 -74.898798 
L 226.909454 -75.316484 
L 226.786491 -75.73417 
L 226.655334 -76.151856 
L 226.514971 -76.569542 
L 226.364698 -76.987228 
L 226.204186 -77.404913 
L 226.033539 -77.822599 
L 225.85333 -78.240285 
L 225.664626 -78.657971 
L 225.468995 -79.075657 
L 225.268487 -79.493343 
L 225.0656 -79.911029 
L 224.863223 -80.328715 
L 224.66456 -80.746401 
L 224.47304 -81.164087 
L 224.292222 -81.581773 
L 224.125679 -81.999459 
L 223.976894 -82.417145 
L 223.849147 -82.834831 
L 223.745419 -83.252517 
L 223.668295 -83.670203 
L 223.619894 -84.087889 
L 223.601807 -84.505575 
L 223.615059 -84.923261 
L 223.660086 -85.340946 
L 223.736738 -85.758632 
L 223.844294 -86.176318 
L 223.981499 -86.594004 
L 224.146609 -87.01169 
L 224.337458 -87.429376 
L 224.551518 -87.847062 
L 224.785979 -88.264748 
L 225.037825 -88.682434 
L 225.303904 -89.10012 
L 225.581005 -89.517806 
L 225.865925 -89.935492 
L 226.155526 -90.353178 
L 226.446792 -90.770864 
L 226.736872 -91.18855 
L 227.023115 -91.606236 
L 227.303102 -92.023922 
L 227.574663 -92.441608 
L 227.835896 -92.859294 
L 228.085169 -93.276979 
L 228.321127 -93.694665 
L 228.54269 -94.112351 
L 228.749048 -94.530037 
L 228.939656 -94.947723 
L 229.114221 -95.365409 
L 229.272696 -95.783095 
L 229.415265 -96.200781 
L 229.542331 -96.618467 
L 229.654506 -97.036153 
L 229.752589 -97.453839 
L 229.837552 -97.871525 
L 229.910524 -98.289211 
L 229.972767 -98.706897 
L 230.025652 -99.124583 
L 230.070635 -99.542269 
L 230.10923 -99.959955 
L 230.142974 -100.377641 
L 230.173402 -100.795327 
L 230.202008 -101.213012 
L 230.230214 -101.630698 
L 230.259339 -102.048384 
L 230.290569 -102.46607 
L 230.324926 -102.883756 
L 230.363252 -103.301442 
L 230.406188 -103.719128 
L 230.454161 -104.136814 
L 230.507386 -104.5545 
L 233.659428 -104.5545 
L 233.659428 -104.5545 
L 233.712652 -104.136814 
L 233.760626 -103.719128 
L 233.803561 -103.301442 
L 233.841888 -102.883756 
L 233.876245 -102.46607 
L 233.907474 -102.048384 
L 233.9366 -101.630698 
L 233.964806 -101.213012 
L 233.993411 -100.795327 
L 234.023839 -100.377641 
L 234.057584 -99.959955 
L 234.096179 -99.542269 
L 234.141162 -99.124583 
L 234.194047 -98.706897 
L 234.256289 -98.289211 
L 234.329262 -97.871525 
L 234.414225 -97.453839 
L 234.512308 -97.036153 
L 234.624482 -96.618467 
L 234.751549 -96.200781 
L 234.894118 -95.783095 
L 235.052592 -95.365409 
L 235.227158 -94.947723 
L 235.417765 -94.530037 
L 235.624124 -94.112351 
L 235.845687 -93.694665 
L 236.081645 -93.276979 
L 236.330918 -92.859294 
L 236.59215 -92.441608 
L 236.863712 -92.023922 
L 237.143699 -91.606236 
L 237.429942 -91.18855 
L 237.720022 -90.770864 
L 238.011288 -90.353178 
L 238.300889 -89.935492 
L 238.585809 -89.517806 
L 238.86291 -89.10012 
L 239.128989 -88.682434 
L 239.380834 -88.264748 
L 239.615296 -87.847062 
L 239.829356 -87.429376 
L 240.020204 -87.01169 
L 240.185315 -86.594004 
L 240.32252 -86.176318 
L 240.430076 -85.758632 
L 240.506728 -85.340946 
L 240.551755 -84.923261 
L 240.565007 -84.505575 
L 240.54692 -84.087889 
L 240.498519 -83.670203 
L 240.421395 -83.252517 
L 240.317667 -82.834831 
L 240.18992 -82.417145 
L 240.041135 -81.999459 
L 239.874592 -81.581773 
L 239.693774 -81.164087 
L 239.502254 -80.746401 
L 239.30359 -80.328715 
L 239.101213 -79.911029 
L 238.898327 -79.493343 
L 238.697819 -79.075657 
L 238.502188 -78.657971 
L 238.313484 -78.240285 
L 238.133274 -77.822599 
L 237.962627 -77.404913 
L 237.802116 -76.987228 
L 237.651843 -76.569542 
L 237.511479 -76.151856 
L 237.380323 -75.73417 
L 237.25736 -75.316484 
L 237.141342 -74.898798 
L 237.030858 -74.481112 
L 236.924412 -74.063426 
L 236.820493 -73.64574 
L 236.71764 -73.228054 
L 236.614499 -72.810368 
L 236.509867 -72.392682 
L 236.402723 -71.974996 
L 236.292257 -71.55731 
L 236.177874 -71.139624 
L 236.059199 -70.721938 
L 235.93607 -70.304252 
L 235.808517 -69.886566 
L 235.676749 -69.468881 
L 235.541121 -69.051195 
L 235.402114 -68.633509 
L 235.260305 -68.215823 
L 235.116339 -67.798137 
L 234.970905 -67.380451 
L 234.824714 -66.962765 
L 234.67848 -66.545079 
L 234.532899 -66.127393 
L 234.388643 -65.709707 
L 234.246347 -65.292021 
L 234.106598 -64.874335 
L 233.969939 -64.456649 
L 233.836859 -64.038963 
L 233.707796 -63.621277 
L 233.583136 -63.203591 
z
" style="stroke: #90d743; stroke-opacity: 0.4"/>
    </defs>
    <g clip-path="url(#p6d9c9b6367)">
     <use xlink:href="#m4433d8b563" x="0" y="187.951813" style="fill: #90d743; fill-opacity: 0.4; stroke: #90d743; stroke-opacity: 0.4"/>
    </g>
   </g>
   <g id="PolyCollection_8">
    <defs>
     <path id="mc0fbe8a039" d="M 265.998954 -59.937574 
L 264.646992 -59.937574 
L 264.611878 -60.351077 
L 264.57556 -60.76458 
L 264.537496 -61.178082 
L 264.497089 -61.591585 
L 264.453701 -62.005088 
L 264.406679 -62.418591 
L 264.355384 -62.832093 
L 264.299212 -63.245596 
L 264.23762 -63.659099 
L 264.170148 -64.072601 
L 264.096431 -64.486104 
L 264.016217 -64.899607 
L 263.929369 -65.313109 
L 263.835869 -65.726612 
L 263.735815 -66.140115 
L 263.629406 -66.553617 
L 263.516938 -66.96712 
L 263.398779 -67.380623 
L 263.275358 -67.794125 
L 263.147143 -68.207628 
L 263.014619 -68.621131 
L 262.878275 -69.034633 
L 262.738588 -69.448136 
L 262.596003 -69.861639 
L 262.450931 -70.275142 
L 262.303734 -70.688644 
L 262.154727 -71.102147 
L 262.004173 -71.51565 
L 261.852284 -71.929152 
L 261.699231 -72.342655 
L 261.54514 -72.756158 
L 261.390108 -73.16966 
L 261.234206 -73.583163 
L 261.077489 -73.996666 
L 260.920003 -74.410168 
L 260.761794 -74.823671 
L 260.602913 -75.237174 
L 260.443423 -75.650676 
L 260.2834 -76.064179 
L 260.122941 -76.477682 
L 259.962163 -76.891185 
L 259.801204 -77.304687 
L 259.640223 -77.71819 
L 259.479405 -78.131693 
L 259.318956 -78.545195 
L 259.159109 -78.958698 
L 259.000124 -79.372201 
L 258.842291 -79.785703 
L 258.68594 -80.199206 
L 258.531442 -80.612709 
L 258.37922 -81.026211 
L 258.229754 -81.439714 
L 258.083589 -81.853217 
L 257.941346 -82.266719 
L 257.803718 -82.680222 
L 257.671477 -83.093725 
L 257.545471 -83.507227 
L 257.426615 -83.92073 
L 257.31588 -84.334233 
L 257.214277 -84.747736 
L 257.122836 -85.161238 
L 257.042585 -85.574741 
L 256.974518 -85.988244 
L 256.919571 -86.401746 
L 256.878593 -86.815249 
L 256.852325 -87.228752 
L 256.841373 -87.642254 
L 256.846195 -88.055757 
L 256.867087 -88.46926 
L 256.904182 -88.882762 
L 256.957449 -89.296265 
L 257.026703 -89.709768 
L 257.111617 -90.12327 
L 257.211739 -90.536773 
L 257.326518 -90.950276 
L 257.45532 -91.363779 
L 257.597458 -91.777281 
L 257.752205 -92.190784 
L 257.91882 -92.604287 
L 258.096559 -93.017789 
L 258.284687 -93.431292 
L 258.482483 -93.844795 
L 258.689242 -94.258297 
L 258.904267 -94.6718 
L 259.12687 -95.085303 
L 259.356353 -95.498805 
L 259.592002 -95.912308 
L 259.833073 -96.325811 
L 260.078778 -96.739313 
L 260.328279 -97.152816 
L 260.580676 -97.566319 
L 260.835008 -97.979821 
L 261.090248 -98.393324 
L 261.345312 -98.806827 
L 261.599066 -99.22033 
L 261.85034 -99.633832 
L 262.097944 -100.047335 
L 262.340688 -100.460838 
L 262.577404 -100.87434 
L 268.068543 -100.87434 
L 268.068543 -100.87434 
L 268.305259 -100.460838 
L 268.548003 -100.047335 
L 268.795606 -99.633832 
L 269.04688 -99.22033 
L 269.300635 -98.806827 
L 269.555699 -98.393324 
L 269.810939 -97.979821 
L 270.06527 -97.566319 
L 270.317668 -97.152816 
L 270.567168 -96.739313 
L 270.812874 -96.325811 
L 271.053945 -95.912308 
L 271.289594 -95.498805 
L 271.519077 -95.085303 
L 271.741679 -94.6718 
L 271.956705 -94.258297 
L 272.163463 -93.844795 
L 272.361259 -93.431292 
L 272.549388 -93.017789 
L 272.727127 -92.604287 
L 272.893742 -92.190784 
L 273.048489 -91.777281 
L 273.190626 -91.363779 
L 273.319429 -90.950276 
L 273.434207 -90.536773 
L 273.53433 -90.12327 
L 273.619243 -89.709768 
L 273.688497 -89.296265 
L 273.741765 -88.882762 
L 273.77886 -88.46926 
L 273.799752 -88.055757 
L 273.804573 -87.642254 
L 273.793621 -87.228752 
L 273.767353 -86.815249 
L 273.726376 -86.401746 
L 273.671428 -85.988244 
L 273.603361 -85.574741 
L 273.52311 -85.161238 
L 273.43167 -84.747736 
L 273.330067 -84.334233 
L 273.219331 -83.92073 
L 273.100475 -83.507227 
L 272.974469 -83.093725 
L 272.842228 -82.680222 
L 272.7046 -82.266719 
L 272.562357 -81.853217 
L 272.416193 -81.439714 
L 272.266726 -81.026211 
L 272.114504 -80.612709 
L 271.960006 -80.199206 
L 271.803655 -79.785703 
L 271.645823 -79.372201 
L 271.486837 -78.958698 
L 271.32699 -78.545195 
L 271.166541 -78.131693 
L 271.005723 -77.71819 
L 270.844743 -77.304687 
L 270.683783 -76.891185 
L 270.523005 -76.477682 
L 270.362546 -76.064179 
L 270.202524 -75.650676 
L 270.043033 -75.237174 
L 269.884152 -74.823671 
L 269.725943 -74.410168 
L 269.568458 -73.996666 
L 269.411741 -73.583163 
L 269.255839 -73.16966 
L 269.100807 -72.756158 
L 268.946716 -72.342655 
L 268.793662 -71.929152 
L 268.641774 -71.51565 
L 268.491219 -71.102147 
L 268.342212 -70.688644 
L 268.195016 -70.275142 
L 268.049943 -69.861639 
L 267.907359 -69.448136 
L 267.767671 -69.034633 
L 267.631328 -68.621131 
L 267.498804 -68.207628 
L 267.370588 -67.794125 
L 267.247167 -67.380623 
L 267.129009 -66.96712 
L 267.01654 -66.553617 
L 266.910132 -66.140115 
L 266.810077 -65.726612 
L 266.716577 -65.313109 
L 266.62973 -64.899607 
L 266.549515 -64.486104 
L 266.475798 -64.072601 
L 266.408326 -63.659099 
L 266.346734 -63.245596 
L 266.290563 -62.832093 
L 266.239267 -62.418591 
L 266.192246 -62.005088 
L 266.148857 -61.591585 
L 266.10845 -61.178082 
L 266.070387 -60.76458 
L 266.034068 -60.351077 
L 265.998954 -59.937574 
z
" style="stroke: #fde725; stroke-opacity: 0.4"/>
    </defs>
    <g clip-path="url(#p6d9c9b6367)">
     <use xlink:href="#mc0fbe8a039" x="0" y="187.951813" style="fill: #fde725; fill-opacity: 0.4; stroke: #fde725; stroke-opacity: 0.4"/>
    </g>
   </g>
   <g id="PolyCollection_9">
    <defs>
     <path id="m8acfa35744" d="M 301.032493 -72.314431 
L 290.586983 -72.314431 
L 290.350707 -72.630682 
L 290.119456 -72.946932 
L 289.894182 -73.263183 
L 289.67577 -73.579434 
L 289.465037 -73.895684 
L 289.262723 -74.211935 
L 289.069493 -74.528186 
L 288.885927 -74.844437 
L 288.712525 -75.160687 
L 288.549699 -75.476938 
L 288.39777 -75.793189 
L 288.256969 -76.10944 
L 288.127428 -76.42569 
L 288.009185 -76.741941 
L 287.902176 -77.058192 
L 287.806234 -77.374442 
L 287.721091 -77.690693 
L 287.64638 -78.006944 
L 287.581637 -78.323195 
L 287.526306 -78.639445 
L 287.479751 -78.955696 
L 287.441264 -79.271947 
L 287.41008 -79.588197 
L 287.385397 -79.904448 
L 287.366391 -80.220699 
L 287.352235 -80.53695 
L 287.342129 -80.8532 
L 287.335313 -81.169451 
L 287.331095 -81.485702 
L 287.32887 -81.801953 
L 287.328138 -82.118203 
L 287.32852 -82.434454 
L 287.329772 -82.750705 
L 287.33179 -83.066955 
L 287.334617 -83.383206 
L 287.338438 -83.699457 
L 287.343577 -84.015708 
L 287.350484 -84.331958 
L 287.35972 -84.648209 
L 287.371939 -84.96446 
L 287.387863 -85.280711 
L 287.408257 -85.596961 
L 287.433904 -85.913212 
L 287.465578 -86.229463 
L 287.504013 -86.545713 
L 287.549881 -86.861964 
L 287.603768 -87.178215 
L 287.666148 -87.494466 
L 287.737373 -87.810716 
L 287.817653 -88.126967 
L 287.907052 -88.443218 
L 288.005479 -88.759468 
L 288.11269 -89.075719 
L 288.228291 -89.39197 
L 288.351749 -89.708221 
L 288.482401 -90.024471 
L 288.619469 -90.340722 
L 288.76208 -90.656973 
L 288.909287 -90.973224 
L 289.060082 -91.289474 
L 289.213428 -91.605725 
L 289.368273 -91.921976 
L 289.523575 -92.238226 
L 289.678321 -92.554477 
L 289.831543 -92.870728 
L 289.98234 -93.186979 
L 290.129888 -93.503229 
L 290.273456 -93.81948 
L 290.412414 -94.135731 
L 290.54624 -94.451982 
L 290.674528 -94.768232 
L 290.79699 -95.084483 
L 290.913456 -95.400734 
L 291.023876 -95.716984 
L 291.128313 -96.033235 
L 291.226942 -96.349486 
L 291.320043 -96.665737 
L 291.407991 -96.981987 
L 291.49125 -97.298238 
L 291.57036 -97.614489 
L 291.645929 -97.930739 
L 291.718615 -98.24699 
L 291.789121 -98.563241 
L 291.858173 -98.879492 
L 291.926509 -99.195742 
L 291.994866 -99.511993 
L 292.063962 -99.828244 
L 292.134483 -100.144495 
L 292.20707 -100.460745 
L 292.282302 -100.776996 
L 292.360689 -101.093247 
L 292.442655 -101.409497 
L 292.528535 -101.725748 
L 292.618562 -102.041999 
L 292.712868 -102.35825 
L 292.811473 -102.6745 
L 292.914295 -102.990751 
L 293.021142 -103.307002 
L 293.131724 -103.623253 
L 298.487752 -103.623253 
L 298.487752 -103.623253 
L 298.598334 -103.307002 
L 298.705181 -102.990751 
L 298.808003 -102.6745 
L 298.906609 -102.35825 
L 299.000914 -102.041999 
L 299.090941 -101.725748 
L 299.176821 -101.409497 
L 299.258788 -101.093247 
L 299.337174 -100.776996 
L 299.412407 -100.460745 
L 299.484993 -100.144495 
L 299.555515 -99.828244 
L 299.624611 -99.511993 
L 299.692967 -99.195742 
L 299.761304 -98.879492 
L 299.830355 -98.563241 
L 299.900861 -98.24699 
L 299.973548 -97.930739 
L 300.049116 -97.614489 
L 300.128226 -97.298238 
L 300.211485 -96.981987 
L 300.299433 -96.665737 
L 300.392534 -96.349486 
L 300.491163 -96.033235 
L 300.595601 -95.716984 
L 300.70602 -95.400734 
L 300.822487 -95.084483 
L 300.944948 -94.768232 
L 301.073236 -94.451982 
L 301.207062 -94.135731 
L 301.34602 -93.81948 
L 301.489588 -93.503229 
L 301.637137 -93.186979 
L 301.787934 -92.870728 
L 301.941156 -92.554477 
L 302.095901 -92.238226 
L 302.251203 -91.921976 
L 302.406048 -91.605725 
L 302.559394 -91.289474 
L 302.71019 -90.973224 
L 302.857396 -90.656973 
L 303.000008 -90.340722 
L 303.137076 -90.024471 
L 303.267727 -89.708221 
L 303.391185 -89.39197 
L 303.506786 -89.075719 
L 303.613997 -88.759468 
L 303.712424 -88.443218 
L 303.801823 -88.126967 
L 303.882103 -87.810716 
L 303.953328 -87.494466 
L 304.015709 -87.178215 
L 304.069595 -86.861964 
L 304.115463 -86.545713 
L 304.153898 -86.229463 
L 304.185572 -85.913212 
L 304.21122 -85.596961 
L 304.231614 -85.280711 
L 304.247537 -84.96446 
L 304.259756 -84.648209 
L 304.268992 -84.331958 
L 304.275899 -84.015708 
L 304.281038 -83.699457 
L 304.284859 -83.383206 
L 304.287686 -83.066955 
L 304.289704 -82.750705 
L 304.290956 -82.434454 
L 304.291338 -82.118203 
L 304.290606 -81.801953 
L 304.288381 -81.485702 
L 304.284163 -81.169451 
L 304.277347 -80.8532 
L 304.267241 -80.53695 
L 304.253086 -80.220699 
L 304.234079 -79.904448 
L 304.209396 -79.588197 
L 304.178213 -79.271947 
L 304.139725 -78.955696 
L 304.09317 -78.639445 
L 304.037839 -78.323195 
L 303.973096 -78.006944 
L 303.898385 -77.690693 
L 303.813243 -77.374442 
L 303.7173 -77.058192 
L 303.610291 -76.741941 
L 303.492048 -76.42569 
L 303.362508 -76.10944 
L 303.221706 -75.793189 
L 303.069777 -75.476938 
L 302.906951 -75.160687 
L 302.733549 -74.844437 
L 302.549984 -74.528186 
L 302.356753 -74.211935 
L 302.154439 -73.895684 
L 301.943706 -73.579434 
L 301.725294 -73.263183 
L 301.50002 -72.946932 
L 301.268769 -72.630682 
L 301.032493 -72.314431 
z
" style="stroke: #fde725; stroke-opacity: 0.4"/>
    </defs>
    <g clip-path="url(#p6d9c9b6367)">
     <use xlink:href="#m8acfa35744" x="0" y="187.951813" style="fill: #fde725; fill-opacity: 0.4; stroke: #fde725; stroke-opacity: 0.4"/>
    </g>
   </g>
   <g id="PolyCollection_10">
    <defs>
     <path id="m1c78045e91" d="M 326.172694 -61.548016 
L 321.757288 -61.548016 
L 321.662881 -61.902395 
L 321.57367 -62.256773 
L 321.49022 -62.611152 
L 321.412983 -62.965531 
L 321.342273 -63.31991 
L 321.278264 -63.674289 
L 321.22097 -64.028667 
L 321.170242 -64.383046 
L 321.125763 -64.737425 
L 321.087043 -65.091804 
L 321.053425 -65.446183 
L 321.024092 -65.800562 
L 320.998069 -66.15494 
L 320.974245 -66.509319 
L 320.951386 -66.863698 
L 320.928155 -67.218077 
L 320.903134 -67.572456 
L 320.874856 -67.926835 
L 320.841828 -68.281213 
L 320.802566 -68.635592 
L 320.755624 -68.989971 
L 320.699631 -69.34435 
L 320.63332 -69.698729 
L 320.555566 -70.053108 
L 320.46541 -70.407486 
L 320.362093 -70.761865 
L 320.245078 -71.116244 
L 320.114074 -71.470623 
L 319.969047 -71.825002 
L 319.810236 -72.179381 
L 319.638152 -72.533759 
L 319.45358 -72.888138 
L 319.257567 -73.242517 
L 319.051408 -73.596896 
L 318.836621 -73.951275 
L 318.614922 -74.305654 
L 318.388191 -74.660032 
L 318.15843 -75.014411 
L 317.927726 -75.36879 
L 317.698204 -75.723169 
L 317.471988 -76.077548 
L 317.251147 -76.431927 
L 317.037666 -76.786305 
L 316.833394 -77.140684 
L 316.64002 -77.495063 
L 316.459038 -77.849442 
L 316.291724 -78.203821 
L 316.139122 -78.558199 
L 316.002035 -78.912578 
L 315.881016 -79.266957 
L 315.77638 -79.621336 
L 315.688211 -79.975715 
L 315.616374 -80.330094 
L 315.560542 -80.684472 
L 315.520216 -81.038851 
L 315.494753 -81.39323 
L 315.483391 -81.747609 
L 315.485284 -82.101988 
L 315.499523 -82.456367 
L 315.52517 -82.810745 
L 315.561277 -83.165124 
L 315.606912 -83.519503 
L 315.661176 -83.873882 
L 315.723224 -84.228261 
L 315.79227 -84.58264 
L 315.867605 -84.937018 
L 315.948599 -85.291397 
L 316.034705 -85.645776 
L 316.125461 -86.000155 
L 316.220491 -86.354534 
L 316.319498 -86.708913 
L 316.422261 -87.063291 
L 316.52863 -87.41767 
L 316.63852 -87.772049 
L 316.751901 -88.126428 
L 316.868792 -88.480807 
L 316.989249 -88.835186 
L 317.113364 -89.189564 
L 317.241248 -89.543943 
L 317.373027 -89.898322 
L 317.508834 -90.252701 
L 317.648798 -90.60708 
L 317.793038 -90.961458 
L 317.941652 -91.315837 
L 318.094716 -91.670216 
L 318.252267 -92.024595 
L 318.414307 -92.378974 
L 318.580786 -92.733353 
L 318.751606 -93.087731 
L 318.926608 -93.44211 
L 319.105572 -93.796489 
L 319.288215 -94.150868 
L 319.474184 -94.505247 
L 319.663063 -94.859626 
L 319.854366 -95.214004 
L 320.047546 -95.568383 
L 320.241995 -95.922762 
L 320.437052 -96.277141 
L 320.632011 -96.63152 
L 327.297971 -96.63152 
L 327.297971 -96.63152 
L 327.49293 -96.277141 
L 327.687987 -95.922762 
L 327.882436 -95.568383 
L 328.075616 -95.214004 
L 328.266919 -94.859626 
L 328.455798 -94.505247 
L 328.641768 -94.150868 
L 328.82441 -93.796489 
L 329.003375 -93.44211 
L 329.178376 -93.087731 
L 329.349196 -92.733353 
L 329.515676 -92.378974 
L 329.677715 -92.024595 
L 329.835267 -91.670216 
L 329.98833 -91.315837 
L 330.136945 -90.961458 
L 330.281184 -90.60708 
L 330.421148 -90.252701 
L 330.556955 -89.898322 
L 330.688735 -89.543943 
L 330.816619 -89.189564 
L 330.940733 -88.835186 
L 331.061191 -88.480807 
L 331.178081 -88.126428 
L 331.291462 -87.772049 
L 331.401352 -87.41767 
L 331.507722 -87.063291 
L 331.610485 -86.708913 
L 331.709491 -86.354534 
L 331.804521 -86.000155 
L 331.895278 -85.645776 
L 331.981384 -85.291397 
L 332.062377 -84.937018 
L 332.137713 -84.58264 
L 332.206759 -84.228261 
L 332.268806 -83.873882 
L 332.323071 -83.519503 
L 332.368705 -83.165124 
L 332.404812 -82.810745 
L 332.430459 -82.456367 
L 332.444699 -82.101988 
L 332.446591 -81.747609 
L 332.43523 -81.39323 
L 332.409766 -81.038851 
L 332.36944 -80.684472 
L 332.313609 -80.330094 
L 332.241772 -79.975715 
L 332.153602 -79.621336 
L 332.048967 -79.266957 
L 331.927948 -78.912578 
L 331.79086 -78.558199 
L 331.638259 -78.203821 
L 331.470945 -77.849442 
L 331.289962 -77.495063 
L 331.096588 -77.140684 
L 330.892317 -76.786305 
L 330.678835 -76.431927 
L 330.457995 -76.077548 
L 330.231778 -75.723169 
L 330.002257 -75.36879 
L 329.771553 -75.014411 
L 329.541792 -74.660032 
L 329.31506 -74.305654 
L 329.093362 -73.951275 
L 328.878575 -73.596896 
L 328.672415 -73.242517 
L 328.476402 -72.888138 
L 328.29183 -72.533759 
L 328.119746 -72.179381 
L 327.960935 -71.825002 
L 327.815909 -71.470623 
L 327.684904 -71.116244 
L 327.56789 -70.761865 
L 327.464573 -70.407486 
L 327.374417 -70.053108 
L 327.296662 -69.698729 
L 327.230352 -69.34435 
L 327.174358 -68.989971 
L 327.127417 -68.635592 
L 327.088154 -68.281213 
L 327.055126 -67.926835 
L 327.026848 -67.572456 
L 327.001828 -67.218077 
L 326.978596 -66.863698 
L 326.955737 -66.509319 
L 326.931914 -66.15494 
L 326.905891 -65.800562 
L 326.876557 -65.446183 
L 326.84294 -65.091804 
L 326.80422 -64.737425 
L 326.75974 -64.383046 
L 326.709012 -64.028667 
L 326.651718 -63.674289 
L 326.587709 -63.31991 
L 326.517 -62.965531 
L 326.439762 -62.611152 
L 326.356313 -62.256773 
L 326.267102 -61.902395 
L 326.172694 -61.548016 
z
" style="stroke: #fde725; stroke-opacity: 0.4"/>
    </defs>
    <g clip-path="url(#p6d9c9b6367)">
     <use xlink:href="#m1c78045e91" x="0" y="187.951813" style="fill: #fde725; fill-opacity: 0.4; stroke: #fde725; stroke-opacity: 0.4"/>
    </g>
   </g>
   <g id="PolyCollection_11">
    <defs>
     <path id="mc95f8b28e6" d="M 351.626864 -69.353504 
L 348.61343 -69.353504 
L 348.501163 -69.787938 
L 348.385459 -70.222371 
L 348.265874 -70.656804 
L 348.141823 -71.091238 
L 348.012604 -71.525671 
L 347.877426 -71.960105 
L 347.735446 -72.394538 
L 347.58581 -72.828971 
L 347.427704 -73.263405 
L 347.260406 -73.697838 
L 347.083328 -74.132272 
L 346.89607 -74.566705 
L 346.698451 -75.001138 
L 346.490546 -75.435572 
L 346.272699 -75.870005 
L 346.045532 -76.304439 
L 345.809938 -76.738872 
L 345.56706 -77.173305 
L 345.318258 -77.607739 
L 345.065072 -78.042172 
L 344.809171 -78.476606 
L 344.552303 -78.911039 
L 344.296253 -79.345472 
L 344.042792 -79.779906 
L 343.793653 -80.214339 
L 343.550501 -80.648773 
L 343.314931 -81.083206 
L 343.088473 -81.517639 
L 342.872607 -81.952073 
L 342.668793 -82.386506 
L 342.478501 -82.82094 
L 342.303243 -83.255373 
L 342.144599 -83.689806 
L 342.004229 -84.12424 
L 341.883877 -84.558673 
L 341.785343 -84.993107 
L 341.710445 -85.42754 
L 341.660962 -85.861973 
L 341.638547 -86.296407 
L 341.644644 -86.73084 
L 341.680387 -87.165274 
L 341.746507 -87.599707 
L 341.843247 -88.03414 
L 341.970291 -88.468574 
L 342.126728 -88.903007 
L 342.311029 -89.337441 
L 342.521069 -89.771874 
L 342.754176 -90.206307 
L 343.00721 -90.640741 
L 343.276666 -91.075174 
L 343.5588 -91.509608 
L 343.849766 -91.944041 
L 344.14575 -92.378474 
L 344.443108 -92.812908 
L 344.738483 -93.247341 
L 345.028906 -93.681775 
L 345.311871 -94.116208 
L 345.585383 -94.550641 
L 345.847978 -94.985075 
L 346.09871 -95.419508 
L 346.337122 -95.853942 
L 346.563186 -96.288375 
L 346.777232 -96.722808 
L 346.979868 -97.157242 
L 347.171886 -97.591675 
L 347.354181 -98.026109 
L 347.527666 -98.460542 
L 347.693196 -98.894975 
L 347.851512 -99.329409 
L 348.003193 -99.763842 
L 348.148623 -100.198276 
L 348.287981 -100.632709 
L 348.421239 -101.067142 
L 348.548175 -101.501576 
L 348.668403 -101.936009 
L 348.781407 -102.370443 
L 348.886583 -102.804876 
L 348.983291 -103.239309 
L 349.0709 -103.673743 
L 349.148841 -104.108176 
L 349.216649 -104.542609 
L 349.274011 -104.977043 
L 349.320796 -105.411476 
L 349.357082 -105.84591 
L 349.383177 -106.280343 
L 349.399622 -106.714776 
L 349.40719 -107.14921 
L 349.406873 -107.583643 
L 349.399856 -108.018077 
L 349.387485 -108.45251 
L 349.371225 -108.886943 
L 349.352614 -109.321377 
L 349.333208 -109.75581 
L 349.314529 -110.190244 
L 349.298011 -110.624677 
L 349.284951 -111.05911 
L 349.276461 -111.493544 
L 349.273438 -111.927977 
L 349.276529 -112.362411 
L 350.963766 -112.362411 
L 350.963766 -112.362411 
L 350.966857 -111.927977 
L 350.963833 -111.493544 
L 350.955344 -111.05911 
L 350.942283 -110.624677 
L 350.925765 -110.190244 
L 350.907086 -109.75581 
L 350.88768 -109.321377 
L 350.86907 -108.886943 
L 350.85281 -108.45251 
L 350.840439 -108.018077 
L 350.833422 -107.583643 
L 350.833105 -107.14921 
L 350.840673 -106.714776 
L 350.857118 -106.280343 
L 350.883212 -105.84591 
L 350.919499 -105.411476 
L 350.966283 -104.977043 
L 351.023645 -104.542609 
L 351.091454 -104.108176 
L 351.169394 -103.673743 
L 351.257003 -103.239309 
L 351.353711 -102.804876 
L 351.458888 -102.370443 
L 351.571891 -101.936009 
L 351.69212 -101.501576 
L 351.819056 -101.067142 
L 351.952313 -100.632709 
L 352.091671 -100.198276 
L 352.237102 -99.763842 
L 352.388782 -99.329409 
L 352.547099 -98.894975 
L 352.712629 -98.460542 
L 352.886113 -98.026109 
L 353.068409 -97.591675 
L 353.260427 -97.157242 
L 353.463062 -96.722808 
L 353.677108 -96.288375 
L 353.903172 -95.853942 
L 354.141584 -95.419508 
L 354.392317 -94.985075 
L 354.654911 -94.550641 
L 354.928423 -94.116208 
L 355.211388 -93.681775 
L 355.501811 -93.247341 
L 355.797186 -92.812908 
L 356.094544 -92.378474 
L 356.390529 -91.944041 
L 356.681494 -91.509608 
L 356.963629 -91.075174 
L 357.233085 -90.640741 
L 357.486118 -90.206307 
L 357.719226 -89.771874 
L 357.929266 -89.337441 
L 358.113567 -88.903007 
L 358.270003 -88.468574 
L 358.397048 -88.03414 
L 358.493787 -87.599707 
L 358.559907 -87.165274 
L 358.59565 -86.73084 
L 358.601747 -86.296407 
L 358.579333 -85.861973 
L 358.529849 -85.42754 
L 358.454952 -84.993107 
L 358.356418 -84.558673 
L 358.236065 -84.12424 
L 358.095696 -83.689806 
L 357.937052 -83.255373 
L 357.761794 -82.82094 
L 357.571502 -82.386506 
L 357.367688 -81.952073 
L 357.151822 -81.517639 
L 356.925364 -81.083206 
L 356.689794 -80.648773 
L 356.446642 -80.214339 
L 356.197502 -79.779906 
L 355.944042 -79.345472 
L 355.687991 -78.911039 
L 355.431124 -78.476606 
L 355.175222 -78.042172 
L 354.922036 -77.607739 
L 354.673235 -77.173305 
L 354.430357 -76.738872 
L 354.194763 -76.304439 
L 353.967596 -75.870005 
L 353.749749 -75.435572 
L 353.541843 -75.001138 
L 353.344225 -74.566705 
L 353.156966 -74.132272 
L 352.979889 -73.697838 
L 352.81259 -73.263405 
L 352.654485 -72.828971 
L 352.504849 -72.394538 
L 352.362868 -71.960105 
L 352.22769 -71.525671 
L 352.098472 -71.091238 
L 351.974421 -70.656804 
L 351.854835 -70.222371 
L 351.739132 -69.787938 
L 351.626864 -69.353504 
z
" style="stroke: #fde725; stroke-opacity: 0.4"/>
    </defs>
    <g clip-path="url(#p6d9c9b6367)">
     <use xlink:href="#mc95f8b28e6" x="0" y="187.951813" style="fill: #fde725; fill-opacity: 0.4; stroke: #fde725; stroke-opacity: 0.4"/>
    </g>
   </g>
   <g id="PolyCollection_12">
    <defs>
     <path id="me49d800566" d="M 376.019476 -71.242294 
L 373.061768 -71.242294 
L 372.989995 -71.60591 
L 372.918511 -71.969527 
L 372.846692 -72.333143 
L 372.773729 -72.69676 
L 372.698638 -73.060376 
L 372.620284 -73.423992 
L 372.537399 -73.787609 
L 372.44862 -74.151225 
L 372.352519 -74.514842 
L 372.247646 -74.878458 
L 372.132579 -75.242074 
L 372.005963 -75.605691 
L 371.866569 -75.969307 
L 371.713341 -76.332924 
L 371.545446 -76.69654 
L 371.362322 -77.060157 
L 371.163724 -77.423773 
L 370.949758 -77.787389 
L 370.720911 -78.151006 
L 370.47807 -78.514622 
L 370.222528 -78.878239 
L 369.955975 -79.241855 
L 369.680478 -79.605472 
L 369.398439 -79.969088 
L 369.112549 -80.332704 
L 368.825713 -80.696321 
L 368.540978 -81.059937 
L 368.261445 -81.423554 
L 367.990175 -81.78717 
L 367.730096 -82.150787 
L 367.483912 -82.514403 
L 367.254023 -82.878019 
L 367.042452 -83.241636 
L 366.850793 -83.605252 
L 366.68017 -83.968869 
L 366.531227 -84.332485 
L 366.404127 -84.696102 
L 366.298585 -85.059718 
L 366.213906 -85.423334 
L 366.149049 -85.786951 
L 366.102694 -86.150567 
L 366.07333 -86.514184 
L 366.059327 -86.8778 
L 366.059022 -87.241416 
L 366.070792 -87.605033 
L 366.093112 -87.968649 
L 366.124613 -88.332266 
L 366.164107 -88.695882 
L 366.210618 -89.059499 
L 366.26338 -89.423115 
L 366.321831 -89.786731 
L 366.385596 -90.150348 
L 366.454458 -90.513964 
L 366.528331 -90.877581 
L 366.60722 -91.241197 
L 366.691197 -91.604814 
L 366.780363 -91.96843 
L 366.874833 -92.332046 
L 366.974708 -92.695663 
L 367.080071 -93.059279 
L 367.190972 -93.422896 
L 367.307431 -93.786512 
L 367.429432 -94.150129 
L 367.556931 -94.513745 
L 367.689852 -94.877361 
L 367.828094 -95.240978 
L 367.971528 -95.604594 
L 368.119996 -95.968211 
L 368.273306 -96.331827 
L 368.431231 -96.695444 
L 368.593499 -97.05906 
L 368.75979 -97.422676 
L 368.929732 -97.786293 
L 369.102897 -98.149909 
L 369.278803 -98.513526 
L 369.456917 -98.877142 
L 369.636664 -99.240758 
L 369.817431 -99.604375 
L 369.998589 -99.967991 
L 370.1795 -100.331608 
L 370.359536 -100.695224 
L 370.538095 -101.058841 
L 370.714616 -101.422457 
L 370.888591 -101.786073 
L 371.059576 -102.14969 
L 371.227198 -102.513306 
L 371.391159 -102.876923 
L 371.551237 -103.240539 
L 371.707278 -103.604156 
L 371.859195 -103.967772 
L 372.006953 -104.331388 
L 372.150562 -104.695005 
L 372.290061 -105.058621 
L 372.425507 -105.422238 
L 372.556962 -105.785854 
L 372.684479 -106.149471 
L 372.808096 -106.513087 
L 372.927827 -106.876703 
L 373.043657 -107.24032 
L 376.037587 -107.24032 
L 376.037587 -107.24032 
L 376.153417 -106.876703 
L 376.273148 -106.513087 
L 376.396765 -106.149471 
L 376.524282 -105.785854 
L 376.655737 -105.422238 
L 376.791183 -105.058621 
L 376.930682 -104.695005 
L 377.074291 -104.331388 
L 377.222049 -103.967772 
L 377.373966 -103.604156 
L 377.530007 -103.240539 
L 377.690085 -102.876923 
L 377.854046 -102.513306 
L 378.021668 -102.14969 
L 378.192653 -101.786073 
L 378.366628 -101.422457 
L 378.543149 -101.058841 
L 378.721708 -100.695224 
L 378.901744 -100.331608 
L 379.082655 -99.967991 
L 379.263813 -99.604375 
L 379.444581 -99.240758 
L 379.624327 -98.877142 
L 379.802441 -98.513526 
L 379.978347 -98.149909 
L 380.151512 -97.786293 
L 380.321454 -97.422676 
L 380.487745 -97.05906 
L 380.650013 -96.695444 
L 380.807938 -96.331827 
L 380.961248 -95.968211 
L 381.109716 -95.604594 
L 381.25315 -95.240978 
L 381.391392 -94.877361 
L 381.524314 -94.513745 
L 381.651812 -94.150129 
L 381.773813 -93.786512 
L 381.890272 -93.422896 
L 382.001173 -93.059279 
L 382.106536 -92.695663 
L 382.206412 -92.332046 
L 382.300881 -91.96843 
L 382.390048 -91.604814 
L 382.474024 -91.241197 
L 382.552914 -90.877581 
L 382.626786 -90.513964 
L 382.695649 -90.150348 
L 382.759413 -89.786731 
L 382.817864 -89.423115 
L 382.870626 -89.059499 
L 382.917137 -88.695882 
L 382.956632 -88.332266 
L 382.988132 -87.968649 
L 383.010452 -87.605033 
L 383.022222 -87.241416 
L 383.021918 -86.8778 
L 383.007915 -86.514184 
L 382.97855 -86.150567 
L 382.932196 -85.786951 
L 382.867338 -85.423334 
L 382.782659 -85.059718 
L 382.677117 -84.696102 
L 382.550018 -84.332485 
L 382.401074 -83.968869 
L 382.230451 -83.605252 
L 382.038792 -83.241636 
L 381.827221 -82.878019 
L 381.597332 -82.514403 
L 381.351149 -82.150787 
L 381.091069 -81.78717 
L 380.819799 -81.423554 
L 380.540266 -81.059937 
L 380.255532 -80.696321 
L 379.968695 -80.332704 
L 379.682805 -79.969088 
L 379.400766 -79.605472 
L 379.125269 -79.241855 
L 378.858716 -78.878239 
L 378.603174 -78.514622 
L 378.360333 -78.151006 
L 378.131486 -77.787389 
L 377.91752 -77.423773 
L 377.718922 -77.060157 
L 377.535799 -76.69654 
L 377.367903 -76.332924 
L 377.214675 -75.969307 
L 377.075281 -75.605691 
L 376.948666 -75.242074 
L 376.833598 -74.878458 
L 376.728725 -74.514842 
L 376.632624 -74.151225 
L 376.543845 -73.787609 
L 376.460961 -73.423992 
L 376.382606 -73.060376 
L 376.307516 -72.69676 
L 376.234552 -72.333143 
L 376.162733 -71.969527 
L 376.091249 -71.60591 
L 376.019476 -71.242294 
z
" style="stroke: #fde725; stroke-opacity: 0.4"/>
    </defs>
    <g clip-path="url(#p6d9c9b6367)">
     <use xlink:href="#me49d800566" x="0" y="187.951813" style="fill: #fde725; fill-opacity: 0.4; stroke: #fde725; stroke-opacity: 0.4"/>
    </g>
   </g>
   <g id="matplotlib.axis_1">
    <g id="xtick_1">
     <g id="line2d_1">
      <defs>
       <path id="med1660629b" d="M 0 0 
L 0 3.5 
" style="stroke: #000000; stroke-width: 0.8"/>
      </defs>
      <g>
       <use xlink:href="#med1660629b" x="41.3625" y="151.344" style="stroke: #000000; stroke-width: 0.8"/>
      </g>
     </g>
     <g id="text_1">
      <!-- 1.80 -->
      <g transform="translate(31.632031 165.501813)scale(0.1 -0.1)">
       <defs>
        <path id="ArialMT-31" d="M 2384 0 
L 1822 0 
L 1822 3584 
Q 1619 3391 1289 3197 
Q 959 3003 697 2906 
L 697 3450 
Q 1169 3672 1522 3987 
Q 1875 4303 2022 4600 
L 2384 4600 
L 2384 0 
z
" transform="scale(0.015625)"/>
        <path id="ArialMT-2e" d="M 581 0 
L 581 641 
L 1222 641 
L 1222 0 
L 581 0 
z
" transform="scale(0.015625)"/>
        <path id="ArialMT-38" d="M 1131 2484 
Q 781 2613 612 2850 
Q 444 3088 444 3419 
Q 444 3919 803 4259 
Q 1163 4600 1759 4600 
Q 2359 4600 2725 4251 
Q 3091 3903 3091 3403 
Q 3091 3084 2923 2848 
Q 2756 2613 2416 2484 
Q 2838 2347 3058 2040 
Q 3278 1734 3278 1309 
Q 3278 722 2862 322 
Q 2447 -78 1769 -78 
Q 1091 -78 675 323 
Q 259 725 259 1325 
Q 259 1772 486 2073 
Q 713 2375 1131 2484 
z
M 1019 3438 
Q 1019 3113 1228 2906 
Q 1438 2700 1772 2700 
Q 2097 2700 2305 2904 
Q 2513 3109 2513 3406 
Q 2513 3716 2298 3927 
Q 2084 4138 1766 4138 
Q 1444 4138 1231 3931 
Q 1019 3725 1019 3438 
z
M 838 1322 
Q 838 1081 952 856 
Q 1066 631 1291 507 
Q 1516 384 1775 384 
Q 2178 384 2440 643 
Q 2703 903 2703 1303 
Q 2703 1709 2433 1975 
Q 2163 2241 1756 2241 
Q 1359 2241 1098 1978 
Q 838 1716 838 1322 
z
" transform="scale(0.015625)"/>
        <path id="ArialMT-30" d="M 266 2259 
Q 266 3072 433 3567 
Q 600 4063 929 4331 
Q 1259 4600 1759 4600 
Q 2128 4600 2406 4451 
Q 2684 4303 2865 4023 
Q 3047 3744 3150 3342 
Q 3253 2941 3253 2259 
Q 3253 1453 3087 958 
Q 2922 463 2592 192 
Q 2263 -78 1759 -78 
Q 1097 -78 719 397 
Q 266 969 266 2259 
z
M 844 2259 
Q 844 1131 1108 757 
Q 1372 384 1759 384 
Q 2147 384 2411 759 
Q 2675 1134 2675 2259 
Q 2675 3391 2411 3762 
Q 2147 4134 1753 4134 
Q 1366 4134 1134 3806 
Q 844 3388 844 2259 
z
" transform="scale(0.015625)"/>
       </defs>
       <use xlink:href="#ArialMT-31"/>
       <use xlink:href="#ArialMT-2e" x="55.615234"/>
       <use xlink:href="#ArialMT-38" x="83.398438"/>
       <use xlink:href="#ArialMT-30" x="139.013672"/>
      </g>
     </g>
    </g>
    <g id="xtick_2">
     <g id="line2d_2">
      <g>
       <use xlink:href="#med1660629b" x="83.7705" y="151.344" style="stroke: #000000; stroke-width: 0.8"/>
      </g>
     </g>
     <g id="text_2">
      <!-- 1.85 -->
      <g transform="translate(74.040031 165.501813)scale(0.1 -0.1)">
       <defs>
        <path id="ArialMT-35" d="M 266 1200 
L 856 1250 
Q 922 819 1161 601 
Q 1400 384 1738 384 
Q 2144 384 2425 690 
Q 2706 997 2706 1503 
Q 2706 1984 2436 2262 
Q 2166 2541 1728 2541 
Q 1456 2541 1237 2417 
Q 1019 2294 894 2097 
L 366 2166 
L 809 4519 
L 3088 4519 
L 3088 3981 
L 1259 3981 
L 1013 2750 
Q 1425 3038 1878 3038 
Q 2478 3038 2890 2622 
Q 3303 2206 3303 1553 
Q 3303 931 2941 478 
Q 2500 -78 1738 -78 
Q 1113 -78 717 272 
Q 322 622 266 1200 
z
" transform="scale(0.015625)"/>
       </defs>
       <use xlink:href="#ArialMT-31"/>
       <use xlink:href="#ArialMT-2e" x="55.615234"/>
       <use xlink:href="#ArialMT-38" x="83.398438"/>
       <use xlink:href="#ArialMT-35" x="139.013672"/>
      </g>
     </g>
    </g>
    <g id="xtick_3">
     <g id="line2d_3">
      <g>
       <use xlink:href="#med1660629b" x="126.1785" y="151.344" style="stroke: #000000; stroke-width: 0.8"/>
      </g>
     </g>
     <g id="text_3">
      <!-- 1.90 -->
      <g transform="translate(116.448031 165.501813)scale(0.1 -0.1)">
       <defs>
        <path id="ArialMT-39" d="M 350 1059 
L 891 1109 
Q 959 728 1153 556 
Q 1347 384 1650 384 
Q 1909 384 2104 503 
Q 2300 622 2425 820 
Q 2550 1019 2634 1356 
Q 2719 1694 2719 2044 
Q 2719 2081 2716 2156 
Q 2547 1888 2255 1720 
Q 1963 1553 1622 1553 
Q 1053 1553 659 1965 
Q 266 2378 266 3053 
Q 266 3750 677 4175 
Q 1088 4600 1706 4600 
Q 2153 4600 2523 4359 
Q 2894 4119 3086 3673 
Q 3278 3228 3278 2384 
Q 3278 1506 3087 986 
Q 2897 466 2520 194 
Q 2144 -78 1638 -78 
Q 1100 -78 759 220 
Q 419 519 350 1059 
z
M 2653 3081 
Q 2653 3566 2395 3850 
Q 2138 4134 1775 4134 
Q 1400 4134 1122 3828 
Q 844 3522 844 3034 
Q 844 2597 1108 2323 
Q 1372 2050 1759 2050 
Q 2150 2050 2401 2323 
Q 2653 2597 2653 3081 
z
" transform="scale(0.015625)"/>
       </defs>
       <use xlink:href="#ArialMT-31"/>
       <use xlink:href="#ArialMT-2e" x="55.615234"/>
       <use xlink:href="#ArialMT-39" x="83.398438"/>
       <use xlink:href="#ArialMT-30" x="139.013672"/>
      </g>
     </g>
    </g>
    <g id="xtick_4">
     <g id="line2d_4">
      <g>
       <use xlink:href="#med1660629b" x="168.5865" y="151.344" style="stroke: #000000; stroke-width: 0.8"/>
      </g>
     </g>
     <g id="text_4">
      <!-- 1.95 -->
      <g transform="translate(158.856031 165.501813)scale(0.1 -0.1)">
       <use xlink:href="#ArialMT-31"/>
       <use xlink:href="#ArialMT-2e" x="55.615234"/>
       <use xlink:href="#ArialMT-39" x="83.398438"/>
       <use xlink:href="#ArialMT-35" x="139.013672"/>
      </g>
     </g>
    </g>
    <g id="xtick_5">
     <g id="line2d_5">
      <g>
       <use xlink:href="#med1660629b" x="210.9945" y="151.344" style="stroke: #000000; stroke-width: 0.8"/>
      </g>
     </g>
     <g id="text_5">
      <!-- 2.00 -->
      <g transform="translate(201.264031 165.501813)scale(0.1 -0.1)">
       <defs>
        <path id="ArialMT-32" d="M 3222 541 
L 3222 0 
L 194 0 
Q 188 203 259 391 
Q 375 700 629 1000 
Q 884 1300 1366 1694 
Q 2113 2306 2375 2664 
Q 2638 3022 2638 3341 
Q 2638 3675 2398 3904 
Q 2159 4134 1775 4134 
Q 1369 4134 1125 3890 
Q 881 3647 878 3216 
L 300 3275 
Q 359 3922 746 4261 
Q 1134 4600 1788 4600 
Q 2447 4600 2831 4234 
Q 3216 3869 3216 3328 
Q 3216 3053 3103 2787 
Q 2991 2522 2730 2228 
Q 2469 1934 1863 1422 
Q 1356 997 1212 845 
Q 1069 694 975 541 
L 3222 541 
z
" transform="scale(0.015625)"/>
       </defs>
       <use xlink:href="#ArialMT-32"/>
       <use xlink:href="#ArialMT-2e" x="55.615234"/>
       <use xlink:href="#ArialMT-30" x="83.398438"/>
       <use xlink:href="#ArialMT-30" x="139.013672"/>
      </g>
     </g>
    </g>
    <g id="xtick_6">
     <g id="line2d_6">
      <g>
       <use xlink:href="#med1660629b" x="253.4025" y="151.344" style="stroke: #000000; stroke-width: 0.8"/>
      </g>
     </g>
     <g id="text_6">
      <!-- 2.05 -->
      <g transform="translate(243.672031 165.501813)scale(0.1 -0.1)">
       <use xlink:href="#ArialMT-32"/>
       <use xlink:href="#ArialMT-2e" x="55.615234"/>
       <use xlink:href="#ArialMT-30" x="83.398438"/>
       <use xlink:href="#ArialMT-35" x="139.013672"/>
      </g>
     </g>
    </g>
    <g id="text_7">
     <!-- Log. Time constant -->
     <g transform="translate(105.13875 178.647125)scale(0.1 -0.1)">
      <defs>
       <path id="ArialMT-4c" d="M 469 0 
L 469 4581 
L 1075 4581 
L 1075 541 
L 3331 541 
L 3331 0 
L 469 0 
z
" transform="scale(0.015625)"/>
       <path id="ArialMT-6f" d="M 213 1659 
Q 213 2581 725 3025 
Q 1153 3394 1769 3394 
Q 2453 3394 2887 2945 
Q 3322 2497 3322 1706 
Q 3322 1066 3130 698 
Q 2938 331 2570 128 
Q 2203 -75 1769 -75 
Q 1072 -75 642 372 
Q 213 819 213 1659 
z
M 791 1659 
Q 791 1022 1069 705 
Q 1347 388 1769 388 
Q 2188 388 2466 706 
Q 2744 1025 2744 1678 
Q 2744 2294 2464 2611 
Q 2184 2928 1769 2928 
Q 1347 2928 1069 2612 
Q 791 2297 791 1659 
z
" transform="scale(0.015625)"/>
       <path id="ArialMT-67" d="M 319 -275 
L 866 -356 
Q 900 -609 1056 -725 
Q 1266 -881 1628 -881 
Q 2019 -881 2231 -725 
Q 2444 -569 2519 -288 
Q 2563 -116 2559 434 
Q 2191 0 1641 0 
Q 956 0 581 494 
Q 206 988 206 1678 
Q 206 2153 378 2554 
Q 550 2956 876 3175 
Q 1203 3394 1644 3394 
Q 2231 3394 2613 2919 
L 2613 3319 
L 3131 3319 
L 3131 450 
Q 3131 -325 2973 -648 
Q 2816 -972 2473 -1159 
Q 2131 -1347 1631 -1347 
Q 1038 -1347 672 -1080 
Q 306 -813 319 -275 
z
M 784 1719 
Q 784 1066 1043 766 
Q 1303 466 1694 466 
Q 2081 466 2343 764 
Q 2606 1063 2606 1700 
Q 2606 2309 2336 2618 
Q 2066 2928 1684 2928 
Q 1309 2928 1046 2623 
Q 784 2319 784 1719 
z
" transform="scale(0.015625)"/>
       <path id="ArialMT-20" transform="scale(0.015625)"/>
       <path id="ArialMT-54" d="M 1659 0 
L 1659 4041 
L 150 4041 
L 150 4581 
L 3781 4581 
L 3781 4041 
L 2266 4041 
L 2266 0 
L 1659 0 
z
" transform="scale(0.015625)"/>
       <path id="ArialMT-69" d="M 425 3934 
L 425 4581 
L 988 4581 
L 988 3934 
L 425 3934 
z
M 425 0 
L 425 3319 
L 988 3319 
L 988 0 
L 425 0 
z
" transform="scale(0.015625)"/>
       <path id="ArialMT-6d" d="M 422 0 
L 422 3319 
L 925 3319 
L 925 2853 
Q 1081 3097 1340 3245 
Q 1600 3394 1931 3394 
Q 2300 3394 2536 3241 
Q 2772 3088 2869 2813 
Q 3263 3394 3894 3394 
Q 4388 3394 4653 3120 
Q 4919 2847 4919 2278 
L 4919 0 
L 4359 0 
L 4359 2091 
Q 4359 2428 4304 2576 
Q 4250 2725 4106 2815 
Q 3963 2906 3769 2906 
Q 3419 2906 3187 2673 
Q 2956 2441 2956 1928 
L 2956 0 
L 2394 0 
L 2394 2156 
Q 2394 2531 2256 2718 
Q 2119 2906 1806 2906 
Q 1569 2906 1367 2781 
Q 1166 2656 1075 2415 
Q 984 2175 984 1722 
L 984 0 
L 422 0 
z
" transform="scale(0.015625)"/>
       <path id="ArialMT-65" d="M 2694 1069 
L 3275 997 
Q 3138 488 2766 206 
Q 2394 -75 1816 -75 
Q 1088 -75 661 373 
Q 234 822 234 1631 
Q 234 2469 665 2931 
Q 1097 3394 1784 3394 
Q 2450 3394 2872 2941 
Q 3294 2488 3294 1666 
Q 3294 1616 3291 1516 
L 816 1516 
Q 847 969 1125 678 
Q 1403 388 1819 388 
Q 2128 388 2347 550 
Q 2566 713 2694 1069 
z
M 847 1978 
L 2700 1978 
Q 2663 2397 2488 2606 
Q 2219 2931 1791 2931 
Q 1403 2931 1139 2672 
Q 875 2413 847 1978 
z
" transform="scale(0.015625)"/>
       <path id="ArialMT-63" d="M 2588 1216 
L 3141 1144 
Q 3050 572 2676 248 
Q 2303 -75 1759 -75 
Q 1078 -75 664 370 
Q 250 816 250 1647 
Q 250 2184 428 2587 
Q 606 2991 970 3192 
Q 1334 3394 1763 3394 
Q 2303 3394 2647 3120 
Q 2991 2847 3088 2344 
L 2541 2259 
Q 2463 2594 2264 2762 
Q 2066 2931 1784 2931 
Q 1359 2931 1093 2626 
Q 828 2322 828 1663 
Q 828 994 1084 691 
Q 1341 388 1753 388 
Q 2084 388 2306 591 
Q 2528 794 2588 1216 
z
" transform="scale(0.015625)"/>
       <path id="ArialMT-6e" d="M 422 0 
L 422 3319 
L 928 3319 
L 928 2847 
Q 1294 3394 1984 3394 
Q 2284 3394 2536 3286 
Q 2788 3178 2913 3003 
Q 3038 2828 3088 2588 
Q 3119 2431 3119 2041 
L 3119 0 
L 2556 0 
L 2556 2019 
Q 2556 2363 2490 2533 
Q 2425 2703 2258 2804 
Q 2091 2906 1866 2906 
Q 1506 2906 1245 2678 
Q 984 2450 984 1813 
L 984 0 
L 422 0 
z
" transform="scale(0.015625)"/>
       <path id="ArialMT-73" d="M 197 991 
L 753 1078 
Q 800 744 1014 566 
Q 1228 388 1613 388 
Q 2000 388 2187 545 
Q 2375 703 2375 916 
Q 2375 1106 2209 1216 
Q 2094 1291 1634 1406 
Q 1016 1563 777 1677 
Q 538 1791 414 1992 
Q 291 2194 291 2438 
Q 291 2659 392 2848 
Q 494 3038 669 3163 
Q 800 3259 1026 3326 
Q 1253 3394 1513 3394 
Q 1903 3394 2198 3281 
Q 2494 3169 2634 2976 
Q 2775 2784 2828 2463 
L 2278 2388 
Q 2241 2644 2061 2787 
Q 1881 2931 1553 2931 
Q 1166 2931 1000 2803 
Q 834 2675 834 2503 
Q 834 2394 903 2306 
Q 972 2216 1119 2156 
Q 1203 2125 1616 2013 
Q 2213 1853 2448 1751 
Q 2684 1650 2818 1456 
Q 2953 1263 2953 975 
Q 2953 694 2789 445 
Q 2625 197 2315 61 
Q 2006 -75 1616 -75 
Q 969 -75 630 194 
Q 291 463 197 991 
z
" transform="scale(0.015625)"/>
       <path id="ArialMT-74" d="M 1650 503 
L 1731 6 
Q 1494 -44 1306 -44 
Q 1000 -44 831 53 
Q 663 150 594 308 
Q 525 466 525 972 
L 525 2881 
L 113 2881 
L 113 3319 
L 525 3319 
L 525 4141 
L 1084 4478 
L 1084 3319 
L 1650 3319 
L 1650 2881 
L 1084 2881 
L 1084 941 
Q 1084 700 1114 631 
Q 1144 563 1211 522 
Q 1278 481 1403 481 
Q 1497 481 1650 503 
z
" transform="scale(0.015625)"/>
       <path id="ArialMT-61" d="M 2588 409 
Q 2275 144 1986 34 
Q 1697 -75 1366 -75 
Q 819 -75 525 192 
Q 231 459 231 875 
Q 231 1119 342 1320 
Q 453 1522 633 1644 
Q 813 1766 1038 1828 
Q 1203 1872 1538 1913 
Q 2219 1994 2541 2106 
Q 2544 2222 2544 2253 
Q 2544 2597 2384 2738 
Q 2169 2928 1744 2928 
Q 1347 2928 1158 2789 
Q 969 2650 878 2297 
L 328 2372 
Q 403 2725 575 2942 
Q 747 3159 1072 3276 
Q 1397 3394 1825 3394 
Q 2250 3394 2515 3294 
Q 2781 3194 2906 3042 
Q 3031 2891 3081 2659 
Q 3109 2516 3109 2141 
L 3109 1391 
Q 3109 606 3145 398 
Q 3181 191 3288 0 
L 2700 0 
Q 2613 175 2588 409 
z
M 2541 1666 
Q 2234 1541 1622 1453 
Q 1275 1403 1131 1340 
Q 988 1278 909 1158 
Q 831 1038 831 891 
Q 831 666 1001 516 
Q 1172 366 1500 366 
Q 1825 366 2078 508 
Q 2331 650 2450 897 
Q 2541 1088 2541 1459 
L 2541 1666 
z
" transform="scale(0.015625)"/>
      </defs>
      <use xlink:href="#ArialMT-4c"/>
      <use xlink:href="#ArialMT-6f" x="55.615234"/>
      <use xlink:href="#ArialMT-67" x="111.230469"/>
      <use xlink:href="#ArialMT-2e" x="166.845703"/>
      <use xlink:href="#ArialMT-20" x="194.628906"/>
      <use xlink:href="#ArialMT-54" x="220.662109"/>
      <use xlink:href="#ArialMT-69" x="277.996094"/>
      <use xlink:href="#ArialMT-6d" x="300.212891"/>
      <use xlink:href="#ArialMT-65" x="383.513672"/>
      <use xlink:href="#ArialMT-20" x="439.128906"/>
      <use xlink:href="#ArialMT-63" x="466.912109"/>
      <use xlink:href="#ArialMT-6f" x="516.912109"/>
      <use xlink:href="#ArialMT-6e" x="572.527344"/>
      <use xlink:href="#ArialMT-73" x="628.142578"/>
      <use xlink:href="#ArialMT-74" x="678.142578"/>
      <use xlink:href="#ArialMT-61" x="705.925781"/>
      <use xlink:href="#ArialMT-6e" x="761.541016"/>
      <use xlink:href="#ArialMT-74" x="817.15625"/>
     </g>
    </g>
   </g>
   <g id="matplotlib.axis_2">
    <g id="ytick_1">
     <g id="line2d_7">
      <defs>
       <path id="mf0dbdc770c" d="M 0 0 
L -3.5 0 
" style="stroke: #000000; stroke-width: 0.8"/>
      </defs>
      <g>
       <use xlink:href="#mf0dbdc770c" x="41.3625" y="151.344" style="stroke: #000000; stroke-width: 0.8"/>
      </g>
     </g>
     <g id="text_8">
      <!-- 1.2 -->
      <g transform="translate(20.4625 154.922906)scale(0.1 -0.1)">
       <use xlink:href="#ArialMT-31"/>
       <use xlink:href="#ArialMT-2e" x="55.615234"/>
       <use xlink:href="#ArialMT-32" x="83.398438"/>
      </g>
     </g>
    </g>
    <g id="ytick_2">
     <g id="line2d_8">
      <g>
       <use xlink:href="#mf0dbdc770c" x="41.3625" y="117.427765" style="stroke: #000000; stroke-width: 0.8"/>
      </g>
     </g>
     <g id="text_9">
      <!-- 1.4 -->
      <g transform="translate(20.4625 121.006671)scale(0.1 -0.1)">
       <defs>
        <path id="ArialMT-34" d="M 2069 0 
L 2069 1097 
L 81 1097 
L 81 1613 
L 2172 4581 
L 2631 4581 
L 2631 1613 
L 3250 1613 
L 3250 1097 
L 2631 1097 
L 2631 0 
L 2069 0 
z
M 2069 1613 
L 2069 3678 
L 634 1613 
L 2069 1613 
z
" transform="scale(0.015625)"/>
       </defs>
       <use xlink:href="#ArialMT-31"/>
       <use xlink:href="#ArialMT-2e" x="55.615234"/>
       <use xlink:href="#ArialMT-34" x="83.398438"/>
      </g>
     </g>
    </g>
    <g id="ytick_3">
     <g id="line2d_9">
      <g>
       <use xlink:href="#mf0dbdc770c" x="41.3625" y="83.511529" style="stroke: #000000; stroke-width: 0.8"/>
      </g>
     </g>
     <g id="text_10">
      <!-- 1.6 -->
      <g transform="translate(20.4625 87.090436)scale(0.1 -0.1)">
       <defs>
        <path id="ArialMT-36" d="M 3184 3459 
L 2625 3416 
Q 2550 3747 2413 3897 
Q 2184 4138 1850 4138 
Q 1581 4138 1378 3988 
Q 1113 3794 959 3422 
Q 806 3050 800 2363 
Q 1003 2672 1297 2822 
Q 1591 2972 1913 2972 
Q 2475 2972 2870 2558 
Q 3266 2144 3266 1488 
Q 3266 1056 3080 686 
Q 2894 316 2569 119 
Q 2244 -78 1831 -78 
Q 1128 -78 684 439 
Q 241 956 241 2144 
Q 241 3472 731 4075 
Q 1159 4600 1884 4600 
Q 2425 4600 2770 4297 
Q 3116 3994 3184 3459 
z
M 888 1484 
Q 888 1194 1011 928 
Q 1134 663 1356 523 
Q 1578 384 1822 384 
Q 2178 384 2434 671 
Q 2691 959 2691 1453 
Q 2691 1928 2437 2201 
Q 2184 2475 1800 2475 
Q 1419 2475 1153 2201 
Q 888 1928 888 1484 
z
" transform="scale(0.015625)"/>
       </defs>
       <use xlink:href="#ArialMT-31"/>
       <use xlink:href="#ArialMT-2e" x="55.615234"/>
       <use xlink:href="#ArialMT-36" x="83.398438"/>
      </g>
     </g>
    </g>
    <g id="ytick_4">
     <g id="line2d_10">
      <g>
       <use xlink:href="#mf0dbdc770c" x="41.3625" y="49.595294" style="stroke: #000000; stroke-width: 0.8"/>
      </g>
     </g>
     <g id="text_11">
      <!-- 1.8 -->
      <g transform="translate(20.4625 53.1742)scale(0.1 -0.1)">
       <use xlink:href="#ArialMT-31"/>
       <use xlink:href="#ArialMT-2e" x="55.615234"/>
       <use xlink:href="#ArialMT-38" x="83.398438"/>
      </g>
     </g>
    </g>
    <g id="ytick_5">
     <g id="line2d_11">
      <g>
       <use xlink:href="#mf0dbdc770c" x="41.3625" y="15.679059" style="stroke: #000000; stroke-width: 0.8"/>
      </g>
     </g>
     <g id="text_12">
      <!-- 2.0 -->
      <g transform="translate(20.4625 19.257965)scale(0.1 -0.1)">
       <use xlink:href="#ArialMT-32"/>
       <use xlink:href="#ArialMT-2e" x="55.615234"/>
       <use xlink:href="#ArialMT-30" x="83.398438"/>
      </g>
     </g>
    </g>
    <g id="text_13">
     <!-- Log. Dispersion rate -->
     <g transform="translate(14.357813 124.014969)rotate(-90)scale(0.1 -0.1)">
      <defs>
       <path id="ArialMT-44" d="M 494 0 
L 494 4581 
L 2072 4581 
Q 2606 4581 2888 4516 
Q 3281 4425 3559 4188 
Q 3922 3881 4101 3404 
Q 4281 2928 4281 2316 
Q 4281 1794 4159 1391 
Q 4038 988 3847 723 
Q 3656 459 3429 307 
Q 3203 156 2883 78 
Q 2563 0 2147 0 
L 494 0 
z
M 1100 541 
L 2078 541 
Q 2531 541 2789 625 
Q 3047 709 3200 863 
Q 3416 1078 3536 1442 
Q 3656 1806 3656 2325 
Q 3656 3044 3420 3430 
Q 3184 3816 2847 3947 
Q 2603 4041 2063 4041 
L 1100 4041 
L 1100 541 
z
" transform="scale(0.015625)"/>
       <path id="ArialMT-70" d="M 422 -1272 
L 422 3319 
L 934 3319 
L 934 2888 
Q 1116 3141 1344 3267 
Q 1572 3394 1897 3394 
Q 2322 3394 2647 3175 
Q 2972 2956 3137 2557 
Q 3303 2159 3303 1684 
Q 3303 1175 3120 767 
Q 2938 359 2589 142 
Q 2241 -75 1856 -75 
Q 1575 -75 1351 44 
Q 1128 163 984 344 
L 984 -1272 
L 422 -1272 
z
M 931 1641 
Q 931 1000 1190 694 
Q 1450 388 1819 388 
Q 2194 388 2461 705 
Q 2728 1022 2728 1688 
Q 2728 2322 2467 2637 
Q 2206 2953 1844 2953 
Q 1484 2953 1207 2617 
Q 931 2281 931 1641 
z
" transform="scale(0.015625)"/>
       <path id="ArialMT-72" d="M 416 0 
L 416 3319 
L 922 3319 
L 922 2816 
Q 1116 3169 1280 3281 
Q 1444 3394 1641 3394 
Q 1925 3394 2219 3213 
L 2025 2691 
Q 1819 2813 1613 2813 
Q 1428 2813 1281 2702 
Q 1134 2591 1072 2394 
Q 978 2094 978 1738 
L 978 0 
L 416 0 
z
" transform="scale(0.015625)"/>
      </defs>
      <use xlink:href="#ArialMT-4c"/>
      <use xlink:href="#ArialMT-6f" x="55.615234"/>
      <use xlink:href="#ArialMT-67" x="111.230469"/>
      <use xlink:href="#ArialMT-2e" x="166.845703"/>
      <use xlink:href="#ArialMT-20" x="194.628906"/>
      <use xlink:href="#ArialMT-44" x="222.412109"/>
      <use xlink:href="#ArialMT-69" x="294.628906"/>
      <use xlink:href="#ArialMT-73" x="316.845703"/>
      <use xlink:href="#ArialMT-70" x="366.845703"/>
      <use xlink:href="#ArialMT-65" x="422.460938"/>
      <use xlink:href="#ArialMT-72" x="478.076172"/>
      <use xlink:href="#ArialMT-73" x="511.376953"/>
      <use xlink:href="#ArialMT-69" x="561.376953"/>
      <use xlink:href="#ArialMT-6f" x="583.59375"/>
      <use xlink:href="#ArialMT-6e" x="639.208984"/>
      <use xlink:href="#ArialMT-20" x="694.824219"/>
      <use xlink:href="#ArialMT-72" x="722.607422"/>
      <use xlink:href="#ArialMT-61" x="755.908203"/>
      <use xlink:href="#ArialMT-74" x="811.523438"/>
      <use xlink:href="#ArialMT-65" x="839.306641"/>
     </g>
    </g>
   </g>
   <g id="line2d_12">
    <path d="M 57.337204 41.663357 
L 61.827064 43.463985 
L 66.262856 45.242805 
L 70.645865 47.00034 
L 74.977334 48.737095 
L 79.25846 50.453556 
L 83.4904 52.150194 
L 87.674272 53.827463 
L 91.811155 55.485801 
L 95.902093 57.125631 
L 99.948095 58.747363 
L 103.950138 60.351393 
L 107.909167 61.938104 
L 111.826096 63.507867 
L 115.701812 65.061042 
L 119.537172 66.597975 
L 123.333009 68.119003 
L 127.090129 69.624454 
L 130.809314 71.114643 
L 134.491321 72.589878 
L 138.136887 74.050455 
L 141.746727 75.496665 
L 145.321533 76.928788 
L 148.861979 78.347095 
L 152.36872 79.751852 
L 155.842391 81.143315 
L 159.283609 82.521734 
L 162.692977 83.887351 
L 166.071077 85.240403 
L 169.418479 86.581119 
L 172.735734 87.909723 
L 176.023382 89.226431 
L 179.281946 90.531455 
L 182.511936 91.825001 
L 185.71385 93.10727 
L 188.88817 94.378456 
L 192.035368 95.63875 
L 195.155904 96.888336 
L 198.250227 98.127397 
L 201.318772 99.356108 
L 204.361965 100.57464 
L 207.380223 101.783161 
L 210.373949 102.981834 
L 213.343541 104.170819 
L 216.289384 105.350272 
L 219.211854 106.520344 
L 222.111321 107.681183 
L 224.988142 108.832934 
L 227.842669 109.975739 
L 230.675245 111.109735 
L 233.486206 112.235058 
L 236.275877 113.351839 
L 239.04458 114.460207 
L 241.792627 115.560288 
L 244.520325 116.652205 
L 247.227972 117.736079 
L 249.91586 118.812028 
L 252.584277 119.880166 
L 255.233503 120.940606 
L 257.863811 121.993458 
L 260.475469 123.038831 
L 263.068741 124.07683 
L 265.643883 125.107559 
L 268.201147 126.131118 
L 270.74078 127.147607 
L 271.332969 127.384627 
" clip-path="url(#p6d9c9b6367)" style="fill: none; stroke-dasharray: 5.55,2.4; stroke-dashoffset: 0; stroke: #000000; stroke-width: 1.5"/>
   </g>
   <g id="LineCollection_1">
    <path d="M 58.644612 20.67051 
L 67.126212 20.67051 
" clip-path="url(#p6d9c9b6367)" style="fill: none; stroke: #444444; stroke-width: 1.5"/>
    <path d="M 80.037705 46.920437 
L 88.519305 46.920437 
" clip-path="url(#p6d9c9b6367)" style="fill: none; stroke: #444444; stroke-width: 1.5"/>
    <path d="M 105.142101 39.772842 
L 113.623701 39.772842 
" clip-path="url(#p6d9c9b6367)" style="fill: none; stroke: #444444; stroke-width: 1.5"/>
    <path d="M 150.736239 63.710322 
L 159.217839 63.710322 
" clip-path="url(#p6d9c9b6367)" style="fill: none; stroke: #444444; stroke-width: 1.5"/>
    <path d="M 191.303319 81.501577 
L 199.784919 81.501577 
" clip-path="url(#p6d9c9b6367)" style="fill: none; stroke: #444444; stroke-width: 1.5"/>
    <path d="M 227.842607 83.397312 
L 236.324207 83.397312 
" clip-path="url(#p6d9c9b6367)" style="fill: none; stroke: #444444; stroke-width: 1.5"/>
    <path d="M 261.082173 87.077472 
L 269.563773 87.077472 
" clip-path="url(#p6d9c9b6367)" style="fill: none; stroke: #444444; stroke-width: 1.5"/>
    <path clip-path="url(#p6d9c9b6367)" style="fill: none; stroke: #444444; stroke-width: 1.5"/>
    <path clip-path="url(#p6d9c9b6367)" style="fill: none; stroke: #444444; stroke-width: 1.5"/>
    <path clip-path="url(#p6d9c9b6367)" style="fill: none; stroke: #444444; stroke-width: 1.5"/>
    <path clip-path="url(#p6d9c9b6367)" style="fill: none; stroke: #444444; stroke-width: 1.5"/>
   </g>
   <g id="LineCollection_2">
    <path d="M 58.644612 63.068808 
L 67.126212 63.068808 
" clip-path="url(#p6d9c9b6367)" style="fill: none; stroke: #444444; stroke-width: 1.5"/>
    <path d="M 80.037705 79.736969 
L 88.519305 79.736969 
" clip-path="url(#p6d9c9b6367)" style="fill: none; stroke: #444444; stroke-width: 1.5"/>
    <path d="M 105.142101 84.813686 
L 113.623701 84.813686 
" clip-path="url(#p6d9c9b6367)" style="fill: none; stroke: #444444; stroke-width: 1.5"/>
    <path d="M 150.736239 98.594002 
L 159.217839 98.594002 
" clip-path="url(#p6d9c9b6367)" style="fill: none; stroke: #444444; stroke-width: 1.5"/>
    <path d="M 191.303319 119.10854 
L 199.784919 119.10854 
" clip-path="url(#p6d9c9b6367)" style="fill: none; stroke: #444444; stroke-width: 1.5"/>
    <path d="M 227.842607 124.748221 
L 236.324207 124.748221 
" clip-path="url(#p6d9c9b6367)" style="fill: none; stroke: #444444; stroke-width: 1.5"/>
    <path d="M 261.082173 128.014238 
L 269.563773 128.014238 
" clip-path="url(#p6d9c9b6367)" style="fill: none; stroke: #444444; stroke-width: 1.5"/>
    <path clip-path="url(#p6d9c9b6367)" style="fill: none; stroke: #444444; stroke-width: 1.5"/>
    <path clip-path="url(#p6d9c9b6367)" style="fill: none; stroke: #444444; stroke-width: 1.5"/>
    <path clip-path="url(#p6d9c9b6367)" style="fill: none; stroke: #444444; stroke-width: 1.5"/>
    <path clip-path="url(#p6d9c9b6367)" style="fill: none; stroke: #444444; stroke-width: 1.5"/>
   </g>
   <g id="LineCollection_3">
    <path d="M 62.885412 63.068808 
L 62.885412 20.67051 
" clip-path="url(#p6d9c9b6367)" style="fill: none; stroke: #444444; stroke-width: 1.5"/>
    <path d="M 84.278505 79.736969 
L 84.278505 46.920437 
" clip-path="url(#p6d9c9b6367)" style="fill: none; stroke: #444444; stroke-width: 1.5"/>
    <path d="M 109.382901 84.813686 
L 109.382901 39.772842 
" clip-path="url(#p6d9c9b6367)" style="fill: none; stroke: #444444; stroke-width: 1.5"/>
    <path d="M 154.977039 98.594002 
L 154.977039 63.710322 
" clip-path="url(#p6d9c9b6367)" style="fill: none; stroke: #444444; stroke-width: 1.5"/>
    <path d="M 195.544119 119.10854 
L 195.544119 81.501577 
" clip-path="url(#p6d9c9b6367)" style="fill: none; stroke: #444444; stroke-width: 1.5"/>
    <path d="M 232.083407 124.748221 
L 232.083407 83.397312 
" clip-path="url(#p6d9c9b6367)" style="fill: none; stroke: #444444; stroke-width: 1.5"/>
    <path d="M 265.322973 128.014238 
L 265.322973 87.077472 
" clip-path="url(#p6d9c9b6367)" style="fill: none; stroke: #444444; stroke-width: 1.5"/>
    <path clip-path="url(#p6d9c9b6367)" style="fill: none; stroke: #444444; stroke-width: 1.5"/>
    <path clip-path="url(#p6d9c9b6367)" style="fill: none; stroke: #444444; stroke-width: 1.5"/>
    <path clip-path="url(#p6d9c9b6367)" style="fill: none; stroke: #444444; stroke-width: 1.5"/>
    <path clip-path="url(#p6d9c9b6367)" style="fill: none; stroke: #444444; stroke-width: 1.5"/>
   </g>
   <g id="LineCollection_4">
    <path d="M 58.644612 38.907205 
L 67.126212 38.907205 
" clip-path="url(#p6d9c9b6367)" style="fill: none; stroke: #444444; stroke-width: 1.5"/>
    <path d="M 80.037705 57.432847 
L 88.519305 57.432847 
" clip-path="url(#p6d9c9b6367)" style="fill: none; stroke: #444444; stroke-width: 1.5"/>
    <path d="M 105.142101 64.119884 
L 113.623701 64.119884 
" clip-path="url(#p6d9c9b6367)" style="fill: none; stroke: #444444; stroke-width: 1.5"/>
    <path d="M 150.736239 79.832095 
L 159.217839 79.832095 
" clip-path="url(#p6d9c9b6367)" style="fill: none; stroke: #444444; stroke-width: 1.5"/>
    <path d="M 191.303319 99.313123 
L 199.784919 99.313123 
" clip-path="url(#p6d9c9b6367)" style="fill: none; stroke: #444444; stroke-width: 1.5"/>
    <path d="M 227.842607 104.38901 
L 236.324207 104.38901 
" clip-path="url(#p6d9c9b6367)" style="fill: none; stroke: #444444; stroke-width: 1.5"/>
    <path d="M 261.082173 101.640257 
L 269.563773 101.640257 
" clip-path="url(#p6d9c9b6367)" style="fill: none; stroke: #444444; stroke-width: 1.5"/>
    <path clip-path="url(#p6d9c9b6367)" style="fill: none; stroke: #444444; stroke-width: 1.5"/>
    <path clip-path="url(#p6d9c9b6367)" style="fill: none; stroke: #444444; stroke-width: 1.5"/>
    <path clip-path="url(#p6d9c9b6367)" style="fill: none; stroke: #444444; stroke-width: 1.5"/>
    <path clip-path="url(#p6d9c9b6367)" style="fill: none; stroke: #444444; stroke-width: 1.5"/>
   </g>
   <g id="patch_3">
    <path d="M 41.3625 151.344 
L 41.3625 7.2 
" style="fill: none; stroke: #000000; stroke-width: 0.8; stroke-linejoin: miter; stroke-linecap: square"/>
   </g>
   <g id="patch_4">
    <path d="M 253.4025 151.344 
L 253.4025 7.2 
" style="fill: none; stroke: #000000; stroke-width: 0.8; stroke-linejoin: miter; stroke-linecap: square"/>
   </g>
   <g id="patch_5">
    <path d="M 41.3625 151.344 
L 253.4025 151.344 
" style="fill: none; stroke: #000000; stroke-width: 0.8; stroke-linejoin: miter; stroke-linecap: square"/>
   </g>
   <g id="patch_6">
    <path d="M 41.3625 7.2 
L 253.4025 7.2 
" style="fill: none; stroke: #000000; stroke-width: 0.8; stroke-linejoin: miter; stroke-linecap: square"/>
   </g>
  </g>
 </g>
 <defs>
  <clipPath id="p6d9c9b6367">
   <rect x="41.3625" y="7.2" width="212.04" height="144.144"/>
  </clipPath>
 </defs>
</svg>
