<?xml version="1.0" encoding="utf-8" standalone="no"?>
<!DOCTYPE svg PUBLIC "-//W3C//DTD SVG 1.1//EN"
  "http://www.w3.org/Graphics/SVG/1.1/DTD/svg11.dtd">
<svg xmlns:xlink="http://www.w3.org/1999/xlink" width="266.443125pt" height="187.951813pt" viewBox="0 0 266.443125 187.951813" xmlns="http://www.w3.org/2000/svg" version="1.1">
 <metadata>
  <rdf:RDF xmlns:dc="http://purl.org/dc/elements/1.1/" xmlns:cc="http://creativecommons.org/ns#" xmlns:rdf="http://www.w3.org/1999/02/22-rdf-syntax-ns#">
   <cc:Work>
    <dc:type rdf:resource="http://purl.org/dc/dcmitype/StillImage"/>
    <dc:date>2023-01-04T00:29:36.601644</dc:date>
    <dc:format>image/svg+xml</dc:format>
    <dc:creator>
     <cc:Agent>
      <dc:title>Matplotlib v3.5.1, https://matplotlib.org/</dc:title>
     </cc:Agent>
    </dc:creator>
   </cc:Work>
  </rdf:RDF>
 </metadata>
 <defs>
  <style type="text/css">*{stroke-linejoin: round; stroke-linecap: butt}</style>
 </defs>
 <g id="figure_1">
  <g id="patch_1">
   <path d="M 0 187.951813 
L 266.443125 187.951813 
L 266.443125 0 
L 0 0 
L 0 187.951813 
z
" style="fill: none"/>
  </g>
  <g id="axes_1">
   <g id="patch_2">
    <path d="M 47.203125 151.344 
L 259.243125 151.344 
L 259.243125 7.2 
L 47.203125 7.2 
L 47.203125 151.344 
z
" style="fill: none"/>
   </g>
   <g id="PolyCollection_1">
    <defs>
     <path id="m3904e7de3b" d="M 64.231871 -174.199813 
L 64.231871 -140.010193 
L 67.864167 -138.033654 
L 71.496463 -136.057116 
L 75.128759 -134.080578 
L 78.761055 -132.104039 
L 82.393351 -130.127501 
L 86.025647 -128.150963 
L 89.657943 -126.174424 
L 93.290239 -124.197886 
L 96.922535 -122.221347 
L 100.554832 -120.244809 
L 104.187128 -118.268271 
L 107.819424 -116.291732 
L 111.45172 -114.315194 
L 115.084016 -112.338656 
L 118.716312 -110.362117 
L 122.348608 -108.385579 
L 125.980904 -106.40904 
L 129.6132 -104.432502 
L 133.245496 -102.455964 
L 136.877793 -100.479425 
L 140.510089 -98.502887 
L 144.142385 -96.526349 
L 147.774681 -94.54981 
L 151.406977 -92.573272 
L 155.039273 -90.596733 
L 158.671569 -88.620195 
L 162.303865 -86.643657 
L 165.936161 -84.667118 
L 169.568457 -82.69058 
L 173.200754 -80.714042 
L 176.83305 -78.737503 
L 180.465346 -76.760965 
L 184.097642 -74.784426 
L 187.729938 -72.807888 
L 191.362234 -70.83135 
L 194.99453 -68.854811 
L 198.626826 -66.878273 
L 202.259122 -64.901735 
L 205.891418 -62.925196 
L 209.523715 -60.948658 
L 213.156011 -58.972119 
L 216.788307 -56.995581 
L 220.420603 -55.019043 
L 224.052899 -53.042504 
L 227.685195 -51.065966 
L 231.317491 -49.089428 
L 234.949787 -47.112889 
L 238.582083 -45.136351 
L 242.214379 -43.159813 
L 242.214379 -77.349432 
L 242.214379 -77.349432 
L 238.582083 -79.325971 
L 234.949787 -81.302509 
L 231.317491 -83.279047 
L 227.685195 -85.255586 
L 224.052899 -87.232124 
L 220.420603 -89.208662 
L 216.788307 -91.185201 
L 213.156011 -93.161739 
L 209.523715 -95.138278 
L 205.891418 -97.114816 
L 202.259122 -99.091354 
L 198.626826 -101.067893 
L 194.99453 -103.044431 
L 191.362234 -105.020969 
L 187.729938 -106.997508 
L 184.097642 -108.974046 
L 180.465346 -110.950585 
L 176.83305 -112.927123 
L 173.200754 -114.903661 
L 169.568457 -116.8802 
L 165.936161 -118.856738 
L 162.303865 -120.833276 
L 158.671569 -122.809815 
L 155.039273 -124.786353 
L 151.406977 -126.762892 
L 147.774681 -128.73943 
L 144.142385 -130.715968 
L 140.510089 -132.692507 
L 136.877793 -134.669045 
L 133.245496 -136.645583 
L 129.6132 -138.622122 
L 125.980904 -140.59866 
L 122.348608 -142.575199 
L 118.716312 -144.551737 
L 115.084016 -146.528275 
L 111.45172 -148.504814 
L 107.819424 -150.481352 
L 104.187128 -152.45789 
L 100.554832 -154.434429 
L 96.922535 -156.410967 
L 93.290239 -158.387506 
L 89.657943 -160.364044 
L 86.025647 -162.340582 
L 82.393351 -164.317121 
L 78.761055 -166.293659 
L 75.128759 -168.270197 
L 71.496463 -170.246736 
L 67.864167 -172.223274 
L 64.231871 -174.199813 
z
" style="stroke: #444444; stroke-opacity: 0.2"/>
    </defs>
    <g clip-path="url(#peead7dc9ec)">
     <use xlink:href="#m3904e7de3b" x="0" y="187.951813" style="fill: #444444; fill-opacity: 0.2; stroke: #444444; stroke-opacity: 0.2"/>
    </g>
   </g>
   <g id="PolyCollection_2">
    <defs>
     <path id="m9daa98393a" d="M 64.794065 -159.525316 
L 63.669676 -159.525316 
L 63.637375 -159.651941 
L 63.603439 -159.778566 
L 63.566942 -159.905191 
L 63.526841 -160.031817 
L 63.482013 -160.158442 
L 63.431303 -160.285067 
L 63.373576 -160.411692 
L 63.307755 -160.538317 
L 63.232872 -160.664943 
L 63.148099 -160.791568 
L 63.052774 -160.918193 
L 62.946423 -161.044818 
L 62.828762 -161.171443 
L 62.699704 -161.298069 
L 62.559352 -161.424694 
L 62.40799 -161.551319 
L 62.246072 -161.677944 
L 62.074214 -161.804569 
L 61.89318 -161.931194 
L 61.703874 -162.05782 
L 61.507332 -162.184445 
L 61.304713 -162.31107 
L 61.097283 -162.437695 
L 60.886405 -162.56432 
L 60.673513 -162.690946 
L 60.460086 -162.817571 
L 60.247618 -162.944196 
L 60.037576 -163.070821 
L 59.831356 -163.197446 
L 59.630248 -163.324071 
L 59.435386 -163.450697 
L 59.247716 -163.577322 
L 59.067971 -163.703947 
L 58.896647 -163.830572 
L 58.734007 -163.957197 
L 58.58008 -164.083823 
L 58.43469 -164.210448 
L 58.297481 -164.337073 
L 58.167962 -164.463698 
L 58.045549 -164.590323 
L 57.929619 -164.716949 
L 57.819553 -164.843574 
L 57.714785 -164.970199 
L 57.614838 -165.096824 
L 57.519362 -165.223449 
L 57.428157 -165.350074 
L 57.341196 -165.4767 
L 57.258636 -165.603325 
L 57.180834 -165.72995 
L 57.10835 -165.856575 
L 57.041955 -165.9832 
L 56.982636 -166.109826 
L 56.931593 -166.236451 
L 56.890239 -166.363076 
L 56.860187 -166.489701 
L 56.84323 -166.616326 
L 56.841307 -166.742951 
L 56.856449 -166.869577 
L 56.890716 -166.996202 
L 56.946111 -167.122827 
L 57.024482 -167.249452 
L 57.12741 -167.376077 
L 57.256102 -167.502703 
L 57.411278 -167.629328 
L 57.59308 -167.755953 
L 57.800997 -167.882578 
L 58.033822 -168.009203 
L 58.289644 -168.135828 
L 58.565877 -168.262454 
L 58.859329 -168.389079 
L 59.166305 -168.515704 
L 59.48274 -168.642329 
L 59.804346 -168.768954 
L 60.126784 -168.89558 
L 60.445818 -169.022205 
L 60.757468 -169.14883 
L 61.058144 -169.275455 
L 61.344745 -169.40208 
L 61.614737 -169.528706 
L 61.866191 -169.655331 
L 62.097787 -169.781956 
L 62.308802 -169.908581 
L 62.499059 -170.035206 
L 62.66887 -170.161831 
L 62.818961 -170.288457 
L 62.950401 -170.415082 
L 63.064518 -170.541707 
L 63.162834 -170.668332 
L 63.246994 -170.794957 
L 63.318712 -170.921583 
L 63.379721 -171.048208 
L 63.431728 -171.174833 
L 63.476384 -171.301458 
L 63.515245 -171.428083 
L 63.549753 -171.554708 
L 63.581206 -171.681334 
L 63.610743 -171.807959 
L 63.639324 -171.934584 
L 63.667721 -172.061209 
L 64.79602 -172.061209 
L 64.79602 -172.061209 
L 64.824417 -171.934584 
L 64.852998 -171.807959 
L 64.882535 -171.681334 
L 64.913988 -171.554708 
L 64.948496 -171.428083 
L 64.987357 -171.301458 
L 65.032013 -171.174833 
L 65.08402 -171.048208 
L 65.145029 -170.921583 
L 65.216747 -170.794957 
L 65.300907 -170.668332 
L 65.399223 -170.541707 
L 65.51334 -170.415082 
L 65.64478 -170.288457 
L 65.794871 -170.161831 
L 65.964682 -170.035206 
L 66.154939 -169.908581 
L 66.365954 -169.781956 
L 66.59755 -169.655331 
L 66.849004 -169.528706 
L 67.118996 -169.40208 
L 67.405597 -169.275455 
L 67.706273 -169.14883 
L 68.017923 -169.022205 
L 68.336957 -168.89558 
L 68.659395 -168.768954 
L 68.981001 -168.642329 
L 69.297436 -168.515704 
L 69.604412 -168.389079 
L 69.897864 -168.262454 
L 70.174097 -168.135828 
L 70.429919 -168.009203 
L 70.662744 -167.882578 
L 70.870661 -167.755953 
L 71.052463 -167.629328 
L 71.207639 -167.502703 
L 71.336331 -167.376077 
L 71.439259 -167.249452 
L 71.51763 -167.122827 
L 71.573025 -166.996202 
L 71.607292 -166.869577 
L 71.622434 -166.742951 
L 71.620511 -166.616326 
L 71.603554 -166.489701 
L 71.573502 -166.363076 
L 71.532148 -166.236451 
L 71.481105 -166.109826 
L 71.421786 -165.9832 
L 71.355391 -165.856575 
L 71.282907 -165.72995 
L 71.205105 -165.603325 
L 71.122545 -165.4767 
L 71.035584 -165.350074 
L 70.944379 -165.223449 
L 70.848903 -165.096824 
L 70.748956 -164.970199 
L 70.644188 -164.843574 
L 70.534122 -164.716949 
L 70.418192 -164.590323 
L 70.29578 -164.463698 
L 70.16626 -164.337073 
L 70.029051 -164.210448 
L 69.883661 -164.083823 
L 69.729734 -163.957197 
L 69.567094 -163.830572 
L 69.39577 -163.703947 
L 69.216025 -163.577322 
L 69.028355 -163.450697 
L 68.833493 -163.324071 
L 68.632385 -163.197446 
L 68.426165 -163.070821 
L 68.216123 -162.944196 
L 68.003655 -162.817571 
L 67.790228 -162.690946 
L 67.577336 -162.56432 
L 67.366458 -162.437695 
L 67.159028 -162.31107 
L 66.956409 -162.184445 
L 66.759867 -162.05782 
L 66.570561 -161.931194 
L 66.389527 -161.804569 
L 66.217669 -161.677944 
L 66.055751 -161.551319 
L 65.904389 -161.424694 
L 65.764037 -161.298069 
L 65.634979 -161.171443 
L 65.517318 -161.044818 
L 65.410967 -160.918193 
L 65.315642 -160.791568 
L 65.230869 -160.664943 
L 65.155986 -160.538317 
L 65.090166 -160.411692 
L 65.032438 -160.285067 
L 64.981728 -160.158442 
L 64.9369 -160.031817 
L 64.896799 -159.905191 
L 64.860302 -159.778566 
L 64.826366 -159.651941 
L 64.794065 -159.525316 
z
" style="stroke: #440154; stroke-opacity: 0.4"/>
    </defs>
    <g clip-path="url(#peead7dc9ec)">
     <use xlink:href="#m9daa98393a" x="0" y="187.951813" style="fill: #440154; fill-opacity: 0.4; stroke: #440154; stroke-opacity: 0.4"/>
    </g>
   </g>
   <g id="PolyCollection_3">
    <defs>
     <path id="m10f77c842d" d="M 94.814261 -142.853414 
L 92.976983 -142.853414 
L 92.906872 -142.975343 
L 92.833866 -143.097272 
L 92.757843 -143.219201 
L 92.678665 -143.341131 
L 92.596188 -143.46306 
L 92.510259 -143.584989 
L 92.420724 -143.706918 
L 92.32743 -143.828848 
L 92.230227 -143.950777 
L 92.128971 -144.072706 
L 92.023532 -144.194635 
L 91.91379 -144.316564 
L 91.799652 -144.438494 
L 91.68105 -144.560423 
L 91.557955 -144.682352 
L 91.430385 -144.804281 
L 91.298416 -144.926211 
L 91.162191 -145.04814 
L 91.021926 -145.170069 
L 90.877919 -145.291998 
L 90.730545 -145.413928 
L 90.580259 -145.535857 
L 90.427579 -145.657786 
L 90.273077 -145.779715 
L 90.117355 -145.901644 
L 89.961023 -146.023574 
L 89.804676 -146.145503 
L 89.648859 -146.267432 
L 89.494054 -146.389361 
L 89.340652 -146.511291 
L 89.188944 -146.63322 
L 89.039115 -146.755149 
L 88.891247 -146.877078 
L 88.745338 -146.999007 
L 88.601316 -147.120937 
L 88.459078 -147.242866 
L 88.318521 -147.364795 
L 88.179579 -147.486724 
L 88.042266 -147.608654 
L 87.906704 -147.730583 
L 87.773154 -147.852512 
L 87.642029 -147.974441 
L 87.513904 -148.096371 
L 87.389508 -148.2183 
L 87.269699 -148.340229 
L 87.155442 -148.462158 
L 87.047758 -148.584087 
L 86.947683 -148.706017 
L 86.856212 -148.827946 
L 86.774244 -148.949875 
L 86.702542 -149.071804 
L 86.641685 -149.193734 
L 86.592039 -149.315663 
L 86.553746 -149.437592 
L 86.526717 -149.559521 
L 86.51065 -149.681451 
L 86.505058 -149.80338 
L 86.509311 -149.925309 
L 86.522687 -150.047238 
L 86.544437 -150.169167 
L 86.573838 -150.291097 
L 86.61026 -150.413026 
L 86.653217 -150.534955 
L 86.702408 -150.656884 
L 86.757747 -150.778814 
L 86.819381 -150.900743 
L 86.887679 -151.022672 
L 86.963218 -151.144601 
L 87.046739 -151.266531 
L 87.139104 -151.38846 
L 87.24123 -151.510389 
L 87.354025 -151.632318 
L 87.478317 -151.754247 
L 87.614786 -151.876177 
L 87.76391 -151.998106 
L 87.925908 -152.120035 
L 88.100708 -152.241964 
L 88.287924 -152.363894 
L 88.486851 -152.485823 
L 88.696473 -152.607752 
L 88.915494 -152.729681 
L 89.142373 -152.851611 
L 89.375372 -152.97354 
L 89.612615 -153.095469 
L 89.852151 -153.217398 
L 90.092012 -153.339327 
L 90.330273 -153.461257 
L 90.565111 -153.583186 
L 90.794849 -153.705115 
L 91.017996 -153.827044 
L 91.233276 -153.948974 
L 91.439643 -154.070903 
L 91.636292 -154.192832 
L 91.822655 -154.314761 
L 91.998386 -154.436691 
L 92.16335 -154.55862 
L 92.317588 -154.680549 
L 92.461298 -154.802478 
L 92.594798 -154.924407 
L 95.196446 -154.924407 
L 95.196446 -154.924407 
L 95.329946 -154.802478 
L 95.473656 -154.680549 
L 95.627894 -154.55862 
L 95.792858 -154.436691 
L 95.96859 -154.314761 
L 96.154952 -154.192832 
L 96.351601 -154.070903 
L 96.557968 -153.948974 
L 96.773248 -153.827044 
L 96.996395 -153.705115 
L 97.226133 -153.583186 
L 97.460971 -153.461257 
L 97.699232 -153.339327 
L 97.939093 -153.217398 
L 98.178629 -153.095469 
L 98.415872 -152.97354 
L 98.648871 -152.851611 
L 98.87575 -152.729681 
L 99.094771 -152.607752 
L 99.304394 -152.485823 
L 99.50332 -152.363894 
L 99.690536 -152.241964 
L 99.865336 -152.120035 
L 100.027334 -151.998106 
L 100.176458 -151.876177 
L 100.312927 -151.754247 
L 100.437219 -151.632318 
L 100.550014 -151.510389 
L 100.65214 -151.38846 
L 100.744505 -151.266531 
L 100.828027 -151.144601 
L 100.903565 -151.022672 
L 100.971863 -150.900743 
L 101.033497 -150.778814 
L 101.088837 -150.656884 
L 101.138027 -150.534955 
L 101.180984 -150.413026 
L 101.217406 -150.291097 
L 101.246807 -150.169167 
L 101.268557 -150.047238 
L 101.281933 -149.925309 
L 101.286186 -149.80338 
L 101.280594 -149.681451 
L 101.264527 -149.559521 
L 101.237498 -149.437592 
L 101.199205 -149.315663 
L 101.149559 -149.193734 
L 101.088702 -149.071804 
L 101.017 -148.949875 
L 100.935033 -148.827946 
L 100.843561 -148.706017 
L 100.743486 -148.584087 
L 100.635802 -148.462158 
L 100.521545 -148.340229 
L 100.401737 -148.2183 
L 100.27734 -148.096371 
L 100.149215 -147.974441 
L 100.01809 -147.852512 
L 99.88454 -147.730583 
L 99.748978 -147.608654 
L 99.611665 -147.486724 
L 99.472723 -147.364795 
L 99.332166 -147.242866 
L 99.189928 -147.120937 
L 99.045906 -146.999007 
L 98.899997 -146.877078 
L 98.752129 -146.755149 
L 98.6023 -146.63322 
L 98.450592 -146.511291 
L 98.29719 -146.389361 
L 98.142385 -146.267432 
L 97.986568 -146.145503 
L 97.830221 -146.023574 
L 97.673889 -145.901644 
L 97.518167 -145.779715 
L 97.363665 -145.657786 
L 97.210985 -145.535857 
L 97.060699 -145.413928 
L 96.913325 -145.291998 
L 96.769318 -145.170069 
L 96.629053 -145.04814 
L 96.492828 -144.926211 
L 96.360859 -144.804281 
L 96.233289 -144.682352 
L 96.110194 -144.560423 
L 95.991592 -144.438494 
L 95.877454 -144.316564 
L 95.767712 -144.194635 
L 95.662273 -144.072706 
L 95.561017 -143.950777 
L 95.463814 -143.828848 
L 95.37052 -143.706918 
L 95.280985 -143.584989 
L 95.195056 -143.46306 
L 95.112579 -143.341131 
L 95.033401 -143.219201 
L 94.957378 -143.097272 
L 94.884372 -142.975343 
L 94.814261 -142.853414 
z
" style="stroke: #46327e; stroke-opacity: 0.4"/>
    </defs>
    <g clip-path="url(#peead7dc9ec)">
     <use xlink:href="#m10f77c842d" x="0" y="187.951813" style="fill: #46327e; fill-opacity: 0.4; stroke: #46327e; stroke-opacity: 0.4"/>
    </g>
   </g>
   <g id="PolyCollection_4">
    <defs>
     <path id="me659ff95ce" d="M 124.962065 -130.180426 
L 122.156682 -130.180426 
L 122.053788 -130.285946 
L 121.942585 -130.391466 
L 121.82193 -130.496986 
L 121.69068 -130.602505 
L 121.547746 -130.708025 
L 121.392143 -130.813545 
L 121.223054 -130.919065 
L 121.039884 -131.024585 
L 120.842318 -131.130105 
L 120.63037 -131.235625 
L 120.404421 -131.341145 
L 120.165251 -131.446665 
L 119.914055 -131.552185 
L 119.652441 -131.657705 
L 119.38242 -131.763225 
L 119.10637 -131.868745 
L 118.826991 -131.974265 
L 118.547246 -132.079785 
L 118.270284 -132.185304 
L 117.999359 -132.290824 
L 117.737739 -132.396344 
L 117.488614 -132.501864 
L 117.255002 -132.607384 
L 117.039666 -132.712904 
L 116.845025 -132.818424 
L 116.673092 -132.923944 
L 116.525414 -133.029464 
L 116.403034 -133.134984 
L 116.306465 -133.240504 
L 116.235685 -133.346024 
L 116.190147 -133.451544 
L 116.16881 -133.557064 
L 116.170178 -133.662584 
L 116.192358 -133.768104 
L 116.233126 -133.873623 
L 116.290002 -133.979143 
L 116.360327 -134.084663 
L 116.441347 -134.190183 
L 116.53029 -134.295703 
L 116.624446 -134.401223 
L 116.721238 -134.506743 
L 116.818279 -134.612263 
L 116.913434 -134.717783 
L 117.004855 -134.823303 
L 117.091017 -134.928823 
L 117.170738 -135.034343 
L 117.243184 -135.139863 
L 117.30787 -135.245383 
L 117.364648 -135.350903 
L 117.413685 -135.456422 
L 117.455435 -135.561942 
L 117.490605 -135.667462 
L 117.520117 -135.772982 
L 117.545069 -135.878502 
L 117.566687 -135.984022 
L 117.586287 -136.089542 
L 117.605234 -136.195062 
L 117.624896 -136.300582 
L 117.646617 -136.406102 
L 117.671676 -136.511622 
L 117.701263 -136.617142 
L 117.736453 -136.722662 
L 117.778188 -136.828182 
L 117.827259 -136.933702 
L 117.884295 -137.039222 
L 117.949759 -137.144741 
L 118.023941 -137.250261 
L 118.106961 -137.355781 
L 118.198772 -137.461301 
L 118.299167 -137.566821 
L 118.407788 -137.672341 
L 118.524139 -137.777861 
L 118.647603 -137.883381 
L 118.777452 -137.988901 
L 118.912874 -138.094421 
L 119.052988 -138.199941 
L 119.196863 -138.305461 
L 119.343547 -138.410981 
L 119.492084 -138.516501 
L 119.641535 -138.622021 
L 119.791003 -138.727541 
L 119.939649 -138.83306 
L 120.086713 -138.93858 
L 120.231522 -139.0441 
L 120.373509 -139.14962 
L 120.512218 -139.25514 
L 120.647306 -139.36066 
L 120.778546 -139.46618 
L 120.90582 -139.5717 
L 121.029114 -139.67722 
L 121.148504 -139.78274 
L 121.26414 -139.88826 
L 121.376234 -139.99378 
L 121.485038 -140.0993 
L 121.590823 -140.20482 
L 121.693864 -140.31034 
L 121.794421 -140.415859 
L 121.892722 -140.521379 
L 121.988951 -140.626899 
L 125.129796 -140.626899 
L 125.129796 -140.626899 
L 125.226025 -140.521379 
L 125.324326 -140.415859 
L 125.424883 -140.31034 
L 125.527924 -140.20482 
L 125.633709 -140.0993 
L 125.742513 -139.99378 
L 125.854607 -139.88826 
L 125.970243 -139.78274 
L 126.089633 -139.67722 
L 126.212927 -139.5717 
L 126.340201 -139.46618 
L 126.471441 -139.36066 
L 126.606529 -139.25514 
L 126.745238 -139.14962 
L 126.887225 -139.0441 
L 127.032034 -138.93858 
L 127.179098 -138.83306 
L 127.327744 -138.727541 
L 127.477212 -138.622021 
L 127.626663 -138.516501 
L 127.7752 -138.410981 
L 127.921884 -138.305461 
L 128.065759 -138.199941 
L 128.205873 -138.094421 
L 128.341295 -137.988901 
L 128.471144 -137.883381 
L 128.594608 -137.777861 
L 128.710959 -137.672341 
L 128.81958 -137.566821 
L 128.919975 -137.461301 
L 129.011786 -137.355781 
L 129.094806 -137.250261 
L 129.168988 -137.144741 
L 129.234452 -137.039222 
L 129.291488 -136.933702 
L 129.340559 -136.828182 
L 129.382294 -136.722662 
L 129.417484 -136.617142 
L 129.447071 -136.511622 
L 129.47213 -136.406102 
L 129.493851 -136.300582 
L 129.513513 -136.195062 
L 129.53246 -136.089542 
L 129.55206 -135.984022 
L 129.573678 -135.878502 
L 129.59863 -135.772982 
L 129.628142 -135.667462 
L 129.663312 -135.561942 
L 129.705062 -135.456422 
L 129.754099 -135.350903 
L 129.810877 -135.245383 
L 129.875563 -135.139863 
L 129.948009 -135.034343 
L 130.02773 -134.928823 
L 130.113892 -134.823303 
L 130.205313 -134.717783 
L 130.300468 -134.612263 
L 130.397509 -134.506743 
L 130.494301 -134.401223 
L 130.588457 -134.295703 
L 130.6774 -134.190183 
L 130.75842 -134.084663 
L 130.828745 -133.979143 
L 130.885621 -133.873623 
L 130.926389 -133.768104 
L 130.948569 -133.662584 
L 130.949937 -133.557064 
L 130.9286 -133.451544 
L 130.883062 -133.346024 
L 130.812282 -133.240504 
L 130.715713 -133.134984 
L 130.593333 -133.029464 
L 130.445655 -132.923944 
L 130.273722 -132.818424 
L 130.079081 -132.712904 
L 129.863745 -132.607384 
L 129.630133 -132.501864 
L 129.381008 -132.396344 
L 129.119388 -132.290824 
L 128.848463 -132.185304 
L 128.571501 -132.079785 
L 128.291756 -131.974265 
L 128.012377 -131.868745 
L 127.736327 -131.763225 
L 127.466306 -131.657705 
L 127.204692 -131.552185 
L 126.953496 -131.446665 
L 126.714326 -131.341145 
L 126.488377 -131.235625 
L 126.276429 -131.130105 
L 126.078863 -131.024585 
L 125.895693 -130.919065 
L 125.726604 -130.813545 
L 125.571001 -130.708025 
L 125.428067 -130.602505 
L 125.296817 -130.496986 
L 125.176162 -130.391466 
L 125.064959 -130.285946 
L 124.962065 -130.180426 
z
" style="stroke: #365c8d; stroke-opacity: 0.4"/>
    </defs>
    <g clip-path="url(#peead7dc9ec)">
     <use xlink:href="#me659ff95ce" x="0" y="187.951813" style="fill: #365c8d; fill-opacity: 0.4; stroke: #365c8d; stroke-opacity: 0.4"/>
    </g>
   </g>
   <g id="PolyCollection_5">
    <defs>
     <path id="me1bc535a3d" d="M 154.918687 -105.366014 
L 151.527563 -105.366014 
L 151.370235 -105.453354 
L 151.206345 -105.540693 
L 151.036331 -105.628032 
L 150.860657 -105.715371 
L 150.679801 -105.802711 
L 150.494244 -105.89005 
L 150.30446 -105.977389 
L 150.11091 -106.064728 
L 149.914037 -106.152067 
L 149.714269 -106.239407 
L 149.512017 -106.326746 
L 149.307693 -106.414085 
L 149.101712 -106.501424 
L 148.894517 -106.588764 
L 148.686596 -106.676103 
L 148.478498 -106.763442 
L 148.270856 -106.850781 
L 148.064405 -106.938121 
L 147.859993 -107.02546 
L 147.658589 -107.112799 
L 147.461284 -107.200138 
L 147.269282 -107.287477 
L 147.083887 -107.374817 
L 146.906475 -107.462156 
L 146.738466 -107.549495 
L 146.58128 -107.636834 
L 146.436299 -107.724174 
L 146.304819 -107.811513 
L 146.188002 -107.898852 
L 146.086833 -107.986191 
L 146.002078 -108.073531 
L 145.934251 -108.16087 
L 145.883589 -108.248209 
L 145.850036 -108.335548 
L 145.83324 -108.422887 
L 145.832561 -108.510227 
L 145.847093 -108.597566 
L 145.875694 -108.684905 
L 145.917032 -108.772244 
L 145.969632 -108.859584 
L 146.031943 -108.946923 
L 146.102391 -109.034262 
L 146.179447 -109.121601 
L 146.261685 -109.208941 
L 146.347839 -109.29628 
L 146.436844 -109.383619 
L 146.527872 -109.470958 
L 146.620352 -109.558297 
L 146.713973 -109.645637 
L 146.808674 -109.732976 
L 146.904622 -109.820315 
L 147.002171 -109.907654 
L 147.10182 -109.994994 
L 147.204156 -110.082333 
L 147.3098 -110.169672 
L 147.419353 -110.257011 
L 147.533342 -110.344351 
L 147.652184 -110.43169 
L 147.776148 -110.519029 
L 147.905341 -110.606368 
L 148.039697 -110.693707 
L 148.178985 -110.781047 
L 148.322826 -110.868386 
L 148.470717 -110.955725 
L 148.622066 -111.043064 
L 148.776221 -111.130404 
L 148.932511 -111.217743 
L 149.090274 -111.305082 
L 149.248887 -111.392421 
L 149.40778 -111.479761 
L 149.566452 -111.5671 
L 149.72447 -111.654439 
L 149.881467 -111.741778 
L 150.037125 -111.829117 
L 150.19116 -111.916457 
L 150.343303 -112.003796 
L 150.493278 -112.091135 
L 150.640786 -112.178474 
L 150.78549 -112.265814 
L 150.927008 -112.353153 
L 151.064911 -112.440492 
L 151.198731 -112.527831 
L 151.327975 -112.615171 
L 151.452141 -112.70251 
L 151.570746 -112.789849 
L 151.683349 -112.877188 
L 151.789578 -112.964527 
L 151.889153 -113.051867 
L 151.98191 -113.139206 
L 152.067808 -113.226545 
L 152.146943 -113.313884 
L 152.21954 -113.401224 
L 152.28595 -113.488563 
L 152.346633 -113.575902 
L 152.402132 -113.663241 
L 152.453051 -113.750581 
L 152.500027 -113.83792 
L 152.543696 -113.925259 
L 152.584667 -114.012598 
L 153.861583 -114.012598 
L 153.861583 -114.012598 
L 153.902554 -113.925259 
L 153.946223 -113.83792 
L 153.993199 -113.750581 
L 154.044118 -113.663241 
L 154.099617 -113.575902 
L 154.1603 -113.488563 
L 154.22671 -113.401224 
L 154.299307 -113.313884 
L 154.378442 -113.226545 
L 154.46434 -113.139206 
L 154.557097 -113.051867 
L 154.656672 -112.964527 
L 154.762901 -112.877188 
L 154.875504 -112.789849 
L 154.994109 -112.70251 
L 155.118275 -112.615171 
L 155.247519 -112.527831 
L 155.381339 -112.440492 
L 155.519242 -112.353153 
L 155.66076 -112.265814 
L 155.805464 -112.178474 
L 155.952972 -112.091135 
L 156.102947 -112.003796 
L 156.25509 -111.916457 
L 156.409125 -111.829117 
L 156.564783 -111.741778 
L 156.72178 -111.654439 
L 156.879798 -111.5671 
L 157.03847 -111.479761 
L 157.197363 -111.392421 
L 157.355976 -111.305082 
L 157.513739 -111.217743 
L 157.670029 -111.130404 
L 157.824184 -111.043064 
L 157.975533 -110.955725 
L 158.123424 -110.868386 
L 158.267265 -110.781047 
L 158.406553 -110.693707 
L 158.540909 -110.606368 
L 158.670102 -110.519029 
L 158.794066 -110.43169 
L 158.912908 -110.344351 
L 159.026897 -110.257011 
L 159.13645 -110.169672 
L 159.242094 -110.082333 
L 159.34443 -109.994994 
L 159.444079 -109.907654 
L 159.541628 -109.820315 
L 159.637576 -109.732976 
L 159.732277 -109.645637 
L 159.825898 -109.558297 
L 159.918378 -109.470958 
L 160.009406 -109.383619 
L 160.098411 -109.29628 
L 160.184565 -109.208941 
L 160.266803 -109.121601 
L 160.343859 -109.034262 
L 160.414307 -108.946923 
L 160.476618 -108.859584 
L 160.529218 -108.772244 
L 160.570556 -108.684905 
L 160.599157 -108.597566 
L 160.613689 -108.510227 
L 160.61301 -108.422887 
L 160.596214 -108.335548 
L 160.562661 -108.248209 
L 160.511999 -108.16087 
L 160.444172 -108.073531 
L 160.359417 -107.986191 
L 160.258248 -107.898852 
L 160.141431 -107.811513 
L 160.009951 -107.724174 
L 159.86497 -107.636834 
L 159.707784 -107.549495 
L 159.539775 -107.462156 
L 159.362363 -107.374817 
L 159.176968 -107.287477 
L 158.984966 -107.200138 
L 158.787661 -107.112799 
L 158.586257 -107.02546 
L 158.381845 -106.938121 
L 158.175394 -106.850781 
L 157.967752 -106.763442 
L 157.759654 -106.676103 
L 157.551733 -106.588764 
L 157.344538 -106.501424 
L 157.138557 -106.414085 
L 156.934233 -106.326746 
L 156.731981 -106.239407 
L 156.532213 -106.152067 
L 156.33534 -106.064728 
L 156.14179 -105.977389 
L 155.952006 -105.89005 
L 155.766449 -105.802711 
L 155.585593 -105.715371 
L 155.409919 -105.628032 
L 155.239905 -105.540693 
L 155.076015 -105.453354 
L 154.918687 -105.366014 
z
" style="stroke: #277f8e; stroke-opacity: 0.4"/>
    </defs>
    <g clip-path="url(#peead7dc9ec)">
     <use xlink:href="#me1bc535a3d" x="0" y="187.951813" style="fill: #277f8e; fill-opacity: 0.4; stroke: #277f8e; stroke-opacity: 0.4"/>
    </g>
   </g>
   <g id="PolyCollection_6">
    <defs>
     <path id="m29d2555a50" d="M 184.024291 -74.146561 
L 181.749462 -74.146561 
L 181.688542 -74.287527 
L 181.628327 -74.428493 
L 181.568405 -74.56946 
L 181.508177 -74.710426 
L 181.446861 -74.851392 
L 181.383497 -74.992358 
L 181.316969 -75.133324 
L 181.246022 -75.27429 
L 181.169295 -75.415256 
L 181.085351 -75.556222 
L 180.992724 -75.697188 
L 180.889956 -75.838154 
L 180.775653 -75.97912 
L 180.648537 -76.120086 
L 180.507502 -76.261052 
L 180.351672 -76.402018 
L 180.180457 -76.542985 
L 179.993608 -76.683951 
L 179.791265 -76.824917 
L 179.573992 -76.965883 
L 179.342804 -77.106849 
L 179.099176 -77.247815 
L 178.845036 -77.388781 
L 178.582733 -77.529747 
L 178.31499 -77.670713 
L 178.044831 -77.811679 
L 177.775498 -77.952645 
L 177.510339 -78.093611 
L 177.252703 -78.234577 
L 177.005814 -78.375543 
L 176.772659 -78.516509 
L 176.555876 -78.657476 
L 176.357663 -78.798442 
L 176.179702 -78.939408 
L 176.023112 -79.080374 
L 175.888425 -79.22134 
L 175.775597 -79.362306 
L 175.684044 -79.503272 
L 175.6127 -79.644238 
L 175.560101 -79.785204 
L 175.524486 -79.92617 
L 175.503902 -80.067136 
L 175.496313 -80.208102 
L 175.499709 -80.349068 
L 175.512203 -80.490034 
L 175.532108 -80.631001 
L 175.558003 -80.771967 
L 175.588777 -80.912933 
L 175.623641 -81.053899 
L 175.662135 -81.194865 
L 175.704104 -81.335831 
L 175.749656 -81.476797 
L 175.799121 -81.617763 
L 175.852984 -81.758729 
L 175.911824 -81.899695 
L 175.976253 -82.040661 
L 176.046852 -82.181627 
L 176.124121 -82.322593 
L 176.208436 -82.463559 
L 176.300017 -82.604526 
L 176.39891 -82.745492 
L 176.504987 -82.886458 
L 176.617952 -83.027424 
L 176.737363 -83.16839 
L 176.862667 -83.309356 
L 176.993233 -83.450322 
L 177.1284 -83.591288 
L 177.267519 -83.732254 
L 177.409991 -83.87322 
L 177.555307 -84.014186 
L 177.703067 -84.155152 
L 177.853 -84.296118 
L 178.004961 -84.437084 
L 178.158923 -84.57805 
L 178.314953 -84.719017 
L 178.47318 -84.859983 
L 178.633754 -85.000949 
L 178.796802 -85.141915 
L 178.962386 -85.282881 
L 179.13046 -85.423847 
L 179.300843 -85.564813 
L 179.473189 -85.705779 
L 179.646984 -85.846745 
L 179.821549 -85.987711 
L 179.996054 -86.128677 
L 180.169548 -86.269643 
L 180.340999 -86.410609 
L 180.509338 -86.551575 
L 180.673504 -86.692542 
L 180.832499 -86.833508 
L 180.985422 -86.974474 
L 181.131514 -87.11544 
L 181.270177 -87.256406 
L 181.400996 -87.397372 
L 181.523741 -87.538338 
L 181.638361 -87.679304 
L 181.744969 -87.82027 
L 181.84382 -87.961236 
L 181.93528 -88.102202 
L 183.838473 -88.102202 
L 183.838473 -88.102202 
L 183.929933 -87.961236 
L 184.028784 -87.82027 
L 184.135392 -87.679304 
L 184.250012 -87.538338 
L 184.372757 -87.397372 
L 184.503576 -87.256406 
L 184.642239 -87.11544 
L 184.788331 -86.974474 
L 184.941254 -86.833508 
L 185.100249 -86.692542 
L 185.264415 -86.551575 
L 185.432754 -86.410609 
L 185.604205 -86.269643 
L 185.777699 -86.128677 
L 185.952204 -85.987711 
L 186.126769 -85.846745 
L 186.300564 -85.705779 
L 186.47291 -85.564813 
L 186.643292 -85.423847 
L 186.811367 -85.282881 
L 186.976951 -85.141915 
L 187.139999 -85.000949 
L 187.300573 -84.859983 
L 187.4588 -84.719017 
L 187.61483 -84.57805 
L 187.768792 -84.437084 
L 187.920753 -84.296118 
L 188.070686 -84.155152 
L 188.218446 -84.014186 
L 188.363762 -83.87322 
L 188.506234 -83.732254 
L 188.645353 -83.591288 
L 188.78052 -83.450322 
L 188.911086 -83.309356 
L 189.03639 -83.16839 
L 189.155801 -83.027424 
L 189.268766 -82.886458 
L 189.374843 -82.745492 
L 189.473736 -82.604526 
L 189.565317 -82.463559 
L 189.649632 -82.322593 
L 189.726901 -82.181627 
L 189.7975 -82.040661 
L 189.861929 -81.899695 
L 189.920769 -81.758729 
L 189.974632 -81.617763 
L 190.024097 -81.476797 
L 190.069649 -81.335831 
L 190.111618 -81.194865 
L 190.150112 -81.053899 
L 190.184976 -80.912933 
L 190.21575 -80.771967 
L 190.241645 -80.631001 
L 190.26155 -80.490034 
L 190.274044 -80.349068 
L 190.27744 -80.208102 
L 190.269851 -80.067136 
L 190.249267 -79.92617 
L 190.213652 -79.785204 
L 190.161053 -79.644238 
L 190.089709 -79.503272 
L 189.998156 -79.362306 
L 189.885328 -79.22134 
L 189.750641 -79.080374 
L 189.594051 -78.939408 
L 189.41609 -78.798442 
L 189.217877 -78.657476 
L 189.001094 -78.516509 
L 188.767939 -78.375543 
L 188.52105 -78.234577 
L 188.263414 -78.093611 
L 187.998255 -77.952645 
L 187.728922 -77.811679 
L 187.458763 -77.670713 
L 187.19102 -77.529747 
L 186.928717 -77.388781 
L 186.674577 -77.247815 
L 186.430949 -77.106849 
L 186.199761 -76.965883 
L 185.982488 -76.824917 
L 185.780145 -76.683951 
L 185.593296 -76.542985 
L 185.422081 -76.402018 
L 185.266251 -76.261052 
L 185.125216 -76.120086 
L 184.9981 -75.97912 
L 184.883797 -75.838154 
L 184.781029 -75.697188 
L 184.688402 -75.556222 
L 184.604458 -75.415256 
L 184.527731 -75.27429 
L 184.456784 -75.133324 
L 184.390255 -74.992358 
L 184.326892 -74.851392 
L 184.265576 -74.710426 
L 184.205348 -74.56946 
L 184.145426 -74.428493 
L 184.085211 -74.287527 
L 184.024291 -74.146561 
z
" style="stroke: #1fa187; stroke-opacity: 0.4"/>
    </defs>
    <g clip-path="url(#peead7dc9ec)">
     <use xlink:href="#m29d2555a50" x="0" y="187.951813" style="fill: #1fa187; fill-opacity: 0.4; stroke: #1fa187; stroke-opacity: 0.4"/>
    </g>
   </g>
   <g id="PolyCollection_7">
    <defs>
     <path id="m4736982d36" d="M 213.274908 -60.315132 
L 211.826348 -60.315132 
L 211.772631 -60.435334 
L 211.716034 -60.555535 
L 211.656464 -60.675737 
L 211.593888 -60.795938 
L 211.528347 -60.91614 
L 211.459974 -61.036341 
L 211.389005 -61.156543 
L 211.315784 -61.276745 
L 211.240765 -61.396946 
L 211.164511 -61.517148 
L 211.087681 -61.637349 
L 211.011011 -61.757551 
L 210.935291 -61.877752 
L 210.861334 -61.997954 
L 210.78994 -62.118155 
L 210.721862 -62.238357 
L 210.657763 -62.358558 
L 210.59818 -62.47876 
L 210.543487 -62.598961 
L 210.493867 -62.719163 
L 210.449284 -62.839364 
L 210.409475 -62.959566 
L 210.373936 -63.079767 
L 210.341935 -63.199969 
L 210.312521 -63.320171 
L 210.284552 -63.440372 
L 210.256729 -63.560574 
L 210.227639 -63.680775 
L 210.195802 -63.800977 
L 210.15972 -63.921178 
L 210.117934 -64.04138 
L 210.069073 -64.161581 
L 210.011903 -64.281783 
L 209.945365 -64.401984 
L 209.868615 -64.522186 
L 209.781046 -64.642387 
L 209.682302 -64.762589 
L 209.572288 -64.88279 
L 209.451157 -65.002992 
L 209.319302 -65.123193 
L 209.17733 -65.243395 
L 209.026033 -65.363597 
L 208.866349 -65.483798 
L 208.699334 -65.604 
L 208.526113 -65.724201 
L 208.347854 -65.844403 
L 208.165727 -65.964604 
L 207.980882 -66.084806 
L 207.794427 -66.205007 
L 207.607412 -66.325209 
L 207.420827 -66.44541 
L 207.235599 -66.565612 
L 207.052604 -66.685813 
L 206.872677 -66.806015 
L 206.696632 -66.926216 
L 206.525281 -67.046418 
L 206.359454 -67.166619 
L 206.200015 -67.286821 
L 206.04788 -67.407023 
L 205.904023 -67.527224 
L 205.76948 -67.647426 
L 205.645346 -67.767627 
L 205.532754 -67.887829 
L 205.432865 -68.00803 
L 205.346832 -68.128232 
L 205.275771 -68.248433 
L 205.220721 -68.368635 
L 205.182606 -68.488836 
L 205.162194 -68.609038 
L 205.160064 -68.729239 
L 205.176571 -68.849441 
L 205.211823 -68.969642 
L 205.265666 -69.089844 
L 205.337679 -69.210045 
L 205.427179 -69.330247 
L 205.533236 -69.450449 
L 205.654705 -69.57065 
L 205.790255 -69.690852 
L 205.938419 -69.811053 
L 206.097636 -69.931255 
L 206.266308 -70.051456 
L 206.442847 -70.171658 
L 206.625724 -70.291859 
L 206.813511 -70.412061 
L 207.004917 -70.532262 
L 207.198813 -70.652464 
L 207.394249 -70.772665 
L 207.590458 -70.892867 
L 207.786848 -71.013068 
L 207.982992 -71.13327 
L 208.1786 -71.253471 
L 208.373492 -71.373673 
L 208.567562 -71.493875 
L 208.760745 -71.614076 
L 208.95298 -71.734278 
L 209.144178 -71.854479 
L 209.334197 -71.974681 
L 209.522819 -72.094882 
L 209.709736 -72.215084 
L 215.39152 -72.215084 
L 215.39152 -72.215084 
L 215.578437 -72.094882 
L 215.767059 -71.974681 
L 215.957078 -71.854479 
L 216.148276 -71.734278 
L 216.340511 -71.614076 
L 216.533694 -71.493875 
L 216.727764 -71.373673 
L 216.922655 -71.253471 
L 217.118264 -71.13327 
L 217.314408 -71.013068 
L 217.510798 -70.892867 
L 217.707007 -70.772665 
L 217.902443 -70.652464 
L 218.096339 -70.532262 
L 218.287745 -70.412061 
L 218.475532 -70.291859 
L 218.658409 -70.171658 
L 218.834948 -70.051456 
L 219.00362 -69.931255 
L 219.162837 -69.811053 
L 219.311001 -69.690852 
L 219.446551 -69.57065 
L 219.56802 -69.450449 
L 219.674077 -69.330247 
L 219.763577 -69.210045 
L 219.83559 -69.089844 
L 219.889433 -68.969642 
L 219.924685 -68.849441 
L 219.941192 -68.729239 
L 219.939062 -68.609038 
L 219.91865 -68.488836 
L 219.880535 -68.368635 
L 219.825485 -68.248433 
L 219.754424 -68.128232 
L 219.668391 -68.00803 
L 219.568502 -67.887829 
L 219.45591 -67.767627 
L 219.331775 -67.647426 
L 219.197233 -67.527224 
L 219.053376 -67.407023 
L 218.901241 -67.286821 
L 218.741802 -67.166619 
L 218.575975 -67.046418 
L 218.404624 -66.926216 
L 218.228579 -66.806015 
L 218.048652 -66.685813 
L 217.865657 -66.565612 
L 217.680429 -66.44541 
L 217.493844 -66.325209 
L 217.306829 -66.205007 
L 217.120374 -66.084806 
L 216.935529 -65.964604 
L 216.753402 -65.844403 
L 216.575143 -65.724201 
L 216.401922 -65.604 
L 216.234907 -65.483798 
L 216.075223 -65.363597 
L 215.923926 -65.243395 
L 215.781954 -65.123193 
L 215.650099 -65.002992 
L 215.528968 -64.88279 
L 215.418954 -64.762589 
L 215.32021 -64.642387 
L 215.232641 -64.522186 
L 215.155891 -64.401984 
L 215.089353 -64.281783 
L 215.032183 -64.161581 
L 214.983322 -64.04138 
L 214.941536 -63.921178 
L 214.905454 -63.800977 
L 214.873617 -63.680775 
L 214.844527 -63.560574 
L 214.816704 -63.440372 
L 214.788735 -63.320171 
L 214.759321 -63.199969 
L 214.72732 -63.079767 
L 214.691781 -62.959566 
L 214.651972 -62.839364 
L 214.607389 -62.719163 
L 214.557769 -62.598961 
L 214.503076 -62.47876 
L 214.443493 -62.358558 
L 214.379394 -62.238357 
L 214.311316 -62.118155 
L 214.239922 -61.997954 
L 214.165965 -61.877752 
L 214.090244 -61.757551 
L 214.013575 -61.637349 
L 213.936745 -61.517148 
L 213.860491 -61.396946 
L 213.785472 -61.276745 
L 213.712251 -61.156543 
L 213.641281 -61.036341 
L 213.572909 -60.91614 
L 213.507368 -60.795938 
L 213.444792 -60.675737 
L 213.385222 -60.555535 
L 213.328624 -60.435334 
L 213.274908 -60.315132 
z
" style="stroke: #4ac16d; stroke-opacity: 0.4"/>
    </defs>
    <g clip-path="url(#peead7dc9ec)">
     <use xlink:href="#m4736982d36" x="0" y="187.951813" style="fill: #4ac16d; fill-opacity: 0.4; stroke: #4ac16d; stroke-opacity: 0.4"/>
    </g>
   </g>
   <g id="PolyCollection_8">
    <defs>
     <path id="m597cffa53a" d="M 242.726158 -44.507825 
L 241.702601 -44.507825 
L 241.671293 -44.649121 
L 241.637843 -44.790417 
L 241.601356 -44.931713 
L 241.560864 -45.073009 
L 241.515373 -45.214304 
L 241.463917 -45.3556 
L 241.405613 -45.496896 
L 241.33971 -45.638192 
L 241.26563 -45.779488 
L 241.182999 -45.920783 
L 241.091663 -46.062079 
L 240.991687 -46.203375 
L 240.88334 -46.344671 
L 240.767069 -46.485967 
L 240.643462 -46.627262 
L 240.513205 -46.768558 
L 240.377042 -46.909854 
L 240.235734 -47.05115 
L 240.090032 -47.192446 
L 239.940659 -47.333741 
L 239.788301 -47.475037 
L 239.633617 -47.616333 
L 239.477247 -47.757629 
L 239.319837 -47.898924 
L 239.162053 -48.04022 
L 239.004594 -48.181516 
L 238.848196 -48.322812 
L 238.693617 -48.464108 
L 238.541607 -48.605403 
L 238.392866 -48.746699 
L 238.24798 -48.887995 
L 238.107366 -49.029291 
L 237.971196 -49.170587 
L 237.839349 -49.311882 
L 237.711369 -49.453178 
L 237.58645 -49.594474 
L 237.463455 -49.73577 
L 237.340965 -49.877066 
L 237.217365 -50.018361 
L 237.090959 -50.159657 
L 236.960106 -50.300953 
L 236.823376 -50.442249 
L 236.679702 -50.583545 
L 236.528524 -50.72484 
L 236.369918 -50.866136 
L 236.204678 -51.007432 
L 236.034372 -51.148728 
L 235.861344 -51.290023 
L 235.688666 -51.431319 
L 235.520048 -51.572615 
L 235.359702 -51.713911 
L 235.212173 -51.855207 
L 235.082145 -51.996502 
L 234.974227 -52.137798 
L 234.892747 -52.279094 
L 234.841551 -52.42039 
L 234.823816 -52.561686 
L 234.841906 -52.702981 
L 234.897257 -52.844277 
L 234.990307 -52.985573 
L 235.120477 -53.126869 
L 235.286193 -53.268165 
L 235.484957 -53.40946 
L 235.71346 -53.550756 
L 235.967719 -53.692052 
L 236.243255 -53.833348 
L 236.535271 -53.974644 
L 236.838845 -54.115939 
L 237.149114 -54.257235 
L 237.461442 -54.398531 
L 237.77157 -54.539827 
L 238.075726 -54.681122 
L 238.370715 -54.822418 
L 238.653955 -54.963714 
L 238.923493 -55.10501 
L 239.177979 -55.246306 
L 239.416615 -55.387601 
L 239.639087 -55.528897 
L 239.845473 -55.670193 
L 240.03616 -55.811489 
L 240.211751 -55.952785 
L 240.372986 -56.09408 
L 240.520672 -56.235376 
L 240.655636 -56.376672 
L 240.778689 -56.517968 
L 240.890607 -56.659264 
L 240.99213 -56.800559 
L 241.083969 -56.941855 
L 241.166822 -57.083151 
L 241.241387 -57.224447 
L 241.308383 -57.365742 
L 241.368555 -57.507038 
L 241.422682 -57.648334 
L 241.471569 -57.78963 
L 241.516035 -57.930926 
L 241.556894 -58.072221 
L 241.594927 -58.213517 
L 241.63086 -58.354813 
L 241.665334 -58.496109 
L 242.763425 -58.496109 
L 242.763425 -58.496109 
L 242.797899 -58.354813 
L 242.833832 -58.213517 
L 242.871865 -58.072221 
L 242.912724 -57.930926 
L 242.95719 -57.78963 
L 243.006077 -57.648334 
L 243.060204 -57.507038 
L 243.120376 -57.365742 
L 243.187372 -57.224447 
L 243.261937 -57.083151 
L 243.34479 -56.941855 
L 243.436629 -56.800559 
L 243.538152 -56.659264 
L 243.65007 -56.517968 
L 243.773123 -56.376672 
L 243.908087 -56.235376 
L 244.055773 -56.09408 
L 244.217008 -55.952785 
L 244.392599 -55.811489 
L 244.583286 -55.670193 
L 244.789672 -55.528897 
L 245.012144 -55.387601 
L 245.25078 -55.246306 
L 245.505266 -55.10501 
L 245.774804 -54.963714 
L 246.058044 -54.822418 
L 246.353033 -54.681122 
L 246.657189 -54.539827 
L 246.967317 -54.398531 
L 247.279645 -54.257235 
L 247.589914 -54.115939 
L 247.893488 -53.974644 
L 248.185504 -53.833348 
L 248.46104 -53.692052 
L 248.715299 -53.550756 
L 248.943802 -53.40946 
L 249.142566 -53.268165 
L 249.308282 -53.126869 
L 249.438452 -52.985573 
L 249.531502 -52.844277 
L 249.586853 -52.702981 
L 249.604943 -52.561686 
L 249.587208 -52.42039 
L 249.536012 -52.279094 
L 249.454532 -52.137798 
L 249.346614 -51.996502 
L 249.216586 -51.855207 
L 249.069057 -51.713911 
L 248.908711 -51.572615 
L 248.740093 -51.431319 
L 248.567415 -51.290023 
L 248.394387 -51.148728 
L 248.224081 -51.007432 
L 248.058841 -50.866136 
L 247.900235 -50.72484 
L 247.749057 -50.583545 
L 247.605383 -50.442249 
L 247.468653 -50.300953 
L 247.3378 -50.159657 
L 247.211394 -50.018361 
L 247.087794 -49.877066 
L 246.965304 -49.73577 
L 246.842309 -49.594474 
L 246.71739 -49.453178 
L 246.58941 -49.311882 
L 246.457563 -49.170587 
L 246.321393 -49.029291 
L 246.180778 -48.887995 
L 246.035893 -48.746699 
L 245.887152 -48.605403 
L 245.735142 -48.464108 
L 245.580563 -48.322812 
L 245.424165 -48.181516 
L 245.266706 -48.04022 
L 245.108922 -47.898924 
L 244.951512 -47.757629 
L 244.795142 -47.616333 
L 244.640458 -47.475037 
L 244.4881 -47.333741 
L 244.338727 -47.192446 
L 244.193025 -47.05115 
L 244.051717 -46.909854 
L 243.915554 -46.768558 
L 243.785297 -46.627262 
L 243.66169 -46.485967 
L 243.545419 -46.344671 
L 243.437072 -46.203375 
L 243.337096 -46.062079 
L 243.24576 -45.920783 
L 243.163129 -45.779488 
L 243.089049 -45.638192 
L 243.023146 -45.496896 
L 242.964842 -45.3556 
L 242.913386 -45.214304 
L 242.867895 -45.073009 
L 242.827403 -44.931713 
L 242.790916 -44.790417 
L 242.757466 -44.649121 
L 242.726158 -44.507825 
z
" style="stroke: #a0da39; stroke-opacity: 0.4"/>
    </defs>
    <g clip-path="url(#peead7dc9ec)">
     <use xlink:href="#m597cffa53a" x="0" y="187.951813" style="fill: #a0da39; fill-opacity: 0.4; stroke: #a0da39; stroke-opacity: 0.4"/>
    </g>
   </g>
   <g id="matplotlib.axis_1">
    <g id="xtick_1">
     <g id="line2d_1">
      <defs>
       <path id="m20df06ed8e" d="M 0 0 
L 0 3.5 
" style="stroke: #000000; stroke-width: 0.8"/>
      </defs>
      <g>
       <use xlink:href="#m20df06ed8e" x="53.667309" y="151.344" style="stroke: #000000; stroke-width: 0.8"/>
      </g>
     </g>
     <g id="text_1">
      <!-- 2.0 -->
      <g transform="translate(46.717309 165.501813)scale(0.1 -0.1)">
       <defs>
        <path id="ArialMT-32" d="M 3222 541 
L 3222 0 
L 194 0 
Q 188 203 259 391 
Q 375 700 629 1000 
Q 884 1300 1366 1694 
Q 2113 2306 2375 2664 
Q 2638 3022 2638 3341 
Q 2638 3675 2398 3904 
Q 2159 4134 1775 4134 
Q 1369 4134 1125 3890 
Q 881 3647 878 3216 
L 300 3275 
Q 359 3922 746 4261 
Q 1134 4600 1788 4600 
Q 2447 4600 2831 4234 
Q 3216 3869 3216 3328 
Q 3216 3053 3103 2787 
Q 2991 2522 2730 2228 
Q 2469 1934 1863 1422 
Q 1356 997 1212 845 
Q 1069 694 975 541 
L 3222 541 
z
" transform="scale(0.015625)"/>
        <path id="ArialMT-2e" d="M 581 0 
L 581 641 
L 1222 641 
L 1222 0 
L 581 0 
z
" transform="scale(0.015625)"/>
        <path id="ArialMT-30" d="M 266 2259 
Q 266 3072 433 3567 
Q 600 4063 929 4331 
Q 1259 4600 1759 4600 
Q 2128 4600 2406 4451 
Q 2684 4303 2865 4023 
Q 3047 3744 3150 3342 
Q 3253 2941 3253 2259 
Q 3253 1453 3087 958 
Q 2922 463 2592 192 
Q 2263 -78 1759 -78 
Q 1097 -78 719 397 
Q 266 969 266 2259 
z
M 844 2259 
Q 844 1131 1108 757 
Q 1372 384 1759 384 
Q 2147 384 2411 759 
Q 2675 1134 2675 2259 
Q 2675 3391 2411 3762 
Q 2147 4134 1753 4134 
Q 1366 4134 1134 3806 
Q 844 3388 844 2259 
z
" transform="scale(0.015625)"/>
       </defs>
       <use xlink:href="#ArialMT-32"/>
       <use xlink:href="#ArialMT-2e" x="55.615234"/>
       <use xlink:href="#ArialMT-30" x="83.398438"/>
      </g>
     </g>
    </g>
    <g id="xtick_2">
     <g id="line2d_2">
      <g>
       <use xlink:href="#m20df06ed8e" x="102.937734" y="151.344" style="stroke: #000000; stroke-width: 0.8"/>
      </g>
     </g>
     <g id="text_2">
      <!-- 2.5 -->
      <g transform="translate(95.987734 165.501813)scale(0.1 -0.1)">
       <defs>
        <path id="ArialMT-35" d="M 266 1200 
L 856 1250 
Q 922 819 1161 601 
Q 1400 384 1738 384 
Q 2144 384 2425 690 
Q 2706 997 2706 1503 
Q 2706 1984 2436 2262 
Q 2166 2541 1728 2541 
Q 1456 2541 1237 2417 
Q 1019 2294 894 2097 
L 366 2166 
L 809 4519 
L 3088 4519 
L 3088 3981 
L 1259 3981 
L 1013 2750 
Q 1425 3038 1878 3038 
Q 2478 3038 2890 2622 
Q 3303 2206 3303 1553 
Q 3303 931 2941 478 
Q 2500 -78 1738 -78 
Q 1113 -78 717 272 
Q 322 622 266 1200 
z
" transform="scale(0.015625)"/>
       </defs>
       <use xlink:href="#ArialMT-32"/>
       <use xlink:href="#ArialMT-2e" x="55.615234"/>
       <use xlink:href="#ArialMT-35" x="83.398438"/>
      </g>
     </g>
    </g>
    <g id="xtick_3">
     <g id="line2d_3">
      <g>
       <use xlink:href="#m20df06ed8e" x="152.208159" y="151.344" style="stroke: #000000; stroke-width: 0.8"/>
      </g>
     </g>
     <g id="text_3">
      <!-- 3.0 -->
      <g transform="translate(145.258159 165.501813)scale(0.1 -0.1)">
       <defs>
        <path id="ArialMT-33" d="M 269 1209 
L 831 1284 
Q 928 806 1161 595 
Q 1394 384 1728 384 
Q 2125 384 2398 659 
Q 2672 934 2672 1341 
Q 2672 1728 2419 1979 
Q 2166 2231 1775 2231 
Q 1616 2231 1378 2169 
L 1441 2663 
Q 1497 2656 1531 2656 
Q 1891 2656 2178 2843 
Q 2466 3031 2466 3422 
Q 2466 3731 2256 3934 
Q 2047 4138 1716 4138 
Q 1388 4138 1169 3931 
Q 950 3725 888 3313 
L 325 3413 
Q 428 3978 793 4289 
Q 1159 4600 1703 4600 
Q 2078 4600 2393 4439 
Q 2709 4278 2876 4000 
Q 3044 3722 3044 3409 
Q 3044 3113 2884 2869 
Q 2725 2625 2413 2481 
Q 2819 2388 3044 2092 
Q 3269 1797 3269 1353 
Q 3269 753 2831 336 
Q 2394 -81 1725 -81 
Q 1122 -81 723 278 
Q 325 638 269 1209 
z
" transform="scale(0.015625)"/>
       </defs>
       <use xlink:href="#ArialMT-33"/>
       <use xlink:href="#ArialMT-2e" x="55.615234"/>
       <use xlink:href="#ArialMT-30" x="83.398438"/>
      </g>
     </g>
    </g>
    <g id="xtick_4">
     <g id="line2d_4">
      <g>
       <use xlink:href="#m20df06ed8e" x="201.478583" y="151.344" style="stroke: #000000; stroke-width: 0.8"/>
      </g>
     </g>
     <g id="text_4">
      <!-- 3.5 -->
      <g transform="translate(194.528583 165.501813)scale(0.1 -0.1)">
       <use xlink:href="#ArialMT-33"/>
       <use xlink:href="#ArialMT-2e" x="55.615234"/>
       <use xlink:href="#ArialMT-35" x="83.398438"/>
      </g>
     </g>
    </g>
    <g id="xtick_5">
     <g id="line2d_5">
      <g>
       <use xlink:href="#m20df06ed8e" x="250.749008" y="151.344" style="stroke: #000000; stroke-width: 0.8"/>
      </g>
     </g>
     <g id="text_5">
      <!-- 4.0 -->
      <g transform="translate(243.799008 165.501813)scale(0.1 -0.1)">
       <defs>
        <path id="ArialMT-34" d="M 2069 0 
L 2069 1097 
L 81 1097 
L 81 1613 
L 2172 4581 
L 2631 4581 
L 2631 1613 
L 3250 1613 
L 3250 1097 
L 2631 1097 
L 2631 0 
L 2069 0 
z
M 2069 1613 
L 2069 3678 
L 634 1613 
L 2069 1613 
z
" transform="scale(0.015625)"/>
       </defs>
       <use xlink:href="#ArialMT-34"/>
       <use xlink:href="#ArialMT-2e" x="55.615234"/>
       <use xlink:href="#ArialMT-30" x="83.398438"/>
      </g>
     </g>
    </g>
    <g id="text_6">
     <!-- Log. Neural units number -->
     <g transform="translate(97.084844 178.647125)scale(0.1 -0.1)">
      <defs>
       <path id="ArialMT-4c" d="M 469 0 
L 469 4581 
L 1075 4581 
L 1075 541 
L 3331 541 
L 3331 0 
L 469 0 
z
" transform="scale(0.015625)"/>
       <path id="ArialMT-6f" d="M 213 1659 
Q 213 2581 725 3025 
Q 1153 3394 1769 3394 
Q 2453 3394 2887 2945 
Q 3322 2497 3322 1706 
Q 3322 1066 3130 698 
Q 2938 331 2570 128 
Q 2203 -75 1769 -75 
Q 1072 -75 642 372 
Q 213 819 213 1659 
z
M 791 1659 
Q 791 1022 1069 705 
Q 1347 388 1769 388 
Q 2188 388 2466 706 
Q 2744 1025 2744 1678 
Q 2744 2294 2464 2611 
Q 2184 2928 1769 2928 
Q 1347 2928 1069 2612 
Q 791 2297 791 1659 
z
" transform="scale(0.015625)"/>
       <path id="ArialMT-67" d="M 319 -275 
L 866 -356 
Q 900 -609 1056 -725 
Q 1266 -881 1628 -881 
Q 2019 -881 2231 -725 
Q 2444 -569 2519 -288 
Q 2563 -116 2559 434 
Q 2191 0 1641 0 
Q 956 0 581 494 
Q 206 988 206 1678 
Q 206 2153 378 2554 
Q 550 2956 876 3175 
Q 1203 3394 1644 3394 
Q 2231 3394 2613 2919 
L 2613 3319 
L 3131 3319 
L 3131 450 
Q 3131 -325 2973 -648 
Q 2816 -972 2473 -1159 
Q 2131 -1347 1631 -1347 
Q 1038 -1347 672 -1080 
Q 306 -813 319 -275 
z
M 784 1719 
Q 784 1066 1043 766 
Q 1303 466 1694 466 
Q 2081 466 2343 764 
Q 2606 1063 2606 1700 
Q 2606 2309 2336 2618 
Q 2066 2928 1684 2928 
Q 1309 2928 1046 2623 
Q 784 2319 784 1719 
z
" transform="scale(0.015625)"/>
       <path id="ArialMT-20" transform="scale(0.015625)"/>
       <path id="ArialMT-4e" d="M 488 0 
L 488 4581 
L 1109 4581 
L 3516 984 
L 3516 4581 
L 4097 4581 
L 4097 0 
L 3475 0 
L 1069 3600 
L 1069 0 
L 488 0 
z
" transform="scale(0.015625)"/>
       <path id="ArialMT-65" d="M 2694 1069 
L 3275 997 
Q 3138 488 2766 206 
Q 2394 -75 1816 -75 
Q 1088 -75 661 373 
Q 234 822 234 1631 
Q 234 2469 665 2931 
Q 1097 3394 1784 3394 
Q 2450 3394 2872 2941 
Q 3294 2488 3294 1666 
Q 3294 1616 3291 1516 
L 816 1516 
Q 847 969 1125 678 
Q 1403 388 1819 388 
Q 2128 388 2347 550 
Q 2566 713 2694 1069 
z
M 847 1978 
L 2700 1978 
Q 2663 2397 2488 2606 
Q 2219 2931 1791 2931 
Q 1403 2931 1139 2672 
Q 875 2413 847 1978 
z
" transform="scale(0.015625)"/>
       <path id="ArialMT-75" d="M 2597 0 
L 2597 488 
Q 2209 -75 1544 -75 
Q 1250 -75 995 37 
Q 741 150 617 320 
Q 494 491 444 738 
Q 409 903 409 1263 
L 409 3319 
L 972 3319 
L 972 1478 
Q 972 1038 1006 884 
Q 1059 663 1231 536 
Q 1403 409 1656 409 
Q 1909 409 2131 539 
Q 2353 669 2445 892 
Q 2538 1116 2538 1541 
L 2538 3319 
L 3100 3319 
L 3100 0 
L 2597 0 
z
" transform="scale(0.015625)"/>
       <path id="ArialMT-72" d="M 416 0 
L 416 3319 
L 922 3319 
L 922 2816 
Q 1116 3169 1280 3281 
Q 1444 3394 1641 3394 
Q 1925 3394 2219 3213 
L 2025 2691 
Q 1819 2813 1613 2813 
Q 1428 2813 1281 2702 
Q 1134 2591 1072 2394 
Q 978 2094 978 1738 
L 978 0 
L 416 0 
z
" transform="scale(0.015625)"/>
       <path id="ArialMT-61" d="M 2588 409 
Q 2275 144 1986 34 
Q 1697 -75 1366 -75 
Q 819 -75 525 192 
Q 231 459 231 875 
Q 231 1119 342 1320 
Q 453 1522 633 1644 
Q 813 1766 1038 1828 
Q 1203 1872 1538 1913 
Q 2219 1994 2541 2106 
Q 2544 2222 2544 2253 
Q 2544 2597 2384 2738 
Q 2169 2928 1744 2928 
Q 1347 2928 1158 2789 
Q 969 2650 878 2297 
L 328 2372 
Q 403 2725 575 2942 
Q 747 3159 1072 3276 
Q 1397 3394 1825 3394 
Q 2250 3394 2515 3294 
Q 2781 3194 2906 3042 
Q 3031 2891 3081 2659 
Q 3109 2516 3109 2141 
L 3109 1391 
Q 3109 606 3145 398 
Q 3181 191 3288 0 
L 2700 0 
Q 2613 175 2588 409 
z
M 2541 1666 
Q 2234 1541 1622 1453 
Q 1275 1403 1131 1340 
Q 988 1278 909 1158 
Q 831 1038 831 891 
Q 831 666 1001 516 
Q 1172 366 1500 366 
Q 1825 366 2078 508 
Q 2331 650 2450 897 
Q 2541 1088 2541 1459 
L 2541 1666 
z
" transform="scale(0.015625)"/>
       <path id="ArialMT-6c" d="M 409 0 
L 409 4581 
L 972 4581 
L 972 0 
L 409 0 
z
" transform="scale(0.015625)"/>
       <path id="ArialMT-6e" d="M 422 0 
L 422 3319 
L 928 3319 
L 928 2847 
Q 1294 3394 1984 3394 
Q 2284 3394 2536 3286 
Q 2788 3178 2913 3003 
Q 3038 2828 3088 2588 
Q 3119 2431 3119 2041 
L 3119 0 
L 2556 0 
L 2556 2019 
Q 2556 2363 2490 2533 
Q 2425 2703 2258 2804 
Q 2091 2906 1866 2906 
Q 1506 2906 1245 2678 
Q 984 2450 984 1813 
L 984 0 
L 422 0 
z
" transform="scale(0.015625)"/>
       <path id="ArialMT-69" d="M 425 3934 
L 425 4581 
L 988 4581 
L 988 3934 
L 425 3934 
z
M 425 0 
L 425 3319 
L 988 3319 
L 988 0 
L 425 0 
z
" transform="scale(0.015625)"/>
       <path id="ArialMT-74" d="M 1650 503 
L 1731 6 
Q 1494 -44 1306 -44 
Q 1000 -44 831 53 
Q 663 150 594 308 
Q 525 466 525 972 
L 525 2881 
L 113 2881 
L 113 3319 
L 525 3319 
L 525 4141 
L 1084 4478 
L 1084 3319 
L 1650 3319 
L 1650 2881 
L 1084 2881 
L 1084 941 
Q 1084 700 1114 631 
Q 1144 563 1211 522 
Q 1278 481 1403 481 
Q 1497 481 1650 503 
z
" transform="scale(0.015625)"/>
       <path id="ArialMT-73" d="M 197 991 
L 753 1078 
Q 800 744 1014 566 
Q 1228 388 1613 388 
Q 2000 388 2187 545 
Q 2375 703 2375 916 
Q 2375 1106 2209 1216 
Q 2094 1291 1634 1406 
Q 1016 1563 777 1677 
Q 538 1791 414 1992 
Q 291 2194 291 2438 
Q 291 2659 392 2848 
Q 494 3038 669 3163 
Q 800 3259 1026 3326 
Q 1253 3394 1513 3394 
Q 1903 3394 2198 3281 
Q 2494 3169 2634 2976 
Q 2775 2784 2828 2463 
L 2278 2388 
Q 2241 2644 2061 2787 
Q 1881 2931 1553 2931 
Q 1166 2931 1000 2803 
Q 834 2675 834 2503 
Q 834 2394 903 2306 
Q 972 2216 1119 2156 
Q 1203 2125 1616 2013 
Q 2213 1853 2448 1751 
Q 2684 1650 2818 1456 
Q 2953 1263 2953 975 
Q 2953 694 2789 445 
Q 2625 197 2315 61 
Q 2006 -75 1616 -75 
Q 969 -75 630 194 
Q 291 463 197 991 
z
" transform="scale(0.015625)"/>
       <path id="ArialMT-6d" d="M 422 0 
L 422 3319 
L 925 3319 
L 925 2853 
Q 1081 3097 1340 3245 
Q 1600 3394 1931 3394 
Q 2300 3394 2536 3241 
Q 2772 3088 2869 2813 
Q 3263 3394 3894 3394 
Q 4388 3394 4653 3120 
Q 4919 2847 4919 2278 
L 4919 0 
L 4359 0 
L 4359 2091 
Q 4359 2428 4304 2576 
Q 4250 2725 4106 2815 
Q 3963 2906 3769 2906 
Q 3419 2906 3187 2673 
Q 2956 2441 2956 1928 
L 2956 0 
L 2394 0 
L 2394 2156 
Q 2394 2531 2256 2718 
Q 2119 2906 1806 2906 
Q 1569 2906 1367 2781 
Q 1166 2656 1075 2415 
Q 984 2175 984 1722 
L 984 0 
L 422 0 
z
" transform="scale(0.015625)"/>
       <path id="ArialMT-62" d="M 941 0 
L 419 0 
L 419 4581 
L 981 4581 
L 981 2947 
Q 1338 3394 1891 3394 
Q 2197 3394 2470 3270 
Q 2744 3147 2920 2923 
Q 3097 2700 3197 2384 
Q 3297 2069 3297 1709 
Q 3297 856 2875 390 
Q 2453 -75 1863 -75 
Q 1275 -75 941 416 
L 941 0 
z
M 934 1684 
Q 934 1088 1097 822 
Q 1363 388 1816 388 
Q 2184 388 2453 708 
Q 2722 1028 2722 1663 
Q 2722 2313 2464 2622 
Q 2206 2931 1841 2931 
Q 1472 2931 1203 2611 
Q 934 2291 934 1684 
z
" transform="scale(0.015625)"/>
      </defs>
      <use xlink:href="#ArialMT-4c"/>
      <use xlink:href="#ArialMT-6f" x="55.615234"/>
      <use xlink:href="#ArialMT-67" x="111.230469"/>
      <use xlink:href="#ArialMT-2e" x="166.845703"/>
      <use xlink:href="#ArialMT-20" x="194.628906"/>
      <use xlink:href="#ArialMT-4e" x="222.412109"/>
      <use xlink:href="#ArialMT-65" x="294.628906"/>
      <use xlink:href="#ArialMT-75" x="350.244141"/>
      <use xlink:href="#ArialMT-72" x="405.859375"/>
      <use xlink:href="#ArialMT-61" x="439.160156"/>
      <use xlink:href="#ArialMT-6c" x="494.775391"/>
      <use xlink:href="#ArialMT-20" x="516.992188"/>
      <use xlink:href="#ArialMT-75" x="544.775391"/>
      <use xlink:href="#ArialMT-6e" x="600.390625"/>
      <use xlink:href="#ArialMT-69" x="656.005859"/>
      <use xlink:href="#ArialMT-74" x="678.222656"/>
      <use xlink:href="#ArialMT-73" x="706.005859"/>
      <use xlink:href="#ArialMT-20" x="756.005859"/>
      <use xlink:href="#ArialMT-6e" x="783.789062"/>
      <use xlink:href="#ArialMT-75" x="839.404297"/>
      <use xlink:href="#ArialMT-6d" x="895.019531"/>
      <use xlink:href="#ArialMT-62" x="978.320312"/>
      <use xlink:href="#ArialMT-65" x="1033.935547"/>
      <use xlink:href="#ArialMT-72" x="1089.550781"/>
     </g>
    </g>
   </g>
   <g id="matplotlib.axis_2">
    <g id="ytick_1">
     <g id="line2d_6">
      <defs>
       <path id="m7b5eb1d2c2" d="M 0 0 
L -3.5 0 
" style="stroke: #000000; stroke-width: 0.8"/>
      </defs>
      <g>
       <use xlink:href="#m7b5eb1d2c2" x="47.203125" y="146.997248" style="stroke: #000000; stroke-width: 0.8"/>
      </g>
     </g>
     <g id="text_7">
      <!-- 1.5 -->
      <g transform="translate(20.4625 150.576155)scale(0.1 -0.1)">
       <defs>
        <path id="ArialMT-2212" d="M 3381 1997 
L 356 1997 
L 356 2522 
L 3381 2522 
L 3381 1997 
z
" transform="scale(0.015625)"/>
        <path id="ArialMT-31" d="M 2384 0 
L 1822 0 
L 1822 3584 
Q 1619 3391 1289 3197 
Q 959 3003 697 2906 
L 697 3450 
Q 1169 3672 1522 3987 
Q 1875 4303 2022 4600 
L 2384 4600 
L 2384 0 
z
" transform="scale(0.015625)"/>
       </defs>
       <use xlink:href="#ArialMT-2212"/>
       <use xlink:href="#ArialMT-31" x="58.398438"/>
       <use xlink:href="#ArialMT-2e" x="114.013672"/>
       <use xlink:href="#ArialMT-35" x="141.796875"/>
      </g>
     </g>
    </g>
    <g id="ytick_2">
     <g id="line2d_7">
      <g>
       <use xlink:href="#m7b5eb1d2c2" x="47.203125" y="120.186415" style="stroke: #000000; stroke-width: 0.8"/>
      </g>
     </g>
     <g id="text_8">
      <!-- 1.0 -->
      <g transform="translate(20.4625 123.765321)scale(0.1 -0.1)">
       <use xlink:href="#ArialMT-2212"/>
       <use xlink:href="#ArialMT-31" x="58.398438"/>
       <use xlink:href="#ArialMT-2e" x="114.013672"/>
       <use xlink:href="#ArialMT-30" x="141.796875"/>
      </g>
     </g>
    </g>
    <g id="ytick_3">
     <g id="line2d_8">
      <g>
       <use xlink:href="#m7b5eb1d2c2" x="47.203125" y="93.375582" style="stroke: #000000; stroke-width: 0.8"/>
      </g>
     </g>
     <g id="text_9">
      <!-- 0.5 -->
      <g transform="translate(20.4625 96.954488)scale(0.1 -0.1)">
       <use xlink:href="#ArialMT-2212"/>
       <use xlink:href="#ArialMT-30" x="58.398438"/>
       <use xlink:href="#ArialMT-2e" x="114.013672"/>
       <use xlink:href="#ArialMT-35" x="141.796875"/>
      </g>
     </g>
    </g>
    <g id="ytick_4">
     <g id="line2d_9">
      <g>
       <use xlink:href="#m7b5eb1d2c2" x="47.203125" y="66.564749" style="stroke: #000000; stroke-width: 0.8"/>
      </g>
     </g>
     <g id="text_10">
      <!-- 0.0 -->
      <g transform="translate(26.303125 70.143655)scale(0.1 -0.1)">
       <use xlink:href="#ArialMT-30"/>
       <use xlink:href="#ArialMT-2e" x="55.615234"/>
       <use xlink:href="#ArialMT-30" x="83.398438"/>
      </g>
     </g>
    </g>
    <g id="ytick_5">
     <g id="line2d_10">
      <g>
       <use xlink:href="#m7b5eb1d2c2" x="47.203125" y="39.753915" style="stroke: #000000; stroke-width: 0.8"/>
      </g>
     </g>
     <g id="text_11">
      <!-- 0.5 -->
      <g transform="translate(26.303125 43.332822)scale(0.1 -0.1)">
       <use xlink:href="#ArialMT-30"/>
       <use xlink:href="#ArialMT-2e" x="55.615234"/>
       <use xlink:href="#ArialMT-35" x="83.398438"/>
      </g>
     </g>
    </g>
    <g id="ytick_6">
     <g id="line2d_11">
      <g>
       <use xlink:href="#m7b5eb1d2c2" x="47.203125" y="12.943082" style="stroke: #000000; stroke-width: 0.8"/>
      </g>
     </g>
     <g id="text_12">
      <!-- 1.0 -->
      <g transform="translate(26.303125 16.521988)scale(0.1 -0.1)">
       <use xlink:href="#ArialMT-31"/>
       <use xlink:href="#ArialMT-2e" x="55.615234"/>
       <use xlink:href="#ArialMT-30" x="83.398438"/>
      </g>
     </g>
    </g>
    <g id="text_13">
     <!-- Log. Dispersion rate -->
     <g transform="translate(14.357813 124.014969)rotate(-90)scale(0.1 -0.1)">
      <defs>
       <path id="ArialMT-44" d="M 494 0 
L 494 4581 
L 2072 4581 
Q 2606 4581 2888 4516 
Q 3281 4425 3559 4188 
Q 3922 3881 4101 3404 
Q 4281 2928 4281 2316 
Q 4281 1794 4159 1391 
Q 4038 988 3847 723 
Q 3656 459 3429 307 
Q 3203 156 2883 78 
Q 2563 0 2147 0 
L 494 0 
z
M 1100 541 
L 2078 541 
Q 2531 541 2789 625 
Q 3047 709 3200 863 
Q 3416 1078 3536 1442 
Q 3656 1806 3656 2325 
Q 3656 3044 3420 3430 
Q 3184 3816 2847 3947 
Q 2603 4041 2063 4041 
L 1100 4041 
L 1100 541 
z
" transform="scale(0.015625)"/>
       <path id="ArialMT-70" d="M 422 -1272 
L 422 3319 
L 934 3319 
L 934 2888 
Q 1116 3141 1344 3267 
Q 1572 3394 1897 3394 
Q 2322 3394 2647 3175 
Q 2972 2956 3137 2557 
Q 3303 2159 3303 1684 
Q 3303 1175 3120 767 
Q 2938 359 2589 142 
Q 2241 -75 1856 -75 
Q 1575 -75 1351 44 
Q 1128 163 984 344 
L 984 -1272 
L 422 -1272 
z
M 931 1641 
Q 931 1000 1190 694 
Q 1450 388 1819 388 
Q 2194 388 2461 705 
Q 2728 1022 2728 1688 
Q 2728 2322 2467 2637 
Q 2206 2953 1844 2953 
Q 1484 2953 1207 2617 
Q 931 2281 931 1641 
z
" transform="scale(0.015625)"/>
      </defs>
      <use xlink:href="#ArialMT-4c"/>
      <use xlink:href="#ArialMT-6f" x="55.615234"/>
      <use xlink:href="#ArialMT-67" x="111.230469"/>
      <use xlink:href="#ArialMT-2e" x="166.845703"/>
      <use xlink:href="#ArialMT-20" x="194.628906"/>
      <use xlink:href="#ArialMT-44" x="222.412109"/>
      <use xlink:href="#ArialMT-69" x="294.628906"/>
      <use xlink:href="#ArialMT-73" x="316.845703"/>
      <use xlink:href="#ArialMT-70" x="366.845703"/>
      <use xlink:href="#ArialMT-65" x="422.460938"/>
      <use xlink:href="#ArialMT-72" x="478.076172"/>
      <use xlink:href="#ArialMT-73" x="511.376953"/>
      <use xlink:href="#ArialMT-69" x="561.376953"/>
      <use xlink:href="#ArialMT-6f" x="583.59375"/>
      <use xlink:href="#ArialMT-6e" x="639.208984"/>
      <use xlink:href="#ArialMT-20" x="694.824219"/>
      <use xlink:href="#ArialMT-72" x="722.607422"/>
      <use xlink:href="#ArialMT-61" x="755.908203"/>
      <use xlink:href="#ArialMT-74" x="811.523438"/>
      <use xlink:href="#ArialMT-65" x="839.306641"/>
     </g>
    </g>
   </g>
   <g id="line2d_12">
    <path d="M 64.231871 30.84681 
L 67.864167 32.823348 
L 71.496463 34.799887 
L 75.128759 36.776425 
L 78.761055 38.752963 
L 82.393351 40.729502 
L 86.025647 42.70604 
L 89.657943 44.682578 
L 93.290239 46.659117 
L 96.922535 48.635655 
L 100.554832 50.612194 
L 104.187128 52.588732 
L 107.819424 54.56527 
L 111.45172 56.541809 
L 115.084016 58.518347 
L 118.716312 60.494885 
L 122.348608 62.471424 
L 125.980904 64.447962 
L 129.6132 66.424501 
L 133.245496 68.401039 
L 136.877793 70.377577 
L 140.510089 72.354116 
L 144.142385 74.330654 
L 147.774681 76.307192 
L 151.406977 78.283731 
L 155.039273 80.260269 
L 158.671569 82.236808 
L 162.303865 84.213346 
L 165.936161 86.189884 
L 169.568457 88.166423 
L 173.200754 90.142961 
L 176.83305 92.119499 
L 180.465346 94.096038 
L 184.097642 96.072576 
L 187.729938 98.049115 
L 191.362234 100.025653 
L 194.99453 102.002191 
L 198.626826 103.97873 
L 202.259122 105.955268 
L 205.891418 107.931806 
L 209.523715 109.908345 
L 213.156011 111.884883 
L 216.788307 113.861422 
L 220.420603 115.83796 
L 224.052899 117.814498 
L 227.685195 119.791037 
L 231.317491 121.767575 
L 234.949787 123.744113 
L 238.582083 125.720652 
L 242.214379 127.69719 
" clip-path="url(#peead7dc9ec)" style="fill: none; stroke-dasharray: 5.55,2.4; stroke-dashoffset: 0; stroke: #000000; stroke-width: 1.5"/>
   </g>
   <g id="LineCollection_1">
    <path d="M 60.536589 15.890603 
L 67.927152 15.890603 
" clip-path="url(#peead7dc9ec)" style="fill: none; stroke: #444444; stroke-width: 1.5"/>
    <path d="M 90.20034 33.027405 
L 97.590904 33.027405 
" clip-path="url(#peead7dc9ec)" style="fill: none; stroke: #444444; stroke-width: 1.5"/>
    <path d="M 119.864092 47.324913 
L 127.254655 47.324913 
" clip-path="url(#peead7dc9ec)" style="fill: none; stroke: #444444; stroke-width: 1.5"/>
    <path d="M 149.527843 73.939214 
L 156.918407 73.939214 
" clip-path="url(#peead7dc9ec)" style="fill: none; stroke: #444444; stroke-width: 1.5"/>
    <path d="M 179.191595 99.84961 
L 186.582158 99.84961 
" clip-path="url(#peead7dc9ec)" style="fill: none; stroke: #444444; stroke-width: 1.5"/>
    <path d="M 208.855346 115.736729 
L 216.24591 115.736729 
" clip-path="url(#peead7dc9ec)" style="fill: none; stroke: #444444; stroke-width: 1.5"/>
    <path d="M 238.519098 129.455704 
L 245.909661 129.455704 
" clip-path="url(#peead7dc9ec)" style="fill: none; stroke: #444444; stroke-width: 1.5"/>
   </g>
   <g id="LineCollection_2">
    <path d="M 60.536589 28.426497 
L 67.927152 28.426497 
" clip-path="url(#peead7dc9ec)" style="fill: none; stroke: #444444; stroke-width: 1.5"/>
    <path d="M 90.20034 45.098399 
L 97.590904 45.098399 
" clip-path="url(#peead7dc9ec)" style="fill: none; stroke: #444444; stroke-width: 1.5"/>
    <path d="M 119.864092 57.771387 
L 127.254655 57.771387 
" clip-path="url(#peead7dc9ec)" style="fill: none; stroke: #444444; stroke-width: 1.5"/>
    <path d="M 149.527843 82.585798 
L 156.918407 82.585798 
" clip-path="url(#peead7dc9ec)" style="fill: none; stroke: #444444; stroke-width: 1.5"/>
    <path d="M 179.191595 113.805251 
L 186.582158 113.805251 
" clip-path="url(#peead7dc9ec)" style="fill: none; stroke: #444444; stroke-width: 1.5"/>
    <path d="M 208.855346 127.63668 
L 216.24591 127.63668 
" clip-path="url(#peead7dc9ec)" style="fill: none; stroke: #444444; stroke-width: 1.5"/>
    <path d="M 238.519098 143.443987 
L 245.909661 143.443987 
" clip-path="url(#peead7dc9ec)" style="fill: none; stroke: #444444; stroke-width: 1.5"/>
   </g>
   <g id="LineCollection_3">
    <path d="M 64.231871 28.426497 
L 64.231871 15.890603 
" clip-path="url(#peead7dc9ec)" style="fill: none; stroke: #444444; stroke-width: 1.5"/>
    <path d="M 93.895622 45.098399 
L 93.895622 33.027405 
" clip-path="url(#peead7dc9ec)" style="fill: none; stroke: #444444; stroke-width: 1.5"/>
    <path d="M 123.559374 57.771387 
L 123.559374 47.324913 
" clip-path="url(#peead7dc9ec)" style="fill: none; stroke: #444444; stroke-width: 1.5"/>
    <path d="M 153.223125 82.585798 
L 153.223125 73.939214 
" clip-path="url(#peead7dc9ec)" style="fill: none; stroke: #444444; stroke-width: 1.5"/>
    <path d="M 182.886876 113.805251 
L 182.886876 99.84961 
" clip-path="url(#peead7dc9ec)" style="fill: none; stroke: #444444; stroke-width: 1.5"/>
    <path d="M 212.550628 127.63668 
L 212.550628 115.736729 
" clip-path="url(#peead7dc9ec)" style="fill: none; stroke: #444444; stroke-width: 1.5"/>
    <path d="M 242.214379 143.443987 
L 242.214379 129.455704 
" clip-path="url(#peead7dc9ec)" style="fill: none; stroke: #444444; stroke-width: 1.5"/>
   </g>
   <g id="LineCollection_4">
    <path d="M 60.536589 21.766217 
L 67.927152 21.766217 
" clip-path="url(#peead7dc9ec)" style="fill: none; stroke: #444444; stroke-width: 1.5"/>
    <path d="M 90.20034 38.45293 
L 97.590904 38.45293 
" clip-path="url(#peead7dc9ec)" style="fill: none; stroke: #444444; stroke-width: 1.5"/>
    <path d="M 119.864092 53.001538 
L 127.254655 53.001538 
" clip-path="url(#peead7dc9ec)" style="fill: none; stroke: #444444; stroke-width: 1.5"/>
    <path d="M 149.527843 79.161157 
L 156.918407 79.161157 
" clip-path="url(#peead7dc9ec)" style="fill: none; stroke: #444444; stroke-width: 1.5"/>
    <path d="M 179.191595 106.741168 
L 186.582158 106.741168 
" clip-path="url(#peead7dc9ec)" style="fill: none; stroke: #444444; stroke-width: 1.5"/>
    <path d="M 208.855346 119.593937 
L 216.24591 119.593937 
" clip-path="url(#peead7dc9ec)" style="fill: none; stroke: #444444; stroke-width: 1.5"/>
    <path d="M 238.519098 135.854888 
L 245.909661 135.854888 
" clip-path="url(#peead7dc9ec)" style="fill: none; stroke: #444444; stroke-width: 1.5"/>
   </g>
   <g id="patch_3">
    <path d="M 47.203125 151.344 
L 47.203125 7.2 
" style="fill: none; stroke: #000000; stroke-width: 0.8; stroke-linejoin: miter; stroke-linecap: square"/>
   </g>
   <g id="patch_4">
    <path d="M 259.243125 151.344 
L 259.243125 7.2 
" style="fill: none; stroke: #000000; stroke-width: 0.8; stroke-linejoin: miter; stroke-linecap: square"/>
   </g>
   <g id="patch_5">
    <path d="M 47.203125 151.344 
L 259.243125 151.344 
" style="fill: none; stroke: #000000; stroke-width: 0.8; stroke-linejoin: miter; stroke-linecap: square"/>
   </g>
   <g id="patch_6">
    <path d="M 47.203125 7.2 
L 259.243125 7.2 
" style="fill: none; stroke: #000000; stroke-width: 0.8; stroke-linejoin: miter; stroke-linecap: square"/>
   </g>
  </g>
 </g>
 <defs>
  <clipPath id="peead7dc9ec">
   <rect x="47.203125" y="7.2" width="212.04" height="144.144"/>
  </clipPath>
 </defs>
</svg>
